<svg xmlns="http://www.w3.org/2000/svg" xmlns:xlink="http://www.w3.org/1999/xlink" width="271.083" height="194.911" viewBox="0 0 271.083 194.911">
  <defs>
    <clipPath id="clip-path">
      <path id="Path_594" data-name="Path 594" d="M170.555,288.52c-.626-5.9-4.464-12.479-16.934-16.824-3.4-1.183-7.13.156-7.13-3.958s4.354-3.13,6.239-3.959,5.715-2.943,7.13-6.927,4.034-11.383,5.347-12.865c-.351-2.716-2.844-9.085-3.565-10.886s-2.317-6.334,0-8.907,5.295-.664,7.13,0,4.421,1.82,5.347.99,4.227-3.546,5.347-4.788c.675-.748,1.662-4.072,3.565-3.951s13.369,0,13.369,0,.391-6.6,3.565-6.6,3.177,5.383,3.565,6.433H353.259s-.266,1.764.891,1.979,33.421,0,33.421,0v-1.484h3.119s.059-4.363,1.782-4.453,7.3-.682,10.695,4.948c.4.66,0,2.969,0,2.969h11.14s1.752.141,1.752,10.886-1.56,10.886-2.2,10.886h-9.8v7.917h-.891v3.959s4.456-.664,4.456,2.969-2.82,5.989-4.456,5.938c0,2.33-.706,4.558-1.783,4.558H388.908v3.359H319.392s-6.538,1.095-10.695,5.938c-.985,1.147-10.194,2.4-8.912,33.648.081,1.988-20.239,7.917-32.085,7.917a154.05,154.05,0,0,1-27.628-2.969c-1.52-.446-6.054,1.174-7.13,2.969s-7.781,4.632-6.239,17.814c.236,2.022-7.13,21.3-7.13,30.679,0,1.626-2.756,14.723-.891,17.814s1.367,7.107,0,7.917-.884,9.655-.891,11.876-55.644-4.6-57.93-3.959c-.668.187-.891-2.969-.891-2.969a7.341,7.341,0,0,1-5.793,2.969c-3.8,0-5.6-3.259-5.793-5.938-.075-1.041,0-3.959,0-3.959s-1.708.937-1.783-1.979-1.02-13.018-.43-16.824S172.241,304.412,170.555,288.52ZM153.176,390.948a3.722,3.722,0,1,1-4.011,3.711A3.871,3.871,0,0,1,153.176,390.948Zm143.935-95.005A19.378,19.378,0,0,0,292.281,283a15.7,15.7,0,0,0-11.658-5.363H251.75a14.515,14.515,0,0,0-10.779,4.958,17.917,17.917,0,0,0-4.465,11.969v0c0,10.873,7.938,19.688,17.73,19.688h26.386c9.106,0,16.488-8.2,16.488-18.308ZM166.99,226.72a2.28,2.28,0,0,1-.59,2.911,1.787,1.787,0,0,1-2.686-.088,2.28,2.28,0,0,1,.59-2.912A1.787,1.787,0,0,1,166.99,226.72Z" transform="translate(-144.978 -209.844)" clip-rule="evenodd"/>
    </clipPath>
  </defs>
  <g id="_2nd_amendment" data-name="2nd amendment" transform="translate(-258.302 -351.461)">
    <g id="Group_767" data-name="Group 767" transform="translate(258.302 351.461)">
      <g id="Layer1" transform="translate(0 0)">
        <g id="Group_766" data-name="Group 766">
          <path id="Path_591" data-name="Path 591" d="M228.288,258.189a7.488,7.488,0,0,0,4.456,5.485c0,.346.025,1,.062,1.785a25.217,25.217,0,0,0,6.041,15.989c.494.49.972,1,1.472,1.482,4.393,4.225,11.209,8.336,12.923,6.433s-6.789-4.668-9.8-10.391c-.734-1.392-4.319-4.975-2.228-20.783C239.51,255.1,228.8,255.265,228.288,258.189Z" transform="translate(-121.608 -190.398)" fill="#d6b900" fill-rule="evenodd"/>
          <path id="Path_592" data-name="Path 592" d="M170.555,288.52c-.626-5.9-4.464-12.479-16.934-16.824-3.4-1.183-7.13.156-7.13-3.958s4.354-3.13,6.239-3.959,5.715-2.943,7.13-6.927,4.034-11.383,5.347-12.865c-.351-2.716-2.844-9.085-3.565-10.886s-2.317-6.334,0-8.907,5.295-.664,7.13,0,4.421,1.82,5.347.99,4.227-3.546,5.347-4.788c.675-.748,1.662-4.072,3.565-3.951s13.369,0,13.369,0,.391-6.6,3.565-6.6,3.177,5.383,3.565,6.433H353.259s-.266,1.764.891,1.979,33.421,0,33.421,0v-1.484h3.119s.059-4.363,1.782-4.453,7.3-.682,10.695,4.948c.4.66,0,2.969,0,2.969h11.14s1.752.141,1.752,10.886-1.56,10.886-2.2,10.886h-9.8v7.917h-.891v3.959s4.456-.664,4.456,2.969-2.82,5.989-4.456,5.938c0,2.33-.706,4.558-1.783,4.558H388.908v3.359H319.392s-6.538,1.095-10.695,5.938c-.985,1.147-10.194,2.4-8.912,33.648.081,1.988-20.239,7.917-32.085,7.917a154.05,154.05,0,0,1-27.628-2.969c-1.52-.446-6.054,1.174-7.13,2.969s-7.781,4.632-6.239,17.814c.236,2.022-7.13,21.3-7.13,30.679,0,1.626-2.756,14.723-.891,17.814s1.367,7.107,0,7.917-.884,9.655-.891,11.876-55.644-4.6-57.93-3.959c-.668.187-.891-2.969-.891-2.969a7.341,7.341,0,0,1-5.793,2.969c-3.8,0-5.6-3.259-5.793-5.938-.075-1.041,0-3.959,0-3.959s-1.708.937-1.783-1.979-1.02-13.018-.43-16.824S172.241,304.412,170.555,288.52ZM153.176,390.948a3.722,3.722,0,1,1-4.011,3.711A3.871,3.871,0,0,1,153.176,390.948Zm143.935-95.005A19.378,19.378,0,0,0,292.281,283a15.7,15.7,0,0,0-11.658-5.363H251.75a14.515,14.515,0,0,0-10.779,4.958,17.917,17.917,0,0,0-4.465,11.969v0c0,10.873,7.938,19.688,17.73,19.688h26.386c9.106,0,16.488-8.2,16.488-18.308ZM166.99,226.72a2.28,2.28,0,0,1-.59,2.911,1.787,1.787,0,0,1-2.686-.088,2.28,2.28,0,0,1,.59-2.912A1.787,1.787,0,0,1,166.99,226.72Z" transform="translate(-144.978 -209.844)" fill="#e5c601" fill-rule="evenodd"/>
          <g id="Group_765" data-name="Group 765" clip-path="url(#clip-path)">
            <path id="Path_593" data-name="Path 593" d="M194.367,363.979a2.4,2.4,0,0,0,2.28-1.874l16.914-63.856a2.932,2.932,0,0,0-.546-2.6c-1.5-1.826-4.062-5.878-2.609-10.824,1.99-6.775,7.646-7.05,8.021-8.412.3-1.1,3.02-13.639,4.057-18.437a1.628,1.628,0,0,0-.25-1.279,1.305,1.305,0,0,0-1.061-.572H195.525a2.578,2.578,0,0,0-1.962.939l-13.954,16.406a1.721,1.721,0,0,0-.4,1.112V277.9L152.4,359.641a3.183,3.183,0,0,0,.308,2.651,2.556,2.556,0,0,0,2.126,1.252Z" transform="translate(-142.939 -190.317)" fill="#ac9607" fill-rule="evenodd"/>
            <g id="Group_761" data-name="Group 761" transform="translate(56.992 57.892)">
              <ellipse id="Ellipse_227" data-name="Ellipse 227" cx="5.125" cy="5.69" rx="5.125" ry="5.69" transform="translate(0)" fill="#796a00"/>
            </g>
            <g id="Group_762" data-name="Group 762" transform="translate(33.264 154.507)">
              <ellipse id="Ellipse_228" data-name="Ellipse 228" cx="5.682" cy="6.309" rx="5.682" ry="6.309" fill="#796a00"/>
            </g>
            <g id="Group_763" data-name="Group 763" transform="translate(74.805 91.774)">
              <ellipse id="Ellipse_229" data-name="Ellipse 229" cx="4.247" cy="4.716" rx="4.247" ry="4.716" transform="translate(0)" fill="#796a00"/>
            </g>
            <g id="Group_764" data-name="Group 764" transform="translate(114.465 60.863)">
              <ellipse id="Ellipse_230" data-name="Ellipse 230" cx="2.346" cy="2.605" rx="2.346" ry="2.605" transform="translate(0)" fill="#796a00"/>
            </g>
          </g>
          <path id="Path_595" data-name="Path 595" d="M170.555,288.52c-.626-5.9-4.464-12.479-16.934-16.824-3.4-1.183-7.13.156-7.13-3.958s4.354-3.13,6.239-3.959,5.715-2.943,7.13-6.927,4.034-11.383,5.347-12.865c-.351-2.716-2.844-9.085-3.565-10.886s-2.317-6.334,0-8.907,5.295-.664,7.13,0,4.421,1.82,5.347.99,4.227-3.546,5.347-4.788c.675-.748,1.662-4.072,3.565-3.951s13.369,0,13.369,0,.391-6.6,3.565-6.6,3.177,5.383,3.565,6.433H353.259s-.266,1.764.891,1.979,33.421,0,33.421,0v-1.484h3.119s.059-4.363,1.782-4.453,7.3-.682,10.695,4.948c.4.66,0,2.969,0,2.969h11.14s1.752.141,1.752,10.886-1.56,10.886-2.2,10.886h-9.8v7.917h-.891v3.959s4.456-.664,4.456,2.969-2.82,5.989-4.456,5.938c0,2.33-.706,4.558-1.783,4.558H388.908v3.359H319.392s-6.538,1.095-10.695,5.938c-.985,1.147-10.194,2.4-8.912,33.648.081,1.988-20.239,7.917-32.085,7.917a154.05,154.05,0,0,1-27.628-2.969c-1.52-.446-6.054,1.174-7.13,2.969s-7.781,4.632-6.239,17.814c.236,2.022-7.13,21.3-7.13,30.679,0,1.626-2.756,14.723-.891,17.814s1.367,7.107,0,7.917-.884,9.655-.891,11.876-55.644-4.6-57.93-3.959c-.668.187-.891-2.969-.891-2.969a7.341,7.341,0,0,1-5.793,2.969c-3.8,0-5.6-3.259-5.793-5.938-.075-1.041,0-3.959,0-3.959s-1.708.937-1.783-1.979-1.02-13.018-.43-16.824S172.241,304.412,170.555,288.52ZM153.176,390.948a3.722,3.722,0,1,1-4.011,3.711A3.871,3.871,0,0,1,153.176,390.948Zm143.935-95.005A19.378,19.378,0,0,0,292.281,283a15.7,15.7,0,0,0-11.658-5.363H251.75a14.515,14.515,0,0,0-10.779,4.958,17.917,17.917,0,0,0-4.465,11.969v0c0,10.873,7.938,19.688,17.73,19.688h26.386c9.106,0,16.488-8.2,16.488-18.308ZM166.99,226.72a2.28,2.28,0,0,1-.59,2.911,1.787,1.787,0,0,1-2.686-.088,2.28,2.28,0,0,1,.59-2.912A1.787,1.787,0,0,1,166.99,226.72Z" transform="translate(-144.978 -209.844)" fill="none" fill-rule="evenodd"/>
        </g>
      </g>
    </g>
  </g>
</svg>
