<svg xmlns="http://www.w3.org/2000/svg" width="316" height="147.153" viewBox="0 0 316 147.153">
  <g id="abortion" transform="translate(-246 -340.756)">
    <g id="Layer1" transform="translate(246 340.756)">
      <g id="Group_977" data-name="Group 977">
        <path id="Path_1363" data-name="Path 1363" d="M638.8,244.525c-7.523,0-19.526-.77-22.179-1.3s-6.828-1.932-8.48-1.3-19.508,3.234-22.831,4.566a18.572,18.572,0,0,1-6.523,1.3c-1.359.17-11.864-.815-13.7,1.957s-9.726,16.063,11.742,21.527,45.668,7.295,48.339,8.48-.545,8.309-2.677,10.178-42.019,8.366-47.54,9.391-8.12,3.911-14.431,6.523c-9.029,3.737-15.761,19.194,7.176,20.222,5.756.258,12.595-3.219,13.7-4.24-9.5,5.3-16.879,8.187-17.613,15.982s7.76,13.941,22.179,6.523c1.263-.65,5.061,2.229,10.437-6.523,8.834-4.545,15.886-3.966,16.96-5.871s30.315-4.7,35.225-6.523,5.337-79.8,2.159-80.235A86.351,86.351,0,0,0,638.8,244.525Z" transform="translate(-336.777 -241.756)" fill="#c7ac00" fill-rule="evenodd"/>
        <g id="test" transform="translate(0 24.571)">
          <path id="Path_1364" data-name="Path 1364" d="M403.971,323.831c5.153-.036,55.93.12,61.644-.978s21.605-4.6,28.05-5.219c32.692-3.151,69.477,4.208,79.583,1.3s16.96-7.436,16.96-18.917-9.652-19.093-25.44-20.222c-32.349-2.314-34.393,6.8-73.712,7.176-16.932.162-24.06-3.888-25.44-3.914-10.2-.19-62.7,4.005-63.927,3.914S401.141,323.851,403.971,323.831Z" transform="translate(-284.27 -279.424)" fill="#c4c4c4" fill-rule="evenodd"/>
          <g id="Group_972" data-name="Group 972" transform="translate(252.824 6.899)">
            <g id="Group_949" data-name="Group 949" transform="translate(16.446 0)">
              <circle id="Ellipse_286" data-name="Ellipse 286" cx="1.443" cy="1.443" r="1.443" transform="translate(0)" fill="rgba(235,235,235,0.19)"/>
            </g>
            <g id="Group_950" data-name="Group 950" transform="translate(21.803 0.376)">
              <circle id="Ellipse_287" data-name="Ellipse 287" cx="1.443" cy="1.443" r="1.443" transform="translate(0)" fill="rgba(235,235,235,0.19)"/>
            </g>
            <g id="Group_951" data-name="Group 951" transform="translate(28.05 1.029)">
              <circle id="Ellipse_288" data-name="Ellipse 288" cx="1.443" cy="1.443" r="1.443" fill="rgba(235,235,235,0.19)"/>
            </g>
            <g id="Group_952" data-name="Group 952" transform="translate(32.892 3.124)">
              <circle id="Ellipse_289" data-name="Ellipse 289" cx="1.443" cy="1.443" r="1.443" transform="translate(0)" fill="rgba(235,235,235,0.19)"/>
            </g>
            <g id="Group_953" data-name="Group 953" transform="translate(38.111 6.247)">
              <circle id="Ellipse_290" data-name="Ellipse 290" cx="1.443" cy="1.443" r="1.443" fill="rgba(235,235,235,0.19)"/>
            </g>
            <g id="Group_954" data-name="Group 954" transform="translate(40.444 11.466)">
              <circle id="Ellipse_291" data-name="Ellipse 291" cx="1.443" cy="1.443" r="1.443" fill="rgba(235,235,235,0.19)"/>
            </g>
            <g id="Group_955" data-name="Group 955" transform="translate(38.625 16.308)">
              <circle id="Ellipse_292" data-name="Ellipse 292" cx="1.443" cy="1.443" r="1.443" transform="translate(0 0)" fill="rgba(235,235,235,0.19)"/>
            </g>
            <g id="Group_956" data-name="Group 956" transform="translate(33.921 19.946)">
              <circle id="Ellipse_293" data-name="Ellipse 293" cx="1.443" cy="1.443" r="1.443" transform="translate(0 0)" fill="rgba(235,235,235,0.19)"/>
            </g>
            <g id="Group_957" data-name="Group 957" transform="translate(31.587 16.032)">
              <circle id="Ellipse_294" data-name="Ellipse 294" cx="1.443" cy="1.443" r="1.443" transform="translate(0 0)" fill="rgba(235,235,235,0.19)"/>
            </g>
            <g id="Group_958" data-name="Group 958" transform="translate(35.363 11.604)">
              <circle id="Ellipse_295" data-name="Ellipse 295" cx="1.443" cy="1.443" r="1.443" transform="translate(0 0)" fill="rgba(235,235,235,0.19)"/>
            </g>
            <g id="Group_959" data-name="Group 959" transform="translate(30.007 11.466)">
              <circle id="Ellipse_296" data-name="Ellipse 296" cx="1.443" cy="1.443" r="1.443" transform="translate(0)" fill="rgba(235,235,235,0.19)"/>
            </g>
            <g id="Group_960" data-name="Group 960" transform="translate(31.035 7.176)">
              <circle id="Ellipse_297" data-name="Ellipse 297" cx="1.443" cy="1.443" r="1.443" transform="translate(0)" fill="rgba(235,235,235,0.19)"/>
            </g>
            <g id="Group_961" data-name="Group 961" transform="translate(25.717 6.247)">
              <circle id="Ellipse_298" data-name="Ellipse 298" cx="1.443" cy="1.443" r="1.443" transform="translate(0)" fill="rgba(235,235,235,0.19)"/>
            </g>
            <g id="Group_962" data-name="Group 962" transform="translate(24.788 11.742)">
              <circle id="Ellipse_299" data-name="Ellipse 299" cx="1.443" cy="1.443" r="1.443" fill="rgba(235,235,235,0.19)"/>
            </g>
            <g id="Group_963" data-name="Group 963" transform="translate(26.093 17.613)">
              <circle id="Ellipse_300" data-name="Ellipse 300" cx="1.443" cy="1.443" r="1.443" transform="translate(0 0)" fill="rgba(235,235,235,0.19)"/>
            </g>
            <g id="Group_964" data-name="Group 964" transform="translate(19.708 11.742)">
              <circle id="Ellipse_301" data-name="Ellipse 301" cx="1.443" cy="1.443" r="1.443" fill="rgba(235,235,235,0.19)"/>
            </g>
            <g id="Group_965" data-name="Group 965" transform="translate(20.222 5.595)">
              <circle id="Ellipse_302" data-name="Ellipse 302" cx="1.443" cy="1.443" r="1.443" transform="translate(0 0)" fill="rgba(235,235,235,0.19)"/>
            </g>
            <g id="Group_966" data-name="Group 966" transform="translate(13.837 5.595)">
              <circle id="Ellipse_303" data-name="Ellipse 303" cx="1.443" cy="1.443" r="1.443" transform="translate(0 0)" fill="rgba(235,235,235,0.19)"/>
            </g>
            <g id="Group_967" data-name="Group 967" transform="translate(8.104 6.899)">
              <circle id="Ellipse_304" data-name="Ellipse 304" cx="1.443" cy="1.443" r="1.443" transform="translate(0 0)" fill="rgba(235,235,235,0.19)"/>
            </g>
            <g id="Group_968" data-name="Group 968" transform="translate(5.219 1.957)">
              <circle id="Ellipse_305" data-name="Ellipse 305" cx="1.443" cy="1.443" r="1.443" fill="rgba(235,235,235,0.19)"/>
            </g>
            <g id="Group_969" data-name="Group 969" transform="translate(0 4.014)">
              <circle id="Ellipse_306" data-name="Ellipse 306" cx="1.443" cy="1.443" r="1.443" fill="rgba(235,235,235,0.19)"/>
            </g>
            <g id="Group_970" data-name="Group 970" transform="translate(14.489 11.742)">
              <circle id="Ellipse_307" data-name="Ellipse 307" cx="1.443" cy="1.443" r="1.443" fill="rgba(235,235,235,0.19)"/>
            </g>
            <g id="Group_971" data-name="Group 971" transform="translate(28.702 21.527)">
              <circle id="Ellipse_308" data-name="Ellipse 308" cx="1.443" cy="1.443" r="1.443" transform="translate(0 0)" fill="rgba(235,235,235,0.19)"/>
            </g>
          </g>
          <path id="Path_1365" data-name="Path 1365" d="M222,313.526c0-9.226,6.18-12.072,13.7-12.072S337.529,292.289,340.722,292s2.973,34.989,2.609,35.878-103.993-1.969-108.938-1.957S222,323.026,222,313.526Z" transform="translate(-222 -283.795)" fill="#434343" fill-rule="evenodd"/>
          <g id="Group_973" data-name="Group 973" transform="matrix(1, -0.015, 0.015, 1, 130.298, 13.431)">
            <path id="Path_1366" data-name="Path 1366" d="M41.571,9.679A9.679,9.679,0,0,0,31.892,0H9.679A9.679,9.679,0,0,0,0,9.679V13.8a9.679,9.679,0,0,0,9.679,9.679H31.892A9.679,9.679,0,0,0,41.571,13.8Z" fill="rgba(214,214,214,0.55)" fill-rule="evenodd"/>
          </g>
          <g id="Group_974" data-name="Group 974" transform="matrix(1, -0.011, 0.011, 1, 145.739, 19.044)">
            <path id="Path_1367" data-name="Path 1367" d="M1.957,1a1,1,0,0,0-1-1h0A.957.957,0,0,0,0,.958v9.124a1,1,0,0,0,1,1H1a.957.957,0,0,0,.958-.958Z" fill="#ac9400" fill-rule="evenodd"/>
          </g>
          <g id="Group_975" data-name="Group 975" transform="matrix(1, -0.011, 0.011, 1, 152.842, 18.919)">
            <path id="Path_1368" data-name="Path 1368" d="M1.957,1a1,1,0,0,0-1-1h0A.958.958,0,0,0,0,.958V10.1a1,1,0,0,0,1,1H1a.958.958,0,0,0,.958-.958Z" fill="#ac9400" fill-rule="evenodd"/>
          </g>
          <g id="Group_976" data-name="Group 976" transform="translate(138.107 19.168) rotate(-0.924)">
            <path id="Path_1369" data-name="Path 1369" d="M24.788.917A.916.916,0,0,0,23.872,0H.917A.916.916,0,0,0,0,.917v9.256a.916.916,0,0,0,.917.917H23.872a.916.916,0,0,0,.917-.917Z" fill="rgba(255,255,255,0.31)" fill-rule="evenodd"/>
          </g>
        </g>
        <path id="Path_1370" data-name="Path 1370" d="M578.3,311.6c5.532-5.532,12.3-11.673,20.222-9.785s24.239,9.453,31.964,16.96,22.237,24.067,26.093,27.4,1.389,61.107,1.3,63.275c-3.361,2.595-13.037-18.292-16.96-23.484s-26.035-26.6-28.05-27.4-3.579-4.152-5.219-5.219-28.124-28.911-30.659-30.659S574.1,315.8,578.3,311.6Z" transform="translate(-344.768 -262.516)" fill="#e5c601" fill-rule="evenodd"/>
      </g>
    </g>
  </g>
</svg>
