<svg xmlns="http://www.w3.org/2000/svg" width="421.1" height="41.1" viewBox="0 0 421.1 41.1">
  <g id="g5" transform="translate(-17.7 -16.3)">
    <g id="g7">
      <path id="path9" d="M17.7,56.6V17H36.3c7.4,0,13,3.5,13,9.9a9.632,9.632,0,0,1-6,8.9c5.7,1.8,7.8,4.9,7.8,8.9,0,8.4-6.6,11.8-14.6,11.8H17.7Zm7.6-23.1h9.2c5,0,7.2-2.4,7.2-5.3v-.1C41.5,24.6,38.8,23,35,23H25.4V33.5Zm0,17H35.5c6.1,0,8-2,8-5.6,0-4.5-4.1-5.5-8.1-5.5H25.3V50.5Z" fill="#334aab"/>
      <path id="path11" d="M84.7,47.1H67.9c-1.2,3.2-2.5,6.3-3.6,9.5H56.4L72.6,16.9h7.8c5.4,13.3,10.7,26.4,16.1,39.7H88.4C87.2,53.5,85.9,50.3,84.7,47.1ZM82.5,41c-2.1-5.3-4.1-10.6-6.1-15.9L70.2,41Z" fill="#334aab"/>
      <path id="path13" d="M104,17h7.6V50.1h20.2v6.5H104Z" fill="#334aab"/>
      <path id="path15" d="M140.1,17h7.6V50.1h20.2v6.5H140.2V17Z" fill="#334aab"/>
      <path id="path17" d="M190.5,16.3c12.9,0,20.3,9.3,20.3,20.4,0,12.5-8.3,20.7-20.4,20.7-12.3,0-20.5-8.4-20.5-20.4v-.1c.1-12,8.1-20.6,20.6-20.6Zm0,35c8.6,0,12.6-7.1,12.6-14.4,0-8.3-5.2-14.3-12.7-14.3-8.7,0-12.7,7.1-12.7,14.1v.1c0,9,5.2,14.5,12.8,14.5Z" fill="#334aab"/>
      <path id="path19" d="M227.7,23.6H215.3V17h32.5v6.6H235.4v33h-7.7v-33Z" fill="#334aab"/>
    </g>
    <g id="g21">
      <path id="path23" d="M266.3,56.6h-7.6V17h16.6c8.1,0,14.5,3.7,14.5,12.3v.1c-.1,9.9-7.5,12.9-15.5,12.9h-8Zm7.2-20.5c5.8,0,8.6-2.3,8.6-6.6,0-4.9-3.9-6.4-8.3-6.4h-7.6v13Z" fill="#f0a236"/>
      <path id="path25" d="M297.8,17h29.6v6.2h-22V33.3h19.7v6.1H305.4V50.3h22.5v6.3H297.8Z" fill="#f0a236"/>
      <path id="path27" d="M352.8,17c12.4,0,19.7,7.7,19.7,20,0,12.5-8.6,19.5-19.8,19.5H337.4V17Zm-7.6,33.2h6.7c8,0,12.7-4.8,12.8-13.2h0c0-9.2-6.1-13.5-13-13.5h-6.5Z" fill="#f0a236"/>
      <path id="path29" d="M382.5,17h7.7V56.6h-7.7Z" fill="#f0a236"/>
      <path id="path31" d="M427,47.1H410.2c-1.2,3.2-2.5,6.3-3.6,9.5h-7.9l16.2-39.7h7.8c5.4,13.3,10.7,26.4,16.1,39.7h-8.1C429.5,53.5,428.3,50.3,427,47.1ZM424.8,41c-2.1-5.3-4.1-10.6-6.1-15.9L412.5,41Z" fill="#f0a236"/>
    </g>
  </g>
</svg>
