<svg xmlns="http://www.w3.org/2000/svg" width="178.453" height="322.751" viewBox="0 0 178.453 322.751">
  <g id="death_penalty" transform="translate(-335.65 -206.636)">
    <g id="chair" transform="translate(336.305 206.636)">
      <g id="chair1" transform="translate(0 0)">
        <g id="Group_805" data-name="Group 805" transform="translate(5.342 225.249)">
          <g id="Group_803" data-name="Group 803" transform="translate(0 48.077)">
            <rect id="Rectangle_55" data-name="Rectangle 55" width="22.258" height="24.929" fill="#3a3a3c"/>
            <path id="Path_872" data-name="Path 872" d="M385.671,517v20.477L383,541.929V517Z" transform="translate(-360.742 -517)" fill="#3a3a3c" fill-rule="evenodd"/>
          </g>
          <g id="Group_804" data-name="Group 804" transform="translate(32.492)">
            <rect id="Rectangle_56" data-name="Rectangle 56" width="104.187" height="13.355" transform="translate(0)" fill="#3a3a3c"/>
          </g>
          <rect id="Rectangle_57" data-name="Rectangle 57" width="21.367" height="24.484" transform="translate(137.108 48.077)" fill="#3a3a3c"/>
        </g>
        <g id="Group_814" data-name="Group 814">
          <g id="Group_806" data-name="Group 806" transform="translate(35.167 15.015)">
            <path id="Path_873" data-name="Path 873" d="M391.5,265H505.015v14.245H391.5V265" transform="translate(-391.5 -265)" fill="#3a3a3c" fill-rule="evenodd"/>
          </g>
          <rect id="Rectangle_58" data-name="Rectangle 58" width="103.73" height="14.245" transform="translate(38.72 151.353)" fill="#3a3a3c"/>
          <path id="Path_874" data-name="Path 874" d="M408,223.864h77.012V391.243H409.781ZM421.355,247.9c0-2.193-.585-6.232,2.226-6.232s2.226,3.925,2.226,6.232v60.541h-4.452Zm48.522,0c0-2.193-.585-6.232,2.226-6.232s2.226,3.925,2.226,6.232v60.541h-4.452Z" transform="translate(-358.143 -211.521)" fill="#3a3a3c" fill-rule="evenodd"/>
          <g id="Group_807" data-name="Group 807" transform="translate(17.361)">
            <path id="Path_875" data-name="Path 875" d="M391.087,248.5H371.5V506.246h20.032Z" transform="translate(-371.5 -248.176)" fill="#3a3a3c" fill-rule="evenodd"/>
            <path id="Path_876" data-name="Path 876" d="M393.5,248.46s1.571-.73,1.709,0,0,14.69,0,14.69V506.206h-1.264S393.5,249.382,393.5,248.46Z" transform="translate(-373.913 -248.136)" fill="#3a3a3c" fill-rule="evenodd"/>
          </g>
          <g id="Group_808" data-name="Group 808" transform="translate(142.021 0)">
            <rect id="Rectangle_59" data-name="Rectangle 59" width="20.016" height="268.753" transform="translate(0 0)" fill="#3a3a3c"/>
          </g>
          <g id="Group_809" data-name="Group 809" transform="translate(141.56 155.805)">
            <rect id="Rectangle_60" data-name="Rectangle 60" width="20.922" height="5.342" fill="#3a3a3c"/>
          </g>
          <g id="Group_810" data-name="Group 810" transform="translate(3.561 157.585)">
            <path id="Path_877" data-name="Path 877" d="M357.781,484.154,356,388h21.367l1.781,96.154Z" transform="translate(-356 -388)" fill="#3a3a3c" fill-rule="evenodd"/>
          </g>
          <g id="Group_811" data-name="Group 811" transform="translate(21.813 156.25)">
            <path id="Path_878" data-name="Path 878" d="M382.732,854.5V955.273L376.5,969.105V854.5Z" transform="translate(-376.5 -854.496)" fill="#3a3a3c" fill-rule="evenodd"/>
          </g>
          <g id="Group_812" data-name="Group 812" transform="translate(3.116 149.342)">
            <path id="Path_879" data-name="Path 879" d="M375.922,798.983l4.452-9.133H358.116L355,798.983Z" transform="translate(-355 -789.851)" fill="#3a3a3c" fill-rule="evenodd"/>
          </g>
          <g id="Group_813" data-name="Group 813" transform="translate(3.116 158.476)">
            <rect id="Rectangle_61" data-name="Rectangle 61" width="21.813" height="5.787" fill="#3a3a3c"/>
          </g>
          <path id="Path_880" data-name="Path 880" d="M352,500H518.488v15.135H425.9s-5.478-3.561-9.793-3.561a25.212,25.212,0,0,0-12.464,3.561H352Z" transform="translate(-352 -241.809)" fill="#3a3a3c" fill-rule="evenodd"/>
          <path id="Path_881" data-name="Path 881" d="M358,495v4.452H517.366L514.7,495Z" transform="translate(-352.658 -241.261)" fill="#3a3a3c" fill-rule="evenodd"/>
          <path id="Path_882" data-name="Path 882" d="M393.945,446.5H499.892V410H393.5Z" transform="translate(-356.552 -231.937)" fill="#3a3a3c" fill-rule="evenodd"/>
        </g>
      </g>
    </g>
    <g id="prisoner" transform="translate(337.315 217.484)">
      <g id="Group_815" data-name="Group 815" transform="translate(74.422 0)">
        <path id="Path_883" data-name="Path 883" d="M456.136,216.271c3.756.207,9.534,1.02,12.058,9a28.619,28.619,0,0,1,.591,15.361c-.268,1.987-3.866,15.229-4.754,16.328-.253.313-.532.643-.28.8s-.253,1.673-.894,1.948-6.1,4.422-8.02,5.11-11.321.688-12.833-.939-4.331-5.248-3.6-7.219,0-4.973.3-7.264-2.658-13.8-2.36-16.913a17.781,17.781,0,0,1,2.452-7.356c.8-1.124,4.583-8.411,6.921-8.479S453.036,216.1,456.136,216.271Z" transform="translate(-436.304 -209.782)" fill="#7c7c7c" fill-rule="evenodd"/>
        <path id="Path_884" data-name="Path 884" d="M456.567,218.511c1.01,0,3.713-.021,4.063-.7s3.052,0,4.373,1.815,3.98,7.9,3.878,11.633.49,2.547.812,1.646-.717-10.7-1.322-12.408a8.751,8.751,0,0,1-.306-1.37l-.543.7s-.692.332-.432-.3,1.084-1.724-.106-2.942c.056,1.041-.345,2-.711,2.1s.831-.951.259-2.326-.716-.957-.859-1.265a32.564,32.564,0,0,0-1.188-3.531c.077.474-.11.55-.242.66s-1.562-1.694-2.97-2.046a3.4,3.4,0,0,0-1.958-.11l-1.167-1.2-1.067.605s-5.765-1.039-6.572-.266-2.458,3.283-3.128,3.437-1.857-.206-2.235.189a7.191,7.191,0,0,0-.86,1.6s-1.479-.006-.37-.746a3.393,3.393,0,0,0-2.129,2.359c-.264.668-1.342,2.092-1.772,3.258s-2.826,3.168-3.4,5.094-.21,7.08-.142,7.648,1.746.981,2.193.413,1.7-8.9,1.426-9.677a2.6,2.6,0,0,1,1.083-2.458c.722-.567,3.386-2.853,4.5-2.75s3.85-1.066,5.362-.756S454.132,218.509,456.567,218.511Z" transform="translate(-436.301 -208.878)" fill="#5a5a5a" fill-rule="evenodd"/>
        <path id="Path_885" data-name="Path 885" d="M457.279,238.146a3.477,3.477,0,0,1,2.628,1.727c.207.6,1.063.242,1.3.742s.481,2.259-.865,2.623-1.849-.218-1.849-.218.733,1.586-1.129,1.6-2.163-1.5-1.562-1.838c-.492.144-3.989-.637-3.268-1.538s1.514-1.346,1.862-1.009C454.76,239.571,455,238.017,457.279,238.146Z" transform="translate(-438.284 -212.473)" fill="#868686" fill-rule="evenodd"/>
      </g>
      <g id="Group_816" data-name="Group 816" transform="translate(63.645 12.445)">
        <path id="Path_886" data-name="Path 886" d="M454.59,223.067c4.186-.039,8.317,1.867,11.781,6.417s5.877,14.878,6.1,17.808,1.123,6.2,1.153,7.577.81,2.751-1.5,3.523c-.552.185-.939.357-.939.357l-.46-1.941s1.863.339,1.749-2.318c-.064-1.475-1.908-6.933-1.7-7.635-.971-.447-3.091-4.355-4-5.007s-6.756-2.644-7.662-3.32-1.392-1.814-2.287-1.724-.728-1.174-2.2-.625-1.98,1.315-3.269,1.367-7.88-.227-11.136,1.321a16.01,16.01,0,0,0-5,3.609l-4.03,5.51s-2.395-1.222-1.223-2.595,5.4-10.294,7.483-12.7C439.575,230.251,446.533,223.141,454.59,223.067Z" transform="translate(-424.706 -223.066)" fill="#444" fill-rule="evenodd"/>
        <path id="Path_887" data-name="Path 887" d="M429.945,254.269c4.41-.3,10.132-2.937,18.109-.774,1.471.4,1.87.375,2.594-.025s4.19-.6,7.059.424,13.266,2.794,14.591,1.322-.12-7.008-1.692-8.879-8.306-7.558-9.354-7.234-3.167,5.163-6.186,5.662c-3.567-.8-6.909-5.113-7.508-6.386s-10.227,1.721-11.275,3.443-6.51,9.677-6.46,11.025S428.845,254.344,429.945,254.269Z" transform="translate(-424.68 -224.91)" fill="#424242" fill-rule="evenodd"/>
        <path id="Path_888" data-name="Path 888" d="M427.454,255.75s5.488-3.373,6.366-6.945.659-4.53-.678-5.727-4.171,2.534-4.211,3.473a9.069,9.069,0,0,1-1.337,3.173c-.259.339-.858.917-1.077,1.257s-.839,3.512-1.357,4.011-1.576,1.8-.958,2.554,3.033,2.913,3.033,2.913l.185-2s-1.292-.918-.941-1.339a.874.874,0,0,1,.957-.164Z" transform="translate(-424.014 -225.496)" fill="#444" fill-rule="evenodd"/>
      </g>
      <path id="Path_889" data-name="Path 889" d="M430.244,265.014c1.648,1.368,9.5,6.279,10.588,6.163s12.533-6,13-5.515,1.482,4.981.765,5.468c1.019-.371,1.181,1.506,1.111,2.016.649-.093,6.9.857,10.078,3.313s11.166,3.359,12.186,4.03,6.186,1.808,8.873,9.406,9.243,17.317,9.57,24.3,5.212,11.619,5.828,12.525a6.779,6.779,0,0,1,.868,2.027s3.545.92,3.715,3.082,5.827,11.553,4.958,14.931c.74,1.159.739,2.748.25,3.062s1.234,5.952-.4,6.162-3.7-2.025-4.655-5.074-2.746-5.121-4.911-4.7-8.077,6.633-9.078,9.217-1.233,3.631-2.234,2.281-3.282-10.614-2.4-12.989-1.49-8.775-2.537-9.869-2.211-2.211-2.7-1.886-.791,1.606-.372,2,3.219,12.218,2.025,15.23-4.944,7.217-6.365,8.524-1.648,3.921-5.171,3.466-.585-1.976-.352-2.837-2.607-2.072-4.144-2.863-2.746-1.955-3.445-1.723a1.671,1.671,0,0,1-2.211-.791c-.629-.442-2.142-1.513-3.4-1.233s-5.737-.443-7.134-.967-9.689-1.076-12.22-.553a23.748,23.748,0,0,1-5.5.32s-4.743.349-6.692,1.339-4.073,1.571-5.7.989-6.808,2.181-8.409,3.52-6.051,4.131-7.768,1.95-3.492-1.979-3.637-4.044.7-5.383.582-7.449-.495-7.8.64-9.747.815-6.837,1.454-8.059a7.238,7.238,0,0,0,.815-3.316c0-.874-.786-1.106-1.28.873a12.776,12.776,0,0,1-3.085,4.887c-.436.291-.261,1.135-.524,2.386s-3,3.928-4.131,4.073-1.92.466-1.571,1.8.058,8.059-.64,8.874a11.735,11.735,0,0,1-2.851,2.618c-.728.262-1.426-.495-1.63.262s-1.135,4.015-2.066,4.626-2.278,2.719-2.8,3.185-3.193,1.444-3.891.222.146.117-.378-3.259-1.92-6.808-3.026-7.157-8.775.224-11.463,3.928a18.749,18.749,0,0,1,.029,2.909s-1.774,1.717-1.774.437-.233-3,.785-4.539-.407-2.3.32-3.724a51.857,51.857,0,0,1,2.88-5.236,14.876,14.876,0,0,0,2.066-4.161c.088-.669-.232-3.2,2.328-4.626a14.649,14.649,0,0,0,3.2-2.124s1.4-6.721,3.579-8.263,4.538-9.542,5.062-10.852,4.888-15.45,6.866-18.65,1.63-5.179,3.026-6.518a12.591,12.591,0,0,0,2.677-3.694c.61-1.193,1.629-3.172,2.676-3.638s6.867-3.782,9.369-4.131A95.283,95.283,0,0,0,420,274.707c2.095-.639,6.4-2.676,7.3-1.978S428.733,263.759,430.244,265.014Z" transform="translate(-353.121 -215.761)" fill="#e5c601" fill-rule="evenodd"/>
      <g id="Group_829" data-name="Group 829" transform="translate(0 115.424)">
        <path id="Path_892" data-name="Path 892" d="M363.352,367.962c-.559,1.105-2.842,2.36-3.374,3.026a13.3,13.3,0,0,1-3.059,2.061c-.9.5-4.317,3.668-4.888,5.719-.223.8-1.038,2.536-.221,2.383s.817.545,1.073-.749c-.222,1.276-.852,2.025.442,2.213s2.963-1.532,3.423-2.792c.766,1.225.936,1.924,2.622,2.043s2.859-1.838,3.149-3.694a1.223,1.223,0,0,1,1.887-1.025s1.272.1,1.433,1.025c.17.97.613,2.366,2.35,2.316a2.285,2.285,0,0,0,1.992-2.895,2.871,2.871,0,0,1,.442-2.026c.17-.51,1.124-2.247,1.124-2.247s3.594.307,4.407-.241c.208,1.135-.322,4.388-.113,4.8s3.461,5.315,4.01,4.01.761-2.545.345-3.112-.244-1.646-.017-2.914,1-2.088.632-3.218c-.707-2.146-.965-1.245-1.287-2.115s.427-2.395.03-2.679-.3-1.086-1.249-3.451-4.257-4.445-6.2-4.01-6.885,1.457-7.566,3.613S363.543,367.585,363.352,367.962Z" transform="translate(-351.454 -342.912)" fill="#7c7c7c" fill-rule="evenodd"/>
        <path id="Path_893" data-name="Path 893" d="M377.916,342.509s6.735-2.913,8.4-1.774.908.993,1.731,1.331,6.883,1.774,9.311,6.84a55,55,0,0,0,8.972,3.843c1.478.464,3.484.654,3.124,2.428s-2.047,1.33-3.737.633-7.221-1.921-8.043-3.167.506-.971-.064-1.794-2.322-1.647-3.716-2.83-4.509-4.3-6.882-5.383C383.455,341.018,377.916,342.509,377.916,342.509Z" transform="translate(-354.705 -340.471)" fill-rule="evenodd"/>
        <path id="Path_894" data-name="Path 894" d="M369.219,353.261a6.762,6.762,0,0,0,2.176-3.677c.441-1.53-.059-3.294,1.706-4.942s6.207-3.5,9.736-2.617,8.088,4.206,8.941,5.5,4.441,2.529,4.412,5.765-1.471,7.235-2.853,8-2.588.589-2.853,1.03-1.265,3.706-2.647,4.412-3.117-.176-3.971.617-.441,2.088-1.176,1.794a2.4,2.4,0,0,1-1.559-1.588c-.118-.706.5-1.912-.118-3.266s-.824-3.735-2.736-4.294-8.206.029-9.413,1.529-2.529,2.118-2.882,3.353-.118,3.323-.559,1.147.235-6.147.676-6.559S365.866,356.526,369.219,353.261Z" transform="translate(-353.153 -340.634)" fill="#e5c601" fill-rule="evenodd"/>
        <path id="Path_895" data-name="Path 895" d="M370.3,360.6c3.233-1.331,8.968-2.954,10.641,1.595s.941,7.948,1.176,8.784.915.21.941,1.831a22.28,22.28,0,0,0,.183,2.667s1.046.366,1.517-2.013.418-7.686-.549-9.831-2.8-10.745-12.027-5.935-11.451,10.275-12.236,12.5-.025,1.2-.025,1.2l4.5-3.687S364.4,363.035,370.3,360.6Z" transform="translate(-352.454 -342.411)" fill="#040404" fill-rule="evenodd"/>
      </g>
      <g id="Group_830" data-name="Group 830" transform="translate(134.547 115.747)">
        <path id="Path_896" data-name="Path 896" d="M514.62,360.113c-.2,2.926-.2,4.269-1.285,5.732-2.94,3.953-4.372,4.052-5.115,5.139a10,10,0,0,0-1.68,5.361c.173,1.754.519,5.041,1.581,4.621s2.421-3.287,2.594-4.422,1.433-3.855,1.038-5.016c1.458,2.792,1.013,4.6,1.458,5.584a4.863,4.863,0,0,0,2.866,2.372c1.186.321,2.891,0,2.347-1.31s.049-1.705.049-1.705a5.188,5.188,0,0,1,.593-2.965c-.124,2.668.568,3.261,1.038,3.73s-.395.84.469,1.656a3.068,3.068,0,0,0,2.619.839c1.088-.025,2.446-1.161,2.2-1.68.914,1.482,1.8,1.458,2.595,1.285s2.224-.371,1.087-4.25c.643,3.212,1.062,3.533,2.544,3.509s3.262-.989,2.422-2.4-1.557-3.409-3.261-5.213-4.349-3.509-4.818-5.263-.84-2.742-1.754-5.336-1.655-3.608-4.6-3.9S514.817,357.247,514.62,360.113Z" transform="translate(-505.054 -342.755)" fill="#7c7c7c" fill-rule="evenodd"/>
        <path id="Path_897" data-name="Path 897" d="M510.093,343.554c1.994-1.433,8.5-4.636,13.219-1.134a27.1,27.1,0,0,1,6.977,6.977c.634.91,1.02,1.985.193,2.592s-1.792,1.241-2.04.248-1.877-5.591-3.667-6.866c-2.013-1.434-5.745-4.42-11.94-.5-.827.524-.024.9-.712,1.022s-2.241-.247-2.665.211-3.111,4.214-3.195,5.4c.071,1.359-1.288-3.124-.353-4.447A20.392,20.392,0,0,1,510.093,343.554Z" transform="translate(-504.938 -340.839)" fill-rule="evenodd"/>
        <path id="Path_898" data-name="Path 898" d="M505.682,358.117c.053-1.357-1.236-2.576-.706-3.6a19.736,19.736,0,0,0,1.638-3.948c.145-.9,1.481-3.885,2.53-4.1s2.548-.65,2.892-.433.09-1.229,1.211-1.41,1.048-1.121,1.626-1.174,6.343-2.1,10.337,2.692,4.373,9.145,3.669,10.645c1.7,1.03,2.4,3.108,1.246,4.011s-.22,3.536-1.1,4.665-3.586-1.411-4.236-3.727-1.524-4.63-3.331-5.336-5.986-.113-6.89,2.513-.96,4.348-2.033,5.308a3.044,3.044,0,0,1-4.546-2.089C507.71,359.646,505.573,360.88,505.682,358.117Z" transform="translate(-504.848 -341.101)" fill="#e5c601" fill-rule="evenodd"/>
        <path id="Path_899" data-name="Path 899" d="M511.4,368.648c-.509-1.581-1.788-4.932-.339-7.04s3.463-5.346,9.826-5.045,8.979,4.556,11.012,8.716,1.939,6.757,1.544,8.056-.433.583-1.13-.772-1.2-5.892-2.767-7.7-7.736-4.33-9.3-5.215-5.968-1.281-7.059,2.278-.113,4.951-.113,4.951S511.9,370.23,511.4,368.648Z" transform="translate(-505.529 -342.768)" fill="#191919" fill-rule="evenodd"/>
      </g>
      <path id="Path_900" data-name="Path 900" d="M414.637,369.542c-.308,1.163.9,1.681.822,2.726s-1.42.038-1.868,1.793-1.606,1.831-.186,2.017c-2.054.224-3.7-.411-3.287.971s.524,1.8-.253,2.01-.994.493-1.181,1.315.411,1.98-1.382,3.249-1.943,1.158-2.316,2.8-1.158,1.345-2.764,2.726-2.578,1.083-3.063,4.146-.112,5.415-.86,6.088-2.39,1.158-2.017,3.174,2.2,2.577,1.2,3.623-6.014,3.138-4.781,6.8.822,4.78-.523,7.544-3.623,9.151-1.606,11.541a21.341,21.341,0,0,1,3.959,7.1c.448,1.681.859,8.328,1.307,10.159s2.876,19.683,7.582,27.266,4.258,17.442,4.557,18.936,2.017.859,2.764.859-1.232,6.573-.448,9.337a50.212,50.212,0,0,0,1.681,4.93s-.971,6.126-2.577,7.433-6.088,5.789-6.461,8.889-5.79,5.266-2.279,8.7,15.65,4.183,18-.411a32.812,32.812,0,0,1,6.237-8.18c.784-.9,2.689-7.433,2.129-10.832s1.009-4.444.149-6.312-1.046-6.125-1.681-7.321a12.747,12.747,0,0,1-1.606-5.528c0-2.129-.9-16.472-1.009-17.853s1.718-6.387.448-9.188a9.548,9.548,0,0,1-1.046-5.416c.075-1.232,1.494-6.536.747-9.076s-1.495-5.379-1.121-6.237-.149-5.379-.971-7.321-.411-4.221-.374-5.491,2.353-1.867,1.531-3.4c1.382.71,3.586-.261,2.652-3.138s.038-3.585.524-4.706,1.643-.075,2.427-1.232.747,0,3.66-1.382a37.3,37.3,0,0,0,5.976-3.436c1.308-.934,4.146-3.324,4.52-4.221s.485-1.644,2.838,1.158,4.594,5.491,6.462,5.827a9.93,9.93,0,0,1,4.444,1.83c1.083.86-.187,2.839-.336,5.379s-3.063,6.312-.635,10.683,2.353,7.4,2.353,7.4-1.644,4.183-1.457,5.379-3.063,11.317-3.623,18.338,1.009,10.234,1.009,10.234.411,15.089-.224,16.173-3.847,2.39-3.212,5.453a6.378,6.378,0,0,1-.673,4.855s-.635,7.769.112,9.3,1.643,4.408,1.307,5.491-3.847,11.466,3.175,14.567,17.106,4.967,17.629-3.959-1.98-13.409-3.586-17.218-3.361-6.948-3.4-7.769,2.24-3.773,1.082-5.865,4.072-13,5.453-14.305,6.387-16.621,6.2-22.335,5.453-12.736,5.715-17.7a24.59,24.59,0,0,1,1.606-7.993s.672-5.6.112-6.386c1.717-1.644,4.893-6.686,4-7.844s-3.809-5.042-3.474-6.947,2.539-5.9,2.5-7.507,1.494-4.071.448-5.976,2.764-6.424,1.12-9-5.415-7.059-5.415-7.059,4.669-6.2,2.913-8.74a5.972,5.972,0,0,0-4.034-2.727s.262-3.436-.485-5.266-8.255-9.3-12.251-9.785-41.944-.971-44.858.822S414.913,368.5,414.637,369.542Z" transform="translate(-356.162 -227.719)" fill="#e5c601" fill-rule="evenodd"/>
      <path id="Path_901" data-name="Path 901" d="M409.7,504.788c3.573,1.368,20.665.758,21.428-2.4s1.76-4.349,2.159-.2,1.726,6.076-1.495,7.536-9.562,2.424-14.11,2.191-7.3-.6-7.7-2.091S409.115,506.407,409.7,504.788Z" transform="translate(-358.577 -244.589)" fill="#060606" fill-rule="evenodd"/>
      <path id="Path_902" data-name="Path 902" d="M469.469,510.069c5.7-.168,9.891-.242,9.995-1.9,2.316,2.421.588,5.914.588,5.914s-22.41,4.738-26.145-.276c-2.94-4.773-1.246-6.848-.416-8.128C455.048,507.336,453.007,510.553,469.469,510.069Z" transform="translate(-363.838 -245.344)" fill="#060606" fill-rule="evenodd"/>
    </g>
    <g id="belt" transform="translate(335.65 258.586)">
      <g id="Group_817" data-name="Group 817" transform="translate(172.313 7.346)">
        <path id="Path_890" data-name="Path 890" d="M546.035,330c.6.695-1.557,4.826-1.509,5.587a6.111,6.111,0,0,0,.5,1.746L540,330.349S544.668,330.2,546.035,330Z" transform="translate(-540 -330)" fill-rule="evenodd"/>
      </g>
      <g id="Group_828" data-name="Group 828" transform="translate(0 0)">
        <g id="Group_818" data-name="Group 818" transform="translate(125.803 7.678)">
          <ellipse id="Ellipse_240" data-name="Ellipse 240" cx="0.545" cy="0.378" rx="0.545" ry="0.378"/>
        </g>
        <g id="Group_819" data-name="Group 819" transform="translate(133.363 7.027)">
          <ellipse id="Ellipse_241" data-name="Ellipse 241" cx="0.545" cy="0.378" rx="0.545" ry="0.378"/>
        </g>
        <g id="Group_820" data-name="Group 820" transform="translate(137.615 6.472)">
          <ellipse id="Ellipse_242" data-name="Ellipse 242" cx="0.545" cy="0.378" rx="0.545" ry="0.378" transform="translate(0)"/>
        </g>
        <g id="Group_821" data-name="Group 821" transform="translate(141.991 6.065)">
          <ellipse id="Ellipse_243" data-name="Ellipse 243" cx="0.545" cy="0.378" rx="0.545" ry="0.378" transform="translate(0 0)"/>
        </g>
        <g id="Group_822" data-name="Group 822" transform="translate(161.822 3.91)">
          <ellipse id="Ellipse_244" data-name="Ellipse 244" cx="0.545" cy="0.378" rx="0.545" ry="0.378"/>
        </g>
        <g id="Group_823" data-name="Group 823" transform="translate(165.124 3.381)">
          <ellipse id="Ellipse_245" data-name="Ellipse 245" cx="0.545" cy="0.378" rx="0.545" ry="0.378" transform="translate(0 0)"/>
        </g>
        <g id="Group_824" data-name="Group 824" transform="translate(168.292 3.099)">
          <ellipse id="Ellipse_246" data-name="Ellipse 246" cx="0.411" cy="0.378" rx="0.411" ry="0.378"/>
        </g>
        <g id="Group_825" data-name="Group 825" transform="translate(170.893 2.784)">
          <ellipse id="Ellipse_247" data-name="Ellipse 247" cx="0.312" cy="0.378" rx="0.312" ry="0.378" transform="translate(0 0)"/>
        </g>
        <g id="Group_826" data-name="Group 826" transform="translate(121.612 8.043)">
          <ellipse id="Ellipse_248" data-name="Ellipse 248" cx="0.501" cy="0.348" rx="0.501" ry="0.348"/>
        </g>
        <g id="Group_827" data-name="Group 827" transform="translate(0 0)">
          <path id="Path_891" data-name="Path 891" d="M448.469,324.731c12.206.246,35.651-.3,67.4-3.492,2.209-.222,22.729-3.047,26.657-1.048s4.527,6.634,4.527,6.634-24.9,1.208-27.16,1.746-51.179,5.276-70.414,4.539-74.869-2.788-80.474-4.888c-.634-3.36-.248-8.572,1.006-8.38C399.86,324.407,432.988,324.42,448.469,324.731Z" transform="translate(-368.701 -319.48)" fill-rule="evenodd"/>
        </g>
      </g>
    </g>
  </g>
</svg>
