<svg id="doctors" xmlns="http://www.w3.org/2000/svg" width="959.582" height="670.581" viewBox="0 0 959.582 670.581">
  <g id="Group_941" data-name="Group 941">
    <g id="Group_932" data-name="Group 932" transform="translate(0 108.239)">
      <path id="Path_1342" data-name="Path 1342" d="M521.219,608.146c3.315,7.342-12.425,30.16-12.123,35.918s-5.3,38.191-1.06,42.434,24.4,21.066,30.915,37.736,3.638,46.223-7.729,52.892-88.808-7.73-96.842-17.733-69.409-90.93-56.83-111.846,28.34-38.494,32.129-41.525,24.673-30.2,42.269-33.814S515.612,595.719,521.219,608.146Z" transform="translate(-222.747 -349.104)" fill="#515151" fill-rule="evenodd"/>
      <g id="Group_929" data-name="Group 929" transform="translate(0 265.03)">
        <path id="Path_1343" data-name="Path 1343" d="M455.584,607.67c7.6-1.56,109.69,63.693,142.841,114.272-.189-27.657,2.224-49.894-16.859-86.572-.6-6.443.857-10.041.857-10.041s67.355,50.9,73.855,55.973c7.77,6.067,25.8,16.767,31.208,24.371s2.977,48.006,2.471,52.3,13.419,34.381,14.841,37.7-12.156,36.94-16.892,44.36-9.991,11.956-9.257,14.5-381.873,12.083-381.873.982-.267-44.795,2.89-50.73-2.271-24.5,2.273-31.574,7.578-11.493,7.326-18.058-5.177-55.695,9.6-64.536S438.858,611.108,455.584,607.67Z" transform="translate(-296.771 -580.661)" fill="#d1b717" fill-rule="evenodd"/>
        <g id="Group_928" data-name="Group 928" transform="translate(164.866)">
          <path id="Path_1344" data-name="Path 1344" d="M396.685,651.6c4.287,7.628,21.385,39.441,21.385,39.441s-9.519,8.747-10.919,14.458-3.18,16.812,11.639,45.479c1.218,2.359,2.394.732,2.394.732s4.788,9.868,5.971,12.505,5.26,12.437,6.934,12.137,31.236,69.131,54.463,84.58c4.287,1.436,3.423-.276,3.423-.276s-16.219-20.582-20.051-26.6-30.981-56.493-32.516-58.681.127-2.394-.321-3.74-12.062-21.975-12.062-21.975,3.843-3.9,2.668-6.367-18.332-28.38-2.543-32.49,15.882,1.867,20.927,7.288,17.657,26.344,20.367,27.466a12.5,12.5,0,0,1,5.7,4.764c1.589,2.148,43.687,93.544,43.22,101.642s-.668,11.583-.668,11.583.98,6.478,2.536-.373,2.044-9.429,1.738-12.387-36.5-97.93-40.423-104.857c-.46-.814.77-2.278.144-4.5s-18.146-34.964-30.512-42.082-20.643-7.829-20.643-7.829-20.731-36.39-24.468-46-13-27.034-14.061-36.161,3.3-5.923,3.563-8.771-5.428-9.252-8.362-5.961-8.537,10.3,1.251,34.324S395.155,648.878,396.685,651.6Z" transform="translate(-381.929 -593.706)" fill="#060606" fill-rule="evenodd"/>
          <path id="Path_1345" data-name="Path 1345" d="M452.929,617.045s16.67,15.676,26.68,27.272,35.113,46.077,38.29,53.228,46.79,101.295,44.368,143.311c-.6,10.341-4.169,15.7-5.163,4.382s-6.07-52.309-24.551-91.754-34.4-73.538-47.956-87.408-33.675-33.316-40.585-41.53C444.012,624.545,441.394,606.2,452.929,617.045Z" transform="translate(-324.059 -575.07)" fill-rule="evenodd"/>
        </g>
      </g>
      <g id="Group_931" data-name="Group 931" transform="translate(151.717)">
        <path id="Path_1346" data-name="Path 1346" d="M451.538,463.983c6.3-1.745,43.466-7.7,48.5-5.949,33.352,11.6,43.5,16.073,62.74,35.724,17.749,18.127,36.253,54.189,38.9,123.482s-.385,74.65-6.108,81.549a168.172,168.172,0,0,0,1.308-21.819s-5.208,15.844-6.873,16.864,3.034,19.387-15.629,38.923-53.3,26.113-59.883,24.839c9.937-3.962,30.545-20.677,30.545-20.677a33.63,33.63,0,0,1-6.041,1.209,9.487,9.487,0,0,0,4.162-5.371s-6.311,3.692-9.465,3.022c3.893-2.083,10.673-15.308,10.673-15.308s-8.863,16.582-22.424,14.03c4.97-2.215,10.071-11.547,10.071-11.547s-9.843,10.341-13.495,10.664c4.082-3.008,6.336-8.917,6.336-8.917s-57.243-44.41-68.432-35.458-19.385,22.343-17.857,25.207,12.985,19.574,26.543,20.719c-13.464,2.2-39.481,2.529-51.082-9.07-2.387-2.387-.571,6.492,3.055,8.688-6.11-2.29-30.982-16.136-36.829-40.364s-7.042-66.595-1.551-80.2,9.691-81.608,26.956-113.408C419.327,475.638,429.5,470.088,451.538,463.983Z" transform="translate(-375.113 -455.963)" fill="#202020" fill-rule="evenodd"/>
        <path id="Path_1347" data-name="Path 1347" d="M401.1,630.987c3.952,5.194,6.674,25.53,11.174,29.718s45.052,51.445,70.3,51.445c16.6,0,31.348-6.906,32.2-9.62s21.8-24.831,25.45-28.866,17.2-14.12,17.6-19.475,19.106-128.485-12.72-150.651-74.827-33.529-91.12-26.9-62.7,65.356-60.053,86.384S394.438,622.229,401.1,630.987Z" transform="translate(-357.64 -440.008)" fill="#585858" fill-rule="evenodd"/>
        <g id="Group_930" data-name="Group 930">
          <path id="Path_1348" data-name="Path 1348" d="M450.138,498.974c8.329-1.1,39.086,15.964,45.5,18.351s22.858,4.993,29.424,23.255,11.412,79.572,12.888,88.435c1.553,9.309-4.056,45.231-8.235,50.484s-10.383,20.407-13.962,22.794c10.024-3.938,15.516-15.277,15.516-15.277s-12.772,24.109-18.976,27.211c10.74-1.074,32.275-27.627,36.043-38.071,1.093-3.034,18.984-39.358,18.306-50.753s-8.008-78.765-15.341-90.223-13.993-50.357-88.756-77.145c-10.362-3.714-55.605.888-48.426,15.553s17.109,22.15,21.233,23.526S444.149,499.768,450.138,498.974Z" transform="translate(-339.37 -456.81)" fill="#2c2c2c" fill-rule="evenodd"/>
          <path id="Path_1349" data-name="Path 1349" d="M444.565,473.984c4.724,8.712,30.986,20.055,28.082,25.554s-33.607,27.192-37.58,35.137-17.414,56.675-14.817,65.077.3,48.272,3.817,52.4c-8.778-5.513-12.309-13.79-12.486-18.884-.42-12.083-7.772,28.51,11.5,40.47.753.465-12.3-2.7-13.828-8.577-8.518-6.263,22.584,39.7,29.716,41.485-11.261.262-30.117-19.291-31.862-24.791-5.383,1.685,25.648,44.256,39.287,46.259-11.365,1.726-37.918-4.547-51.011-33.281s-22.688-51.28-19.7-66.2,10.492-44.929,10.787-53.936,12.371-85.019,31.553-100.362S440.1,465.74,444.565,473.984Z" transform="translate(-375.137 -448.999)" fill="#2c2c2c" fill-rule="evenodd"/>
        </g>
      </g>
    </g>
    <g id="Group_940" data-name="Group 940" transform="translate(360.068)">
      <path id="Path_1350" data-name="Path 1350" d="M709.5,579.43c-3.194,2.614-32.674,34.367-36.161,37.257s-23.476,16.653-30.013,19.767-34.922,24.694-44.36,29.884c-9.909,5.446-18.209,18.327-20.8,28.184s-9.859,23.606-15.046,32.686-15.825,39.172-14.269,51.623-3.111,32.426-6.225,35.8-17.381,20.752-21.012,30.351-21.271,62.518-25.941,67.966-19.716,11.672-9.34,16.6,19.975,2.075,39.95,6.745,45.916,1.036,58.627-7.264,201.562,8.041,225.169,7.264,153.054,9.6,179.512,3.111,92.612-12.97,92.612-28.016,1.036-61.479-4.93-76.008-5.706-23.606-5.706-29.572-2.854-21.271-8.3-36.837-4.667-22.31-5.706-28.8-14.526-47.212-25.941-58.887-103.5-85.864-115.439-96.76-7.746-10.414-12.784-16.937-12.9-22.383-20.457-24.161-13.192-3.114-18.382-3.706S723.477,567.992,709.5,579.43Z" transform="translate(-482.757 -270.968)" fill="#e5c601" fill-rule="evenodd"/>
      <g id="Group_935" data-name="Group 935" transform="translate(169.043)">
        <g id="Group_933" data-name="Group 933" transform="translate(4.824 29.235)">
          <path id="Path_1351" data-name="Path 1351" d="M602.9,591.078c.1,6.011.97,20.75,3.1,27.344s4.653,32.381,11.828,46.537,20.556,38.846,23.852,28.118c8.192-26.668,51.96-47.028,60.889-33.158,4.854,7.536,27.537-48.478,29.282-58.95s-1.874-30.767-2.908-39.686-.9-42.273-2.068-48.35,2.715-6.851-2.975-14.089-1.808-11.377-18.485-3.622-83.77,66.966-91.655,75.885S602.772,583.256,602.9,591.078Z" transform="translate(-544.171 -345.759)" fill="#636363" fill-rule="evenodd"/>
          <path id="Path_1352" data-name="Path 1352" d="M579.729,473.509c-3.815-3.3-7.642,4.611-7.116,8.169s1.055,10.673,3.954,13.835,1.053,8.565,6.719,7.642,10.015,1.846,9.488-6.192S582.627,476.011,579.729,473.509Z" transform="translate(-572.564 -362.912)" fill="#636363" fill-rule="evenodd"/>
          <path id="Path_1353" data-name="Path 1353" d="M573.874,499.326c1.072-11.691,3.388-45.088,10.945-52.385s10.685-22.674,61.505-30.231S762.038,464.284,762.038,478.1V508.6s6.875-3.272,9.863-1.707,10.265,3.754,8.485,26.616-4.8,22.683-6.492,25.53-4.915,6.57-5.437,9.158-3.282,10.414-9.153,10.858-6.762,0-6.672,2.847-16.965,26.649-20.719,30.264-6.811,32.664-27.105,43.088S669.92,675.137,659.5,673.885s-36.9-17.241-43.784-26.687c-6.719-9.228-23.533-28.377-34.889-75.476-3.317-13.764-4.042-46.672-5.154-51.674S573.326,505.292,573.874,499.326Z" transform="translate(-571.464 -416.002)" fill="#6d6d6d" fill-rule="evenodd"/>
        </g>
        <g id="Group_934" data-name="Group 934">
          <path id="Path_1354" data-name="Path 1354" d="M581.5,427.412c-3.522,4.587-10.761,14.432-10.73,19.614s-1.978,24.916.7,31.468,5.86,27.8,5.959,33.659,3.871,8.339,4.863,4.764-.4-58.875,5.461-64.93,10.723-8.043,11.518-14.2S592.517,413.068,581.5,427.412Z" transform="translate(-570.072 -381.061)" fill="#393939" fill-rule="evenodd"/>
          <path id="Path_1355" data-name="Path 1355" d="M580.935,427.417c-2.762,5.508-8.563,15.018-2.484,23.332s14.892,17.126,23.828,15.265,30.139-9.413,33.416-10.831c9.5-4.115,23.9-12.371,25.679-18.091s5.274-22.064-1.575-25.738-26.907-13.006-39.814-7.942S583.285,422.731,580.935,427.417Z" transform="translate(-564.733 -399.929)" fill="#393939" fill-rule="evenodd"/>
          <path id="Path_1356" data-name="Path 1356" d="M678.607,448.142c6.095.781,15.124,2.233,20.167,8.688s-3.277,27.551-7.562,30.653-5.169,5.956,1.889,8.688,18.529,12.907,20.166,20.6-3.15,19.113,2.52,18.615,6.428,6.329,4.16,13.032-9.83,9.184-2.647,10.426,13.235,3.846,12.477-3.6-1.007-27.3,2.774-29.91,6.049-1.612,6.68-5.956.379-17.374.379-21.718S742,491.455,742,491.455s3.908-29.164-4.536-43.808-5.546-20.353-33.651-31.77-56.466-15.638-65.035-14.892-32.14,5.831-33.653,18.368-11.722,16.257-.5,23.33,22.559,1.367,27.98.373,12.856-6.95,21.677-5.461S666,446.53,678.607,448.142Z" transform="translate(-542.596 -400.901)" fill="#393939" fill-rule="evenodd"/>
        </g>
      </g>
      <g id="Group_938" data-name="Group 938" transform="translate(86.941 313.306)">
        <g id="Group_937" data-name="Group 937" transform="translate(301.565)">
          <path id="Path_1357" data-name="Path 1357" d="M701.315,584.477c-.1,9.491-.066,28.977-.441,34.527-.51,7.543-8.065,102.988-6.436,125.928,1.306-1.362,1.945-.222,1.945-.222s-.892-3.227-.161,10.022,7.914,10.817,7.467.857c-.46-10.314-.413-9.479-.413-9.479s.9,1.029,1.145-.269.88-72.356,2.2-92.177,5.137-75.325,3.669-87.073S701.438,572.557,701.315,584.477Z" transform="translate(-673.344 -562.733)" fill-rule="evenodd"/>
          <g id="Group_936" data-name="Group 936" transform="translate(0 193.168)">
            <ellipse id="Ellipse_285" data-name="Ellipse 285" cx="27.214" cy="25.061" rx="27.214" ry="25.061" transform="translate(0 0)"/>
          </g>
        </g>
        <path id="Path_1358" data-name="Path 1358" d="M644.556,575.457c-3.846,3.411-23.656,24.2-28.144,28.55s-22.433,12.916-28.278,20.258-21.16,26.628-21.857,28.925-1.808,7.1-1.043,8.353-43.381,101.746-36.924,113.529,20.166,3.06,21.413.114,3.626-9.4-.453-6.23-10.383,9.486-13.141,2.946c-3.966-9.406-4.566-13.761,38.293-109.331,3.142-7.01,17.22-32.658,30.136-32.771s5.1,10.083,4.76,15.3.453,10.31-.453,12.236-40.333,87.352-45.659,94.715-2.946,10.083,2.946,1.926,45.317-84.858,50.643-101.967S646.938,573.344,644.556,575.457Z" transform="translate(-527.664 -550.873)" fill-rule="evenodd"/>
      </g>
      <g id="Group_939" data-name="Group 939" transform="translate(161.101 245.657)">
        <path id="Path_1359" data-name="Path 1359" d="M618.486,589.449c.984,2.488,7.5,7.881,8.185,12.623s-2.677,16.295-4.131,19.737-2.448,5.661-2.6,8.952-4.589,17.06-7.342,20.655-7.805,16.066-14.385,24.253-8.069,28.831-7.3,36.931c3.912,41.464,15.6,22.492,37.323.637,10.343-10.407,27.131-40.515,28.566-46.731s-3.062-34.426-3.73-38.25,7.085-15.615,9.776-17.759a213.014,213.014,0,0,0,16.526-15.239c5.874-6.119-5.524-20.169-14.547-14.3-13.029,8.464-27.471,8.608-38.654-6.478C620.224,566.462,614.242,578.738,618.486,589.449Z" transform="translate(-542.8 -486.504)" fill="#090909" fill-rule="evenodd"/>
        <path id="Path_1360" data-name="Path 1360" d="M615.464,561.805c-2.106-3.2-5.7,14.38-4.691,19.895s.458,31.624-.092,35.117-10.624,34.044-15.653,39.644-5.352,9.944-5.352,9.944,18.71-5.178,20.358-13.3,3.059-25.124,5.647-28.184,6.355-7.177,7.944-7.177,8.8,16.214,11.334,20.393,7.765,5.354,11.179,2.646a79.585,79.585,0,0,1,12.765-8c3.707-1.766,6.355-7.649,6.355-7.649l28.763,28.486s43.548-35.056,60.067-56.6,21.366-22.983,9.337-45.6-7.64-24.506-21.378-23.379c.321,7.148.886,6.025.886,6.025a2.726,2.726,0,0,1,2.809,2.087c.564,2.25,4.339,10.766-16.788,27.473s-63.821,55.246-67.938,57.657-11.948,7.831-15.763,4.92-26.609-33.739-28.618-40.366S618.979,567.148,615.464,561.805Z" transform="translate(-543.781 -527.79)" fill="#e9e9e9" fill-rule="evenodd"/>
        <path id="Path_1361" data-name="Path 1361" d="M634.756,559.2s-3.9,2.191-4.656,3.242c-4.868,6.757-22.924,32.653-27.6,38.727-5.409,7.021-19.829,23.434-24.194,26.47s-12.333,11.1-12.333,11.1,43.072,83.628,47.222,93.945,8.147,25.83,8.147,25.83-1.856-141.351,10.744-164.327S635.778,565.894,634.756,559.2Z" transform="translate(-565.97 -498.392)" fill="#a18e19" fill-rule="evenodd"/>
        <path id="Path_1362" data-name="Path 1362" d="M777.88,543.412c-12.387-4.92-19.515-3.47-19.515-3.47a67.149,67.149,0,0,1,7.239,17.314C726.227,601.884,605.07,740.959,595,773.9c30.018-33.253,42.989-36.773,52.994-41.775s52.069-38.357,55.4-41.32,33.821-18.526,34.013-21.562-12.239-26.47-12.239-26.47S774.5,657.194,784.176,646s19.666-56.809,20.563-63.731C806.083,571.9,780.187,540.48,777.88,543.412Z" transform="translate(-538.801 -516.603)" fill="#a18e19" fill-rule="evenodd"/>
      </g>
    </g>
  </g>
</svg>
