<svg id="healthcare" xmlns="http://www.w3.org/2000/svg" width="385.665" height="291.333" viewBox="0 0 385.665 291.333">
  <g id="healthcare-2" data-name="healthcare" transform="translate(0 0)">
    <g id="Group_1185" data-name="Group 1185" transform="translate(99.937 125.451)">
      <g id="shadow">
        <ellipse id="Ellipse_339" data-name="Ellipse 339" cx="136.084" cy="82.941" rx="136.084" ry="82.941" fill="rgba(147,147,147,0.56)"/>
      </g>
    </g>
    <g id="healthcare1">
      <g id="medication" transform="translate(88.205)">
        <g id="left" transform="translate(0 0)">
          <path id="Path_2821" data-name="Path 2821" d="M473.9,377.841c.128-13.9,16.506-25.158,36.659-25.158,20.233,0,36.66,11.346,36.66,25.321v92.337c0,13.976-16.427,25.322-36.66,25.322s-36.66-11.346-36.66-25.322v-92.5Z" transform="translate(-473.899 -327.776)" fill="#797979" fill-rule="evenodd"/>
          <g id="Group_1187" data-name="Group 1187" transform="translate(2.895)">
            <path id="Path_2822" data-name="Path 2822" d="M485.584,346.724c6.09-4.258,14.982-6.945,24.877-6.945s18.788,2.686,24.878,6.945h8.182v11.5a12.923,12.923,0,0,1,.181,2.163c0,11.371-14.895,20.6-33.241,20.6s-33.241-9.232-33.241-20.6a13.036,13.036,0,0,1,.181-2.163v-11.5Z" transform="translate(-477.22 -326.118)" fill="#686868" fill-rule="evenodd"/>
            <g id="Group_1186" data-name="Group 1186" transform="translate(0 0)">
              <ellipse id="Ellipse_340" data-name="Ellipse 340" cx="33.241" cy="20.604" rx="33.241" ry="20.604" fill="#919191"/>
            </g>
          </g>
        </g>
        <g id="right" transform="translate(112.56 13.66)">
          <path id="Path_2823" data-name="Path 2823" d="M701.324,364.435c.189-13.407,24.427-24.265,54.252-24.265,29.944,0,54.254,10.944,54.254,24.423v89.061c0,13.48-24.31,24.424-54.254,24.424s-54.254-10.944-54.254-24.424V364.435Z" transform="translate(-701.322 -316.147)" fill="#606060" fill-rule="evenodd"/>
          <g id="Group_1189" data-name="Group 1189" transform="translate(4.284)">
            <path id="Path_2824" data-name="Path 2824" d="M718.615,334.422c9.013-4.107,22.171-6.7,36.816-6.7s27.8,2.591,36.818,6.7h12.108V345.51a8.26,8.26,0,0,1,.268,2.086c0,10.968-22.043,19.872-49.194,19.872s-49.194-8.9-49.194-19.872a8.33,8.33,0,0,1,.268-2.086V334.422Z" transform="translate(-706.238 -314.548)" fill="#555" fill-rule="evenodd"/>
            <g id="Group_1188" data-name="Group 1188" transform="translate(0 0)">
              <ellipse id="Ellipse_341" data-name="Ellipse 341" cx="49.194" cy="19.873" rx="49.194" ry="19.873" fill="#7b7b7b"/>
            </g>
          </g>
        </g>
        <g id="middle" transform="translate(60.779 62.308)">
          <path id="Path_2825" data-name="Path 2825" d="M430.272,267.375c.116-9.836,14.986-17.8,33.284-17.8,18.371,0,33.285,8.029,33.285,17.918v65.341c0,9.89-14.915,17.919-33.285,17.919s-33.285-8.029-33.285-17.919V267.375Z" transform="translate(-430.271 -231.948)" fill="#444" fill-rule="evenodd"/>
          <g id="Group_1191" data-name="Group 1191" transform="translate(2.628)">
            <path id="Path_2826" data-name="Path 2826" d="M440.881,245.356c5.53-3.013,13.6-4.914,22.587-4.914s17.058,1.9,22.588,4.914h7.428v8.135a7.186,7.186,0,0,1,.165,1.531c0,8.047-13.524,14.58-30.181,14.58s-30.181-6.533-30.181-14.58a7.248,7.248,0,0,1,.165-1.531v-8.135Z" transform="translate(-433.287 -230.774)" fill="#535353" fill-rule="evenodd"/>
            <g id="Group_1190" data-name="Group 1190" transform="translate(0 0)">
              <ellipse id="Ellipse_342" data-name="Ellipse 342" cx="30.181" cy="14.58" rx="30.181" ry="14.58" fill="#707070"/>
            </g>
          </g>
        </g>
        <g id="Group_1196" data-name="Group 1196" transform="translate(76.71 184.772)">
          <g id="pill" transform="translate(47.97 27.482) rotate(-179.971)">
            <path id="Path_2827" data-name="Path 2827" d="M1.492,8.045C3.685,9.8,8.07,10.994,13.116,10.994s9.43-1.2,11.623-2.949h1.493V5.5c0-3.034-5.877-5.5-13.117-5.5S0,2.463,0,5.5V8.045Z" transform="translate(0.002)" fill="#686868" fill-rule="evenodd"/>
            <g id="Group_1192" data-name="Group 1192" transform="translate(0 2.548)">
              <ellipse id="Ellipse_343" data-name="Ellipse 343" cx="13.116" cy="5.498" rx="13.116" ry="5.498" transform="translate(0)" fill="#7e7e7e"/>
            </g>
          </g>
          <g id="pill1" transform="translate(27.353 20.531) rotate(-163.247)">
            <path id="Path_2828" data-name="Path 2828" d="M1.492,8.045C3.685,9.8,8.07,10.994,13.116,10.994s9.431-1.2,11.623-2.949h1.493V5.5c0-3.034-5.877-5.5-13.117-5.5S0,2.463,0,5.5V8.045Z" transform="translate(0.002)" fill="#686868" fill-rule="evenodd"/>
            <g id="Group_1193" data-name="Group 1193" transform="translate(0 2.548)">
              <ellipse id="Ellipse_344" data-name="Ellipse 344" cx="13.116" cy="5.498" rx="13.116" ry="5.498" fill="#7e7e7e"/>
            </g>
          </g>
          <g id="pill2" transform="translate(51.791 14.458) rotate(172.059)">
            <path id="Path_2829" data-name="Path 2829" d="M1.492,8.045C3.685,9.8,8.07,10.994,13.116,10.994s9.43-1.2,11.623-2.949h1.493V5.5c0-3.034-5.877-5.5-13.116-5.5S0,2.463,0,5.5V8.045Z" transform="translate(0.002)" fill="#686868" fill-rule="evenodd"/>
            <g id="Group_1194" data-name="Group 1194" transform="translate(0 2.548)">
              <ellipse id="Ellipse_345" data-name="Ellipse 345" cx="13.116" cy="5.498" rx="13.116" ry="5.498" transform="translate(0)" fill="#7e7e7e"/>
            </g>
          </g>
          <g id="pill3" transform="translate(0 20.633) rotate(-13.408)">
            <path id="Path_2830" data-name="Path 2830" d="M1.492,2.949C3.685,1.2,8.07,0,13.116,0s9.43,1.2,11.623,2.949h1.493V5.5c0,3.034-5.877,5.5-13.117,5.5S0,8.531,0,5.5V2.949Z" transform="translate(0.002 2.55)" fill="#686868" fill-rule="evenodd"/>
            <g id="Group_1195" data-name="Group 1195" transform="translate(0 0)">
              <ellipse id="Ellipse_346" data-name="Ellipse 346" cx="13.116" cy="5.498" rx="13.116" ry="5.498" fill="#7e7e7e"/>
            </g>
          </g>
        </g>
      </g>
      <g id="teeth" transform="translate(0 119.616)">
        <path id="Path_2831" data-name="Path 2831" d="M300.814,368.835c-5.062,5.737-5.065,17.032-5.271,26.6s-.361,6.545.778,7.751,28.868,20.428,37.106,20.764,54.923-2.211,58.674-3.148,10.717,5.425,10.717,5.425a16.627,16.627,0,0,1,.267,4.219c-.267,1.206-5.76,14.334-12.726,16.477s-20.362,7.032-25.318,7.569-9.779,2.478-19.223,3.416-6.7,1.741-16.41-.2-8.64.469-16.744-2.813-11.587-6.9-12.592-8.707-3.081-5.425-3.081-5.425-9.779,20.7,14.133,33.556,55.739,2.671,77.821-9.26S432.1,438.517,432,436.46s-6.842-5.741-5.31-14.831,4.5-9.664,4.5-9.664,8.516-23.825,5.31-25.452-58.316,4.906-66.538,6.121-52.795-7.849-57.186-13.829S301.283,368.3,300.814,368.835Z" transform="translate(-293.284 -346.754)" fill="#2d2d2d" fill-rule="evenodd"/>
        <g id="Group_1197" data-name="Group 1197" transform="translate(1.294 49.556)">
          <path id="Path_2832" data-name="Path 2832" d="M295.457,400.506c.636-1.2,3.962,5.779,3.962,7.616s2.947,14.659-.344,13.97S292.987,405.175,295.457,400.506Z" transform="translate(-294.514 -400.367)" fill="#c6c6c6" fill-rule="evenodd"/>
          <path id="Path_2833" data-name="Path 2833" d="M304.058,405.038c2.725.434,5.942,6.4,6.621,6.966.617.513,4.877-.985,6.775-.536,2.692.638,8,5.014,8.535,10.41s.418,14.632-8.152,12.286c-3.636-1-6.353-3.827-6.506-4.63s-1.407,1.052-5.4-1.378C297.513,423.027,295.262,403.637,304.058,405.038Z" transform="translate(-295.019 -400.958)" fill="#c6c6c6" fill-rule="evenodd"/>
          <path id="Path_2834" data-name="Path 2834" d="M336.788,421.138c1.82,0,7.833,1.685,8.012,10.257s-6.27,8.5-8.19,8.676c-1.99.178-8.312-.933-7.425-11.533C329.8,421.215,335.078,421.138,336.788,421.138Z" transform="translate(-298.957 -403.036)" fill="#c6c6c6" fill-rule="evenodd"/>
          <path id="Path_2835" data-name="Path 2835" d="M356.538,423.9c6.622-1.462,7.615,3.708,8.532,3.947s3.587-1.954,7.535-1.954,5.143,1.356,6.259,1.2,2.672-4.305,7.455-4.226,3.349,3.229,1.794,7.854-3.468,5.661-6.459,6.3a10.321,10.321,0,0,1-7.335-1.316c-1-.837-1.595,3.748-6.578,3.588s-6.06-3.229-6.06-3.229-1.555,4.386-7.655,4.7-9.689-1.794-8.293-7.814S353.469,424.582,356.538,423.9Z" transform="translate(-301.056 -403.258)" fill="#c6c6c6" fill-rule="evenodd"/>
          <path id="Path_2836" data-name="Path 2836" d="M406.7,420.888c4.521-.5,6.538,2.312,6.538,2.312s4.147-3.788,8.572-3.947,6.618,2.751,5.941,4.466-7.525,8.8-11.163,8.77c-4.664-.04-6.379-2.033-6.379-2.033s-6.988,4.09-9.289,4.346c-3.947.438-12.4.99-9.01-3.987C395.418,425.67,404.55,421.127,406.7,420.888Z" transform="translate(-306.926 -402.793)" fill="#c6c6c6" fill-rule="evenodd"/>
        </g>
        <g id="Group_1199" data-name="Group 1199" transform="translate(0 68.884)">
          <g id="Group_1198" data-name="Group 1198" transform="translate(50.375 13.662)">
            <path id="Path_2837" data-name="Path 2837" d="M415.126,455.692c3.5-1.36,9.09-8.834,7.112-13.81s-5.071-3.7-7.177-2.9-5.869,1.308-4.305,4.529c-1.659-3.285-3.381-1.754-4.593-.956s-3.381,1.307-3.54,2.9S402.815,460.477,415.126,455.692Z" transform="translate(-357.481 -438.22)" fill="#c6c6c6" fill-rule="evenodd"/>
            <path id="Path_2838" data-name="Path 2838" d="M394.883,447.41c2.594-.481,6-3.348,7.623,4.4s-4.369,13.683-7.144,14.735-8.84,5.036-13.492-6.539c-2.743-6.826,2.424-7.495,4.178-8.771s4.274-2.87,5.549.925C390.258,448.208,393.161,447.73,394.883,447.41Z" transform="translate(-354.717 -439.284)" fill="#c6c6c6" fill-rule="evenodd"/>
            <path id="Path_2839" data-name="Path 2839" d="M372.838,456.854c4.16-1.415,7.846-4.689,9.6,5.422s-3.126,12.566-4.593,13.555-8.2.894-10.462-8.962S371.243,457.4,372.838,456.854Z" transform="translate(-352.893 -440.402)" fill="#c6c6c6" fill-rule="evenodd"/>
            <path id="Path_2840" data-name="Path 2840" d="M357.219,461.2c4.313-1.168,8.229-3.381,11.132,4.465-1.627,6.411-2.01,12.12-5.71,12.885s-6.639,2.285-10.971-7.431C348.385,463.753,355.689,461.616,357.219,461.2Z" transform="translate(-350.83 -441.018)" fill="#c6c6c6" fill-rule="evenodd"/>
          </g>
          <path id="Path_2841" data-name="Path 2841" d="M335.952,457.251c2.746.061,8.228.223,9.983,5.869s1.486,12.509-5.773,14.129c-4.147.925-7.081-3.987-7.081-3.987s-2.679,4.05-6.826,3.859-6.7-4.689-6.7-4.689-3.285,3.158-5.677,2.52-3.827-3.913-3.827-3.913a3.371,3.371,0,0,1-3.96.143,9.842,9.842,0,0,1-3.654-6.716,3.21,3.21,0,0,1-4.143-.735,10.506,10.506,0,0,1-2.245-7.348s-2.26.269-2.728-2.643-.679-11.356,1.8-15.161c.4-.611,2.259-9.09,3.057-10.153s2.3-4.923,3.442-5.754,1.454,2.6,2.492,4.2-2.078,3.456-2.531,3.4c.575.355-.754,2.459-.754,3.322s.443,4.784-1.13,4.9c1.772.022,2.126,3.389,2.016,4.253,5.67,4.629,4.585,3.5,2.658,6.268,3.012-1.861,6.112,1.13,8.283,3.788,2.835-.709,7.841,1.9,8.638,3.3,2.17-1.439,9.236,1.307,10.189,1.882A8.468,8.468,0,0,1,335.952,457.251Z" transform="translate(-293.029 -422.545)" fill="#c6c6c6" fill-rule="evenodd"/>
        </g>
        <path id="Path_2842" data-name="Path 2842" d="M310.321,384.828c49.335,22.568,107.3,2.378,126.087-1.741a34.721,34.721,0,0,0-6.7-3.081l-3.885.87L351.1,349.011l-1.158-2.538s-5.916-3.429-6.687-2.915S270.125,366.44,310.321,384.828Z" transform="translate(-293.69 -343.506)" fill="#5e5e5e" fill-rule="evenodd"/>
      </g>
      <g id="glasses" transform="translate(385.665 247.585) rotate(180)">
        <path id="Path_2843" data-name="Path 2843" d="M60.88,3.807C59.628,17.993,48.907,57.815,39.519,66.86S30.756,75.175,18.5,63.327c-5.168-5-8.785-12.576-12.834-11.714s-7.062,2.412-5,4.737S20.4,78.488,27.89,80.039,50.057,82.9,65.1,34.644C72.165,11.99,75.093,4.237,72.336,1.308S61.139.878,60.88,3.807Z" transform="translate(239.937 68.388)" fill="#a1a1a1" fill-rule="evenodd"/>
        <path id="Path_2844" data-name="Path 2844" d="M0,22.16c38.022,8.58,147.22,38.326,175.641,39.367,15.742.577,46.31-17.721,52.3-20.549,18.94-8.94,26.059-8.367,17.785-17.5C234.573,11.177,219.1,40.5,185.543,53.669,173.229,58.5,131.636,45.2,124.112,42.42,117.287,39.9,25.693,9.253,7.547,0,.577,19.107,5.24,6.25,0,22.16Z" transform="translate(11.723 87.465)" fill="#a1a1a1" fill-rule="evenodd"/>
        <path id="Path_2845" data-name="Path 2845" d="M46.288,101.915C79.9,97.574,123.232,81.3,136.026,81.322c12.481.024,78.029,3.533,105.99,1.515s50.29-6.739,53.584-6.868,14.536-2.584,15.5-1.034c.516-7.623,1.937-24.614.452-26.164s-14.278-14.278-17.378-18.93S290.044,12.528,284.1,9.621,270.591,0,228.339,0s-60.856,11.92-72.356,34.175S143.4,62.656,132.21,62.245c-14.02-.515-7.559-6.393-16.086-30.554-3.615-10.242-11.887-17.249-42.768-9.627S34.834,37.249,19.928,57.919c-4.845,6.718-.606,8.421-11.887,16.15-2.519,5.556-10.6,26.036-7.235,29.007S35.112,102.82,46.288,101.915ZM209.079,76.282c65.358-4.523,76.985-2.692,77.416-30.149s1.184-35.746-34.885-39.624S186.791,4.141,165.9,29.767s-15.935,37.9-13.135,41.023S165.962,79.266,209.079,76.282ZM53.169,94.473c46.3-10.768,67.021-9.682,61.051-46.73C109.1,15.957,87.88,24.363,74.5,27.159c-10.9,2.279-50.11,9.907-54.268,48.582-.861,8.013-1.895,20.073-1.895,20.073S27.891,100.351,53.169,94.473Z" fill="#8d8d8d" fill-rule="evenodd"/>
      </g>
    </g>
  </g>
</svg>
