<svg xmlns="http://www.w3.org/2000/svg" width="447.53" height="384.708" viewBox="0 0 447.53 384.708">
  <g id="war_on_drugs" data-name="war on drugs" transform="translate(0 0)">
    <g id="Group_1171" data-name="Group 1171" transform="translate(24.359 0)">
      <g id="plant" transform="translate(0 0)">
        <g id="plant1">
          <g id="Group_1168" data-name="Group 1168" transform="translate(130.057 7.425)">
            <path id="Path_2701" data-name="Path 2701" d="M315.368,525.789a226.171,226.171,0,0,1-4.059-24.027,88.1,88.1,0,0,1-.321-15.745,73.491,73.491,0,0,1,2.144-12.064c1.572-6.3,3.621-12.491,5.258-18.743,1.083-4.2,1.49-8.646,2.421-12.928a27.581,27.581,0,0,1,1.308-4.329,55.484,55.484,0,0,1,6.505-11.115,89.171,89.171,0,0,0,8.138-13.361,39.122,39.122,0,0,0,3.55-14.765,36.2,36.2,0,0,0-3.257-16.837c-2.784-6.234-7.285-11.54-11.557-18.257a72.939,72.939,0,0,1-5.879-11.054,67.083,67.083,0,0,1-3.771-11.8,104.718,104.718,0,0,1-2.15-12.294,28.133,28.133,0,0,1,.444-10.182c2.689-9.641,7.62-17.306,10.743-26.551a63.225,63.225,0,0,0,3.1-14.113,70.28,70.28,0,0,0-.97-19.392c-1.435-7.966-3.809-15.75-5.712-23.634a77.353,77.353,0,0,1-2.438-14.161,21.071,21.071,0,0,1,.5-7.3c1.172-4.457,3.145-8.47,4.832-13.572a29.844,29.844,0,0,0,1.07-4.08c.76-4.357.46-8.815,1.844-13.044,1.256-4.045,4.147-8.047,7.7-11.591a65.2,65.2,0,0,1,12.035-9.439.689.689,0,0,0-.577-1.251,67.033,67.033,0,0,0-17.185,8.8,33.453,33.453,0,0,0-9.525,10.2c-2.334,4.222-3.044,8.989-4.737,13.476a18.978,18.978,0,0,1-1.157,2.386c-2.745,5.073-5.615,8.933-7.616,13.455a34.216,34.216,0,0,0-2.7,12.179,83.471,83.471,0,0,0,1.577,17.454c1.441,7.728,3.675,15.3,4.91,23.047a54.7,54.7,0,0,1,.62,14.667,46.532,46.532,0,0,1-2.33,10.228c-3.257,9.552-8.241,17.523-11.017,27.495a42.2,42.2,0,0,0-1.189,13.636,106.607,106.607,0,0,0,2.913,17.491,83.482,83.482,0,0,0,4.973,14.787,88.976,88.976,0,0,0,7.519,13.521c4.012,5.866,8.276,10.4,10.989,15.856a21.19,21.19,0,0,1,2.373,9.612,24.475,24.475,0,0,1-1.635,9.249c-3.449,9.016-9.926,16.205-12.97,26.038a40.186,40.186,0,0,0-1.394,6.42c-.567,4.212-.594,8.542-1.313,12.686-1.087,6.4-2.611,12.774-3.61,19.225a80.934,80.934,0,0,0-1.111,13.7,94.057,94.057,0,0,0,1.948,17.025,224.989,224.989,0,0,0,6.626,24.116,2.149,2.149,0,0,0,4.153-1.107Z" transform="translate(-231.294 -160.095)" fill="gray" fill-rule="evenodd"/>
            <path id="Path_2702" data-name="Path 2702" d="M307.232,418.133c1-5.566,4.389-9.7,8.615-13.253,3.689-3.1,8.2-5.219,12.762-7.062a64.591,64.591,0,0,1,9.344-2.925c3.815-1.075,7.732-2.117,11.686-3.247,5.56-1.589,11.21-3.163,16.893-4.368A78.853,78.853,0,0,1,384.6,385.16a40.615,40.615,0,0,1,4.644.267c1.153.112,2.306.143,3.522.224,3.251.214,6.339.21,9.675.535,5.179.506,9.544.869,13.686,1.615a.689.689,0,1,0,.648-1.216A99.946,99.946,0,0,0,409,379.131a66.091,66.091,0,0,0-8.875-6.428,36.216,36.216,0,0,0-6.848-3.21,33.5,33.5,0,0,0-8.052-1.5,86.371,86.371,0,0,0-22.391,1.944,144.3,144.3,0,0,0-18.456,5.389c-3.942,1.418-7.754,3.018-11.51,4.5a66.8,66.8,0,0,0-10.805,5.8,50.887,50.887,0,0,0-13.4,12.744c-4.031,5.895-6.553,12.355-5.72,19.62a2.149,2.149,0,0,0,4.3.139Z" transform="translate(-229.079 -94.039)" fill="gray" fill-rule="evenodd"/>
            <path id="Path_2703" data-name="Path 2703" d="M312.367,456.043a123.5,123.5,0,0,1,5.6-11.9c1.992-3.854,4.183-7.356,6.456-11.027,1.327-2.141,2.712-4.18,4.069-6.306,1.333-2.086,2.687-4.145,4.043-6.227a137.757,137.757,0,0,1,13.413-17.773c1.236-1.56,2.588-3.042,3.771-4.668.774-1.065,1.347-2.147,2.012-3.275,1.829-3.1,2.647-5.874,5-8.554a26.28,26.28,0,0,1,3.76-3.9.688.688,0,1,0-.31-1.342c-5.8-1.089-10.086-.254-15.461,1.653a25.864,25.864,0,0,0-6.655,3.66,48.651,48.651,0,0,0-5.023,4.747A113.4,113.4,0,0,0,321.9,404.937a82.069,82.069,0,0,0-8.418,15.684,78.936,78.936,0,0,0-4.46,17.211,97.394,97.394,0,0,0-.9,17.489,2.149,2.149,0,1,0,4.236.723Z" transform="translate(-227.396 -90.005)" fill="gray" fill-rule="evenodd"/>
            <path id="Path_2704" data-name="Path 2704" d="M314.2,463.024c-.927-6.458-1.1-12.746-1.842-19.215-.192-1.684-.471-3.309-.747-4.981a67.317,67.317,0,0,0-2.334-8.176,14.64,14.64,0,0,1-.523-3.411,21.3,21.3,0,0,1,.492-4.924c.8-5.24,2.483-10.394,3.259-15.635.86-8.02.929-15.54,2.08-22.652a47.839,47.839,0,0,1,2.325-8.908c.64-1.755.923-3.553,1.781-5.42.591-1.287.894-2.546,1.644-3.9a48.95,48.95,0,0,1,3.16-5.416c1.346-1.943,2.456-3.533,3.951-5.428a.689.689,0,0,0-.727-1.17,71.507,71.507,0,0,0-8.154,2.147,44.966,44.966,0,0,0-5.393,2.36,35.013,35.013,0,0,0-7.689,5.548,20.027,20.027,0,0,0-2.707,3.219,31.384,31.384,0,0,0-3.99,8.349,56.294,56.294,0,0,0-2.514,12.659c-.55,5.337-.576,10.926-1.158,16.756-.351,5.368-1.874,10.713-1.984,16.095a31.515,31.515,0,0,0,.909,8.822,24.55,24.55,0,0,0,1.877,5.047c1.386,2.576,3.276,4.775,4.51,7.47L310.1,464.3a2.149,2.149,0,1,0,4.1-1.274Z" transform="translate(-232.149 -98.555)" fill="gray" fill-rule="evenodd"/>
            <path id="Path_2705" data-name="Path 2705" d="M327.056,441.855l-10.548-9.149c-1.78-1.659-3.178-3.591-4.975-5.35a26.875,26.875,0,0,0-4.983-3.753,21.166,21.166,0,0,0-12.738-2.667,25.693,25.693,0,0,0-11.188,4.326,38.158,38.158,0,0,0-7.352,6.3,14.42,14.42,0,0,0-1.8,2.282,19.211,19.211,0,0,0-1.789,4.069,41.206,41.206,0,0,0-1.342,5.555c-.468,2.473-.561,3.711-.911,5.728a.689.689,0,1,0,1.014.933c2.111-.55,3.41-.845,5.993-1.647,1.829-.568,3.068-.863,5-1.617a21.544,21.544,0,0,0,2.948-1.229,22.366,22.366,0,0,0,2.414-1.561c1.086-.8,2.134-1.619,3.181-2.4,2.064-1.539,3.992-3.058,6.041-3.319a7.887,7.887,0,0,1,4.746.671c3.266,1.353,6.4,2.779,9.663,3.922a37.144,37.144,0,0,0,4.713,1.255c3.387.56,6.455.625,9.82,1.411a2.149,2.149,0,0,0,2.087-3.757Z" transform="translate(-239.737 -77.201)" fill="gray" fill-rule="evenodd"/>
            <path id="Path_2706" data-name="Path 2706" d="M330.409,453.429a37.015,37.015,0,0,1-.43-7.177c.076-6.011,1.146-11.646,1.462-17.858.073-2.025.68-4.8.659-7.261a13.4,13.4,0,0,0-1.63-5.814,17.847,17.847,0,0,0-7.551-7.432c-3.089-1.786-6.851-2.539-10.691-3.748l-15.209-6.19-17.625-5.821c-1.9-.646-4.159-2-6.587-2.886a20.3,20.3,0,0,0-4.143-1.182c-2.977-.4-5.607-.828-8.018.1-2.944,1.3-5.814,2.609-8,5.49a44.744,44.744,0,0,0-5.613,10.119.688.688,0,0,0,1.022.923,48.411,48.411,0,0,1,9.53-3.862,12.89,12.89,0,0,1,3.614-.241c.371-.007.6.363.951.428.376.052.3.744.674.932.946.472,1.634,1.385,2.609,2.017a66.545,66.545,0,0,0,7.5,4.245l17.9,6.329c3.854,1.372,7.528,3.1,11.363,4.421a51.64,51.64,0,0,0,5.941,1.69c2.842.519,5.6.588,7.993,1.5.7.269,1.549.287,2.086.972-.1-.126-.207-.446-.035-.507,2.135-.756.841,5,1.279,6.915,1.492,6.1,2,11.886,3.771,17.69a38.9,38.9,0,0,0,3.131,7.647,2.149,2.149,0,1,0,4.05-1.437Z" transform="translate(-246.856 -87.774)" fill="gray" fill-rule="evenodd"/>
            <path id="Path_2707" data-name="Path 2707" d="M309.981,434.469c.96-7.728,1.458-15.375,3.559-22.649a29.7,29.7,0,0,1,6.216-11.474,18.4,18.4,0,0,1,8-5.238,41.424,41.424,0,0,1,6.3-1.72c3.719-.81,7.592-1.412,11.5-2.154,7-1.484,14.18-2.841,21.357-3.963,4.669-.73,9.335-1.395,13.979-1.758,3.981-.442,7.975-.553,11.949-.99,1.772-.194,3.477-.491,5.228-.826,4.584-.875,8.787-1.883,13.3-3.052,4.66-1.2,8.746-2.5,13.318-4.015a.689.689,0,0,0-.067-1.376c-4.633-1.051-8.688-2.254-13.3-3.393-4.533-1.12-8.728-2.177-13.323-3.013a53.16,53.16,0,0,0-5.421-.723,124.115,124.115,0,0,0-12.881-.018,175.239,175.239,0,0,0-19.32,2.261c-6.264,1.086-12.471,2.512-18.567,3.928-7.322,1.935-14.649,3.214-20.805,6.631a30.858,30.858,0,0,0-12.268,11.73,39.918,39.918,0,0,0-5.2,17.474c-.429,8.056,1.122,16.1,2.144,24.337a2.149,2.149,0,1,0,4.3,0Z" transform="translate(-228.86 -94.023)" fill="gray" fill-rule="evenodd"/>
            <path id="Path_2708" data-name="Path 2708" d="M317.465,437.317c1.489-6.785,1.41-13.52,2.365-20.395a43.41,43.41,0,0,1,.885-4.309c.528-2.512,1.706-5.02,2.557-7.741a41.582,41.582,0,0,0,1.928-10.524,22.968,22.968,0,0,0-2.607-11.544,20.567,20.567,0,0,0-5.736-6.585c-3.313-2.552-7.707-4.26-10.924-6.325a72.892,72.892,0,0,1-7.229-4.976c-1.281-.936-2.634-1.452-3.923-2.36-1.431-1.009-2.755-1.564-4.1-2.674-2.558-2.117-4.569-3.67-6.49-6.457a.689.689,0,1,0-1.351.267,29.922,29.922,0,0,0-.3,10.578,26.9,26.9,0,0,0,1.975,7.105,24.178,24.178,0,0,0,3.765,6.244c2.212,2.809,5.214,4.892,8.077,6.977,2.585,1.718,5.977,3.215,8.887,5.1a5.327,5.327,0,0,1,1.946,1.551,9.057,9.057,0,0,1,.947,4.961c-.093,5.18-1.04,10.59-.894,15.348a51.569,51.569,0,0,0,1.267,8.485c1.469,5.841,3.7,11.2,4.657,17.142a2.149,2.149,0,1,0,4.3.13Z" transform="translate(-235.614 -98.815)" fill="gray" fill-rule="evenodd"/>
            <path id="Path_2709" data-name="Path 2709" d="M318.1,407.54a37.326,37.326,0,0,0-2.171-12.343c-1.75-5.4-4.358-10.249-6.082-15.684a26.213,26.213,0,0,1-1.477-6.686c-.5-3.115-.95-6.267-1.665-9.335a39.453,39.453,0,0,0-1.723-5.523c-1.66-3.6-3.349-7.318-5.957-10.4A23.216,23.216,0,0,0,296,344.808c-1.166-.982-2.153-1.49-3.341-2.426-2.557-2.012-4.393-3.069-6.478-5.586a.689.689,0,0,0-1.35.271,28.12,28.12,0,0,0-1.274,7.972,31.048,31.048,0,0,0,.574,7.827,21.238,21.238,0,0,0,1.159,4.007c.992,2.557,2.355,4.929,3.2,7.489,1.876,4.624,2.1,9.8,3.54,14.569a32.234,32.234,0,0,0,3.618,8.155,73.111,73.111,0,0,0,5.49,6.686c2.744,2.871,5.557,5.295,8.1,8.305a33.506,33.506,0,0,1,4.675,6.44,2.149,2.149,0,1,0,4.186-.977Z" transform="translate(-235.205 -104.1)" fill="gray" fill-rule="evenodd"/>
            <path id="Path_2710" data-name="Path 2710" d="M313.841,411.2c3.213-4.8,6.968-8.748,10.832-12.976,3.961-4.331,7.955-8.418,11.68-12.95,1.948-2.371,3.64-4.9,5.348-7.452a74.239,74.239,0,0,0,4.084-7.456,41.314,41.314,0,0,0,2.187-5.931L350.4,354.6a23.55,23.55,0,0,1,4.315-6.339c.8-.855,1.588-1.7,2.412-2.53,1.239-1.254,2.107-2.635,3.407-3.832.978-.9,1.617-1.821,2.635-2.675,3.054-2.566,5.514-4.583,9.126-6.162a.689.689,0,0,0-.043-1.377,34.866,34.866,0,0,0-10.07-2.119,29.993,29.993,0,0,0-4.6.143,28.666,28.666,0,0,0-6.618,1.338,20.407,20.407,0,0,0-4.148,1.909,23.78,23.78,0,0,0-3.7,2.74,36.588,36.588,0,0,0-8.637,11.159,27.35,27.35,0,0,0-1.817,4.854c-.736,2.683-1.027,5.47-1.735,8.2a27.706,27.706,0,0,1-1.156,3.6c-.816,2.071-1.756,4.1-2.767,6.069-1.349,2.98-2.878,5.828-4.362,8.744-2.393,4.7-4.693,9.281-6.832,14.1A93.72,93.72,0,0,0,309.9,409.5a2.149,2.149,0,0,0,3.943,1.709Z" transform="translate(-226.872 -106.239)" fill="gray" fill-rule="evenodd"/>
            <path id="Path_2711" data-name="Path 2711" d="M318.754,237.23c.589-2.611,1.72-5.066,2.665-8.321a38,38,0,0,0,1.6-9.547c.125-3.944-1.408-7.365-2.956-10.353a17.871,17.871,0,0,0-4.3-4.511,44.334,44.334,0,0,0-5.183-3.182,43.533,43.533,0,0,0-6.639-2.989,10.888,10.888,0,0,0-2.965-.569c-2.248-.042-3.367.426-5.576.832-2.587.477-3.348.886-5.934,1.368a.689.689,0,1,0-.667,1.2,45.735,45.735,0,0,0,2.557,5.742,20.891,20.891,0,0,0,3.062,4.915,10.99,10.99,0,0,0,2.223,1.867c1.686,1.148,3.549,1.994,5.274,3.085l3.944,2.141a14.036,14.036,0,0,1,2.841,4.952,145.626,145.626,0,0,0,5.794,13.932,2.149,2.149,0,0,0,4.259-.568Z" transform="translate(-233.635 -148.124)" fill="gray" fill-rule="evenodd"/>
            <path id="Path_2712" data-name="Path 2712" d="M321.239,266.845a32.222,32.222,0,0,0,.347-6.093c-.091-3.164-.822-5.2-1.543-13.018a46.19,46.19,0,0,0-1.777-6.777c-1.6-4.485-4.062-8.651-5.771-13.071l-2.792-8.218a11.58,11.58,0,0,0-1.417-2.047c-1.5-1.273-2.363-2.387-4.256-3.143a16.311,16.311,0,0,0-2.89-1.18,24.952,24.952,0,0,0-6.837-.874.689.689,0,1,0-.777,1.138c.976,2.536.809,4.053,1.375,6.922.356,1.8-.44,3.019-.647,4.735.372,1.476.254,2.989.484,4.481a23.831,23.831,0,0,0,1.473,5.147c1.494,3.323,3.125,6.619,4.931,9.816.819,1.449,1.66,2.866,2.542,4.27.855,1.362,1.848,2.537,2.661,3.913,2.593,3.721,4.043,5.777,5.412,7.463a37.63,37.63,0,0,1,3.406,4.205c.554.892,1.128,1.733,1.844,3.071a2.149,2.149,0,0,0,4.233-.741Z" transform="translate(-232.115 -143.499)" fill="gray" fill-rule="evenodd"/>
            <path id="Path_2713" data-name="Path 2713" d="M315.123,251.23a49.058,49.058,0,0,1,.581-9.132,12.679,12.679,0,0,1,2.683-5.964,21.266,21.266,0,0,1,3.044-2.988c1.417-1.438,2.818-2.867,4.123-4.4a29.721,29.721,0,0,0,3.757-5.752,28.347,28.347,0,0,0,2.006-5.652c.665-2.724.719-5.612,1.85-8.205l4.564-16.385a.689.689,0,1,0-.87-1.068c-2.548.305-3.928.434-6.437.948a25.185,25.185,0,0,0-6.349,2.281,14.114,14.114,0,0,0-3.79,2.85,18.229,18.229,0,0,0-2.736,4.092,24.373,24.373,0,0,0-1.6,3.821c-1.069,3.244-1.148,6.8-2.6,9.9a28.949,28.949,0,0,1-3.1,5.146,37.094,37.094,0,0,0-3.183,5.364,23.374,23.374,0,0,0-1.65,4.324c-.657,3.432-1.1,6.928.013,10.581a43.664,43.664,0,0,0,5.618,11.594,2.149,2.149,0,0,0,4.077-1.358Z" transform="translate(-228.452 -150.103)" fill="gray" fill-rule="evenodd"/>
            <path id="Path_2714" data-name="Path 2714" d="M308.326,331.5c1.927-5.166,4.313-10.128,6.82-15.623,1.672-3.664,3.563-7.067,5.379-10.6a60.085,60.085,0,0,1,5.421-9.231,63.9,63.9,0,0,1,7.845-8.828,32.951,32.951,0,0,0,2.249-2.446,15.65,15.65,0,0,0,1.307-1.962,70.47,70.47,0,0,0,3.214-6.375c1.277-2.684,1.884-4.374,2.972-6.994a.689.689,0,0,0-.847-1.087c-2.47.353-4.018.458-6.586.883a45.023,45.023,0,0,0-6.375,1.344,23.071,23.071,0,0,0-4.967,2.128,34.062,34.062,0,0,0-5.666,4.49,53.559,53.559,0,0,0-7.608,8.653,50.951,50.951,0,0,0-5.516,10.607,43.806,43.806,0,0,0-2.054,7.338,69.973,69.973,0,0,0-1.013,13.775,126.836,126.836,0,0,0,1.159,13.406,2.149,2.149,0,1,0,4.266.518Z" transform="translate(-229.046 -125.726)" fill="gray" fill-rule="evenodd"/>
            <path id="Path_2715" data-name="Path 2715" d="M315.577,321.422c1.2-3.478,2.276-6.557,3.295-10.091.994-3.445,1.692-6.683,2.548-10.164.257-1.461.74-3.213,1-5.111a23.952,23.952,0,0,0,.074-4.553,17.159,17.159,0,0,0-1.884-6.629,27.871,27.871,0,0,0-5.107-6.63,67.4,67.4,0,0,0-6.909-5.8c-1.322-.988-2.669-1.809-3.735-2.734-.913-.54-1.759-1.1-2.767-1.649a25.116,25.116,0,0,0-6.155-2.516c-3.171-.835-4.9-1.459-7.985-.892a.688.688,0,0,0-.514,1.278c1.484,2.054,1.38,3.594,2.059,6.152.374,1.412.354,2.374.726,3.8a17.371,17.371,0,0,0,.8,2.592,20.912,20.912,0,0,0,1.994,3.164,49.266,49.266,0,0,0,4.541,4.455c1.833,1.6,3.87,3.177,5.626,4.853a12.886,12.886,0,0,1,2.268,2.466c-.049-.078-.154-.237-.065-.278,2.287-1.034,1.08,5.636,1.3,7.826l4.6,20.221a2.148,2.148,0,1,0,4.29.238Z" transform="translate(-234.093 -126.926)" fill="gray" fill-rule="evenodd"/>
            <path id="Path_2716" data-name="Path 2716" d="M314.513,317.675c.575-2.041.98-3.884,1.369-5.974.853-4.591,1.237-8.877,2.026-13.466.253-2.925.873-5.792.923-8.763a25.616,25.616,0,0,0-1.3-7.763,41.14,41.14,0,0,0-5.285-10.155,62.073,62.073,0,0,0-5.65-6.956c-1.242-1.309-2.6-2.436-3.841-3.7-2.892-1.49-4.847-2.839-7.8-4.27a31.535,31.535,0,0,0-6.277-2.384.689.689,0,0,0-1.01.936,59.013,59.013,0,0,1,.646,6.538c.162,1.623.217,2.689.491,4.3a44.766,44.766,0,0,0,1.272,4.637c1.156,1.915,2.3,3.829,3.63,5.68,1.682,2.345,3.535,4.573,5.084,6.982a26.608,26.608,0,0,1,2.465,4.446,15.541,15.541,0,0,1,1.03,3.258c.568,2.753,1.06,5.457,1.672,8.165l6.254,18.492a2.149,2.149,0,0,0,4.3,0Z" transform="translate(-233.939 -130.237)" fill="gray" fill-rule="evenodd"/>
          </g>
          <g id="Group_1169" data-name="Group 1169">
            <path id="Path_2717" data-name="Path 2717" d="M227.224,445.546c-1.685-1.631-5-5.146-5.816-4.355s-.746,1.151-1.454.963-6.386-7.165-7.27-6.785-.5,1.829-1.454.969-3.63-5.428-4.362-5.331-1.688,2.387-2.423,1.939-3.469-5.348-6.3-4.847c-.893.158-1.186,2.956-1.939,1.939s-.055-3.691-5.331-4.6c-.785-.135-1.76,3.969-3.393,2.659s-.893-4.323-6.3-4.362c-.666,0-1.6,1.6-2.908.969s-4.375-2.509-5.816-2.423-1.608,1.519-2.423,1.454-3.08-1.94-4.847-1.939-1.671,1.144-2.423.969-13.779-8.168-14.54-6.785,6.865,8.5,12.117,12.6c.148,1.717-.507,3.635.241,4.134s5.8,3.183,6.059,3.62c.047.6-.451,2.611.485,3.1s5.5.582,5.816,1.265-.031,4.629.485,5.153S229.571,447.818,227.224,445.546Z" transform="translate(-148.169 -71.379)" fill="#999" fill-rule="evenodd"/>
            <path id="Path_2718" data-name="Path 2718" d="M217.2,453.195c-2.711-5.4-5.47-10.128-5.816-16.064s-1.742-9.421-.969-10.663,2.389-1.944.969-3.554a3.15,3.15,0,0,1-.969-2.932s.916.7.969-.849-.485-5.938-.485-5.938.835.572.969-.3.969-4.847.969-4.847,1.063-.4.969-.969,4.1-13.932,5.816-13.571,1.939,7.27,1.939,7.27a8.213,8.213,0,0,1,2.423.485c.325,1.237-1.155,6.66,0,6.785s1.123,5.008,1.939,5.331,2.529-.106,2.423.485-.571,11.2.485,11.147c1.583-1.383,2.507-2.942,2.908-1.939s-.237,1.958.969,2.423,1.278,22.644,0,25.2-5.264,3.4-7.27,3.877S218.383,455.548,217.2,453.195Z" transform="translate(-128.455 -78.473)" fill="#999" fill-rule="evenodd"/>
            <path id="Path_2719" data-name="Path 2719" d="M296.865,441.368c-8.638-7.767-23.663-15.113-24.718-15.51-.839.691-1.158.394-2.194.485s-6.341-4.343-10.408-3.877c-.7-.1-5.709-1.759-6.3-3.1,0,0,.01.882-1.454,1.163s-6.591-3.018-7.026-3.683.409,3.186-.729,3.2-3.859-2.061-5.816-1.939-12.223.982-15.51,1.454-21.57,2.067-23.749.969c5.745,4.3,33.082,19.031,34.9,19.872a6.927,6.927,0,0,0,4.847.485c.831-.41.952,1.687,1.939,1.454s6.188-.315,7.27.485.327,3.292,1.454,3.393,3.756-3.513,5.331-2.908,1.367,1.68,1.454,3.393S300.572,444.7,296.865,441.368Z" transform="translate(-132.023 -71.078)" fill="#999" fill-rule="evenodd"/>
            <path id="Path_2720" data-name="Path 2720" d="M274.924,448.925c-3.159-4.9-12.071-13.441-11.147-14.54s3.387-.112,1.939-1.454-5.951-5.306-4.847-6.3,3.9,1.134,1.939-.969-6.407-5.628-5.331-6.3,3.657.617,2.908-.969-2.1-5.608-.969-5.816,2.3-.318,1.454-1.454-3.336-4.315-1.939-4.847,2.112.97,1.939-.485.5-14.527,1.939-12.6,8.169,16.452,9.209,15.509-.437,4.587.485,3.877,3.637-.945,3.393,0-1.388,8.569-.275,7.27,3.366-1.175,3.183,0,.5,4.27.969,3.232,2.621,11.145,1.939,15.186S279.535,451,278.8,451.833,275.434,449.718,274.924,448.925Z" transform="translate(-113.475 -78.635)" fill="#999" fill-rule="evenodd"/>
            <path id="Path_2721" data-name="Path 2721" d="M276.282,440.6c-6.225-4.979-18.136-12.581-19.387-13.966s-7.838-6.708-8.724-7.755c2.256.451,2.489-1.332,1.454-1.939s-5.816-2.423-5.816-2.423c1.713-.382,1.211-1.179,0-2.423s-6.027-6.972-6.3-8.239-.022-.631-.969-2.423-4.445-7.124-4.847-8.432c4.963,3.813,8.816,7.277,9.209,8.432s2.016-.235,2.908.485a29.239,29.239,0,0,1,2.423,1.939,53.048,53.048,0,0,0,7.755,4.362c1.223.41,1.111-1.476,2.423-.485s3.519,4.64,3.877,4.362a3.594,3.594,0,0,1,3.393.969c1.217,1.169,2.973,8.234,5.816,8.724s18.937,17.554,19.387,22.021S277.8,441.813,276.282,440.6Z" transform="translate(-121.619 -78.635)" fill="#999" fill-rule="evenodd"/>
            <path id="Path_2722" data-name="Path 2722" d="M273.141,431.023c4.534,1.089,8.942-.512,10.663.485s3.122,3.649,3.877,3.877,8.932.348,10.178.485c.46,2.329-1.193,2.963.485,2.908s7.078-1.351,8.239,0,1.4,2.031.969,3.393-21.795,1.586-26.657,2.423-7.915.693-9.693-.969S271.634,430.661,273.141,431.023Z" transform="translate(-109.269 -66.549)" fill="#999" fill-rule="evenodd"/>
            <path id="Path_2723" data-name="Path 2723" d="M267.652,412.226c4.47-6.707,14.065-9.793,15.025-12.117s4.6-9.924,4.847-12.117c.939,10.611.026,18.128-.969,19.872s-3.115,4.75-2.423,6.785-.094,7.984-.969,9.428-2.114,6.117-1.454,8.505a48.51,48.51,0,0,1,1.454,6.3c-2.43-1.459-2.305-2.8-6.785-6.3s-9.057-9.309-9.693-14.055S266.92,413.324,267.652,412.226Z" transform="translate(-110.566 -80.225)" fill="#999" fill-rule="evenodd"/>
            <path id="Path_2724" data-name="Path 2724" d="M314.653,398.041c-4.711,3.321-8.813,10.116-9.209,13.086s-2.632,14.337-3.877,17.448c6.89-4.706,14.751-16.447,15.025-19.872S318.668,395.212,314.653,398.041Z" transform="translate(-99.406 -77.188)" fill="#999" fill-rule="evenodd"/>
            <path id="Path_2725" data-name="Path 2725" d="M314.439,399.528c1.244,6.06,4.858,21.451,6.785,22.295s1.939.485,1.939.485-.534,3.879,0,4.847,2.423,1.454,2.423,1.454-.91,2.9,0,3.877a12.04,12.04,0,0,0,3.393,1.939s-.063,2.653,0,3.393,2.423,2.423,2.423,2.423,2.893,6.115,1.939,7.27-2.244,1.086-2.908,3.393,1.883,6.694,9.209,6.3,7.9.976,10.178-1.454,1.187-17.1-2.423-21.326-11.685-7.9-12.6-11.632-3.246-8.633-5.331-10.183C328.463,410.646,315.28,395.94,314.439,399.528Z" transform="translate(-95.314 -76.737)" fill="#999" fill-rule="evenodd"/>
            <path id="Path_2726" data-name="Path 2726" d="M334.314,417.511c-.9,3.167-1.977,5.458-1.454,7.27s4,7.916,3.877,9.209-1.454.969-1.454.969-1.6.693.485,2.908,3.305,1.467,2.423,3.877-1.454,2.423-1.454,2.423,4.467,2.586,4.847-6.785c1.871-2.1,2.37.692,1.939,2.423s.82,8.371-.969,10.178,6.719-2.519,6.3-4.847-3.657-4.362-3.657-4.362,2.427-5.1,0-7.755c-.724-.792-1.012.3-2.159-3.393s-1.324-8.568-2.908-10.928-4.279-12.419-5.331-13.79C334.147,412.266,334.592,416.538,334.314,417.511Z" transform="translate(-89.502 -74.847)" fill="#999" fill-rule="evenodd"/>
            <path id="Path_2727" data-name="Path 2727" d="M294.463,379.536c-2.893,7.114-4.258,9.176-4.847,11.632s-1.108,17.984-.485,20.356,1.1,15.964,1.454,18.418c2.578-13.455,4.917-18.408,7.27-22.295S298.9,378.992,294.463,379.536Z" transform="translate(-103.449 -82.916)" fill="#999" fill-rule="evenodd"/>
            <path id="Path_2728" data-name="Path 2728" d="M313.56,400.556c5.347,3.592,9.743,3.018,12.6,5.22s7.677,4.057,13.571,5.331,9.734.339,12.6,1.939,6.138,3.326,7.755,6.3c-1.212-2.318-1.288-7.615-8.724-9.693-3.8-5.19-8.838-14.719-13.571-15.994s-18.242-.422-21.326.969S311.351,399.072,313.56,400.556Z" transform="translate(-95.889 -78.622)" fill="#999" fill-rule="evenodd"/>
            <path id="Path_2729" data-name="Path 2729" d="M307.739,377.342c-15.962,1.964-31.709,8.9-34.9,11.632s-6.635,7.323-8.724,9.068-10.9,6.9-15.509,9.349c4.533-1.241,14.758-6,17.448-5.816s5.256.2,5.816-.969c-.8,2.009,1.791.95,3.877-.969.673,2.524,4.678,1.294,4.847-.969,1.229,2.686,4.374-1.331,4.847-2.908,2.544,1,3.494-1.663,3.877-2.908,2.151,2.038,7.55-2.742,7.755-4.847,1.871,2.44,13.03-6.656,12.6-8.724S309.158,377.168,307.739,377.342Z" transform="translate(-116.241 -83.631)" fill="#999" fill-rule="evenodd"/>
            <path id="Path_2730" data-name="Path 2730" d="M290.508,392.978a63.6,63.6,0,0,0-20.356-9.693c.254,2.681,1.393,3.166-.969,1.939s-5.452-3.731-6.785-2.908c-.627,2.489,1.3,4.165-1.939,1.939s-4.087-5.407-4.847-2.908-.969,1.939-.969,1.939a13.353,13.353,0,0,0-4.847-1.392c-2.708-.216-1.939.423-1.939.423a31.569,31.569,0,0,1-7.288,0c-3.8-.477-19.985-3.508-16.565-1.939s12.69,9.87,14.159,12.117,6.131,1.632,7.755,1.454c1.57,1.2,2.953,2.925,3.877,2.908a19.38,19.38,0,0,1,3.877,0c2.246.226.043,2.924,1.939,2.908s5.8-.877,6.259-1.416c1.131,2.128,3.312,4.5,4.4,4.324s10.726-.039,11.632-.969c2.926.066,3.377,1.939,4.3,1.939s1.5-1.388,3.455-1.454,13.389.147,14.54-.969S292.087,394.172,290.508,392.978Z" transform="translate(-124.212 -82.788)" fill="#999" fill-rule="evenodd"/>
            <path id="Path_2731" data-name="Path 2731" d="M334.063,381.458c8.8,7.555,9.662,11.786,10.663,14.54s-1.114,3.576.969,3.877,2.473.429,2.908,1.454-.353,5.774.485,5.816,1.113-.357,1.454.485-.516,2.547.485,2.908.973.656,1.454,2.423.7,7.823,1.432,6.3,4.962-8.446,3.415-17.448-1.009-14.63-4.847-18.418S330.108,378.062,334.063,381.458Z" transform="translate(-89.251 -82.899)" fill="#999" fill-rule="evenodd"/>
            <path id="Path_2732" data-name="Path 2732" d="M353.018,417.626c9.12,6.438,13.166,18.154,15.025,18.9s3.712,6.126,4.847,6.3,2.07-.9,2.423,0,1.157,4.416,2.908,5.816,3.524.34,3.877,1.454,1.668,6.907,2.908,5.816.026-2.891,1.454-.969,3.45,6.156,4.847,6.3,1.24-.911,1.939,0,9.755,11.028,10.663,15.51c-.078-3.18.4-12.251-11.632-29.08-1.32-2.587-1.715-6.5,0-5.331s21.243,15.609,24.234,15.994,10,11.622,9.693,17.448c.3-3.6-.427-24.071-6.3-32.473-.007-2.682-2.835-13.085-3.393-14.055a2.855,2.855,0,0,1,3.032.226c1.43,1.723,6.231,8.717,7.631,10.437s5.16,3.128,5.816,4.847,1.454,5.809,2.908,5.816,2.627-1.407,2.908,0,3.229,5.118,4.339,5.816,2.238.54,2.447.969,2.135,1.417,2.908,2.908,1.131,2.925,2.908,2.908,2.668,0,2.908.969.835,2.57,1.939,2.908,3.5-1.067,3.877,0a6.9,6.9,0,0,0,3.877,3.877c2.164.751,1.435-1.306,2.908,0s10.714,7.291,12.117,13.086c-1.059-5.15,1.22-7.749-6.9-18.056s-6.325-10.479-9.1-12.478c.121-1.075.61-5.261-4.847-7.755-.591-.647-.673-5.17-6.785-7.092-.106-.875,1.232-3.539-7.755-7.448.255-1.672.967-1.955-.969-2.908s-6.064-3.264-6.785-4.528-7.533-5.837-8.724-6.567-7.442-3.4-8.341-5.384-6.1-4.612-8.585-5.816-20.679-12.85-16.031-10.663,21.643,9.835,22.78,11.632,6.806,4.552,7.27,4.847,6.323,4.474,7.27,4.847,3.487.251,4.847,1.939,3.743,3.186,4.847,2.908,10.445,8.037,13.086,7.755c1.936,2.053,6.017,5.452,6.785,4.847a7.114,7.114,0,0,1,1.939-.969s4.442,5.948,4.847,5.09.551-1.932,1.353-1.213,4.742,5.715,5.812,4.847,1.559-.5,1.559-.5,3.719,3.669,3.877,2.443.3-2.88.969-2.467,5.723,4.968,6.785,4.406.429-1.546,1.427-.969,13.169,7.924,16.021,11.632c-1.915-2.981-11.494-16.612-21.326-23.264.012-2.472,1.744-2.382-4.847-7.755.1-2.6,1.655-2.77-3.477-6.394.875-1.532-4.378-4.184-6.616-5.716s-.859-3.078-2.509-3.4-3.958.645-4.847-.969-1.132-2.59-2.908-3.877-5.4,1.2-6.2-.969.664-2.7-1.553-3.5-5.5.835-5.816-.373.689-2.084-.969-2.5-8.98.954-8.724-.411.189-1.4-.969-2-6.356-.455-6.785-.905.419-.962-1.939-1.545-25.824-1.29-31.019-1.363c4.048-.242,30.128-1.345,32.958,0s4.374,1.041,4.847,0,2.69-.289,3.877.437,3.35-.79,3.877-1.406,9.8.758,10.663.395.652-1.813,1.939-2.333a37.3,37.3,0,0,1,5.816-.969s.832-2.225,1.939-1.939,3.664.777,3.877,0-.331-.85.551-.969,4.259.244,4.3-.43,1.732-1.945,2.908-2.478,2.3-1.944,3.877-1.939,19.33-4.7,14.54-3.877a45.462,45.462,0,0,1-12.6,0c-1.164-.294-10.043-5.249-10.663-4.847s-.4-1.673-1.939-1.388-7.983.948-7.755-.551,1.752-3.7-.969-2.908-7.166,2.966-6.785,1.513.9-3.8-1.435-2.482-3.555,3.082-3.814,1.939-1.345-5.189-5.759,0c-1.66-.1-2.065,1.758-2.563.969s-.94-1.357-1.939-.969-1.49,3.1-3.877,1.939-1.6-.532-4.847.969-3.508-.308-4.208,0a24.854,24.854,0,0,0-4.516,2.908c-1.555.208-.434-.247-2.908.969s-3.908,2.653-5.331,2.908-.145-2.294-2.908-.485-19.36,16.778-16.964,12.6,17.893-14.852,19.387-15.025c.145-.92-.421-1.4.485-1.939s4.741-2.222,4.847-3.393-.424-1.066.485-1.939,5.014-3.515,4.362-4.362-.226-.317.485-1.454,3.4-4.711,2.908-5.331-.673-.143.485-1.939,14.616-23.035,16.964-32.958c-3.733,4.467-11.559,12.191-11.632,11.147s-.16-1.739-1.939-.257-3.15,5.107-3.877,3.65-.263-1.907-1.939-.485-3.052,5.1-3.877,5.331c-.47-1.516.623-5.7-1.939-2.908s-1.449,6.283-3.393,6.3-.393-1.847-2.423.485-7.894,9.065-9.209,12.117-4.817,12.485-5.816,14.54-5.063,9.29-5.331,13.571c-1.781-2.7-.556-6.408-2.423-11.632a30.6,30.6,0,0,0-7.27-10.663,15.405,15.405,0,0,1-4.362-6.785c-.054,5.451-2.881,4.421-.485,13.086s10.189,19.151,12.6,21.326c-5.988,4.5-31.477,3.1-34.412,4.362s-12.684.143-12.6,2.908.111,4.944,2.423,7.755S350.682,415.976,353.018,417.626Z" transform="translate(-87.365 -101.619)" fill="#999" fill-rule="evenodd"/>
            <path id="Path_2733" data-name="Path 2733" d="M380.183,389.49c-1.373,1.186-3.155,1.751-2.423,2.423s-.482,1.415.969,1.939c-2.8-.422-3.305-1.956-3.393-.969s-1.973-.081,0,1.939,2.351,3.09,4.847,4.362,4.148,3.93,5.331,4.847c1.251-.772,1.058-1.724.969-3.393s-.016-2.706-1.454-2.423-1.007-3.289-.969-4.847S381.03,388.758,380.183,389.49Z" transform="translate(-76.241 -79.785)" fill="#999" fill-rule="evenodd"/>
            <path id="Path_2734" data-name="Path 2734" d="M332.685,355.86c-6.509,3.7-7.913,6.389-8.724,7.755s-2.2,3.924-.969,2.908-1.282.258-2.908,2.908-2.609,7.135-.969,5.816,2.595.648.969,1.939-4.013,2.231-3.877,3.877,1.571,9.969-1.939,17.448c4.911-4.949,19.365-20.008,20.356-23.264.677,2.868-.622,3.724,3.877,7.755-1.039-6.1,1.962-6.857-.485-14.54s-.822-9.367-1.454-11.632c3.168,8.993,12.5,26.989,12.6,36.835,13.208,21,12.846,12.744,14.54,20.356-1.542-8.571-1.77-33.365-10.663-45.559s-12.186-11.059-15.51-13.086.315-5.1-19.387-11.147c-10.245,2.058-12.463,8.379-9.693,9.693s9.768,2.394,12.6,1.939S332.685,355.86,332.685,355.86Z" transform="translate(-97.566 -94.137)" fill="#999" fill-rule="evenodd"/>
            <path id="Path_2735" data-name="Path 2735" d="M311.975,330.86c-3.738,11.281-13.862,25.249-14.055,26.172s2.44-.292.969.969-4.786,4.483-3.877,5.331,2.469,1.078,1.939,2.423-3.766,4.608-3.877,6.3.1,5.577-.485,6.785a20.043,20.043,0,0,0-1.939,6.785c-.532,3.839-2.3,31.763,1.454,42.651.512-10.068,4.635-19.615,5.816-21.326s.924,3.1,1.454,1.939,2.3-8.072,2.908-7.755.576,1.039,1.454,0,.585-6.117,1.939-7.215,4.319-.466,4.374-2.992-1-4.484.473-5.3,1.763-1.049,1.939-3.393.76-2.589,1.454-2.423,1.149-4.467-.485-6.785c2.411.377,7.073-33.909,2.908-44.59,3.084-2.818,4.312.872,4.847,3.877s.889,8.16,3.877,10.663c-.381,5.055-1.151,5.452,0,6.785s4.375,11.967,5.245,12.6,2.07-.358,2.152.969,5.093,11.443,5.2,13.571c2.111.384,2.811-.5,2.908,1.454s2.164,3.616,1.939,4.847c1.732-.088,2.908-2.423,2.908-2.423s-.995,3.392,0,5.331S360,405.145,356.565,399.683s-6.414-18.07-5.816-19.872,1.842-4.139,1.454-5.331-1.174-3.371-2.908-3.877,0-3.393,0-3.393,1.555-.236.485-2.908-5.243-4.365-5.816-5.816.365-4.119,1.939-2.423-1.211-2.175-3.393-3.877-2.787-4.326-.485-2.908,3.8,1.2,1.454-1.454-9.345-14.3-16.479-17.933c3.28-4.182,13.277,2.976,25.688-.969,3.293,6.75,19.991,13.135,20.841,38.289-.051-14.746,4.124-21.43-15.51-41.682-2.576.336-2.027,1.439-2.908,1.454s-20.482-6.118-37.32-4.847c3.793-7.529,4.268-11.36,6.3-12.117s-2.131.138-.969-.969,3.415-2.071,2.452-2.908-3.186-.067-1.483-1.359,4.82-11.48,12.6-11.727c-5.786.646-5.917-1.849-12.6,4.362-.123-1.827-.567-2.432-2.423,0s-2.849,4.776-4.362,6.3-3.939,2.791-3.877,5.816-1.108,4.74-.969,6.785c-3.571-4.379-4.813-7.959-6.785-9.209s-11.719-6.8-14.54-9.693-8.677-9.854-8.24-6.785-1.454,2.423-1.454,2.423a29.617,29.617,0,0,0-5.331-3.877c-2.292-1.11.09,1.915-2.423.969s-3.325-3.351-4.362-2.423,1.819,4.3-.485,2.423-21.7-6.422-28.111-12.117c4.2,5.778,1.762,4.486,14.54,15.025-.516.99,1.763,1.487,2.908,2.423s4.682,2.937,5.816,3.877,4.308.807,5.331,1.939,3.216,2.341.969,2.423c1.532,2.589,13.851,7.023,15.025,10.663s1.157,2.973-1.454,2.423-3.028-2.709-4.847-1.939-4.49,1.374-5.816.969-1.287-2.469-2.423-1.454-2.882,2.031-4.362,1.454-5.027-1.946-5.331-.969,2.859,1.244-1.454,1.454-5.85-1.824-6.3,0-1.018,2.095-3.877,2.423-4.7-1.249-4.362.485.6,2.426-1.939,2.423-4.643-.257-4.362.969.471,1.3-2.423,1.454-4.49-1.558-4.362,0,.571,1.564-1.454,1.939-4.149,2.056-8.239,3.877-5.124,2.983-15.994,1.939a15.011,15.011,0,0,0,8.724,2.908c4.639.152,9.97.731,11.147.485s12.9-.735,12.6.969,5.182,1.105,7.27-.485c.241,2.06,5.709.905,6.3,0,2.637.986,8.173-.109,8.724-.485,2.42,1.206,8.371-.885,9.693-1.939.684,2.771,5.965,1.513,7.755-.485,2.647,1.7,5.072.831,5.816-.485s7.885-.646,7.755-1.939,1.926-1.227,1.939,0-4.639,2.771-5.816,2.908-1,.868-1.939,1.939a9.357,9.357,0,0,1-4.847,2.908c-2.1.42-.282,1.025-1.939,1.939s-7.165,1.649-6.785,2.908c1.025,1.436,2.848,1.153.969,1.939s-7.755,5.329-7.755,5.329,1.364.831,0,1.456a67.233,67.233,0,0,0-5.816,3.877s2.734.237.969.969-10.475,8.454-10.663,9.693.686,2.32,0,2.908-5.782,4.093-4.847,4.847,2.5-.223,1.939.969-6.731,5.046-5.816,5.816,2.845-.384,1.939.969-5.943,4.412-4.847,4.847,2.956.449,1.939.969S227.657,402.8,222.31,404.045c3.389-.892,18.095-8.42,20.356-11.632s2.908.969,2.908.969,4.156-5.3,4.847-3.877c1.1,5.353,6.813-6.371,6.785-4.261-1.844,8.735,7.272-6.078,7.213-3.494-.087,7.685,6.765-4.887,6.358-3.877s1.351.969,1.351.969,4.269-7.9,4.465-6.785,2.63,1.029,2.908,0a74.932,74.932,0,0,1,3.877-6.785l5.816-7.755h1.939s3.749-6.266,3.877-5.816.969,0,.969,0S312.4,329.589,311.975,330.86Z" transform="translate(-129.685 -115.18)" fill="#999" fill-rule="evenodd"/>
            <path id="Path_2736" data-name="Path 2736" d="M354.05,338.015c11.123,10.368,15.2,23.311,16.479,28.111.018-8.831-1.024-19.9-3.877-23.264,4.888,1.662,26.532,15.083,31.988,16.479s8.73-4.075,7.755-4.847-9.121-2.463-11.632-2.908-13.193-16.831-36.835-16.479c10.105-2.163,36.37-12.281,27.142-10.663s-17.786-1.22-20.356,0-9.6,6.632-9.693,8.724S351.185,335.345,354.05,338.015Z" transform="translate(-83.065 -100.526)" fill="#999" fill-rule="evenodd"/>
            <path id="Path_2737" data-name="Path 2737" d="M313.3,308.06c-1.042,4.6-2.553,21.008-2.908,27.142,3.35-7.034,10.28-13,9.693-15.509S317.04,313.2,317.179,310c5.5,5.331,19.478,21.147,24.234,23.264s15.357,6.874,19.387,12.6c-4.507-5.323-14.319-23.635-40.712-37.8,6.362.917,24.278-.229,26.172-1.939-3.664.275-7.007-1.989-10.663-2.908s-13.752-1.311-16.479.969S314.513,302.709,313.3,308.06Z" transform="translate(-96.6 -107.406)" fill="#999" fill-rule="evenodd"/>
            <path id="Path_2738" data-name="Path 2738" d="M329.865,298.444c9.105,4.685,15.567,14.122,17.448,15.509s-.209-1.387,1.939,0,8.879,7.424,10.178,9.209-.243-1.652.969-.485,15.7,12.333,18.9,17.448c.984-5.04,3.325-8.38.969-11.025s-7.615-9.708-9.693-12.239c5.553,1.716,8.818,2.439,10.663,2.908s8.279,3.562,8.724,6.785c-1.279-2.623-1.769-5.716-12.6-14.54.224-.918.2-2.616-4.847-4.847-.654-.374,1.249-4.445-2.908-5.816s-3.335-3.711-4.955-3.877-9.725-3.2-10.554-4.847-1.42-2.908-1.42-2.908-1.772,2.115-2.982.969a5.305,5.305,0,0,1-1.414-2.908s-14.815-3.66-26.172,4.847c-3.5,4.873-6.362,11.21-5.816,13.571S325.074,295.979,329.865,298.444Z" transform="translate(-94.746 -112.33)" fill="#999" fill-rule="evenodd"/>
            <path id="Path_2739" data-name="Path 2739" d="M314.81,306.6c-12.5-5.2-12.606-7.452-14.54-7.27s-6.287,2.067-5.816.485-.627-1.52-2.908-1.454-2.423-.485-2.423-.485l-2.908.485V296.9a18.6,18.6,0,0,0-3.877.485c-.864.376-.969-.969-.969-.969s-.223-.686-2.908.485-19.3-2.414-22.78-4.362-3.393-4.847-3.393-4.847a12.881,12.881,0,0,1,6.785-1.939c4.3-.125,11.6.552,12.6.969s1.454-.969,1.454-.969,1.658.823,2.908,1.454,2.908-.969,2.908-.969a44.978,44.978,0,0,1,4.847,1.939c1.753.9,2.087.107,3.393,1.454a2.491,2.491,0,0,0,2.908.485s.246.456,1.939.969,1.488-.746,2.423,0C295.566,291.692,319.146,307.982,314.81,306.6Z" transform="translate(-115.072 -112.729)" fill="#999" fill-rule="evenodd"/>
            <path id="Path_2740" data-name="Path 2740" d="M330.35,284.251c-5.063,5.8-9.745,16.454-9.693,20.356s.907,4.654-2.908,8.724c3.277-2.122,23.028-8.241,26.172-13.571s5.226-9.447,4.847-12.6c2,6.584,3.091,9.713,3.843,10.663s-1,3.874.034,4.847,2.768,1.4,2.908,2.908-1.2,2.44,0,3.877.582.918.969,3.877,4.846,16.663,2.908,24.234c1.661-5.82,4.155-15.264,2.908-25.2,1.664-.2-1.062-4.6-.969-5.816s2.341-1.4,1.939-1.939-2.277-2.478-2.423-3.877a52.363,52.363,0,0,0-6.3-17.448c5.144,3.724,20.615,24.851,21.81,25.688s1.845.589,2.423,1.454.661,4.385,1.939,4.847,2.088-1.828,2.423-.485,1.229,5.019,1.939,5.331.536-1.968,1.454-.485,11.278,15.98,12.6,15.994,1.4-.809,1.939,0,6.9,12.029,14.54,18.9c-2.581-3.388-11.32-28.306-19.387-38.289,1.136-1.006-16.775-27.931-41.682-36.835,7.606.522,15.046.936,15.51,1.939s.969-.485.969-.485,5.215,3.2,5.816,3.393.485-1.939.485-1.939,13.872,5.86,15.025,6.3,1.454-1.454,1.454-1.454,3.219,2.239,4.362,2.908,1.454-1.454,1.454-1.454a51.105,51.105,0,0,0,5.331,3.393c1.478.643,1.454-1.454,1.454-1.454s4.187,1.507,5.331,2.908.969-.969.969-.969a34.745,34.745,0,0,1,5.331,3.393c1.181,1.189.969-1.454.969-1.454s5.107,2.137,5.816,3.393.485-1.454.485-1.454,3.453.985,4.362,2.423,1.454-1.939,1.454-1.939,3.992,1.587,4.362,2.908,1.454-1.454,1.454-1.454,15.739,2.939,21.81,7.27c-3.354-2.259-15.786-10.219-18.9-11.147-.329-.491-.323-2.168-1.939-2.908a14.673,14.673,0,0,0-3.877-.969l-.485-2.908s-3.936.248-4.362-.485-.429-2.25-.969-2.908-5.631-2.3-5.816-2.423a5.735,5.735,0,0,1-.485-1.454s-6.912.3-7.27-.969a16.936,16.936,0,0,1-.485-2.423s-5.768.6-5.816-.485a5.234,5.234,0,0,0-.485-1.939s-6.8.965-6.785,0,0-1.939,0-1.939-5.905.363-6.3,0a2.339,2.339,0,0,0-.969-.485s-8-.145-8.239-.485a4.619,4.619,0,0,0-4.847-.485,23.1,23.1,0,0,0,5.331-2.423l.485-.969,3.877-.485v-1.454a14.733,14.733,0,0,1,4.847,0c1.678.5.969-1.454.969-1.454s2.922-.755,3.877,0,.969-2.423.969-2.423,4.062.093,4.847,0,0-1.939,0-1.939,1.782-1.825,2.908-.969.969-2.423.969-2.423,9.842-.024,14.055-5.331c-3.6,1.583-18.077,1.626-19.387,1.454s-.969-2.423-.969-2.423a33.878,33.878,0,0,0-3.393,1.454.988.988,0,0,1-1.454-.485s-2.793,1.788-4.362,1.939-.969-1.939-.969-1.939-3.008,3.817-4.362,2.423-.485-2.423-.485-2.423-3.778,4.233-4.847,2.908-.969-.969-.969-.969-5.4,5.136-4.847,2.908.485-1.939.485-1.939-3.634,4.7-5.331,4.362-1.454-.969-1.454-.969-19.572,15.674-21.326,17.933c2.578-4.493,16.092-19.342,16.479-24.718s1.741-6.676,2.423-7.27a8.945,8.945,0,0,0,1.939-3.393c.057-.658-2.274,1.533-1.454,0s3.939-4.5,3.877-5.331-2.479.857-1.939,0,3.543-11.245,8.724-15.994c-3.76,3.731-11.145,9.333-13.571,14.056a3.587,3.587,0,0,0-1.939,0,2.863,2.863,0,0,0-.969,2.423c.183,1.493,1.06,1.648,0,1.939s-1.641-.358-1.939.969-4.325,7.133-4.362,8.239-.969.485-.969.485a5.366,5.366,0,0,0-.969,2.908c-.057,1.746-6.415,18.185-6.3,21.326-1.729-3.7-16.74-26.047-25.688-15.025,4.14-1.766,13.074-1.9,24.234,18.9-.617.454-1.122,2.054-1.939,1.939s-2.475-2.56-4.362-1.939-4.056,2.645-4.362,2.423-11.222.48-14.54,2.908c-3.016,2.428-2.471.992,0,.969s7.244-.609,8.176,0S332.15,282.189,330.35,284.251Z" transform="translate(-94.262 -134.003)" fill="#999" fill-rule="evenodd"/>
            <path id="Path_2741" data-name="Path 2741" d="M315.18,237.118c-8.64,7.02-16.331,18.3-18.9,21.326s-4.977,4.661-3.877,4.847-.346,1.689-1.939,2.908-2.827,1.858-.969,1.939,2.369.848.969,1.939-2.791,2.116-2.908,3.877.944,3.908,0,4.847-4.83,4.015-3.369,4.847,2.871.483,2.4,1.939-.981,3.129-1.939,3.877,1.417,1.461,1.939.485-5.29,19-8.239,24.234c2.907-5.233,11.938-17.822,12.117-20.356,2.03-.036,2.041,1.047,2.423-.485a12.827,12.827,0,0,0,.485-3.877c-.1-.8,4.254-2.117,4.847-2.423s.552-5.547.969-6.785,2.986.473,3.393-.969,1.821-7.009,2.423-8.239,1.548-.015,1.454-.485,3.409-7.961,4.362-9.693-1.814-3.182,0-5.816,4.926-12.833,5.816-14.056c.959-1.085,1.156-.584,1.454,1.939s1.956,19.914,1.454,22.295c-.123,2.416,2.455.823,2.423,0s1.793,5.593.485,8.724,1.939,1.454,1.939,1.454,1.913,2.529.969,3.877-.257,6.21.485,4.847,0,5.331,0,5.331H327.3s-1.752,2.942,0,5.331a17.117,17.117,0,0,0,2.423,2.908s5.5,13.476,3.877,19.872c.747-5.447,2.074-21.012,1.454-22.295s1.61-13.723-.969-23.264-1.262-21.19-10.663-31.988c4.9,2.035,20.338,7.342,24.718,12.117.59-2.5,1.113-3.289,3.393.485.661,2.6,2.087,1.724,2.423,1.454s2.34,1.518,2.908,2.423,2.762.417,2.908.485,6.021,3.183,8.014,7.27c-1.252-2.669-5.932-10.784-11.406-14.055.153-1.966.409-2.357-.969-3.393a6.291,6.291,0,0,0-3.473-.969s.982-1.129-3.312-3.877-4.847-1.939-4.847-1.939.883-1.745.5-1.939a64.8,64.8,0,0,0-7.283-1.489c-1.647-.166-4.61-1.626-5.816-1.419s-.522-.7.969-1.337,12.965-8.868,21.326-9.326c-2.774.065-11.781-.377-14.54,1.939s-6.384,4.521-7.755,5.486a22.913,22.913,0,0,0,3.877-5.486c-.618.442-2.139.295-5.816,4.847a5.549,5.549,0,0,1,0-1.939c.118-.527.724-5.524-.969-4.847s-3.969,1.718-3.877,2.908-1.164,1.215-1.939.477-1.966-3.963-2.908-3.913-2.123,1.182-1.939,1.993.486,3.393-.969,3.382-10.461-9.77-15.994-12.117c-2.252-.542-1.119,2.507-2.423,1.454s-4.847-3.393-4.847-3.393-.344,1.609-.969.969a46.358,46.358,0,0,0-4.847-2.908s.562,1.942-.485,1.454-5.816-2.423-5.816-2.423.057.315-.485.485-12.032-3.749-17.448-4.362c3.025,1.088,17.242,9.125,18.418,10.178s4.591,1.1,4.847,1.454,7.924,2.592,7.755,3.877-1.939,1.454-1.939,1.454a14.561,14.561,0,0,1-.485,3.877c-.457.919-2.423,1.454-2.423,1.454a7.68,7.68,0,0,1-.969,6.3c-2.062,3.117-6.155,14.965-4.847,27.142,2.62-3.845,13.281-17.145,14.54-23.264s.4-8.535,2.908-10.663,12.691,2.312,13.571,3.877S316.458,236.079,315.18,237.118Z" transform="translate(-111.565 -137.276)" fill="#999" fill-rule="evenodd"/>
            <path id="Path_2742" data-name="Path 2742" d="M319.722,228.4c-2.49.081-15.815-3.316-21.326-.485s-6.072,3.227-7.27,2.908,2.861,1.485-.485,1.454-2.615.4-5.816,0,2.394,1.722.508,1.939-13.147,4.766-14.079,6.785a8.118,8.118,0,0,0-.485,4.362s-2.913-1.482-7.27,2.908-6.77,7.511-15.994,8.239c4.143-.123,15.841-3.419,18.418-3.877s8.385-1.51,9.693-2.908,5.014-.741,6.3-1.454,26.951-13.379,27.142-14.54c.8.9,4.474-1.053,5.816-2.423s4.636-.365,5.7-.969S323.347,228.284,319.722,228.4Z" transform="translate(-116.592 -131.469)" fill="#999" fill-rule="evenodd"/>
            <path id="Path_2743" data-name="Path 2743" d="M297.434,301.243c-2.139-4.919-17.357-16.2-17.933-27.626a33.4,33.4,0,0,0,15.025,9.693c4.617,1.519,14.119,7.495,14.54,11.632S298.439,303.552,297.434,301.243Z" transform="translate(-106.421 -116.583)" fill="#999" fill-rule="evenodd"/>
            <path id="Path_2744" data-name="Path 2744" d="M300.574,282.356c-3.2,5.008-4.847,4.847-4.847,4.847a18.808,18.808,0,0,0-.969,3.393c-.176,1.356-2.423,1.454-2.423,1.454s.444.654-.969,2.908-2.423.485-2.423.485a5.779,5.779,0,0,0-1.454,3.393c-.239,2.228-3.393,1.454-3.393,1.454s-1.351.71-.969,2.908-2.423,1.454-2.423,1.454-.263.62-.969,2.423a3.506,3.506,0,0,1-2.908,1.939s-3.277.515-2.908,3.393-2.908,0-2.908,0a18.925,18.925,0,0,0-6.785,11.148c.582-4.973-3.678-6.311,3.877-13.086-.7-1.368-.487-2.962,2.423-5.331-.2-1.74-.353-4.825,2.908-6.3-.405-2.291,1.9-4.373,3.393-5.331.387-2.329,2.361-4.031,3.393-4.847s.581-2.149,1.454-2.908,13.9-8.244,16.479-8.724c.505-2.071-.036-1.806-.969-1.939s-14.611,2.308-15.994,4.847c-.938-1.128-4.861-.772-7.27,1.939.665-2.1-1.766-1.543-4.847,1.454s-2.715,1.35-2.423,0-4.25.723-5.816,2.442-1.469-.6-.969-1.472-3.556.212-4.847,1.939-3.09,1.5-1.939,0-4.211.018-5.366,1.939-2.008-.571-1.419-.969-3.971.928-4.847,1.939-.8.833-.969-.412-5.962.415-6.785,1.9-1.856.3-.969-1.037-.79-2.393-3.877.522-1.9-1.222-1.4-1.939-18.691,4.595-23.8,8.724c5.79-3.959,18.208-12.695,22.295-13.571s.34-2.328.969-2.328,2,1.313,3.877.39A7.412,7.412,0,0,0,233.689,278s3.555,1.333,4.847.059a2.73,2.73,0,0,0,.969-2.493s3.938,1.091,4.352,0a8.214,8.214,0,0,0,.494-1.939s5.786,1.524,5.816,0,1.939-1.939,1.939-1.939,4.094,2.531,3.877.969,0-1.939,0-1.939a29.218,29.218,0,0,0,5.816,0,9.495,9.495,0,0,0,2.908-.969s29.165-.969,34.9,3.877c-2.09-2.205-6.932-5.44-14.54-6.785s-11.728-2.5-12.6-3.419,1.216-1.689-.969-1.837-5.536-.362-5.816-1.53.758-1.493-1.939-1.4-5.528,1.212-5.816-.535.9-1.894-2.908-1.939-6.193-.145-5.816-.969.5-.937-2.908-.969-4.225-.329-3.877-1.291,1.255-1.649-1.939-1.617-4.146-.015-3.877-.969-.438-1.886-3.877-1.939-3.77-1.514-2.908-1.939-1.89-.536-3.877-.969-3.313-.985-1.939-1.939-.126-.333-1.939-.969-1.62-1.108-1.939-1.939-17.361-10.056-25.2-12.6c6.185,1.3,17.772,4.181,19.872,5.331s-.062-1.411.485-1.454a30.29,30.29,0,0,1,6.785,2.908c.951.782,1.368-1.775,2.423-1.454a8.2,8.2,0,0,1,3.393,1.939c1.357,1.206.643-2.555,1.454-1.939s4.955,2.753,6.3,3.877-.138-2.256.969-1.939,4.559,1.547,5.331,2.423-.593-2.6.485-1.939,8.332,4.213,8.724,5.331.479-3.458.969-2.908,5.453,3.236,5.816,4.362.45-1.881.969-1.454,5.288,3.639,6.3,5.331-.6-1.8.969-1.454,6.714,5.937,7.27,5.816,1.068-2.709,1.454-1.939,4.508,3.552,4.847,5.331,1.624-.969,2.423,0,4.569,1.587,4.847,2.908c-.215-2.274,1.881-4.61-4.362-9.693-.265-1.619-.835-2.1-1.939-3.393s-2.121-2.191-1.939-3.393-1.912-1.99-3.393-3.877-.575-2.487-.485-2.908-1.914-1.64-2.423-2.423.054-.7,0-1.454-1.711-1.984-2.423-2.908,0-1.531,0-1.939a7.449,7.449,0,0,0-1.939-2.423c-.453-.275-.574.174,0-.969s-.816-2.324-1.454-3.393-.667-1.15-.485-1.939a2.894,2.894,0,0,0-.485-2.423c-.578-.835-1.4-2.237-.969-3.393s-5.273-14.287-2.423-19.387c.905,4.622,2.006,13.676,6.3,16.479s5.38,4.28,5.331,5.331,1.4-1.523,1.688-.969a12.156,12.156,0,0,1,.736,3.393c.054,1.048,2.427.068,2.908,1.19a9.138,9.138,0,0,1,.485,3.656c-.051.91,1.5-.236,1.939.969s-.7,3.026-.221,3.877,3.583-1.342,4.1,0,.152,5.087.738,5.331,2.072-1.482,2.655-.485.265,6.878.969,6.3,1.018-1.4,1.454-.485-.512,4.825,1.194,4.847,1.789-1.7,2.2-.485-.328,5.223.485,5.816,2.9-.512,3.669.485-.194,10.893.693,12.117,1.1.839,1.454,1.939.076,3.463.969,4.847,3.071,3.02,2.908,4.362-1.187,3.081,0,2.423,8.984-6.042,10.178-6.3,7.877-1.584,8.724-.485-3.508,6.52-4.847,6.3-11.648-.44-12.6,2.423c4.914.613,6.522-.488,10.178.485s.764,7.475,0,8.724-1.033,3.546-2.908,5.331a11.633,11.633,0,0,0-3.393,6.785,7.2,7.2,0,0,1-1.454,4.362c-1.047,1.689-2.072,4.936-2.665,3.393s-1.176-1.1.241-3.393,2.5-2.818,1.939-4.362-2.477.494-2.423-.485.64-1.386.969-3.393-1.529-5.17-3.393-6.3S301.3,281.222,300.574,282.356Z" transform="translate(-133.309 -142.771)" fill="#999" fill-rule="evenodd"/>
            <path id="Path_2745" data-name="Path 2745" d="M313.585,211.779c-1.271,2.026-3.78,2.944-4.847,4.847s-4.96,3.912-4.847,7.755c1.218-4.747,2.347-11.7,4.847-13.571-3.478.786-38.725,8.553-42.651,14.54,1.751-3.054,9.918-11.932,18.418-13.571s16.6-2.821,22.295-2.908c-13.745-2.3-50.233-9.846-76.578-7.755,7.712-1.324,63.022-10.552,78.517,5.816-16.7-14.023-49.539-42.72-43.62-36.835S285,181.509,287.412,183.667s19.282,13.456,24.234,24.234c-1.077-11.928-1.485-23.85,0-28.111a58.871,58.871,0,0,0,2.908,15.51c.888,2.382.389,9.66-.969,12.6S314.289,210.655,313.585,211.779Z" transform="translate(-122.086 -149.74)" fill="#999" fill-rule="evenodd"/>
            <path id="Path_2746" data-name="Path 2746" d="M312.84,287.373c-2-5.205-9.18-10.713-13.571-16.479s-12.759-16.472-14.54-22.617,3.634-30.949,17.448-42.329c-2.276,4-5.51,16.043-5.816,21.326s-1.821,7.142-2.908,8.724-.6,10.624,4.847,14.54,7.394,8.775,7.755,10.663.236-6.118,7.755-6.785c.455,8.437-.487,9.435-1.939,10.663s-3.862,4.117-.969,2.908,6.6-1.3,6.785-4.12-.636,11.9-.969,14.783.648,18.788,0,22.295-2.029,8.933-2.908,4.847S313.555,289.237,312.84,287.373Z" transform="translate(-104.863 -138.094)" fill="#999" fill-rule="evenodd"/>
            <path id="Path_2747" data-name="Path 2747" d="M319.29,272.809c-1.86-12.193,5.554-25.677,11.632-27.142-.7,5.769-3.254,13.6-2.908,15.51s2.61-.326,6.785,1.939c-4.465-.347-13.754,10.786-14.54,13.571C319.908,276.9,319.915,276.9,319.29,272.809Z" transform="translate(-93.865 -125.468)" fill="#999" fill-rule="evenodd"/>
            <path id="Path_2748" data-name="Path 2748" d="M322.523,215.172a58.137,58.137,0,0,1,11.632,5.816l.969-.485s3.412.784,3.877,2.423.009-.016.969,0,1.928,1.4,3.877,2.908,2.908,0,2.908,0a14.393,14.393,0,0,1,2.908,2.908c1.261,1.735,2.908,0,2.908,0l4.847,1.939s6.991,1.263,9.693,4.847c-3.158-3.01-9.328-10.154-11.632-10.663s-3.252-.226-3.877-.969a6.223,6.223,0,0,1-.969-1.939s-1.713,1.473-2.908,0-.328-2.826-1.939-2.908-1.379,1.5-2.908,0-.1-1.754-1.939-1.939-3.246,1.493-3.877,0,.785-1.7-.969-1.939-8.373-.5-10.663-.969c8.8-.939,36-.585,42.651-2.908s7.877-1.921,12.6-1.939c-3.619-.2-7.425-2.189-11.632-2.908s-9.924-5.046-20.356-3.877-14.261.772-17.448,1.939,4.778-10.927,7.755-14.54,7.145-8.373,7.27-13.086c4.358-3.736,5.834-6.464,12.6-4.847-5.564-.989-8.579-2.863-14.54,1.939-6.569-.452-10.44,1.183-14.54,8.724s-10.075,24.453-9.693,26.657-2.914,2.568-1.939,4.362S320.688,214.527,322.523,215.172Z" transform="translate(-94.189 -149.257)" fill="#999" fill-rule="evenodd"/>
            <path id="Path_2749" data-name="Path 2749" d="M311.853,389.366c-5.164-5.75-20.206-4.464-27.142-9.693-4.909-1.466-21.382-10.943-26.172-11.632,6.4.807,27.17-1.828,31.019-.969s24.7,14.845,25.2,18.418S313.123,390.78,311.853,389.366Z" transform="translate(-113.084 -86.931)" fill="#999" fill-rule="evenodd"/>
            <path id="Path_2750" data-name="Path 2750" d="M316.439,201.605c-9.212-8.626-10.519-9.837-11.632-11.273s-10.485-12.316-16.479-14.54c4.749,2.361,19.775,8.052,25.2,15.509S319.949,204.892,316.439,201.605Z" transform="translate(-103.615 -147.681)" fill="#999" fill-rule="evenodd"/>
            <path id="Path_2751" data-name="Path 2751" d="M310.223,187.419c-2.434-5.17-11.292-18.861-14.54-22.295,2.908,2.785,15.169,14.7,15.509,18.418-1.042-3.885-10.852-24.372-11.632-29.08,2.172,3.145,12.011,19.835,15.509,22.295,2.242-6.147,6.95-18.852,11.632-21.326-2.229,2.8-5.518,6.541-4.847,8.724s2.775,9.89.969,12.6-2.7,5.393-1.939,6.785.27,2.029-2.908,3.877S311.364,189.842,310.223,187.419Z" transform="translate(-101.277 -154.461)" fill="#999" fill-rule="evenodd"/>
          </g>
          <g id="Group_1170" data-name="Group 1170" transform="translate(423.171 382.406) rotate(180)">
            <path id="Path_2752" data-name="Path 2752" d="M79.054,1.241c-1.685,1.631-5,5.146-5.816,4.355s-.746-1.151-1.454-.963S65.4,11.8,64.514,11.419s-.5-1.829-1.454-.969-3.63,5.428-4.362,5.331-1.688-2.387-2.423-1.939-3.469,5.348-6.3,4.847c-.893-.158-1.186-2.956-1.939-1.939s-.055,3.691-5.331,4.6c-.785.135-1.76-3.969-3.393-2.659s-.893,4.323-6.3,4.362c-.666,0-1.6-1.6-2.908-.969s-4.375,2.509-5.816,2.423-1.608-1.519-2.423-1.454-3.08,1.94-4.847,1.939-1.671-1.144-2.423-.969S.814,32.188.053,30.806s6.865-8.5,12.117-12.6c.148-1.717-.507-3.635.241-4.134s5.8-3.183,6.059-3.62c.047-.6-.451-2.61.485-3.1s5.5-.582,5.816-1.265-.031-4.629.485-5.153S81.4-1.031,79.054,1.241Z" transform="translate(0 6.998)" fill="gray" fill-rule="evenodd"/>
            <path id="Path_2753" data-name="Path 2753" d="M7.015,1.781C4.3,7.184,1.545,11.909,1.2,17.845S-.543,27.267.23,28.508s2.389,1.944.969,3.554A3.15,3.15,0,0,0,.23,34.994s.916-.7.969.849S.714,41.781.714,41.781s.835-.572.969.3.969,4.847.969,4.847,1.063.4.969.969,4.1,13.932,5.816,13.571,1.939-7.27,1.939-7.27a8.213,8.213,0,0,0,2.423-.485c.325-1.237-1.155-6.66,0-6.785s1.123-5.008,1.939-5.331,2.529.106,2.423-.485-.571-11.2.485-11.147c1.583,1.383,2.507,2.942,2.908,1.939s-.237-1.958.969-2.423,1.278-22.644,0-25.2S17.261.874,15.254.4,8.2-.572,7.015,1.781Z" transform="translate(81.733 5.904)" fill="gray" fill-rule="evenodd"/>
            <path id="Path_2754" data-name="Path 2754" d="M97.9,5.763c-8.638,7.767-23.663,15.113-24.718,15.51-.838-.691-1.158-.394-2.194-.485s-6.341,4.343-10.408,3.877c-.7.1-5.709,1.759-6.3,3.1,0,0,.01-.882-1.454-1.163s-6.591,3.018-7.026,3.683.409-3.186-.729-3.2-3.859,2.061-5.816,1.939-12.223-.982-15.51-1.454S2.179,25.507,0,26.6c5.745-4.3,33.082-19.031,34.9-19.872a6.927,6.927,0,0,1,4.847-.485c.831.41.952-1.687,1.939-1.454s6.188.315,7.27-.485.327-3.292,1.454-3.393,3.756,3.513,5.331,2.908S57.1,2.145,57.191.432,101.612,2.43,97.9,5.763Z" transform="translate(66.938 6.353)" fill="gray" fill-rule="evenodd"/>
            <path id="Path_2755" data-name="Path 2755" d="M17.614,3.054c-3.159,4.9-12.071,13.441-11.147,14.54s3.387.112,1.939,1.454-5.951,5.306-4.847,6.3,3.9-1.134,1.939.969S-.91,31.946.166,32.619s3.657-.618,2.908.969S.975,39.2,2.1,39.4s2.3.318,1.454,1.454S.222,45.173,1.62,45.705s2.112-.97,1.939.485.5,14.527,1.939,12.6,8.169-16.452,9.209-15.509-.437-4.587.485-3.877,3.637.945,3.393,0-1.388-8.569-.275-7.27,3.366,1.175,3.183,0,.5-4.27.969-3.232S25.082,17.758,24.4,13.717,22.225.976,21.491.146,18.125,2.261,17.614,3.054Z" transform="translate(143.835 9.063)" fill="gray" fill-rule="evenodd"/>
            <path id="Path_2756" data-name="Path 2756" d="M44.59,4.762C38.365,9.74,26.453,17.343,25.2,18.728s-7.838,6.708-8.724,7.755c2.256-.451,2.489,1.332,1.454,1.939s-5.816,2.423-5.816,2.423c1.713.382,1.211,1.179,0,2.423s-6.027,6.972-6.3,8.239-.022.631-.969,2.423S.4,51.055,0,52.363c4.963-3.813,8.816-7.277,9.209-8.432s2.016.235,2.908-.485a29.222,29.222,0,0,0,2.423-1.939,53.049,53.049,0,0,1,7.755-4.362c1.223-.41,1.111,1.476,2.423.485s3.519-4.64,3.877-4.362a3.594,3.594,0,0,0,3.393-.969c1.218-1.169,2.973-8.234,5.816-8.724S56.742,6.021,57.191,1.554,46.11,3.545,44.59,4.762Z" transform="translate(110.073 15.684)" fill="gray" fill-rule="evenodd"/>
            <path id="Path_2757" data-name="Path 2757" d="M2.6,14.071c4.534-1.089,8.942.512,10.663-.485s3.122-3.649,3.877-3.877,8.933-.348,10.178-.485c.46-2.329-1.193-2.963.485-2.908s7.078,1.351,8.239,0,1.4-2.031.969-3.393S15.217,1.338,10.355.5,2.44-.193.661,1.469,1.092,14.432,2.6,14.071Z" transform="translate(161.272 3.862)" fill="gray" fill-rule="evenodd"/>
            <path id="Path_2758" data-name="Path 2758" d="M1.19,26.657c4.47,6.707,14.065,9.793,15.025,12.117s4.6,9.924,4.847,12.117c.939-10.611.026-18.128-.969-19.872s-3.115-4.75-2.423-6.785-.094-7.984-.969-9.428S14.585,8.688,15.245,6.3A48.507,48.507,0,0,0,16.7,0c-2.43,1.459-2.305,2.8-6.785,6.3S.857,15.609.22,20.356.458,25.559,1.19,26.657Z" transform="translate(155.897 23.749)" fill="gray" fill-rule="evenodd"/>
            <path id="Path_2759" data-name="Path 2759" d="M13.086,30.534C8.375,27.213,4.273,20.418,3.877,17.448S1.246,3.112,0,0C6.89,4.706,14.751,16.447,15.025,19.872S17.1,33.364,13.086,30.534Z" transform="translate(202.161 31.019)" fill="gray" fill-rule="evenodd"/>
            <path id="Path_2760" data-name="Path 2760" d="M0,57.713c1.244-6.06,4.858-21.451,6.785-22.295s1.939-.485,1.939-.485-.534-3.879,0-4.847,2.423-1.454,2.423-1.454-.91-2.9,0-3.877a12.04,12.04,0,0,1,3.393-1.939s-.063-2.653,0-3.393S16.963,17,16.963,17s2.893-6.115,1.939-7.27-2.244-1.086-2.908-3.393S17.877-.357,25.2.037s7.9-.976,10.178,1.454,1.187,17.1-2.423,21.326-11.684,7.9-12.6,11.632-3.246,8.633-5.331,10.183C14.024,46.6.84,61.3,0,57.713Z" transform="translate(219.125 1.902)" fill="gray" fill-rule="evenodd"/>
            <path id="Path_2761" data-name="Path 2761" d="M1.591,32.9c-.9-3.167-1.976-5.458-1.454-7.27s4-7.916,3.877-9.209-1.454-.969-1.454-.969-1.6-.693.485-2.908S6.351,11.08,5.469,8.669,4.015,6.246,4.015,6.246,8.481,3.66,8.861,13.031c1.871,2.1,2.37-.692,1.939-2.423S11.62,2.237,9.831.43s6.719,2.519,6.3,4.847-3.657,4.362-3.657,4.362,2.427,5.1,0,7.755c-.724.792-1.012-.3-2.159,3.393S8.991,29.354,7.407,31.715,3.129,44.134,2.076,45.5C1.424,38.148,1.868,33.876,1.591,32.9Z" transform="translate(243.221 6.84)" fill="gray" fill-rule="evenodd"/>
            <path id="Path_2762" data-name="Path 2762" d="M5.614,50.406C2.72,43.292,1.356,41.23.767,38.774S-.341,20.789.282,18.418,1.386,2.453,1.736,0c2.578,13.455,4.916,18.408,7.27,22.295S10.049,50.95,5.614,50.406Z" transform="translate(185.4 35.381)" fill="gray" fill-rule="evenodd"/>
            <path id="Path_2763" data-name="Path 2763" d="M.929,18.791c5.347-3.592,9.743-3.018,12.6-5.22S21.208,9.514,27.1,8.239,36.836,7.9,39.7,6.3,45.841,2.975,47.458,0c-1.212,2.318-1.288,7.615-8.724,9.693-3.8,5.19-8.838,14.719-13.571,15.994s-18.242.422-21.326-.969S-1.28,20.275.929,18.791Z" transform="translate(216.741 41.682)" fill="gray" fill-rule="evenodd"/>
            <path id="Path_2764" data-name="Path 2764" d="M59.13,30.05c-15.962-1.964-31.709-8.9-34.9-11.632S17.6,11.1,15.51,9.349,4.608,2.447,0,0C4.533,1.241,14.758,6,17.448,5.816s5.256-.2,5.816.969c-.8-2.009,1.791-.95,3.877.969.673-2.524,4.678-1.294,4.847.969,1.229-2.686,4.374,1.331,4.847,2.908,2.544-1,3.494,1.663,3.877,2.908,2.151-2.038,7.55,2.742,7.755,4.847,1.871-2.44,13.03,6.656,12.6,8.724S60.549,30.224,59.13,30.05Z" transform="translate(132.368 58.645)" fill="gray" fill-rule="evenodd"/>
            <path id="Path_2765" data-name="Path 2765" d="M66.975,10.663a63.6,63.6,0,0,1-20.356,9.693c.254-2.681,1.393-3.166-.969-1.939s-5.452,3.731-6.785,2.908c-.627-2.489,1.3-4.165-1.939-1.939s-4.087,5.407-4.847,2.908-.969-1.939-.969-1.939a13.353,13.353,0,0,1-4.847,1.392c-2.708.216-1.939-.423-1.939-.423a31.571,31.571,0,0,0-7.288,0c-3.8.477-19.985,3.508-16.565,1.939s12.69-9.87,14.159-12.117,6.131-1.632,7.755-1.454c1.57-1.2,2.953-2.925,3.877-2.908a19.381,19.381,0,0,0,3.877,0c2.246-.226.043-2.924,1.939-2.908s5.8.877,6.259,1.416c1.131-2.128,3.312-4.5,4.4-4.324s10.726.039,11.632.969C57.3,1.873,57.751,0,58.674,0s1.5,1.388,3.455,1.454,13.389-.147,14.54.969S68.554,9.47,66.975,10.663Z" transform="translate(99.32 61.553)" fill="gray" fill-rule="evenodd"/>
            <path id="Path_2766" data-name="Path 2766" d="M.55,38.047c8.8-7.555,9.662-11.786,10.663-14.54s-1.114-3.576.969-3.877,2.473-.429,2.908-1.454-.353-5.774.485-5.816,1.113.357,1.454-.485-.516-2.547.485-2.908.973-.656,1.454-2.423.7-7.823,1.432-6.3,4.962,8.446,3.415,17.448-1.009,14.63-4.847,18.418S-3.4,41.443.55,38.047Z" transform="translate(244.262 45.801)" fill="gray" fill-rule="evenodd"/>
            <path id="Path_2767" data-name="Path 2767" d="M13.571,66.4c9.12-6.438,13.166-18.154,15.025-18.9s3.712-6.126,4.847-6.3,2.07.9,2.423,0,1.157-4.416,2.908-5.816,3.524-.34,3.877-1.454,1.668-6.907,2.908-5.816.026,2.891,1.454.969,3.45-6.156,4.847-6.3,1.24.911,1.939,0S63.555,11.751,64.462,7.27c-.078,3.18.4,12.251-11.632,29.08-1.32,2.587-1.715,6.5,0,5.331S74.073,26.072,77.063,25.688s10-11.622,9.693-17.448c.3,3.6-.427,24.071-6.3,32.473-.007,2.682-2.835,13.085-3.393,14.055a2.855,2.855,0,0,0,3.032-.226c1.43-1.723,6.231-8.717,7.631-10.437s5.16-3.128,5.816-4.847S95,33.449,96.45,33.442s2.627,1.407,2.908,0,3.229-5.118,4.339-5.816,2.238-.54,2.447-.969,2.135-1.417,2.908-2.908,1.131-2.925,2.908-2.908,2.668,0,2.908-.969.835-2.57,1.939-2.908,3.5,1.067,3.877,0a6.9,6.9,0,0,1,3.877-3.877c2.164-.751,1.435,1.306,2.908,0S138.183,5.795,139.586,0c-1.059,5.15,1.22,7.749-6.9,18.056s-6.325,10.479-9.1,12.478c.121,1.075.61,5.261-4.847,7.755-.591.647-.673,5.17-6.785,7.092-.106.875,1.232,3.539-7.755,7.448.255,1.672.967,1.955-.969,2.908S97.172,59,96.45,60.265s-7.533,5.837-8.724,6.567-7.442,3.4-8.341,5.384-6.1,4.612-8.585,5.816S50.12,90.882,54.768,88.7s21.643-9.835,22.78-11.632,6.806-4.552,7.27-4.847,6.323-4.474,7.27-4.847,3.487-.251,4.847-1.939,3.743-3.186,4.847-2.908,10.445-8.037,13.086-7.755c1.936-2.053,6.017-5.452,6.785-4.847a7.113,7.113,0,0,0,1.939.969s4.442-5.948,4.847-5.09.551,1.932,1.353,1.213,4.742-5.715,5.812-4.847,1.559.5,1.559.5,3.719-3.669,3.877-2.443.3,2.88.969,2.467,5.723-4.968,6.785-4.406.429,1.546,1.427.969,13.169-7.924,16.021-11.632c-1.914,2.981-11.495,16.612-21.326,23.264.012,2.472,1.744,2.382-4.847,7.755.1,2.6,1.655,2.77-3.477,6.394.875,1.532-4.378,4.184-6.616,5.716s-.859,3.078-2.509,3.4-3.958-.645-4.847.969-1.132,2.59-2.908,3.877-5.4-1.2-6.2.969.664,2.7-1.553,3.5-5.5-.834-5.816.373.689,2.084-.969,2.5-8.98-.954-8.724.411.189,1.4-.969,2-6.356.455-6.785.905.419.962-1.939,1.545S60.933,92.5,55.738,92.572c4.048.242,30.128,1.345,32.958,0s4.374-1.041,4.847,0,2.69.289,3.877-.437,3.35.79,3.877,1.406,9.8-.758,10.663-.395.652,1.813,1.939,2.333a37.3,37.3,0,0,0,5.816.969s.832,2.225,1.939,1.939,3.664-.777,3.877,0-.331.85.551.969,4.259-.244,4.3.43,1.732,1.945,2.908,2.478,2.3,1.945,3.877,1.939,19.33,4.7,14.54,3.877a45.462,45.462,0,0,0-12.6,0c-1.164.294-10.043,5.249-10.663,4.847s-.4,1.673-1.939,1.388-7.983-.948-7.755.551,1.752,3.7-.969,2.908-7.166-2.966-6.785-1.513.9,3.8-1.435,2.482-3.555-3.082-3.814-1.939-1.345,5.189-5.759,0c-1.66.1-2.065-1.758-2.563-.969s-.94,1.357-1.939.969-1.49-3.1-3.877-1.939-1.6.532-4.847-.969-3.508.308-4.208,0a24.855,24.855,0,0,1-4.516-2.908c-1.555-.208-.434.247-2.908-.969s-3.908-2.653-5.331-2.908-.145,2.294-2.908.485S47.526,90.819,49.922,95s17.893,14.852,19.387,15.025c.145.92-.421,1.4.485,1.939s4.741,2.222,4.847,3.393-.424,1.066.485,1.939,5.014,3.515,4.362,4.362-.226.317.485,1.454,3.4,4.711,2.908,5.331-.673.143.485,1.939,14.616,23.035,16.964,32.958c-3.733-4.467-11.559-12.191-11.632-11.147s-.16,1.739-1.939.257-3.15-5.107-3.877-3.65-.263,1.907-1.939.485-3.052-5.1-3.877-5.331c-.47,1.516.623,5.7-1.939,2.908s-1.449-6.283-3.393-6.3-.394,1.847-2.423-.485-7.894-9.065-9.209-12.117-4.817-12.485-5.816-14.54-5.063-9.29-5.331-13.571c-1.781,2.7-.556,6.408-2.423,11.632a30.6,30.6,0,0,1-7.27,10.663,15.405,15.405,0,0,0-4.362,6.785c-.054-5.451-2.881-4.421-.485-13.086S44.6,96.685,47.014,94.511c-5.988-4.5-31.477-3.1-34.412-4.362S-.082,90.006,0,87.241.111,82.3,2.424,79.486,11.235,68.05,13.571,66.4Z" transform="translate(252.082 0)" fill="gray" fill-rule="evenodd"/>
            <path id="Path_2768" data-name="Path 2768" d="M5.743,14.54C4.371,13.355,2.588,12.79,3.32,12.117s-.482-1.415.969-1.939C1.485,10.6.984,12.134.9,11.147s-1.973.081,0-1.939,2.351-3.09,4.847-4.362S9.891.917,11.075,0c1.251.772,1.058,1.724.969,3.393S12.028,6.1,10.59,5.816s-1.007,3.289-.969,4.847S6.59,15.272,5.743,14.54Z" transform="translate(298.199 58.161)" fill="gray" fill-rule="evenodd"/>
            <path id="Path_2769" data-name="Path 2769" d="M25.329,58.161c-6.509-3.7-7.913-6.389-8.724-7.755s-2.2-3.924-.969-2.908-1.282-.258-2.908-2.908-2.609-7.135-.969-5.816,2.595-.648.969-1.939S8.714,34.6,8.85,32.958s1.571-9.969-1.939-17.448c4.911,4.949,19.365,20.008,20.356,23.264.677-2.868-.622-3.724,3.877-7.755-1.039,6.1,1.962,6.857-.485,14.54s-.822,9.367-1.454,11.632c3.168-8.993,12.5-26.988,12.6-36.835C55.016-.647,54.654,7.612,56.348,0c-1.542,8.571-1.77,33.365-10.663,45.559S33.5,56.618,30.176,58.645s.315,5.1-19.387,11.147C.544,67.735-1.674,61.414,1.1,60.1s9.768-2.394,12.6-1.939S25.329,58.161,25.329,58.161Z" transform="translate(209.79 62.523)" fill="gray" fill-rule="evenodd"/>
            <path id="Path_2770" data-name="Path 2770" d="M105.659,97.419C101.921,86.138,91.8,72.171,91.6,71.247s2.44.292.969-.969-4.786-4.483-3.877-5.331,2.469-1.078,1.939-2.423-3.766-4.608-3.877-6.3.1-5.577-.485-6.785a20.043,20.043,0,0,1-1.939-6.785C83.8,38.813,82.033,10.888,85.787,0,86.3,10.068,90.422,19.615,91.6,21.326s.924-3.1,1.454-1.939,2.3,8.072,2.908,7.755.576-1.039,1.454,0,.584,6.117,1.939,7.215,4.319.466,4.374,2.992-1,4.484.473,5.3,1.763,1.049,1.939,3.393.76,2.589,1.454,2.423,1.149,4.467-.485,6.785c2.411-.377,7.073,33.909,2.908,44.59,3.084,2.818,4.312-.872,4.847-3.877s.889-8.16,3.877-10.663c-.381-5.055-1.151-5.452,0-6.785s4.375-11.967,5.245-12.6,2.07.358,2.152-.969,5.093-11.443,5.2-13.571c2.111-.384,2.811.5,2.908-1.454s2.164-3.616,1.939-4.847c1.732.088,2.908,2.423,2.908,2.423s-.995-3.392,0-5.331S153.679,23.133,150.248,28.6s-6.414,18.07-5.816,19.872,1.842,4.139,1.454,5.331-1.174,3.371-2.908,3.877,0,3.393,0,3.393,1.555.236.485,2.908-5.243,4.365-5.816,5.816.365,4.119,1.939,2.423-1.211,2.175-3.393,3.877-2.787,4.326-.485,2.908,3.8-1.2,1.454,1.454-9.345,14.3-16.479,17.933c3.28,4.182,13.277-2.976,25.688.969,3.293-6.75,19.991-13.135,20.841-38.289-.051,14.746,4.124,21.43-15.51,41.682-2.576-.336-2.027-1.439-2.908-1.454s-20.482,6.119-37.32,4.847c3.793,7.529,4.268,11.36,6.3,12.117s-2.131-.138-.969.969,3.415,2.071,2.452,2.908-3.186.067-1.483,1.359,4.82,11.48,12.6,11.727c-5.786-.646-5.917,1.849-12.6-4.362-.123,1.827-.567,2.432-2.423,0s-2.849-4.776-4.362-6.3-3.939-2.791-3.877-5.816-1.108-4.74-.969-6.785c-3.571,4.379-4.813,7.959-6.785,9.209s-11.719,6.8-14.54,9.693-8.677,9.854-8.239,6.785-1.454-2.423-1.454-2.423a29.62,29.62,0,0,1-5.331,3.877c-2.292,1.11.09-1.915-2.423-.969s-3.325,3.351-4.362,2.423,1.819-4.3-.485-2.423-21.7,6.422-28.111,12.117c4.2-5.778,1.762-4.486,14.54-15.025-.516-.99,1.763-1.487,2.908-2.423s4.682-2.937,5.816-3.877,4.308-.807,5.331-1.939,3.216-2.341.969-2.423C65.508,121.972,77.828,117.538,79,113.9s1.157-2.973-1.454-2.423-3.028,2.709-4.847,1.939-4.49-1.374-5.816-.969-1.287,2.469-2.423,1.454-2.882-2.031-4.362-1.454-5.027,1.946-5.331.969,2.859-1.244-1.454-1.454-5.85,1.824-6.3,0-1.018-2.095-3.877-2.423-4.7,1.249-4.362-.485.6-2.426-1.939-2.423-4.643.257-4.362-.969.471-1.3-2.423-1.454-4.49,1.558-4.362,0,.571-1.564-1.454-1.939-4.149-2.056-8.239-3.877S10.87,95.406,0,96.45a15.011,15.011,0,0,1,8.724-2.908c4.639-.152,9.97-.731,11.147-.485s12.9.735,12.6-.969,5.182-1.105,7.27.485c.241-2.06,5.709-.905,6.3,0,2.637-.986,8.173.109,8.724.485,2.42-1.206,8.371.885,9.693,1.939.684-2.771,5.965-1.513,7.755.485,2.647-1.7,5.072-.831,5.816.485s7.885.646,7.755,1.939,1.926,1.227,1.939,0S83.086,95.132,81.91,95s-1-.868-1.939-1.939a9.357,9.357,0,0,0-4.847-2.908c-2.1-.42-.282-1.025-1.939-1.939S66.02,86.562,66.4,85.3c1.025-1.436,2.848-1.153.969-1.939s-7.755-5.329-7.755-5.329,1.364-.831,0-1.456A67.221,67.221,0,0,1,53.8,72.7s2.734-.237.969-.969-10.475-8.454-10.663-9.693.686-2.32,0-2.908-5.782-4.093-4.847-4.847,2.5.223,1.939-.969-6.731-5.046-5.816-5.816,2.845.384,1.939-.969-5.943-4.412-4.847-4.847,2.957-.449,1.939-.969S21.341,25.481,15.994,24.234c3.389.892,18.095,8.42,20.356,11.632s2.908-.969,2.908-.969,4.156,5.3,4.847,3.877c1.1-5.353,6.813,6.372,6.785,4.261-1.844-8.735,7.272,6.078,7.213,3.494-.087-7.685,6.765,4.887,6.358,3.877s1.351-.969,1.351-.969,4.269,7.9,4.465,6.785,2.63-1.029,2.908,0,3.877,6.785,3.877,6.785l5.816,7.755h1.939s3.749,6.266,3.877,5.816.969,0,.969,0S106.079,98.69,105.659,97.419Z" transform="translate(76.631 69.308)" fill="gray" fill-rule="evenodd"/>
            <path id="Path_2771" data-name="Path 2771" d="M1.078,28.111C12.2,17.743,16.281,4.8,17.556,0c.018,8.831-1.024,19.9-3.877,23.264C18.567,21.6,40.211,8.181,45.667,6.785s8.73,4.075,7.755,4.847S44.3,14.1,41.79,14.54,28.6,31.371,4.955,31.019C15.06,33.182,41.325,43.3,32.1,41.682s-17.787,1.22-20.356,0-9.6-6.632-9.693-8.724S-1.788,30.782,1.078,28.111Z" transform="translate(269.907 116.806)" fill="gray" fill-rule="evenodd"/>
            <path id="Path_2772" data-name="Path 2772" d="M2.908,37.8C1.866,33.2.355,16.8,0,10.663c3.35,7.035,10.28,13,9.693,15.509s-3.047,6.489-2.908,9.693c5.5-5.331,19.478-21.147,24.234-23.264S46.376,5.728,50.406,0C45.9,5.323,36.087,23.635,9.693,37.8c6.362-.917,24.278.229,26.172,1.939-3.664-.275-7.007,1.989-10.663,2.908s-13.752,1.311-16.479-.969S4.12,43.155,2.908,37.8Z" transform="translate(213.793 143.948)" fill="gray" fill-rule="evenodd"/>
            <path id="Path_2773" data-name="Path 2773" d="M13.638,41.682C22.743,37,29.2,27.559,31.086,26.172s-.209,1.387,1.939,0S41.9,18.748,43.2,16.963s-.243,1.652.969.485S59.876,5.115,63.075,0c.984,5.04,3.325,8.38.969,11.025s-7.615,9.708-9.693,12.239c5.553-1.716,8.818-2.439,10.663-2.908s8.279-3.562,8.724-6.785c-1.279,2.623-1.769,5.716-12.6,14.54.224.918.2,2.616-4.847,4.847-.654.374,1.249,4.445-2.908,5.816s-3.335,3.711-4.955,3.877S38.7,45.848,37.872,47.5s-1.42,2.908-1.42,2.908-1.772-2.115-2.982-.969a5.305,5.305,0,0,0-1.414,2.908S17.24,56,5.883,47.5C2.381,42.625-.479,36.287.067,33.927S8.847,44.147,13.638,41.682Z" transform="translate(221.481 154.611)" fill="gray" fill-rule="evenodd"/>
            <path id="Path_2774" data-name="Path 2774" d="M62.523.083c-12.5,5.2-12.606,7.452-14.54,7.27S41.7,5.287,42.167,6.869s-.627,1.52-2.908,1.454-2.423.485-2.423.485l-2.908-.485V9.777a18.6,18.6,0,0,1-3.877-.485c-.864-.376-.969.969-.969.969s-.223.686-2.908-.485-19.3,2.414-22.78,4.362S0,18.986,0,18.986a12.881,12.881,0,0,0,6.785,1.939c4.3.125,11.6-.552,12.6-.969s1.454.969,1.454.969S22.5,20.1,23.749,19.47s2.908.969,2.908.969A44.975,44.975,0,0,0,31.5,18.5c1.753-.9,2.087-.107,3.393-1.454a2.491,2.491,0,0,1,2.908-.485s.246-.456,1.939-.969,1.488.746,2.423,0C43.279,14.989,66.86-1.3,62.523.083Z" transform="translate(137.215 188.454)" fill="gray" fill-rule="evenodd"/>
            <path id="Path_2775" data-name="Path 2775" d="M12.6,70.277c-5.063-5.8-9.745-16.454-9.693-20.356S3.815,45.267,0,41.2c3.277,2.122,23.028,8.241,26.172,13.571s5.226,9.447,4.847,12.6c2-6.584,3.091-9.713,3.843-10.663s-1-3.875.034-4.847,2.768-1.4,2.908-2.908-1.2-2.44,0-3.877.582-.918.969-3.877,4.846-16.663,2.908-24.234c1.661,5.82,4.155,15.264,2.908,25.2,1.664.2-1.062,4.6-.969,5.816s2.341,1.4,1.939,1.939S43.282,52.4,43.136,53.8a52.363,52.363,0,0,1-6.3,17.448C41.979,67.523,57.45,46.4,58.645,45.559s1.845-.589,2.423-1.454.661-4.385,1.939-4.847,2.088,1.828,2.423.485,1.229-5.019,1.939-5.331.536,1.968,1.454.485S80.1,18.917,81.425,18.9s1.4.809,1.939,0S90.26,6.874,97.9,0c-2.581,3.388-11.32,28.306-19.387,38.289C79.653,39.3,61.742,66.22,36.835,75.124c7.606-.522,15.046-.936,15.51-1.939s.969.485.969.485,5.215-3.2,5.816-3.393.485,1.939.485,1.939,13.872-5.86,15.025-6.3,1.454,1.454,1.454,1.454,3.219-2.239,4.362-2.908,1.454,1.454,1.454,1.454a51.1,51.1,0,0,1,5.331-3.393c1.478-.643,1.454,1.454,1.454,1.454s4.187-1.507,5.331-2.908.969.969.969.969a34.742,34.742,0,0,0,5.331-3.393c1.181-1.189.969,1.454.969,1.454s5.107-2.137,5.816-3.393.485,1.454.485,1.454,3.453-.985,4.362-2.423,1.454,1.939,1.454,1.939,3.992-1.587,4.362-2.908,1.454,1.454,1.454,1.454,15.739-2.939,21.81-7.27c-3.354,2.259-15.786,10.219-18.9,11.147-.329.491-.323,2.168-1.939,2.908a14.672,14.672,0,0,1-3.877.969l-.485,2.908s-3.936-.248-4.362.485-.429,2.25-.969,2.908-5.631,2.3-5.816,2.423a5.736,5.736,0,0,0-.485,1.454s-6.912-.3-7.27.969a16.936,16.936,0,0,0-.485,2.423s-5.768-.6-5.816.485a5.234,5.234,0,0,1-.485,1.939s-6.8-.965-6.785,0,0,1.939,0,1.939-5.905-.363-6.3,0a2.339,2.339,0,0,1-.969.485s-8,.145-8.239.485a4.619,4.619,0,0,1-4.847.485,23.1,23.1,0,0,1,5.331,2.423l.485.969,3.877.485V88.7a14.734,14.734,0,0,0,4.847,0c1.678-.5.969,1.454.969,1.454s2.922.755,3.877,0,.969,2.423.969,2.423,4.062-.093,4.847,0,0,1.939,0,1.939,1.782,1.825,2.908.969.969,2.423.969,2.423,9.842.024,14.055,5.331c-3.6-1.583-18.077-1.626-19.387-1.454s-.969,2.423-.969,2.423a33.882,33.882,0,0,1-3.393-1.454.988.988,0,0,0-1.454.485s-2.793-1.788-4.362-1.939-.969,1.939-.969,1.939-3.008-3.817-4.362-2.423-.485,2.423-.485,2.423S66.985,99,65.915,100.327s-.969.969-.969.969-5.4-5.136-4.847-2.908.485,1.939.485,1.939-3.634-4.7-5.331-4.362-1.454.969-1.454.969S34.227,81.26,32.473,79c2.578,4.493,16.092,19.342,16.479,24.718s1.741,6.676,2.423,7.27a8.945,8.945,0,0,1,1.939,3.393c.057.658-2.274-1.533-1.454,0s3.939,4.5,3.877,5.331-2.479-.857-1.939,0,3.543,11.245,8.724,15.994c-3.76-3.731-11.145-9.333-13.571-14.056a3.587,3.587,0,0,1-1.939,0,2.863,2.863,0,0,1-.969-2.423c.183-1.493,1.06-1.648,0-1.939s-1.641.358-1.939-.969-4.325-7.133-4.362-8.239-.969-.485-.969-.485a5.366,5.366,0,0,1-.969-2.908c-.057-1.746-6.415-18.185-6.3-21.326-1.729,3.7-16.74,26.047-25.688,15.025,4.14,1.766,13.074,1.9,24.234-18.9-.616-.454-1.122-2.054-1.939-1.939s-2.475,2.56-4.362,1.939-4.056-2.645-4.362-2.423-11.222-.48-14.54-2.908c-3.016-2.428-2.471-.992,0-.969s7.244.609,8.176,0S14.4,72.339,12.6,70.277Z" transform="translate(223.487 161.881)" fill="gray" fill-rule="evenodd"/>
            <path id="Path_2776" data-name="Path 2776" d="M51.86,80.456c-8.64-7.02-16.331-18.3-18.9-21.326s-4.977-4.661-3.877-4.847-.346-1.689-1.939-2.908-2.827-1.858-.969-1.939,2.369-.848.969-1.939-2.791-2.116-2.908-3.877.944-3.908,0-4.847-4.83-4.015-3.369-4.847,2.871-.483,2.4-1.939-.981-3.129-1.939-3.877,1.417-1.461,1.939-.485-5.29-19-8.239-24.234c2.907,5.233,11.938,17.822,12.117,20.356,2.03.036,2.041-1.047,2.423.485a12.828,12.828,0,0,1,.485,3.877c-.1.8,4.253,2.117,4.847,2.423s.552,5.547.969,6.785,2.986-.473,3.393.969,1.821,7.009,2.423,8.239,1.548.015,1.454.485,3.409,7.961,4.362,9.693-1.814,3.182,0,5.816,4.926,12.833,5.816,14.055c.959,1.085,1.156.585,1.454-1.939s1.956-19.914,1.454-22.295c-.123-2.416,2.455-.823,2.423,0s1.793-5.593.485-8.724,1.939-1.454,1.939-1.454,1.913-2.529.969-3.877-.257-6.21.485-4.847,0-5.331,0-5.331h1.454s-1.752-2.942,0-5.331A17.118,17.118,0,0,1,66.4,19.872S71.9,6.4,70.277,0c.747,5.447,2.074,21.012,1.454,22.295s1.61,13.723-.969,23.264S69.5,66.749,60.1,77.548c4.9-2.035,20.338-7.342,24.718-12.117.59,2.5,1.113,3.289,3.393-.485.661-2.6,2.087-1.724,2.423-1.454s2.34-1.518,2.908-2.423,2.762-.417,2.908-.485,6.021-3.183,8.014-7.27c-1.252,2.669-5.932,10.784-11.406,14.055.153,1.966.409,2.357-.969,3.393a6.291,6.291,0,0,1-3.473.969s.982,1.129-3.312,3.877-4.847,1.939-4.847,1.939.883,1.745.5,1.939a64.793,64.793,0,0,1-7.283,1.489c-1.647.166-4.61,1.626-5.816,1.419s-.522.7.969,1.337S81.788,92.6,90.149,93.057c-2.774-.065-11.781.377-14.54-1.939s-6.384-4.521-7.755-5.486a22.913,22.913,0,0,1,3.877,5.486c-.618-.442-2.139-.295-5.816-4.847a5.55,5.55,0,0,0,0,1.939c.118.527.724,5.524-.969,4.847s-3.969-1.718-3.877-2.908-1.164-1.215-1.939-.477-1.966,3.963-2.908,3.913S54.1,92.4,54.283,91.592s.486-3.393-.969-3.382S42.853,97.98,37.32,100.327c-2.252.542-1.119-2.507-2.423-1.454s-4.847,3.393-4.847,3.393-.344-1.609-.969-.969a46.358,46.358,0,0,1-4.847,2.908s.562-1.942-.485-1.454-5.816,2.423-5.816,2.423.057-.315-.485-.485S5.416,108.439,0,109.051c3.025-1.088,17.242-9.125,18.418-10.178s4.591-1.1,4.847-1.454,7.924-2.592,7.755-3.877-1.939-1.454-1.939-1.454A14.561,14.561,0,0,0,28.6,88.21c-.457-.919-2.423-1.454-2.423-1.454a7.68,7.68,0,0,0-.969-6.3c-2.062-3.117-6.155-14.965-4.847-27.142,2.62,3.845,13.281,17.145,14.54,23.264s.4,8.535,2.908,10.663S50.5,84.929,51.375,83.364,53.139,81.495,51.86,80.456Z" transform="translate(151.755 202.108)" fill="gray" fill-rule="evenodd"/>
            <path id="Path_2777" data-name="Path 2777" d="M72.216,28.111c-2.49-.081-15.815,3.316-21.326.485s-6.072-3.227-7.27-2.908,2.861-1.485-.485-1.454-2.615-.4-5.816,0,2.394-1.722.508-1.939S24.68,17.529,23.749,15.51a8.118,8.118,0,0,1-.485-4.362s-2.913,1.482-7.27-2.908S9.224.728,0,0C4.143.123,15.841,3.419,18.418,3.877s8.385,1.51,9.693,2.908,5.014.741,6.3,1.454S61.362,21.618,61.553,22.78c.8-.9,4.474,1.053,5.816,2.423s4.636.365,5.7.969S75.842,28.23,72.216,28.111Z" transform="translate(130.914 257.361)" fill="gray" fill-rule="evenodd"/>
            <path id="Path_2778" data-name="Path 2778" d="M17.933.63C15.794,5.55.576,16.828,0,28.257a33.4,33.4,0,0,1,15.025-9.693c4.617-1.519,14.119-7.495,14.54-11.632S18.937-1.678,17.933.63Z" transform="translate(173.081 197.116)" fill="gray" fill-rule="evenodd"/>
            <path id="Path_2779" data-name="Path 2779" d="M105.659,41.2c-3.2-5.008-4.847-4.847-4.847-4.847a18.808,18.808,0,0,1-.969-3.393C99.666,31.6,97.419,31.5,97.419,31.5s.444-.654-.969-2.908-2.423-.485-2.423-.485a5.779,5.779,0,0,1-1.454-3.393c-.239-2.228-3.393-1.454-3.393-1.454s-1.351-.71-.969-2.908S85.787,18.9,85.787,18.9s-.263-.62-.969-2.423A3.506,3.506,0,0,0,81.91,14.54S78.632,14.025,79,11.148s-2.908,0-2.908,0A18.925,18.925,0,0,1,69.308,0c.582,4.973-3.678,6.311,3.877,13.086-.7,1.368-.487,2.962,2.423,5.331-.2,1.74-.353,4.825,2.908,6.3-.405,2.291,1.9,4.373,3.393,5.331C82.3,32.379,84.271,34.08,85.3,34.9s.581,2.149,1.454,2.908,13.9,8.244,16.479,8.724c.505,2.071-.036,1.806-.969,1.939s-14.611-2.308-15.994-4.847c-.938,1.128-4.861.772-7.27-1.939.665,2.1-1.766,1.543-4.847-1.454s-2.715-1.35-2.423,0-4.25-.723-5.816-2.442-1.469.6-.969,1.472-3.556-.212-4.847-1.939-3.09-1.5-1.939,0-4.211-.018-5.366-1.939-2.008.571-1.419.969-3.971-.928-4.847-1.939-.8-.833-.969.412-5.962-.415-6.785-1.9-1.856-.3-.969,1.037-.79,2.393-3.877-.522-1.9,1.222-1.4,1.939-18.691-4.595-23.8-8.724c5.79,3.959,18.208,12.695,22.295,13.571s.34,2.328.969,2.328,2-1.312,3.877-.39a7.412,7.412,0,0,1,2.908,3.382s3.555-1.333,4.847-.059a2.73,2.73,0,0,1,.969,2.493s3.938-1.091,4.352,0a8.214,8.214,0,0,1,.494,1.939s5.786-1.524,5.816,0,1.939,1.939,1.939,1.939,4.094-2.531,3.877-.969,0,1.939,0,1.939a29.218,29.218,0,0,1,5.816,0,9.495,9.495,0,0,1,2.908.969s29.165.969,34.9-3.877c-2.09,2.205-6.932,5.44-14.54,6.785s-11.728,2.5-12.6,3.419,1.216,1.689-.969,1.837-5.536.363-5.816,1.53.758,1.493-1.939,1.4-5.528-1.212-5.816.535.9,1.894-2.908,1.939-6.193.145-5.816.969.5.937-2.908.969S47.15,69.637,47.5,70.6s1.255,1.649-1.939,1.617-4.146.015-3.877.969-.438,1.886-3.877,1.939-3.77,1.514-2.908,1.939-1.89.536-3.877.969-3.313.985-1.939,1.939-.126.333-1.939.969-1.62,1.108-1.939,1.939S7.842,92.935,0,95.48c6.185-1.3,17.772-4.181,19.872-5.331s-.062,1.411.485,1.454A30.29,30.29,0,0,0,27.142,88.7c.951-.782,1.368,1.775,2.423,1.454a8.2,8.2,0,0,0,3.393-1.939c1.357-1.206.643,2.555,1.454,1.939s4.955-2.753,6.3-3.877-.138,2.256.969,1.939,4.559-1.547,5.331-2.423-.593,2.6.485,1.939,8.332-4.213,8.724-5.331.479,3.458.969,2.908,5.454-3.236,5.816-4.362.45,1.881.969,1.454,5.288-3.639,6.3-5.331-.6,1.8.969,1.454,6.714-5.937,7.27-5.816,1.068,2.709,1.454,1.939,4.507-3.552,4.847-5.331,1.624.969,2.423,0,4.569-1.587,4.847-2.908c-.215,2.274,1.881,4.61-4.362,9.693-.265,1.619-.835,2.1-1.939,3.393s-2.121,2.191-1.939,3.393-1.911,1.99-3.393,3.877-.575,2.487-.485,2.908-1.914,1.64-2.423,2.423.054.7,0,1.454-1.711,1.984-2.423,2.908,0,1.531,0,1.939a7.45,7.45,0,0,1-1.939,2.423c-.453.275-.574-.174,0,.969s-.816,2.324-1.454,3.393-.667,1.15-.485,1.939a2.894,2.894,0,0,1-.485,2.423c-.578.835-1.4,2.237-.969,3.393s-5.273,14.287-2.423,19.387c.905-4.622,2.006-13.676,6.3-16.479s5.38-4.28,5.331-5.331,1.4,1.523,1.688.969a12.157,12.157,0,0,0,.736-3.393c.054-1.048,2.427-.068,2.908-1.19a9.138,9.138,0,0,0,.485-3.656c-.051-.91,1.5.236,1.939-.969s-.7-3.026-.221-3.877,3.583,1.342,4.1,0,.152-5.087.738-5.331,2.072,1.482,2.655.485.265-6.878.969-6.3,1.018,1.4,1.454.485-.512-4.825,1.194-4.847,1.789,1.7,2.2.485-.328-5.223.485-5.816,2.9.512,3.669-.485-.194-10.893.693-12.117,1.1-.839,1.454-1.939.076-3.463.969-4.847,3.071-3.02,2.908-4.362-1.187-3.081,0-2.423,8.984,6.042,10.178,6.3,7.877,1.584,8.724.485-3.508-6.52-4.847-6.3-11.648.44-12.6-2.423c4.914-.613,6.522.488,10.178-.485s.764-7.475,0-8.724-1.033-3.546-2.908-5.331a11.633,11.633,0,0,1-3.393-6.785,7.2,7.2,0,0,0-1.454-4.362c-1.047-1.689-2.072-4.936-2.665-3.393s-1.176,1.1.241,3.393,2.5,2.818,1.939,4.362-2.477-.494-2.423.485.64,1.386.969,3.393-1.529,5.17-3.393,6.3S106.383,42.331,105.659,41.2Z" transform="translate(61.606 201.624)" fill="gray" fill-rule="evenodd"/>
            <path id="Path_2780" data-name="Path 2780" d="M83.364,13.571c-1.271-2.026-3.78-2.944-4.847-4.847S73.557,4.812,73.67.969c1.218,4.747,2.347,11.7,4.847,13.571C75.039,13.754,39.792,5.988,35.866,0c1.751,3.054,9.918,11.932,18.418,13.571s16.6,2.821,22.295,2.908C62.833,18.777,26.345,26.324,0,24.234c7.712,1.324,63.022,10.552,78.517-5.816C61.812,32.44,28.978,61.138,34.9,55.253S54.781,43.841,57.191,41.682,76.474,28.225,81.425,17.448c-1.077,11.928-1.485,23.85,0,28.111a58.871,58.871,0,0,1,2.908-15.51c.888-2.382.389-9.66-.969-12.6S84.068,14.694,83.364,13.571Z" transform="translate(108.135 306.798)" fill="gray" fill-rule="evenodd"/>
            <path id="Path_2781" data-name="Path 2781" d="M28.44,19.878c-2,5.205-9.18,10.713-13.571,16.479S2.11,52.829.329,58.973,3.963,89.923,17.777,101.3c-2.276-4-5.51-16.043-5.816-21.326s-1.821-7.142-2.908-8.724-.6-10.624,4.847-14.54,7.394-8.775,7.755-10.663.236,6.119,7.755,6.785c.455-8.437-.487-9.435-1.939-10.663s-3.862-4.117-.969-2.908,6.6,1.3,6.785,4.12-.636-11.9-.969-14.782.648-18.788,0-22.295S30.288-2.627,29.409,1.46,29.154,18.014,28.44,19.878Z" transform="translate(179.538 213.25)" fill="gray" fill-rule="evenodd"/>
            <path id="Path_2782" data-name="Path 2782" d="M.292,3.951c-1.86,12.193,5.554,25.677,11.632,27.142-.7-5.769-3.254-13.6-2.908-15.51s2.61.326,6.785-1.939C11.336,13.991,2.047,2.858,1.261.073.909-.143.916-.143.292,3.951Z" transform="translate(225.134 231.116)" fill="gray" fill-rule="evenodd"/>
            <path id="Path_2783" data-name="Path 2783" d="M4.543,20.356A58.138,58.138,0,0,0,16.175,14.54l.969.485s3.412-.784,3.877-2.423.009.016.969,0,1.928-1.4,3.877-2.908,2.908,0,2.908,0a14.393,14.393,0,0,0,2.908-2.908c1.261-1.735,2.908,0,2.908,0L39.44,4.847S46.431,3.584,49.133,0C45.975,3.01,39.805,10.154,37.5,10.663s-3.252.226-3.877.969a6.222,6.222,0,0,0-.969,1.939s-1.713-1.473-2.908,0-.328,2.826-1.939,2.908-1.379-1.5-2.908,0-.1,1.754-1.939,1.939-3.246-1.493-3.877,0,.785,1.7-.969,1.939-8.373.5-10.663.969c8.8.939,36,.586,42.651,2.908s7.877,1.921,12.6,1.939c-3.619.2-7.425,2.189-11.632,2.908s-9.924,5.046-20.356,3.877-14.261-.772-17.448-1.939,4.778,10.927,7.755,14.54,7.145,8.373,7.27,13.086c4.358,3.736,5.834,6.464,12.6,4.847-5.564.989-8.579,2.863-14.54-1.939-6.569.452-10.44-1.183-14.54-8.724S1.738,28.377,2.12,26.172-.794,23.6.181,21.81,2.708,21,4.543,20.356Z" transform="translate(223.79 296.135)" fill="gray" fill-rule="evenodd"/>
            <path id="Path_2784" data-name="Path 2784" d="M53.314.494c-5.164,5.75-20.206,4.464-27.142,9.693C21.264,11.653,4.79,21.131,0,21.82c6.4-.807,27.17,1.828,31.019.969s24.7-14.845,25.2-18.418S54.584-.919,53.314.494Z" transform="translate(145.454 79.477)" fill="gray" fill-rule="evenodd"/>
            <path id="Path_2785" data-name="Path 2785" d="M28.111.909C18.9,9.535,17.592,10.746,16.479,12.182S5.993,24.5,0,26.723c4.749-2.361,19.775-8.052,25.2-15.51S31.621-2.378,28.111.909Z" transform="translate(184.713 327.573)" fill="gray" fill-rule="evenodd"/>
            <path id="Path_2786" data-name="Path 2786" d="M14.54,1.609C12.106,6.78,3.248,20.47,0,23.9,2.908,21.119,15.169,9.2,15.509,5.487,14.467,9.372,4.658,29.859,3.877,34.567c2.172-3.145,12.011-19.835,15.51-22.295,2.242,6.147,6.95,18.852,11.632,21.326-2.229-2.8-5.517-6.541-4.847-8.724s2.775-9.89.969-12.6-2.7-5.393-1.939-6.785.27-2.029-2.908-3.877S15.681-.814,14.54,1.609Z" transform="translate(194.406 347.84)" fill="gray" fill-rule="evenodd"/>
          </g>
        </g>
      </g>
    </g>
    <g id="cops" transform="translate(0 57.405)">
      <g id="cop-2" transform="translate(0)">
        <path id="Path_2807" data-name="Path 2807" d="M244.738,352.666c2.661,5.727,2.719,7,13.362,12.2.4,4.281-2.719,4.743-2.719,4.743a22.559,22.559,0,0,0-2.545,5.5c-.52,2.313-7.346,4.974-11.627.752s-4.627-10.643-4.627-10.643S242.077,346.939,244.738,352.666Z" transform="translate(-142.752 -267.333)" fill="none" fill-rule="evenodd"/>
        <g id="Group_1180" data-name="Group 1180" transform="translate(68.308 11.696)">
          <path id="Path_2808" data-name="Path 2808" d="M227.951,325.471c-2.256,5.19-7.578,14.442-9.008,17.8s-2.717,7.078-.644,9.866,18.088,16.445,20.233,20.161,2.93,5.434,5.219,4.434,10.581-12.011,12.511-16.73,7.793-17.659,9.294-20.591,3.718-10.366,2.145-14.084-3.574-7.436-7.793-8.651-12.082-4.575-15.943-3-7.149,2.931-8.149,5.362S228.666,323.827,227.951,325.471Z" transform="translate(-217.216 -290.882)" fill="#3e3e3e" fill-rule="evenodd"/>
          <path id="Path_2809" data-name="Path 2809" d="M243.151,347.154c0,4.374.754,12.669,3.242,15.459s2.84,4.222,4.047,5.177,10.1,10.859,21.565,6.284c2.363-1.96,2.161-3.72,1.96-4.776s1.547-4.219,3.216-4.177,3.233-1.36,2.9-1.894a4.482,4.482,0,0,0-1.174-1.071s1.915-2.122,3.212-2.409a1.372,1.372,0,0,0,1.071-2.059,9.578,9.578,0,0,1-1.009-4.139,1.336,1.336,0,0,1,1.565-.8c.37.144,5.748.746,5.024-2.76-.268-1.3-3.182-2.937-2.935-4.79s2.419-13.94,2.188-14.815,1.235-.1,1.054-1.184,1.418-11.265,1.261-13.383c-.128-1.75-1.827-9.575-5.688-13s-6.714-6.293-6.714-6.293-10.979.2-15.845,2.494-17.051,14.356-16.931,18.579,7.279,12.064,7.279,12.064-2.533-3.579-5.59-3.217-7.343,5.777-7.32,8.727a16.011,16.011,0,0,0,3.8,8.878C244.977,345.644,243.151,342.781,243.151,347.154Z" transform="translate(-210.121 -296.522)" fill="#4b4b4b" fill-rule="evenodd"/>
        </g>
        <path id="Path_2810" data-name="Path 2810" d="M255.809,320.214l26.878,11.427s1.542,2.614-.838,1.643-26.275-11.8-26.275-11.8Z" transform="translate(-136.714 -277.295)" fill="#c1c1c1" fill-rule="evenodd"/>
        <path id="Path_2811" data-name="Path 2811" d="M289.945,301.641c-7.891-11.454-29.91-15.08-39.563-13.723s-20.912,8.194-23.525,11.965-4.927,7.037-4.625,9.4.5,9.25,1.106,11.613-1.056,8.947-.552,10.858-.4,7.038-.353,8.4.452-2.061,2.111-1.458,4.474,4.776,4.223,6.032,5.631-3.921,5.831-5.681,2.912.833,2.912.833,3.378-4.151,4.729-5.791,3.8-.483,3.8-.483a8.779,8.779,0,0,1,5.823-4.086c3.828-.548,6.306,3.634,6.885,4.439s3.055-.74,3.6-.1,5.727,5.243,7.335,5.662,3.989-2.22,4.118-3.474,3.415-4.931,4.358-5.937,1.6-6.522-1.169-9.29-2.317-6.466-1.255-7.85,1.061-6.563,1.094-7.656,1.994-5.952,5.47-3.862,10.392,9.878,9.651,6.5S290.9,303.031,289.945,301.641Z" transform="translate(-147.322 -287.648)" fill="#232323" fill-rule="evenodd"/>
        <path id="Path_2812" data-name="Path 2812" d="M222.26,338.953s2.848-4.449,2.029-4.654-12.265-7.726-15.662-7.082S221.28,338.52,222.26,338.953Z" transform="translate(-151.788 -275.082)" fill-rule="evenodd"/>
        <path id="Path_2813" data-name="Path 2813" d="M211.693,327.65c2.5,3.446,13.155,11.582,16.158,14.012s22.58,24.869,24.044,27.111,7.092,8.236,8.283,8.877-8.076-4.782-8.076-4.782l-6.062,4.8s-28.918-15.428-35.29-25.624c-1.716-2.745-9.952-8.58-9.38-9.9S209.261,324.3,211.693,327.65Z" transform="translate(-153.955 -275.074)" fill="#363636" fill-rule="evenodd"/>
        <path id="Path_2814" data-name="Path 2814" d="M314.017,358.579c4.315-2.114,9.28-5.094,10.069-5.094a32.87,32.87,0,0,0,8.135-2.764,57.944,57.944,0,0,1,9.28-3.673c.908-.158,8.174-3,8.924-2.132a6.224,6.224,0,0,1,1.066,1.738s6.95-3.08,8.411-2.646,6.713,1.027,1.027,4.344-7.345,6.16-8.53,6.4-4.936.317-6.437,1.5S330.8,369.28,328.549,369.4s-5.173-1.7-6.516-.4-3.356,3.554-3.356,3.554S312.082,359.527,314.017,358.579Z" transform="translate(-118.249 -269.745)" fill="rgba(75,75,75,0.82)" fill-rule="evenodd"/>
        <g id="Group_1181" data-name="Group 1181" transform="translate(295.778 122.893) rotate(180)">
          <path id="Path_2815" data-name="Path 2815" d="M51.86,80.456c-8.64-7.02-16.331-18.3-18.9-21.326s-4.977-4.661-3.877-4.847-.346-1.689-1.939-2.908-2.827-1.858-.969-1.939,2.369-.848.969-1.939-2.791-2.116-2.908-3.877.944-3.908,0-4.847-4.83-4.015-3.369-4.847,2.871-.483,2.4-1.939-.981-3.129-1.939-3.877,1.417-1.461,1.939-.485-5.29-19-8.239-24.234c2.907,5.233,11.938,17.822,12.117,20.356,2.03.036,2.041-1.047,2.423.485a12.826,12.826,0,0,1,.485,3.877c-.1.8,4.253,2.117,4.847,2.423s.552,5.548.969,6.785,2.986-.473,3.393.969,1.821,7.009,2.423,8.239,1.548.015,1.454.485,3.409,7.961,4.362,9.693-1.814,3.182,0,5.816,4.926,12.833,5.816,14.055c.959,1.085,1.156.585,1.454-1.939s1.956-19.914,1.454-22.295c-.123-2.416,2.455-.823,2.423,0s1.793-5.593.485-8.724,1.939-1.454,1.939-1.454,1.913-2.529.969-3.877-.257-6.21.485-4.847,0-5.331,0-5.331h1.454s-1.752-2.942,0-5.331A17.112,17.112,0,0,1,66.4,19.872S71.9,6.4,70.277,0c.747,5.447,2.074,21.012,1.454,22.295s1.61,13.723-.969,23.264S69.5,66.749,60.1,77.548c4.9-2.035,20.338-7.342,24.718-12.117.59,2.5,1.113,3.289,3.393-.485.661-2.6,2.087-1.723,2.423-1.454s2.34-1.518,2.908-2.423,2.762-.417,2.908-.485,6.021-3.183,8.014-7.27c-1.252,2.669-5.932,10.784-11.406,14.055.153,1.966.409,2.357-.969,3.393a6.292,6.292,0,0,1-3.473.969s.982,1.129-3.312,3.877-4.847,1.939-4.847,1.939.883,1.745.5,1.939a64.777,64.777,0,0,1-7.283,1.489c-1.647.166-4.61,1.626-5.816,1.419s-.521.7.969,1.337S81.788,92.6,90.149,93.057c-2.774-.065-11.781.377-14.54-1.939s-6.384-4.521-7.755-5.485a22.911,22.911,0,0,1,3.877,5.485c-.618-.442-2.139-.295-5.816-4.847a5.549,5.549,0,0,0,0,1.939c.118.527.724,5.524-.969,4.847s-3.969-1.718-3.877-2.908-1.164-1.215-1.939-.477-1.966,3.963-2.908,3.913S54.1,92.4,54.283,91.592s.486-3.393-.969-3.382S42.853,97.98,37.32,100.327c-2.252.542-1.119-2.507-2.423-1.454s-4.847,3.393-4.847,3.393-.344-1.609-.969-.969a46.354,46.354,0,0,1-4.847,2.908s.562-1.942-.485-1.454-5.816,2.423-5.816,2.423.057-.315-.485-.485S5.416,108.439,0,109.051c3.025-1.088,17.242-9.125,18.418-10.178s4.591-1.1,4.847-1.454,7.924-2.592,7.755-3.877-1.939-1.454-1.939-1.454A14.561,14.561,0,0,0,28.6,88.21c-.457-.919-2.423-1.454-2.423-1.454a7.68,7.68,0,0,0-.969-6.3c-2.062-3.117-6.155-14.965-4.847-27.142,2.62,3.845,13.281,17.145,14.54,23.264s.4,8.535,2.908,10.663S50.5,84.929,51.375,83.364,53.138,81.495,51.86,80.456Z" fill="#999" fill-rule="evenodd"/>
        </g>
        <g id="Group_1184" data-name="Group 1184" transform="translate(0 68.677)">
          <path id="Path_2816" data-name="Path 2816" d="M194.815,466.44c-3.232.47-6.523,1.058-7.227,3.056s-3.467,11.929-3.467,11.929-2.292,5.054-4.642,11.165-5,50.125-3.7,53.18,45.067,9.428,51.219,10.9a59.505,59.505,0,0,0,28.372-.551c11.385-3.122,20.089-3.93,22.807-14.214s-1.616-10.944-1.616-10.944,8.546-3.709,8.5-7.038-1.616-1.519-1.616-1.519l5.925-9.843s.93,1.763,3.183-.441,13.76-19.293,6.9-27.716c-4.261-.489-11.339.086-11.707-1.567S198.047,465.97,194.815,466.44Z" transform="translate(-162.189 -299.493)" fill="#4b4b4b" fill-rule="evenodd"/>
          <g id="Group_1183" data-name="Group 1183">
            <path id="Path_2817" data-name="Path 2817" d="M187.083,488.348c.223,4.372-.508,16.27,4.067,23.3s26.1,21.861,28.471,23.471,21.947,6.864,26.606,7.88,29.317-4.152,32.2-8.049,11.524-24.488,11.016-29.149-.122-7.582-1.1-8.45-7.321-4.988-7.863-9.6,2.766-10.792,1.951-14.8-7.049-22.831-6.723-25.163.325-9.76,1.789-12.039,5.017-.176,7.051-1.667,12.134-5.356,15.116-6.236,30.571-24.878,33.622-28.742,12.174-11.931,14.615-12.744,16-10.141,16-10.141-7.429-16.974-9.76-17.679-18.059,8.785-19.523,9.815-9.436-.27-13.829,1.3-9.327-.759-10.466.977-4.88,7.755-7.266,8.243-5.532-3.037-7.538-2.278-3.851,2.82-6.021,3.416-6.182,3.525-7.266,4.772-10.629-4.826-12.907-7.375-54.483-40.121-57.985-37.522-6.439,2.825-9.038,7.683-5.876,6.327-8.474,9.038-7.569,2.373-8.812,5.537S184,386.888,187.5,400.784,186.893,484.625,187.083,488.348Z" transform="translate(-159.363 -339.76)" fill="#4b4b4b" fill-rule="evenodd"/>
            <g id="Group_1182" data-name="Group 1182" transform="translate(0 0.274)">
              <path id="Path_2818" data-name="Path 2818" d="M215.356,467.761c.01,5.058,3.579,14.376,5.059,16.226a40.092,40.092,0,0,1,4.5,7.526c.537,1.516,2.4,1.958,3.1,1.39a2.26,2.26,0,0,0,.757-1.454s2.286,1.427,3.9.529a3.636,3.636,0,0,0,1.282-1.535s3.105,3.574,5.56,2.617a6.435,6.435,0,0,0,3.376-2.942s1.282.342,1.7.09.325,1.118.921,1.7,2.87,2.96,4.512,2.672,4.044-2.256,4.242-3.5-.487-6.065.073-7.907a11.143,11.143,0,0,0-.867-8.358c-1.752-3.34-10.431-17.455-12.772-19.656s-4.033-3.018-4.739-4.344-3.752-3.61-6.741-5.076-13.173,7.785-14.047,10.717S215.355,467.142,215.356,467.761Z" transform="translate(-149.668 -306.396)" fill="#4b4b4b" fill-rule="evenodd"/>
              <path id="Path_2819" data-name="Path 2819" d="M218.512,339.968c-2.837-.1-15.252,11.591-16.947,14.778s-8.676,6.236-10.371,7.185-5.966,6.575-6.576,10.1-23.14,76.425-18.639,87.944,13.9,28.333,19.066,29.79,27.49,8.309,29.693,7.885,8.982,6.356,10.677,9.406,6.524-3.813,8.727-4.829,11.864-15.761,12.372-22.539-21.183-15.421-24.742-16.523-16.439-20.929-11.1-28.725,28.047-24.319,23.386-37.028-12.455-35.335-9.236-40.08S221.184,340.06,218.512,339.968Z" transform="translate(-165.384 -339.968)" fill="#4b4b4b" fill-rule="evenodd"/>
            </g>
          </g>
        </g>
        <path id="Path_2820" data-name="Path 2820" d="M276.962,331.093c-.8,1.255-2.44,4.826-3.458,5.148s-1.9,1.448-1.448,2.09c.876,1.252,4.472-2.139,7.372-7.855,1.85-3.647,2.532-4.492,2.361-5.135s-1.888,1.053-2.361,2.039S277.261,330.624,276.962,331.093Z" transform="translate(-131.514 -275.711)" fill="#d9d9d9" fill-rule="evenodd"/>
      </g>
    </g>
  </g>
</svg>
