<svg id="our_vioent_government" xmlns="http://www.w3.org/2000/svg" width="374.693" height="409.185" viewBox="0 0 374.693 409.185">
  <g id="Layer3" transform="translate(0 0)">
    <path id="Path_2422" data-name="Path 2422" d="M315.657,497.613c2.993-.07,21.56.631,25.967,3.62s2.505.056,3.473-2.524,2.739-4.432,4.754-4.915-2.982-12.973.806-15.632,3.545-2.9,5.8-3.224.927-15.27,12.811-23.326,18.893-7.272,23.065-7.152a42.739,42.739,0,0,1,34.951,19.44c9.77,14.8,7.656,23.569,6.95,27.7S418.976,521.1,418.976,521.1s9.669-6.647,14.6-5.74,12.489,8.662,12.59,10.777,29.007,10.678,35.957,16.318,21.856,16.82,25.482,22.662,7.945,13.1,10.664,15.718,13.094-1.006,16.116,1.108,9.87,5.64,9.568,9.77-4.129,13.194-5.338,14.806-.906,4.532-.806,7.554-.3,7.454-3.222,6.648-.4-1.208-4.13-2.72-5.438-1.612-5.54.3-.806,2.922-3.324,1.41-10.374-13.7-10.877-15.712-26.49-25.483-30.216-25.785-19.642-5.438-21.656-5.942-7.956.806-12.388,2.115-13.8-1.712-13.9,4.836-7.352,27.5-6.042,30.619-.605,3.928-1.31,5.64-.6.806.1,5.54,4.634,7.05,2.014,11.482-9.568,7.554-5.036,12.993,3.324,10.576,5.138,11.584,5.238-2.116,5.238-2.116,6.144,2.216,6.042,7.05-.1,9.166.706,11.684,1.208,7.756,5.942,11.18,17.022,12.59,15.41,15.512-6.95,5.84-4.936,8.359,3.122,3.022,5.036,7.756,3.324,4.834,5.338,8.46,5.717,6.169,2.066,13.85-12.59,11.457-29.083,7.931-27.447-13.094-26.692-17.5a15.306,15.306,0,0,0-2.643-12.086c-2.643-3.653-29.335-33.238-34.749-33.617s-40.666,21.4-47.843,33.994,5.288,18.759,3.9,22.158-46.962,16.241-51.746,6.169-8.435-14.1-5.163-20.018,7.681-13.094,7.681-13.094,1.889-4.659-.5-2.9-11.709,15.36-12.464,10.576-3.652-5.917-.379-10.449,4.532-8.183,6.3-12.717-.379-14.982,3.147-18.129,14.1-12.969,17-13.221,1.762,5.667.754,10.451a66.865,66.865,0,0,1-2.77,10.2c-.881,2.266-4.154,4.03-1.384,4.532s7.175-11.457,8.812-13.849,11.961-19.137,12.465-23.8-1.008-13.219.251-15.486,4.03,1.384,4.155-2.9-1.57-12.515-2.618-14.691-11.28-5.479-8.7-9.83,5.157-8.541,7.091-9.1,7.171,3.465,8.945,2.337-.161-8.462.322-11.282a115.2,115.2,0,0,0,.565-15.712c-.242-2.578-13.538-18.613-16.116-19.9s-20.97-5.44-24.093-4.634-11.482-1.612-14.1-6.446-15.012.988-17.429-.622-4.936-4.23-7.856-5.138-7.252.806-7.354-3.324,1.512-4.129.2-5.942S217.1,511,215.843,508.1a26.9,26.9,0,0,1-2.688-11.736c.125-4.909-2.977-6.016-3.229-9.667s-3.9-3.149-4.784-7.429a19.182,19.182,0,0,0-3.274-7.3l3.931-3.559a71.147,71.147,0,0,0-.479-8.935c-.5-2.77-2.479-.951-3.991-.28s-5.252-7.2-5.756-10.728-5.875-26.859-4.113-28.286.494-7.682,2.213-8.219,1.4-3.169,3.438-3.222,3.545-2.739,5.049-2.955,1.182-5,3.814-5.317,5.05-2.364,7.2.161,6.042,11.307,7.036,12.3c1.745,1.744-2.233,5.984,1.434,5.984s3.861,3.7,3.208,5.72c-2.65,8.228-2.568,20.458-2.2,22.3.707,3.573,7.258,7.2.5,8.438-2.693.494,1.673,3.126,3.277,3.146,3.626.043.48,4.69.7,6.14s1.861,1.18,3.169.753c4.965-1.623-.362,6.478,2.293,6.936,3.726.643,10.921-1.286,12.537.331,5.089,5.089,2.365,11.6,2.365,16.613s5.676,4.992,6.076,9.266c.394,4.2,3.364,5.028,3.364,5.028a71.109,71.109,0,0,0,7.49.807c3.222.107,12.319,2.6,15.22,2.38a36.807,36.807,0,0,1,14.611,2.579c5.587,2.256,20.413,4.513,20.413,4.513S311.926,497.7,315.657,497.613Z" transform="translate(-169.274 -340.47)" fill="gray" fill-rule="evenodd"/>
    <path id="Path_2423" data-name="Path 2423" d="M350.114,477.6c3.018,2.263,22.828,9.259,25.669,9.809s23.929-.824,27.5-3.117,5.868-2.293,7.7-4.859,2.75-5.409,3.484-2.659-.458,8.435-3.484,11.094-7.242,20.261-9.443,24.386-24.479,34.106-30.53,36.947-38.6-20.352-39.054-26.862,9.809-28.053,11.642-29.7-2.659-4.676-3.942-6.235-2.383-6.876.55-7.794S347.546,475.67,350.114,477.6Z" transform="translate(-146.358 -328.061)" fill="#999" fill-rule="evenodd"/>
    <path id="Path_2424" data-name="Path 2424" d="M217.773,412.122c2.713-3.671,50.194-58.1,52.143-60.738s2.98-3.668,5.385-1.489-.458,5.042-2.635,8.136-50.423,56.956-53.174,60.852-39.651,47.559-41.37,49.966-4.126,1.719-4.584-.459-3.094-3.208,1.26-6.531S213.877,417.394,217.773,412.122Z" transform="translate(-172.33 -348.714)" fill="gray" fill-rule="evenodd"/>
  </g>
</svg>
