<svg xmlns="http://www.w3.org/2000/svg" xmlns:xlink="http://www.w3.org/1999/xlink" width="444.313" height="433.982" viewBox="0 0 444.313 433.982">
  <defs>
    <clipPath id="clip-path">
      <circle id="Ellipse_331" data-name="Ellipse 331" cx="216.784" cy="216.784" r="216.784"/>
    </clipPath>
  </defs>
  <g id="immigration" transform="translate(-216.847 -259.793)">
    <g id="world" transform="translate(217.054 260)">
      <circle id="Ellipse_310" data-name="Ellipse 310" cx="216.784" cy="216.784" r="216.784" transform="translate(0)" fill="#9c9c9c"/>
      <g id="Group_1033" data-name="Group 1033" transform="translate(0)" clip-path="url(#clip-path)">
        <g id="EU_Africa" transform="translate(318.732 30.519)">
          <g id="Group_1010" data-name="Group 1010" transform="translate(55.398 111.37)">
            <path id="Path_1767" data-name="Path 1767" d="M496.091,346.635c-.649-.276.928,2.123-.907,1.994s-4.983-3.278-5.158-1.761,2.8,9.038,1.109,7.7-3.925-2.228-4.382-3.476-.517-1.48-2.267-1.539-2.255.386-3.032-.921-.265-3.422-.886-4.549-1.809-1.728-1.818-3.294.418-4.754-1.1-4.4a23.109,23.109,0,0,0-7.152,4.627c-.9,1.2-2.061,5.327-2.838,5.793s-2.6,1.477-3.5,1.089-2.042.407-2.46-.09l-1.147-1.366s.012,2.22-.048,3.495-.618,4.923-1.457,5.452a4.841,4.841,0,0,0-1.431,3.577c.093,1.058,2.391,4.037,2.233,8.109-.068,1.761.146,4.091-.186,4.768s-4.486,2.84-4.735,4.085.313,11.671-.537,12.642a18.392,18.392,0,0,0-2.43,8.019c.122,2.186-1.019,4.511.28,5.05s1.542.9,1.542,2.239-1.4,3.342,0,3.949,2.309-.424,1.64,2.673a11.661,11.661,0,0,1-1.516,4.167c-.423.971.647,1.94.025,2.365s-1.517.373-1.194,1.542-.3,2.106.8,2.882,1.592,2.12.77,3.064-1.268,3.335-.472,3.36,2.985.025,3.707,1.392,4.006,6.661,4.117,7.81-.779,3.5.4,4.09,2.024.221,3.368,1.688,3.142,5.325,4.621,5.037.83-3.123,3.592-3.6,5.723.486,5.847-1,4.4-8.032,5.921-7.484,2.14.7,2.513,1.866-.223,3.109.4,3.185.225-1.643.946-2.191,2.414.175,2.738,1.816.118,9.46-.418,10.334-2.43,4.52-1.991,5.929,2.38,8.359,1.9,10.059-1.243,7.123-2.566,8.979S484.2,490.67,483.81,492.42s-.389,1.75-14.579,32.123C538.986,463.634,515.145,354.7,496.091,346.635Z" transform="translate(-451.614 -336.356)" fill="#262626" fill-rule="evenodd"/>
          </g>
          <g id="Group_1011" data-name="Group 1011" transform="translate(0)">
            <path id="Path_1768" data-name="Path 1768" d="M480.415,382.633c.358-.441.681-.393,1.168-.454s1.514.067,1.736-.217-.251-1.5.144-2.089-.387-.655-.065-.864,1.521-.376,1.434-.928-.827-.7-.993-1.106-1.391-1.2-.588-1.428,1.134-.183,1.228-.918a1.715,1.715,0,0,0-1.279-1.753c-.734-.118-1.493-.379-1.4-1.113s.068-1.468.194-1.505a2.824,2.824,0,0,0,.722-1.4c-.06-.319-.94.606-.864-1.593s.607-2.32.985-2.289.548-.711.571-1.9a2.33,2.33,0,0,0-1.468-2.346c-.736-.142-1.019-.616-1.019-1.516s-1.35-1.991,0-2.488a2.579,2.579,0,0,1,1.966-.166,1.626,1.626,0,0,0,.734.924c.663.474.833-.447.938-1.313s-1.592-1.929.322-2.677,1.7-.7,2.815.6,3.417,3.362,3.735,4.37,2.425,3,3.255,3.9,2.7,1.234,2.772,3.01,1.152,1.97,1.321,2.392.8,1.293.712,1.781.685-1.649-1.008-5.457-8.865-8.53-10.074-12.032c-.5-1.456-2.645-2.222-1.719-3.544s1.233.509,2.309,1.617,3.481,1.821,3.931,3.143a3.543,3.543,0,0,0,1.454,1.984c.661.635,3.609,2.465,3.735,3.586s.046,2.654.866,3.527a30.927,30.927,0,0,1,2.7,3.834c.793,1.242.582,3.464,1.534,4.257s.835,2.027,1.421,1.186a2.65,2.65,0,0,0,.27-2.879c-.5-1.349-1.691-.449-1.929-1.64s-.291-1.85-.5-2.512-1.612-1.877-1.719-2.7-.641-2.276-.364-2.829.909-.6.762-1.528-.3-2.217-1.014-2.519-.889-1.38-1.3-2.078-1.1-.6-1.144-1.925a10.712,10.712,0,0,0-.681-3.472,25.289,25.289,0,0,0-2.361-2.495,2.844,2.844,0,0,1-1.057-2.171c0-1.228-.3-1.908.811-1.606s1.482.556,1.589-.025-1.968-2.208-1.146-3.224c6.8-8.411-58.529-76.1-65.641-69.2,0,0-1.74.046-2.831.118s-1.556.2-2.094-.17-4.007-2.075-4.754-2.654-2.154-2.377-3.122-1.465a1.918,1.918,0,0,0,.5,3.067c1.133.635,7.738,4.116,7.986,5.331a5.562,5.562,0,0,0,1.519,2.9c.608.5,10.085,8.676,10.582,10.223s1.63,1.271,2.073,2.265-.94,4.062.138,4.89a47.49,47.49,0,0,1,4.974,5.582c1.491,1.878,2.265,1.188,2.9,2.321s-.048,2.4,2,3.56,3.151,2.389,3.594,1.578-.35-2.007.22-2.762,2.414.056,2.893,1.161.5,2.063,1.133,2.615,2.293.607,2.937,1.675.875,1.5,1.654,2.739,2.289,2.29,2.674,1.425-.35-1.217-.718-2.468a6.242,6.242,0,0,0-1.013-2.267c-.406-.551-3.094-2.56-3.278-3.37a5.1,5.1,0,0,0-.9-2.027c-.571-.884-1.29-2.063-2.155-2.394a8.749,8.749,0,0,1-2.485-.952,20.365,20.365,0,0,1-3.907-3.23c-.866-.976-3.85-3.647-4.384-4.384s-1.257-.407-1.209-1.668.2-2.238-.651-3.01-7.276-5.011-5.986-6.318,2.652.5,3.721,1.638,4.034,2.468,4.052,3.261-.259,1.953.423,2.541,8.263,8.335,8.93,7.724-.014-.8.815-1.313,1.565-.884,2.468.313,2.063,2.008,1.621,3.261-.35.644.884,1.971,4.936,2.1,4.659,3.425-2.118,1.493-1.2,3.04,6.448,6.649,6.115,8.012-.331,3.224-1.878,3.924-1.821,1.033-2.327.573-3.707-4.26-4.467-5.135-3.707-4.491-4.029-3.938,1.8,3.247,2.326,4.031,5.364,5.133,5.41,5.894-.644,1.635-.621,2.694.9,1.082,1.127,2.417-.53,4.582-.068,5.55.621,3.131,1.312,3.707,3.057.585,1.816,1.513-2.271.835-2.642,1.974.825,1.394,0,1.83-2.54.017-2.5,1.321-1.2,1.618.065,2.233,3.159.914,4.433,2.157a16.761,16.761,0,0,0,3.944,3.108,2.784,2.784,0,0,1,1.313,3.293c-.529,1.451-.529,2,.483,2.786a3.6,3.6,0,0,1,1.381,3.063c-.068,1.082,1.541,1.521-.116,1.819a29.629,29.629,0,0,1-5.387.183c-1.818-.023-2.366-1.129-2.759-.034s.365,2.222-.255,2.269-1.039-.654-1.038.076a1.52,1.52,0,0,0,1.129,1.4c.621.254,1.745-.02,2.151.876s-1.46.252-.793,1.1.553,1.059.737,2.326a3.585,3.585,0,0,0,1.243,2.279c.345.276,0,3.707.093,4.4s1.013,1.381,1.589,1.934,2.083.479,1.651,1.586-.246,3.388.167,3.526,2.879-.966,3.546.138a7.456,7.456,0,0,0,2.3,2.58C479.842,384.657,480.021,383.121,480.415,382.633Z" transform="translate(-415.838 -264.433)" fill="#262626" fill-rule="evenodd"/>
          </g>
          <g id="Group_1012" data-name="Group 1012" transform="translate(86.545 91.574)">
            <path id="Path_1769" data-name="Path 1769" d="M472.738,323.572s5.461,9.878,5.742,11.6a3.012,3.012,0,0,1-1.2,2.77s-4.617-6.666-4.7-8.03S470.61,327.106,472.738,323.572Z" transform="translate(-471.729 -323.572)" fill="#262626" fill-rule="evenodd"/>
          </g>
          <g id="Group_1013" data-name="Group 1013" transform="translate(75.015 99.347)">
            <path id="Path_1770" data-name="Path 1770" d="M465.245,328.948c-.209-1.152-1.307.774-.853,1.751s.556,3.349,1.271,2.738S465.385,329.715,465.245,328.948Z" transform="translate(-464.283 -328.592)" fill="#262626" fill-rule="evenodd"/>
          </g>
          <g id="Group_1014" data-name="Group 1014" transform="translate(81.983 106.648)">
            <path id="Path_1771" data-name="Path 1771" d="M468.787,335.314c-.037-.609.178-1,.678-1.089s.948.085,1.01-.181-.39-.861.166-.715.61.4.681,1.056a6.722,6.722,0,0,0,.177,1.635c.18.435.32.489.376.909s0,.455-.393.437-.873-.678-.873-.678a2.586,2.586,0,0,0-.178-1.25C470.162,334.85,468.823,335.9,468.787,335.314Z" transform="translate(-468.783 -333.306)" fill="#262626" fill-rule="evenodd"/>
          </g>
          <g id="Group_1015" data-name="Group 1015" transform="translate(23.658 41.913)">
            <path id="Path_1772" data-name="Path 1772" d="M452.6,317.954c1.29-.418,3.041.214,3.041-.567s-1.607-.959-1.762-1.7.378-2.365-.023-3.033.237-.99-.618-1.03-2.747.52-2.693-.128-.036-4.15-.036-4.15-1.651.6-2.142-.135a3.845,3.845,0,0,0-2.386-1.25c-.87-.2-.424-.245-1.093-1.271s-.669-2.055-1.572-2.411-1.953.805-2.688-.153a3.936,3.936,0,0,1-1.027-2.1c-.135-.782-.313-2.767-.982-3.325s-3.435-.424-3.837-1.473.212-3.611-1.422-3.713-2.326.077-2.236,1.728,0,2.632,1.428,3.5,3.616,1.672,4.172,2.543.7,1.858,1.679,2.625,1.243,2.462,2.225,3.02,1.324.406,2.044,1.161.875,2.021,2.025,2.125,1.819.194,1.751.974-1,2.646-.254,2.975,1.058-.7,1.527-.029-1.116,2.766.022,3.39,3.3-1.092,2.944.246-.735,6.624-.043,6.558.646-.825.959-1.316.849-.455.692-1.087S451.308,318.372,452.6,317.954Z" transform="translate(-431.116 -291.5)" fill="#262626" fill-rule="evenodd"/>
          </g>
          <g id="Group_1016" data-name="Group 1016" transform="translate(29.066 54.902)">
            <path id="Path_1773" data-name="Path 1773" d="M434.846,299.974c.5-.469,2.981,1.124,3.213,1.891s-.161,3.052.553,3.444,3.069,1.964,3.213,2.927a3.628,3.628,0,0,1-.946,2.749c-.571.553-1.014,1.706-1.756,1.7s-.8-.488-.814-1.541a16.773,16.773,0,0,0-.048-2.868c-.184-1.166-.166-1.932-.844-2.183s-1.688-.019-2.013-.74S434.187,300.6,434.846,299.974Z" transform="translate(-434.609 -299.889)" fill="#262626" fill-rule="evenodd"/>
          </g>
          <g id="Group_1017" data-name="Group 1017" transform="translate(91.852 111.198)">
            <path id="Path_1774" data-name="Path 1774" d="M475.174,336.977c.169-.98,1.039-.87,1.232-.291s.291.822-.144,1.064A.714.714,0,0,1,475.174,336.977Z" transform="translate(-475.156 -336.245)" fill="#262626" fill-rule="evenodd"/>
          </g>
          <g id="Group_1018" data-name="Group 1018" transform="translate(51.664 149.748)">
            <path id="Path_1775" data-name="Path 1775" d="M449.316,362.365c-.173-.72-.2-1.324.316-1.209s1.352.288,1.123.921S449.488,363.083,449.316,362.365Z" transform="translate(-449.203 -361.141)" fill="#262626" fill-rule="evenodd"/>
          </g>
          <g id="Group_1019" data-name="Group 1019" transform="translate(54.538 149.898)">
            <path id="Path_1776" data-name="Path 1776" d="M451.266,361.29c.237-.193,1.031.189,1.005.541s-.6,1.068-.917.943S450.926,361.567,451.266,361.29Z" transform="translate(-451.059 -361.237)" fill="#262626" fill-rule="evenodd"/>
          </g>
          <g id="Group_1020" data-name="Group 1020" transform="translate(56.851 148.274)">
            <path id="Path_1777" data-name="Path 1777" d="M452.608,360.319c.251-.339,1.07.062,1.12.3s-.226,1.044-.553.994S452.394,360.607,452.608,360.319Z" transform="translate(-452.553 -360.189)" fill="#262626" fill-rule="evenodd"/>
          </g>
          <g id="Group_1021" data-name="Group 1021" transform="translate(21.327 33.577)">
            <path id="Path_1778" data-name="Path 1778" d="M429.71,286.417a1.221,1.221,0,0,1,1.781.2,4.965,4.965,0,0,1,.268,2.343c-.2.407.108,1.214-.494,1.02s-1.219-.178-1.008-.951.7-.949.386-1.415S429.289,286.922,429.71,286.417Z" transform="translate(-429.611 -286.117)" fill="#262626" fill-rule="evenodd"/>
          </g>
          <g id="Group_1022" data-name="Group 1022" transform="translate(11.137 30.585)">
            <path id="Path_1779" data-name="Path 1779" d="M423.03,285.174c0-.424.66-1.067.982-.982s1.123.491.954.8-.477.828-.827.729S423.03,285.637,423.03,285.174Z" transform="translate(-423.03 -284.185)" fill="#262626" fill-rule="evenodd"/>
          </g>
          <g id="Group_1023" data-name="Group 1023" transform="translate(25.383 119.557)">
            <path id="Path_1780" data-name="Path 1780" d="M432.258,343.04c-.164-.525.451-.519.739-.6s.082-.835.588-.794,1.109.178,1,.438a4.2,4.2,0,0,0-.242.573C434.2,343.068,432.326,343.26,432.258,343.04Z" transform="translate(-432.231 -341.643)" fill="#262626" fill-rule="evenodd"/>
          </g>
          <g id="Group_1024" data-name="Group 1024" transform="translate(19.405 118.444)">
            <path id="Path_1781" data-name="Path 1781" d="M428.381,341.532c.161-.5.534-.766.876-.506s.286.588,0,.753S428.271,341.875,428.381,341.532Z" transform="translate(-428.37 -340.924)" fill="#262626" fill-rule="evenodd"/>
          </g>
        </g>
        <g id="N_S_Americas" transform="translate(59.549 4.422)">
          <g id="north" transform="translate(0 0.831)">
            <g id="Group_1026" data-name="Group 1026" transform="translate(112.095 7.985)">
              <g id="Group_1025" data-name="Group 1025" transform="translate(33.333 73.461) rotate(60.281)">
                <ellipse id="Ellipse_311" data-name="Ellipse 311" cx="1.219" cy="1.578" rx="1.219" ry="1.578" transform="translate(0 0)" fill="#4d4d4d"/>
              </g>
              <ellipse id="Ellipse_312" data-name="Ellipse 312" cx="1.101" cy="1.744" rx="1.101" ry="1.744" transform="translate(31.219 53.205)" fill="#4d4d4d"/>
              <ellipse id="Ellipse_313" data-name="Ellipse 313" cx="1.364" cy="1.186" rx="1.364" ry="1.186" transform="translate(15.582 9.283)" fill="#4d4d4d"/>
              <ellipse id="Ellipse_314" data-name="Ellipse 314" cx="2.433" cy="2.31" rx="2.433" ry="2.31" transform="translate(37.369 32.027)" fill="#4d4d4d"/>
              <ellipse id="Ellipse_315" data-name="Ellipse 315" cx="1.377" cy="1.301" rx="1.377" ry="1.301" transform="translate(17.214 4.921)" fill="#4d4d4d"/>
              <ellipse id="Ellipse_316" data-name="Ellipse 316" cx="1.301" cy="0.892" rx="1.301" ry="0.892" transform="translate(8.34)" fill="#4d4d4d"/>
              <ellipse id="Ellipse_317" data-name="Ellipse 317" cx="1.237" cy="1.25" rx="1.237" ry="1.25" transform="translate(0 14.128)" fill="#4d4d4d"/>
              <ellipse id="Ellipse_318" data-name="Ellipse 318" cx="1.542" cy="1.505" rx="1.542" ry="1.505" transform="translate(18.006 0.561)" fill="#4d4d4d"/>
              <path id="Path_1782" data-name="Path 1782" d="M339.894,286.445c.757.8-3.636,2.45-3.636,2.45S338.482,284.953,339.894,286.445Z" transform="translate(-312.396 -235.264)" fill="#4d4d4d" fill-rule="evenodd"/>
              <path id="Path_1783" data-name="Path 1783" d="M333.058,285.981c-.039-.911,2.327-2.389,2.468-3.12a17.656,17.656,0,0,1,.585-3.024c.265-.424,10.726,7.015,10.159,7.344s-4.3-2.479-5.479-2.078-2.22,2.315-2.668,2.976-2.739,1.675-3.071.92a5.713,5.713,0,0,1,.023-2.454S333.115,287.332,333.058,285.981Z" transform="translate(-314.151 -238.713)" fill="#4d4d4d" fill-rule="evenodd"/>
              <path id="Path_1784" data-name="Path 1784" d="M333.487,268.273c.028-1.038,5.982-5.866,6.555-5.325s-.636,3.109-.862,3.713-.3,3.174.655,3.174,2.093-7.674,4.432-7.179c.832.177,2.443,1.788,2.318,2.77s-1.383,1.819-.3,2.346,5.892,1.533,5.313.122-4.131-4.483-3.829-5.112,4.314-.347,5.07.756,1.322,3.777,2.2,4.47,4.156,1.164,4.723,1.857-.252,1.511.692,2.172,3.967-.472,4.565.441-.378.881.347,1.479,1.542-.723,2.236.283a5.37,5.37,0,0,1,1.07,3.117c-.125.725-1.386.094-1.7,1.133s-.567,1.606.283,1.953,4.628.441,5.2,1.164a2.793,2.793,0,0,0,2.046,1.166c.63-.032-.807.793.07,1.372s1.347-.334,1.788.327,2.928-.251,3.117.85a4.985,4.985,0,0,1-.378,2.992c-.378.661-1.48-.378-1.542.378s.542,2.267-.186,2.22-1.956-1.37-2.428-2.473-3.462-2.612-4.156-2.045a5.19,5.19,0,0,0-1.133,2.045s-2.392.252-1.762.819,1.857.283,2.392,1.039-.63,1.48.031,1.48,2.173-.756,2.488,0,3.116,2.707,3.3,3.809a39.894,39.894,0,0,1,.056,4.658s-6.689-4.856-7.374-4.089,1.854,2.679,2.659,3.405,3.95,3.023,3.628,3.264-5.547-.791-6.378-1.7-4.887-2.368-5.415-3.4-3.047-4.082-3.93-4.006-8.789,1.058-9.117-.554.4-3.325,2.09-2.77,2.669,1.487,4.006.277.6-2.392.856-3.273,2.442-.807,2.871-2.7.554-4.61-.4-4.836-2.86-.413-3.32-.787a4.777,4.777,0,0,0-2.474-.85c-.427.15-.025-1.435-.175-2.041s-1.99-.957-2.318-1.36.423-1.234-1.023-1.259-.488,1.612-1.7,1.511-5.523.183-5.768-.062.077-.67-.768-.768,1.033-.839-3.136-.937-5.556.386-5.612-.728,1.788-.937,2.338-.991,2.408.1,2.476-.55.18-1.281-2.448-1.129S333.449,269.721,333.487,268.273Z" transform="translate(-313.986 -248.237)" fill="#4d4d4d" fill-rule="evenodd"/>
            </g>
            <g id="Group_1027" data-name="Group 1027" transform="translate(0.121)">
              <path id="Path_1785" data-name="Path 1785" d="M372.572,319.457c.053.861-5.624-1.525-5.624-1.525S372.451,317.489,372.572,319.457Z" transform="translate(-183.591 -209.848)" fill="#404040" fill-rule="evenodd"/>
              <path id="Path_1786" data-name="Path 1786" d="M274.806,299.685c.791-.045.41,1.228,1.548,2.323s3.264.13,3.871.774.009,5.968.774,6.968,2.694,2.4,2.323,4.645-1.581,4.133-1.548,5.42c.028,1.095,2.464,2.7,2.323,3.871s-1.556,2.073-1.548,3.871c.008,1.61,4.989,4.833,3.1,5.42-1.725.534-3.225,1.61-2.323,3.1s6.646,8.14,5.906,9.728-2.409,8.171-2.809,6.023.579-5.073,0-6.46-3.461-8.218-4.645-6.194-.017,3.541.79,4.645,1.652,8.1.759,10.034-7.728,18.287-7.742,20.935c-.017,3.075.163,13.174.926,15.485s.985,6.937,2.556,7.742a14.69,14.69,0,0,1,4.26,3.1c1.172,1.3,1.575,5.166,2.428,7.742s.17,5.009.669,6.194,2.465,2.99,3.1,4.645,2.137,2.205,1.183,3.1-2.663.508-2.731,2.555c-.037,1.138,4.645,2.961,4.645,2.961a9.622,9.622,0,0,1,1.548,3.051c.341,1.482-1.327,2.752,0,3.822s5.406,5.421,6.194,5-3.078-4.548-3.1-5.74.785-3.6-.088-5.451-2.451-2.733-3.009-4.645-.266-3.34-1.355-4.645-3.205-2.286-3.29-4.645-.362-6.347,1.548-6.194,2.354,1.956,3.1,3.1.557,6.894,1.548,7.742a22.236,22.236,0,0,1,3.639,4.842,106.911,106.911,0,0,0,6.686,10.771c1.078,1.121,6.014,7.4,6.194,9.828s-.143,6.85.624,8.428,13.676,13.256,24.238,14.864c2.064.314,4.757-2.6,6.417-2.154s6.553,4.4,7.315,5.923-.314,2.828.449,3.142,7.08.142,8.975,1.3c.808.494,1.285,1.225,2.214,1.353s2.23-1.084,2.857-.41.135,3.232,1.392,4.083,3.142,1.482,3.769,1.078,1.527-.225,2.156.808.313,1.795-.359,2.109-2.423,2.2-1.168,3.232,1.347,1.031,2.019.4,2.423.763,3.591,2.066.09,2.961.988,3.006,3.766-.666,5,.251,4.164,4.6,5.258,3.9,1.812-1.189.6-2.625.359-2.558,1.437-2.917a6.815,6.815,0,0,1,3.9.045c1.183.424,1.212-1.84-.135-2.2s-4.128-.449-5.386.225-1.863,1.84-2.973,1.593-10.271-3.39-8.515-11.915c.314-1.527,2.738-7.225.986-9.514s-5.339-2.6-8.167-2.468-6.923,3.2-8.623.41,4.046-9.971,4.718-12.035,1.841-6.417.18-7.495-5.745.494-6.237,1.392-2.064-.808-2.872-.09-.443,2.79-.674,4.038c-.225,1.212-.269,2.109-1.346,3.052s-6.284,3.1-9.873,1.885-10.816-5.43-10.681-11.174-.427-10.418.28-11.942,2.323-.8,2.368-2.42-2.019.449-1.257-2.783,1.943-3.777,5.341-8.481c2.154-2.982,7.9-6.9,13.6-2.783.807.584.889,2.459,2.665,1.925s2.541-1.3,2.451-2.733,7.09-3.859,9.6-1.795,3.5,2.738,4.757,2.962,1.974-1.168,3.366-.9a4.118,4.118,0,0,1,3.006,3.5c.269,1.84-.537,5.381.966,6.595s3.613,1.034,3.882,2.111-1.535,2.55-.449,3.636c.314.314,4.007,2.287,4.218-1.3a23.668,23.668,0,0,0-.988-7.18c-.672-1.615-5.437-7.824-4.378-10.509S391.3,405.35,400.5,400.075c1.213-.7,1.3-3.86.627-4.667s-2.468-1.976-.942-4.489,4.667-1.435,5.474-3.1-.672-6.149.629-7.18,5.206-4.13,6.6-3.007,4.128-.629,4.128-.629-1.347-4.4-.314-6.372,12.745-9.875,14.226-9.111a10.16,10.16,0,0,1,2.872,2.783,18.363,18.363,0,0,0-3.007.674c-1.3.449-2.2,2.154-1.076,3.142s3.321-.539,4.173-1.347,1.295-2.293,2.442-2.313,3.263,1.039,4.247-.074,2.691-4.209,2.736-5.062.627-2.558-.629-2.6-1.617,2.872-2.828,3.815-6.483,1.6-8.078-1.123c-.763-1.3-1.795-6.821-1.57-7.719s1.076-1.66-.225-2.648-3.905-.9-4.757,0-9.359,8.565-9.828,7.18c-.9-2.648,7.135-10.457,8.93-11.488s15.483,0,16.739-.853,3.815-3.994,4.982-4.443,4.8-1.929,4.624-3.366-2.261-6.974-7.182-5.7c-1.211.313-2.781,3.634-4.083,1.974s-1.211-1.751.539-2.872a10.64,10.64,0,0,1,4.757-1.123s-5.7-3.23-6.6-3.949-6.194-3.322-6.194-3.322l2.648-1.076s-7.629-11.579-8.93-11.849-.653,4.509-1.112,5.375-1.985-1.02-2.838-.393-.674,2.917-1.84,2.693-1.033-3.365-1.974-3.455-3.052,2.334-3.456,1.525.539-2.109.763-3.589a1.486,1.486,0,0,0-.988-1.8s.4-2.872-.449-3.545-3.007.717-3.365-.449-3.187-5.116-4.489-5.026-8.272-.406-8.444.582.994,9.426.5,10.009-2.6.627-2.468,1.7,5.833,5.341,5.115,8.8-6.731,6.374-7,7.809,2.154,7.719,1.617,9.066-.09,4.981-3.232,4.712-6.686-5.3-6.508-7.135,1.076-6.669-.088-8.482c-.4-.629-5.386.18-6.284-.269s-.853-1.346-1.57-2.2-1.931.494-2.917-.494-.763-1.57-1.347-2.468-2.828-.629-3.589-1.3-6.956.135-7.18-1.033,1.031-4.487.268-5.206-4.263.359-4.218-2.019.07-3.681.07-3.681,3.566.135,3.656-.807-1.957-3.888,1.84-6.1c1.078-.629,2.154-2.244,1.884-2.738s4.443-.359,4.892-1.391-5.206-1.84-4.981-3.232,4.309.135,5.925-.045,3.321-2.2,4.442-2.378,2.917-.674,2.917-1.525-4.892-.314-5.251-1.392,1.05-1.364,1.922-1.364,2.733.841,3.487.841,1.415-2.077,2.151-2.427.5-1.019.92-.979.248,1.428,2.222,1.646c.588.067,1.2-.717,1.14-1.305s-.022-1.2.718-1.264a.941.941,0,0,1,1.155.959c0,.61-.35.828.762.893s1.133-.5,1.067-1.09.437-.5,1.025-.565a1.609,1.609,0,0,0,1.242-1.744c-.218-.807-1.047-2.025-1.852-1.96s-.742.13-.785-.675-.065-.72,1.024-.742,2.518-.282,2.518-.927-1.4-.579-2.348-.954-1.158-2.008-2.247-1.94a2.6,2.6,0,0,0-2.213,2.111c-.1.952.782,1.123-1.26,1.225s-1.531.2-1.4,1.158.1,3.233-.92,2.995a2.586,2.586,0,0,1-1.6-2.552c-.034-1.09.273-2.145-1.293-2.213s-3.812,1.123-3.88-1.192-.136-3.029.475-2.995,1.44-1.561.09-1.615-1.246-.564-1.451-1.824-.884-3.131-1.634-3.029-2.111,2.69-1.7,3.846-1.192.681-1.158,1.463,2.451,2.417,2.656,4.119-.2,1.736-1.361,1.668-2.315.068-2.485.988-.681,3.063-1.429,3.063-1.806-1.5-2.588-1.872-9.974.477-10.757,0-2.272-2.179-3.16-1.923-3.478.8-3.376,2.2,1.013,3-1.736,3.2c-3.568.26-.988-2.656-1.7-3.507s-6.773,1.462-6.638-1.293c.068-1.4,2.042-.784,1.77-1.974s-.748-.988-1.634-1.293-2.718-.158-4.014-1.391-3.475-1.435-6.028-1.844-9.124-1.055-10.791.034-2.337,2.9-3.993,2.609-3.427-5.2-6.048-5.91l-3.281-.9s1.068-2.237.048-2.68-2.349,1.26-3.473,1.7-4.494-.375-5.105.407-15.485,16.31-15.485,16.31-1.635-2.36-3.691-2.844a3.386,3.386,0,0,0-4,1.8c-.378,1.072,1.3.355,2.109.742s-.6,1.658-1.147,2.382-8.707,5.288-10.218,6.915-3.588,4.966-4.881,6.661c-1.233,1.617-2.93,3.6-2.2,4.074s2.2-.615,2.518.358.517.934-.1,1.826-11.116,5.073-9.1,7.32,10.271-6.435,11.065-6.521,2.775.369,3.173-.1-.128-3.187.367-3.613,5-5.322,6.576-3.787-4.633,2.77-3.575,3.667S272.931,299.79,274.806,299.685Z" transform="translate(-248.535 -238.699)" fill="#4d4d4d" fill-rule="evenodd"/>
              <path id="Path_1787" data-name="Path 1787" d="M375.652,327.239c-.667-.9.48-1.438,1.093-1.305s1.466.4,1.386-.613-.373-1.174-1.2-1.093-.985.186-1.065-.559.24-1.041.88-1.041,1.652.746,1.785-.613-1.093-1.759-.692-2.691,1.652-.081,1.493-1.093-1.013-2.146-.466-2.951,2.491-2.939,2.972-2.433.64,1.813-.054,2.187-1.626,3.7-.96,4.4,1.894.16,2.533.666-.454,1.279.613,1.412,3.744-.214,4.257.533-.526,1.973.3,2.213,1.785-.4,1.945.081-.506,1.973.161,2.372,2.238-.187,2.292.533-.827,1.093-1.2,1.759-.045,1.66-.875,1.564-.7-1.11-1.257-1.885-1.12-1.332-1.971-.8-1.453,3.041-2.885,1.8c-.421-.362.591-1.7-.074-2.309s-.986-.347-1.626.107S376.424,328.278,375.652,327.239Z" transform="translate(-178.928 -212.656)" fill="#4d4d4d" fill-rule="evenodd"/>
              <path id="Path_1788" data-name="Path 1788" d="M368.956,326.417c-.036-1.093.613-1.434,1.319-1.251s2.5-.279,2.5.646-.886,1.219-1.592,1.061S368.977,327.121,368.956,326.417Z" transform="translate(-182.49 -205.883)" fill="#4d4d4d" fill-rule="evenodd"/>
              <path id="Path_1789" data-name="Path 1789" d="M366.807,318.326c-.619-.372,2.956-1.113,3.616-.477s2.859,1.781,2.43,2.346S367.49,318.736,366.807,318.326Z" transform="translate(-183.708 -210.007)" fill="#4d4d4d" fill-rule="evenodd"/>
              <path id="Path_1790" data-name="Path 1790" d="M322.719,273.308c-.844-.327-.28-1.047.513-1.095s1.384.717,1.635-.1-.571-1.623.48-1.555.842.486,1.378,1.722,1.308,1.294.852,1.963a1,1,0,0,1-1.668-.031C325.49,273.681,323.138,273.472,322.719,273.308Z" transform="translate(-208.079 -235.807)" fill="#4d4d4d" fill-rule="evenodd"/>
              <path id="Path_1791" data-name="Path 1791" d="M324.749,277.064c.7-1.174.511-1,.954-1.631a2.417,2.417,0,0,1,1.863-1.048c.723-.023,1.7.674,1.838-.059s-.138-.593-1.184-1.268-2.656-.249-2.434-1.569.245-1.623.85-1.505,1.118.3,1.188-.513-.582-1.234-.35-1.747.42-4.333-.791-4.286-1.561.652-1.561,1.422.093,2.608-.489,2.888-1.366-.09-1.265.607a.742.742,0,0,1-1.041.813c-.513-.186-.977-1.257-.441-1.536s1.49.232,1.536-.35.4-2.027-.42-2.12-.954.3-.954.746-2.027.675-2.166,0-.336-.361-.739-.615-2.965.269-2.653-.178.17-.553.48-.686,1.547.135,1.518-.328-2.553-1.054-2.786-.519-.536.629-1.281.7-.77.605-1.188.722-1.166-.13-1.318.365,1.084.915.362,1.172-1.968-.478-2.149.762-.249,1.264.776,1.194,2.025-.395,1.583.3-.489.791-1.747.884-2.538.164-2.4.77,6.87-.095,7.079.605,1.751,1.242.446,1.482-6.64.147-6.64.147-2.282-.023-2.447.886.35.745,1.305,1.327,1.466-.135,1.456.887-.455,1.722.43,2.024,3.143.582,3.308-.116-.023-.466,1.35-.652,2.886.172,3.063-.415.314-1.332,1.036-1.4,1.375-.932,1.981.209-.536,1.141.186,1.538S324.387,277.666,324.749,277.064Z" transform="translate(-216.606 -239.749)" fill="#4d4d4d" fill-rule="evenodd"/>
              <path id="Path_1792" data-name="Path 1792" d="M304.1,270.5a3.676,3.676,0,0,1,.675-3.633c.816-.559,6.335-2.609,6.592-3.565s-.2-1.531.588-2.2,3.859-.9,4.139-.2-.675,1.118-.163,1.352,3.272-.186,3.074,1.4c-.093.745-1.445.489-2.306.466s.046.706-.28.846-2.654-.186-3.089.2.195.479-.138.644-1.954-.18-2.3.153S305.2,272.083,304.1,270.5Z" transform="translate(-218.187 -241.334)" fill="#4d4d4d" fill-rule="evenodd"/>
              <path id="Path_1793" data-name="Path 1793" d="M323.862,264.715c-.98-.025-1.092,1.229-.156,1.714s1.369-.468,1.682.226-.468.971.07,1.663.017,1.578.605,1.508.832-1.282,1.161-1.473a1.862,1.862,0,0,1,1.5-.3c.78.15,1,.129,1.106-.455s.827-1.648.348-1.884-1.143.245-.974-.485-.372-.923.689-1.01,1.885.065,1.691-.911-1.539-1.039-2.3-.822-1.428-.364-1.6.457a2.134,2.134,0,0,1-.932,1.449C326.21,264.891,324.568,264.732,323.862,264.715Z" transform="translate(-207.66 -240.289)" fill="#4d4d4d" fill-rule="evenodd"/>
              <path id="Path_1794" data-name="Path 1794" d="M330.264,267.376c-.88-.119-1.082-2.036-.584-2.73s.715-2.451,1.635-2.276,5.729-.192,5.643.457-1.256.217-1.819.759-1.027,1-1.477,1.42-1.771.226-1.967.811S331.066,267.485,330.264,267.376Z" transform="translate(-204.177 -240.305)" fill="#4d4d4d" fill-rule="evenodd"/>
              <path id="Path_1795" data-name="Path 1795" d="M318.4,260.478c-.427-1.025,3.578-2.05,4.506-1.471s-.328,1.761.406,2.264,2.92.7,2.9.019-.779-1.943-.06-2.132,1.414-.342,1.589-1.175-.059-.793-.658-1.256-1.392-.774-.968-1.355,1.006-.677,2.264-.715,2.128-.251,1.973.986-.426.909-1.045,1.47-1.141.426-.561,1.1,1.2.715,1.007,1.838-.077,1.624-1.084,2.34-5.588.271-5.937.774-1.161,1.8-1.818,1.875-2.225.33-2.38-.387-.1-1.74.619-1.6,2.05.56,2.224-.02-.618-.793-1.411-.773-1.693-.6-1.9.046-1.311,1.733-1.658,1.113-.446-1.644.115-1.683S318.687,261.174,318.4,260.478Z" transform="translate(-211.466 -244.55)" fill="#4d4d4d" fill-rule="evenodd"/>
              <path id="Path_1796" data-name="Path 1796" d="M314.418,259.566c-.057-.56-.135-1.18.735-1.237s4.661-2.069,5.356-2.262,2.941-.813,3.075-.175-.928.793-1.682.89a4.9,4.9,0,0,0-2.515,1.044,6.737,6.737,0,0,1-2.2,1.239C316.564,259.315,314.477,260.128,314.418,259.566Z" transform="translate(-212.418 -244.006)" fill="#4d4d4d" fill-rule="evenodd"/>
              <path id="Path_1797" data-name="Path 1797" d="M327.261,260.011a2.135,2.135,0,0,1,1.188-2.08c.677-.3,3.168-1.073,3.549-.347s.66,1.2.246,1.651-.976.172-.85.92,1.09,1.172.235,1.414-4.336.653-4.154.076,2.344-.379,2.31-1.138S327.326,260.787,327.261,260.011Z" transform="translate(-205.362 -243.088)" fill="#4d4d4d" fill-rule="evenodd"/>
              <path id="Path_1798" data-name="Path 1798" d="M329.739,255.427a1.694,1.694,0,0,1,.627-2.278c.776-.28,1.9.595,1.9.595s.595-.5.743.181.33,1.733-.084,1.98-.824.791-1.22.362S329.987,255.807,329.739,255.427Z" transform="translate(-204.111 -245.386)" fill="#4d4d4d" fill-rule="evenodd"/>
              <path id="Path_1799" data-name="Path 1799" d="M335.11,258.295c.55-.605.935-1.265,1.7-.5s.44,1.761,1.375,2.172,3.191,1.239,3.575.551-.482-.765.653-1.166,3.885-1.392,4.573-.1,1.211,2.174.853,2.668-.633,1.211-1.871,1.183l-7.866-.175a1.69,1.69,0,0,0-1.239-.595c-.962-.138-2.64-.33-2.64-1.375A4.084,4.084,0,0,1,335.11,258.295Z" transform="translate(-201.536 -242.996)" fill="#4d4d4d" fill-rule="evenodd"/>
              <path id="Path_1800" data-name="Path 1800" d="M336.87,256.163c.342.369,2.724.55,3.247-.056s-.413-1.183.384-1.347,2.34.3,2.326-.482-.29-.036-.488-.63.313-1.152-.494-1.479-.849-.325-.805-.92-.132-1.1-1.121-.9-2.474.1-2.727.545.085,1-.308,1.257-.928.18-.951.612a.861.861,0,0,0,.907.98c.691-.042,1.446-.742,1.569-.1s.164.955-.469.941S335.978,255.2,336.87,256.163Z" transform="translate(-200.602 -246.915)" fill="#4d4d4d" fill-rule="evenodd"/>
              <path id="Path_1801" data-name="Path 1801" d="M337.223,262.835c.025-.621-.045-1.034.748-1.1a5.919,5.919,0,0,0,1.507-.125c.16-.132-.3-1.68.923-1.68s.728.434.915.774,2.476.525,2.578-.429-.088-1.29-.748-1.319-1.056.017-1.115-.367c-.071-.46-.412-.373-.412-.373s-.341-.118-.341-.694a.811.811,0,0,1,.917-.917c.641,0,4.192.17,4.192-.367s-.458-.451-.844-.509-.92.2-.934-.142.252-.519-.023-.574-.742.136-.827-.164-.065.034-.214.06-.581-.014-.557-.294.025-.582.661-.506,2.214-.44,2.411,0-.269.5.282.63,1.113.265,1.007-.63-.06-.985.485-.94,2,.395,1.956-.319-2.865-.454-4.289-.5-2.36.434-2.468-.079.709-1.107-.028-1.3-2.216-.759-2.049-1.456.94-.592,1.818-.592,4.215-.683,4.443,0-.333,1.773.584,1.751,1.175-.948,1.144-1.539-.393-1.061,1.668-1.016,8.352-.212,8.428.667.238,1.11-1.144,1.129-3.032-.663-3.032.663.334,1.025,1.22,1.025,1.067-.037,1.1.266-.376.63-1.1.607a1.522,1.522,0,0,0-1.112.375s-.444.441-.655.4-.369.568-.737.779-1.075-.211-1.189.327.231.636-1.033.6-1.369-.146-1.513.579a.9.9,0,0,0,1.065,1.106c.646-.105,1.646-.646,1.527.565s-1.013,1.185-1.632,1.118-1.183-.605-1.487.093,1.158.452.358,1.295-.926-.144-1.4.514-2.714-.122-2.714.6.78.72,1.624.762,1.665-.206,1.727.452-.016.4-.66.452-.943-.553-.965.079.477.8-3.207.8S337.18,263.871,337.223,262.835Z" transform="translate(-199.894 -248.116)" fill="#4d4d4d" fill-rule="evenodd"/>
              <path id="Path_1802" data-name="Path 1802" d="M330.44,385.129a.693.693,0,0,1,.076-1.133c1.881-1.281,7.047-4.347,9.006-3.732,2.43.762,7.323,3.516,8.88,4.241s3.154.325,4.024.725,2.03,1.885,2.971,2.357,2.936-.435,3.479.362.217,1,.962,1.408,1.158-.488,1.857,1.01,2.865,2.07-4.435,2.07c-.957,0-4.509,2.363-5.6,1.166s-.181-1.666.581-2.174,2.529-.575,2.007-1.339-2.985.5-3.82-.437.689-2.03-.4-2.284a52.367,52.367,0,0,0-5.474-.4c-.725-.037.731-.881-.4-1.327s-1.818-1.521-3.989-1.007c-.883.209-1.185.163-1.392-.277s.259-.945-.626-1.319-3.063.437-3.551.924C334.185,384.381,331.974,386.094,330.44,385.129Z" transform="translate(-203.756 -175.683)" fill="#4d4d4d" fill-rule="evenodd"/>
              <path id="Path_1803" data-name="Path 1803" d="M353.779,389.249c.621-1.163,1.115-1.067,1.857-.649s2.343,1.787,3.27,1.16,1.462-2.9,2.366-2.389,8.815,4.477,7.818,5.8-1.253,1.16-3.154.441-2.553-2.112-3.04-1.149.255,2.239-.232,2.471-3.363-.674-4.407-.581-7.1.906-7.168-.6,1.925-.974,2.69-.974,2.784.649,2.807-.581S352.852,390.989,353.779,389.249Z" transform="translate(-192.289 -171.781)" fill="#4d4d4d" fill-rule="evenodd"/>
              <path id="Path_1804" data-name="Path 1804" d="M343.357,393.442a1.476,1.476,0,0,1,1.16-2.292c.957-.057,4.552,2.495,4.552,2.495S343.473,393.586,343.357,393.442Z" transform="translate(-196.69 -169.668)" fill="#4d4d4d" fill-rule="evenodd"/>
              <path id="Path_1805" data-name="Path 1805" d="M365.894,393.542c-.517-.675-.3-1.926.163-2.135s5.034-.533,5.29.139S366.729,394.632,365.894,393.542Z" transform="translate(-184.333 -169.672)" fill="#4d4d4d" fill-rule="evenodd"/>
              <path id="Path_1806" data-name="Path 1806" d="M343.233,376.928c.412-.458,1.095.093,1.429.7s.835,2.524.407,2.933S342.231,378.042,343.233,376.928Z" transform="translate(-196.73 -177.561)" fill="#4d4d4d" fill-rule="evenodd"/>
              <ellipse id="Ellipse_319" data-name="Ellipse 319" cx="1.353" cy="1.034" rx="1.353" ry="1.034" transform="translate(160.934 211.54)" fill="#4d4d4d"/>
              <ellipse id="Ellipse_320" data-name="Ellipse 320" cx="1.09" cy="0.819" rx="1.09" ry="0.819" transform="translate(151.724 197.214)" fill="#4d4d4d"/>
              <ellipse id="Ellipse_321" data-name="Ellipse 321" cx="1.448" cy="0.468" rx="1.448" ry="0.468" transform="translate(144.533 192.904)" fill="#4d4d4d"/>
              <ellipse id="Ellipse_322" data-name="Ellipse 322" cx="1.098" cy="1.014" rx="1.098" ry="1.014" transform="translate(194.751 224.259)" fill="#4d4d4d"/>
              <ellipse id="Ellipse_323" data-name="Ellipse 323" cx="0.801" cy="1.324" rx="0.801" ry="1.324" transform="translate(200.038 232.882)" fill="#4d4d4d"/>
              <ellipse id="Ellipse_324" data-name="Ellipse 324" cx="0.791" cy="0.87" rx="0.791" ry="0.87" transform="translate(198.299 227.683)" fill="#4d4d4d"/>
              <ellipse id="Ellipse_325" data-name="Ellipse 325" cx="0.909" cy="1.256" rx="0.909" ry="1.256" transform="translate(199.742 246.088)" fill="#4d4d4d"/>
              <ellipse id="Ellipse_326" data-name="Ellipse 326" cx="0.98" cy="1.329" rx="0.98" ry="1.329" transform="translate(186.168 170.942)" fill="#4d4d4d"/>
              <ellipse id="Ellipse_327" data-name="Ellipse 327" cx="1.827" cy="1.084" rx="1.827" ry="1.084" transform="translate(186.451 119.21)" fill="#4d4d4d"/>
              <ellipse id="Ellipse_328" data-name="Ellipse 328" cx="1.699" cy="1.225" rx="1.699" ry="1.225" transform="translate(136.366 59.321)" fill="#4d4d4d"/>
            </g>
            <g id="Group_1030" data-name="Group 1030" transform="translate(27.192 100.325)">
              <g id="Group_1028" data-name="Group 1028" transform="translate(0 0)">
                <path id="Path_1807" data-name="Path 1807" stroke="rgba(229,198,1,0.65)" d="M276.057,396.808c-.861-.542-1.722-5.046-2.064-6.194s-3.743-3.321-4.9-3.871-1.459-6.734-2.431-8.517-.223-12.476-.626-14.71,7.92-21.372,8.027-22a88.247,88.247,0,0,0-1.1-8.973c-.2-.794-1.138-3.012-.774-4.218s4.193,5.409,4.645,6.194-.353,5.313.2,6.881,2.338-5.76,2.338-5.76,23.873,9.766,57.855,7.742c1.23-.073,1.4,1.082,2.323,1.143s1.448-.777,2.323-.369,2.3,1.88,3.1,1.92,2.536-1.285,3.1-1.146,1.007.845,1.548.774,2.264-1.827,3.1-1.549c8.726,2.916,27.259,17.824,29.164,26.324a10.979,10.979,0,0,1-.347,4.645c-.434.9-1.606,1.979,0,3.489s2.475-1.691,3.1-1.94,2.4-2.207,3.1-2.323a2.718,2.718,0,0,0,1.548-1.549c0-.279-.017-2.668.774-3.1s1.627-.025,3.1-1.548,1.83-4.446,3.1-5.42,7.541-4.031,8.516-5.42.835-4.511.774-6.194.076-3.764,1.548-3.871a3.521,3.521,0,0,1,3.871,2.323c.943,2.093,1.545,4.379,3.1,4.645s-7.337,3.9-7.138,6.12.774,5.494.774,5.494a3.685,3.685,0,0,1-1.548.974c-.926.271-2.368-.444-3.1-.173s-2.786.365-4.158,1.544-2.682,1.311-2.7,2.919,1.222,5.291-.071,6.35-5.144.749-5.756,3.1,1.96,4.585,1.606,6.194-19,15.867-17.9,19.356,4.483,8.97,4.693,10.839,1.587,10.347-2.016,8.517c-1.123-.571-2.1-1.155-1.575-2.365s.249-2.465-1.548-3.167-2.748-1.954-2.635-2.985-.472-7.064-2.01-7.742-2.614.6-3.871.633-4.1-2.217-5.32-2.956-9.362.18-9.607,1.793-.277,2.024-1.332,2.3a2.737,2.737,0,0,1-3.1-.993c-.616-.9-5.373-3.261-7.742-2.323s-8.606,5.568-8.924,7.742-2.081,4.9-2.976,5.42" fill="none" transform="translate(-266.018 -328.182)" stroke-linecap="round" stroke-linejoin="round" stroke-miterlimit="1.5" stroke-width="1" fill-rule="evenodd"/>
              </g>
              <g id="Group_1029" data-name="Group 1029" transform="translate(9.785 68.443)">
                <path id="Path_1808" data-name="Path 1808" stroke="rgba(229,198,1,0.65)" d="M272.337,372.527s6.742-1.3,10.319,3.91,7.355,5.584,10.04,6.194,7.114-1.84,8.541-1.549,4.086,1.988,6.194,4.645.672,5.452,3.1,6.194,4.018,1.717,4.063,0,.938-2.673,2.131-2.309,3.975,3.3,5.907,6.954" fill="none" transform="translate(-272.337 -372.383)" stroke-linecap="round" stroke-linejoin="round" stroke-miterlimit="1.5" stroke-width="1" fill-rule="evenodd"/>
              </g>
            </g>
            <g id="Group_1031" data-name="Group 1031" transform="translate(0 26.594)">
              <path id="Path_1809" data-name="Path 1809" stroke="rgba(229,198,1,0.65)" d="M282.032,333.887s6.775-4.212,5.979-6.194-4.7-7.877-3.729-9.291,25.929-29.178,25.407-31.808-6.5-2.194-6.127-3.281.5-2.5-.067-2.719-1.866,1-3.1,1.62-3.845-.526-4.645.22-16.206,16.62-16.206,16.62-5.451-4.21-6.648-2.329c-1.98,3.115,2.174.523,1.175,2.1s-10.336,7.9-11.613,9.376-8.092,9.3-6.968,10.207,3.676.334,2.827,1.548-11.09,7.016-9.741,7.742c4.374,2.354,9.518-6.562,10.785-6.194s4.1,1.237,3.791,0-.8-2.146.121-3.1,6.514-6.183,6.928-4.645-3.9,3.9-3.1,3.871,7.007-2.863,7.742-2.323,1.473,2.241,2.072,2.323,2.942-.458,3.348.427-.046,6.087.581,6.541a11.94,11.94,0,0,1,2.516,3.956C283.57,329.494,281.18,334.265,282.032,333.887Z" fill="none" transform="translate(-248.457 -280.567)" stroke-linecap="round" stroke-linejoin="round" stroke-miterlimit="1.5" stroke-width="1" fill-rule="evenodd"/>
            </g>
          </g>
          <g id="south" transform="translate(103.086 242.807)">
            <path id="Path_1810" data-name="Path 1810" d="M343.946,416.078s4.676,6.253,5.311,8.057,0,9.427,0,9.427-.915,2.914-1.669,3.391-2.612.375-2.893.858.991,1.88.2,2.465-3.583.584-3.913,1.169.073,4.929-.745,5.564-2.95,3.267-2.428,4.311,2.247.884,2.9.635,1.112.228,1.339,1.293-2.406,2.837-3.064,3.177-2.767,1.361-2.4,2.722,1.044,1.169,1.753,1.878-.794,2.211-.2,2.835,1.333-.056,1.787.568,5.441,2.279,8.84,12.155c.519,1.507-.048,3.6.766,4.415s1.915-.178,2.163.638.658,3.761,1.516,4.983a11.632,11.632,0,0,0,6.886,5.618c.568.177,4.13,1.23,6.062,3.049.6.567.5,2.588.5,2.588s1.949-.709,2.481.107.582,4.422.674,5.672c.1,1.343.144,4.105-.218,4.4s-1.617.686-1.6,1.279.249,6.344-.056,6.708-2.47,3.383-2.484,4.066.115,7.493-.175,8.256-.613,1.019-.68,1.784.031,4.46-.429,5.009-.742-.441-1.253.636.7,3.094-.228,3.943-3.828,1.815-3.828,2.524v11.572s1.787-.028,1.474.85-1.816,1.607-1.635,2.334a4.167,4.167,0,0,1-.037,2.577c-.362.762-.2,2.208-1.208,2.538s-2.934-.539-3.075,2.981c-.073,1.815-.935,3.959,1.525,4.574.87.217-.088,2.646.325,2.739.446.1,1.534.161,1.522.342s-1.112,2.425,1.833,2.425c.726,0,1.6-.228,1.556-.788s-.062-.892.746-.912.934.062,1.017.912-2.2,1.473,3.029,1.473,8.131.788,8.069-.539-1.68-1.161-3.568-1.161-3.174.228-3.4-.437-1,.54-.914-.373-.362-4.1.1-4.1,3.072-.643,3.338-1.1-.46-2.32.387-2.3,3.921.359,3.964-1.112a1.313,1.313,0,0,0-1.378-1.449c-.556,0-1.957-.8-2.007-1.572s1.5-2.369,2.3-2.417,2.512.26,3.044-.184-.071-2.039.339-2.691,1.257-.362,1.524-1.16-.05-3.65.652-3.7,5.742.542,5.892-.406-.337-2.162.341-2.146.413-1.46,1.236-1.508,5.5.568,6.471-.381,1.844-1.745,2.521-1.745,5.68-1.861,6.042-3.481-.918-1.474-1.305-2.078.725-1.4.144-1.62-4.062-.406-3.215-1.206,6.5.022,7.88.142,3.117.508,3.939-.337,6.612-9.331,8.216-10.135,3.163-.861,4.082-1.442,5.946-4.472,5.946-6.163-1.089-5.486,0-6.284,8.326-6.668,11.939-5.463c.726.241,1.909-3.19,4.037-3.142s3.8.242,4.543-.749,7.779-11.141,7.19-12.615.886-3.483,1.83-2.951,2.267-9.769,3.184-11.091,2.967-2.292,3.911-3.452,8.106-9.873,8.613-11.627.742-8.466-.034-8.462c-2.09.008-4.249-.406-4.89-1.483s-3.509-4.275-4.484-4.249c-2.029.054-10.958-.444-11.734.317s-1.883,4.181-2.222,2.185.057-4.455-.816-4.794-.13-1.113-1.615-1.485-5.293-1.618-6.271-.3-1.305,3.476-2.608,3.509-7.1,1.01-7.372-1.35-.979-3.27.607-4.587,3.1-2.529,3.2-3.608-2.8-2.529-2.764-3.809.5-2.462-1.551-4.317-7.182-5.461-9.138-5.124-3.43,1.186-4.422.762-6.6-2.553-6.92-3.69-.085-2.143-.446-2.877-2.747-2.518-3.884-2.216-4.532,1.885-4.432.935-1-2.29.259-2.434,4.633-2.725-4.131-2.962c-1.109-.029-1.079-.269-1.109-.989s-3.074-.588-3.3-.1.715,1.426-3.481,1.426c-1.465,0-3.063-1.033-3.03-1.864s-.6-.667-1.332-.767-1.4.533-1.8,1.2-.867.732-2.066.567l-2.019-.28s.787-1.985-.079-2.284a15.439,15.439,0,0,0-3.1-.35,1.315,1.315,0,0,0-1.457-.375c-1.041.249-.976,1.524-2.941,1.51a26.037,26.037,0,0,1-3.778-.327s3.764-3.874,3.029-4.419-1.626-.234-5.429,3.123a4.617,4.617,0,0,1-2.707.763c-1,.085-1.791-.056-2.275.768s-2.5-.085-3.58.853-.283,3.1-.852,4.176-.966.427-1.677.853,1.538,1.914-1.279,1.818C350.21,416.9,346.066,417.362,343.946,416.078Z" transform="translate(-303.229 -404.385)" fill="#272727" fill-rule="evenodd"/>
            <ellipse id="Ellipse_329" data-name="Ellipse 329" cx="1.654" cy="0.607" rx="1.654" ry="0.607" transform="translate(0.304 39.45)" fill="#272727"/>
            <ellipse id="Ellipse_330" data-name="Ellipse 330" cx="1.788" cy="0.557" rx="1.788" ry="0.557" transform="translate(0 41.574)" fill="#272727"/>
          </g>
          <path id="Path_1811" data-name="Path 1811" d="M399.417,428.775c-1.045-.313-1.819,2.084-.223,2.705s2.795,1.42,3.5.088,2.964-1.609,1.482-2.778S399.859,428.908,399.417,428.775Z" transform="translate(-166.285 -148.463)" fill="#1a1a1a" fill-rule="evenodd"/>
          <g id="Group_1032" data-name="Group 1032" transform="translate(155.092 0)">
            <path id="Path_1812" data-name="Path 1812" d="M348.616,258.82c0-.482.208-.836.96-.94s2,.225,2.346-.327.169-1.426.895-1.417,1.773-.345,1.793-1.034.1-1.713-.647-1.692-1.171.146-1.274-.627-.48-1,.355-1.024,2.355.989,2.368-.059-.725-1.326.02-1.531a12.385,12.385,0,0,1,2.752-.039c.626,0,1.442.669,1.442,0s.062-.751.564-.814.731-.187.918.355,2.694.836,2.694.209-.5-.689-1.127-.647-1.274.271-1.294-.48-.773-1.149,1.4-1.171,5.932.064,6,.482.438.417,1.149.417,2.948-.359,3.049.649c.042.417-2.714-.231-2.485.626s1.045.669,1.692.523,2.485-.314,2.547.1-.59,1.384.186,1.236.859-.8.859-1.319.125-1.085.522-1.127a1.015,1.015,0,0,1,1.065,1c0,.711-.084,1.316.376,1.378s.627-.605.564-1.211-.294-.994.48-1c2.027-.022.669.605,1.087.689s2.219-.31,2.575.514-.093.757.429.986,1.827-.084,2.07.4-.4,1.183.156,1.375,3.046-.122,3.2.279-.522,1.392.105,1.6,1.933-.5,2.211-.07-.139,2.368.522,2.56,1.1-.384,1.5.07a5.365,5.365,0,0,0,3.247,1.638c1.581.135,2.987-.331,3.309.28s-.836,2.461.255,2.907,1.871-.646,2.919.133,6.321,3.438,6.347,4.727-1.081,2.035.04,2.073,2.425-.737,2.442.085-2.391.245-2.369.846-.732,2.778.1,2.738,2.656-.838,3.06-.15-.248,1.719,1.014,1.727,2.776-.3,4.647,1.3,2.34,1.649,1.962,2.318a1.2,1.2,0,0,1-1.917.378,4.3,4.3,0,0,0-2.451-1.581c-1.2-.2-2.518-.581-1.8.556s.206,1.183,1.161,1.85.091,1.626,1.4,1.821.528-.53,1.336-.669a4.369,4.369,0,0,1,2.6-.006c.684.387,2.05-.262,2.193.113s.215,1.48-.249,1.5-.534.178-.534.892.534,2.459-1.408,2.459-1.891-.107-1.872.5-.5,1.3-1.052,1.247-1.6-.8-1.64,1.016.376,5.68-.115,5.861-2.31,1.787-3.094,1.519-1.284-.5-1.445.268.28,1.09-.251,1.2-1.086-.225-.96.88-.547,2.07.262,2.318.7.214.576.748-.286,1.177.3,1.5,1.374.071,1.391,1.409-.57,1.55-.7,2.12-1.113,1.245-.387,1.773,1.26.367,1.35,1.49.712,1.586.66,2.567.3,3.438-.217,3.964a2.277,2.277,0,0,1-2.671-.169,13.1,13.1,0,0,0-2.075-1.736,3.943,3.943,0,0,0-2.382-.562c-.748.107-1.634,1.305-2.385.341a19.734,19.734,0,0,0-2.567-3.3c-1.2-1.055-1.651-2.614-3.162-2.789s-2.01-.335-2.117-.94-.1-2.27-.486-2.756a18.435,18.435,0,0,0-2.485-3.131c-.915-.691-2.806-1.076-2.716-2.05s-.5-.4-1.175-.618-1.078.491-1.564-.494a2.853,2.853,0,0,1-.361-2.413c.285-.7.855-2.086.088-2.352s-1.806.523-2.186-.763-.914-2.445.352-2.321,3.548.3,3.475-.57-.124-1.675-.694-2.086a5.1,5.1,0,0,1-1.627-1.982c-.2-.647-.522-1.507-1.2-1.668s-1.016.142-1.265-.624-1.034-.819-1.426-.873-1.83.32-2.029-.276.838-.63,1.2-.565,4.359.53,4.326-.065.322-.753-.734-.791-1.677.5-2.1-.076,0-.8-.409-1.3-1.044-.573-1.26-1.2-.369-.649-.814-.688-1.095.026-1.146.6-.585.98-1.528.993-2.279.242-2.47-.561-.866-1.756.458-1.719,1.776-.688,1.505-1.514-.048-.461-.954-1.13-1,.367-1.338-.461-.509-.6-.954-1.209-1.039-.8-1.069-1.449.946-.375-.043-.935-.513,1.064-.941.412-.605-.286-1.209-1.019a13.728,13.728,0,0,0-1.045-1.265c-.579-.6-1.66-1.346-1.867-1.154s-.286-.334-.43-.859-.619-.748-1.225-.813a1.135,1.135,0,0,1-1.05-.938c-.144-.525.031-.3-2.058-.5s-3.74-.358-4.077.18-.816.636-2.189.616-2.231,1.273-2.727-.04-.655-1.95-.316-2.188,1.119-.376.968-.962-.37-1.019-1.172-1.07-1.479.421-1.809-.115.034-.743-.454-.734S348.621,259.513,348.616,258.82Z" transform="translate(-348.616 -247.579)" fill="#2a2a2a" fill-rule="evenodd"/>
            <path id="Path_1813" data-name="Path 1813" d="M418.472,282.774a2.986,2.986,0,0,0-1.784-3.081c-1.216-.675-2.727-.833-2.987-1.267s-.9-.553-.951-.881-.226-1.488-.8-1.558-.849.243-.883.934.415,1.107-.07,1.384a2.245,2.245,0,0,1-1.539.208c-.415-.1-.83-.087-1.02.485s-.053.311-.83.328-1.013.9-1.432.033-.852-.378-.955-1.07.017-1.349-.726-1.4a1.128,1.128,0,0,0-1.245,1.141c.051.589-.915,1.175.121,1.384s.208.692.208.692.692.034,1.4.1,1.551-.587,1.51.147.141.426-.067,1.211-.358,1.09.463,1.047,2.962-.39,3.309.173-1.1.3-.043,1.6.736.844,1.513.994.043-.67,1.233-.584,1.666-.108,2.207.844,1.124,1.341,1.556.886-.324-1.469.649-2.053S418.271,283.778,418.472,282.774Z" transform="translate(-318.847 -232.004)" fill="#333" fill-rule="evenodd"/>
            <path id="Path_1814" data-name="Path 1814" d="M384.322,251.877c.028-.753,1.3-1.082,2.067-.845s3.916,2.262,4.368,2.3a20.012,20.012,0,0,1,2.82.245c.409.169,4.955,2.313,4.7,2.865s-2.205-.945-3.9-.787-1.062-.158-1.062-.671-.1-.825-1.123-.728-1.067,1.152-2.1.2-1.48-2.162-2.18-2.008S384.3,252.408,384.322,251.877Z" transform="translate(-329.033 -245.727)" fill="#333" fill-rule="evenodd"/>
          </g>
        </g>
        <g id="world1" transform="translate(118.553 0.001)">
          <path id="Path_1815" data-name="Path 1815" d="M288.562,282.516A215.688,215.688,0,0,1,386.795,259c119.646,0,216.785,97.138,216.785,216.785,0,85.523-49.631,159.546-121.649,194.818a216.885,216.885,0,0,0,118.552-193.27c0-119.647-97.138-216.785-216.785-216.785A215.739,215.739,0,0,0,288.562,282.516Z" transform="translate(-288.562 -259.001)" fill="rgba(0,0,0,0.76)" fill-rule="evenodd"/>
        </g>
      </g>
      <circle id="Ellipse_332" data-name="Ellipse 332" cx="216.784" cy="216.784" r="216.784" transform="translate(0)" stroke-width="0.414" stroke="rgba(0,0,0,0.7)" stroke-linecap="round" stroke-linejoin="round" stroke-miterlimit="1.5" fill="none"/>
    </g>
    <g id="air-travel" transform="translate(206.163 308.256)">
      <g id="plane" transform="translate(300.279 75.944) rotate(-15.75)">
        <g id="tail-wings" transform="translate(18.158 6.951)">
          <g id="Group_1034" data-name="Group 1034" transform="translate(0 4.788)">
            <path id="Path_1816" data-name="Path 1816" d="M2.513,3.83s1.789.85,1.51.236L2.492,0,0,.479Z" transform="translate(0 0)" fill="#d3b601" fill-rule="evenodd"/>
          </g>
          <g id="Group_1035" data-name="Group 1035" transform="translate(0 0)">
            <path id="Path_1817" data-name="Path 1817" d="M2.513.459S4.3-.391,4.023.223L2.492,4.289,0,3.81Z" transform="translate(0 0)" fill="#d3b601" fill-rule="evenodd"/>
          </g>
        </g>
        <g id="left-wing" transform="translate(5.95 12.696)">
          <g id="Group_1036" data-name="Group 1036" transform="translate(1.046 2.876)">
            <path id="Path_1818" data-name="Path 1818" d="M1.837.492A.492.492,0,0,0,1.345,0H.115a1.109,1.109,0,0,0,0,.985H1.345A.492.492,0,0,0,1.837.493Z" transform="translate(0 0)" fill="#ead02b" fill-rule="evenodd"/>
          </g>
          <g id="Group_1037" data-name="Group 1037" transform="translate(3.521 6.166)">
            <path id="Path_1819" data-name="Path 1819" d="M1.837.492A.492.492,0,0,0,1.345,0H.115a1.109,1.109,0,0,0,0,.985H1.345A.492.492,0,0,0,1.837.493Z" transform="translate(0 0)" fill="#ead02b" fill-rule="evenodd"/>
          </g>
          <g id="Group_1038" data-name="Group 1038" transform="translate(0 0)">
            <path id="Path_1820" data-name="Path 1820" d="M7.334,9.776v0c.845.327,2.029.99,1.58,0L5.682,1.2,5.451,0H0C2.595,3.19,5.009,6.463,7.334,9.776Z" fill="#d3b601" fill-rule="evenodd"/>
          </g>
        </g>
        <g id="right-wing" transform="translate(5.95 0)">
          <g id="Group_1039" data-name="Group 1039" transform="translate(1.046 6.478)">
            <path id="Path_1821" data-name="Path 1821" d="M1.837.493A.492.492,0,0,0,1.345,0H.115a1.109,1.109,0,0,0,0,.985H1.345A.492.492,0,0,0,1.837.493Z" transform="translate(0 0)" fill="#ead02b" fill-rule="evenodd"/>
          </g>
          <g id="Group_1040" data-name="Group 1040" transform="translate(3.521 3.195)">
            <path id="Path_1822" data-name="Path 1822" d="M1.837.493A.492.492,0,0,0,1.345,0H.115a1.109,1.109,0,0,0,0,.985H1.345A.492.492,0,0,0,1.837.493Z" transform="translate(0 0)" fill="#ead02b" fill-rule="evenodd"/>
          </g>
          <path id="Path_1823" data-name="Path 1823" d="M7.334.527v0c.845-.327,2.029-.99,1.58,0L5.682,9.106l-.231,1.2H0C2.595,7.113,5.009,3.84,7.334.527Z" transform="translate(0)" fill="#d3b601" fill-rule="evenodd"/>
        </g>
        <path id="body" d="M6.07,2.394C1.975,2.394,0,1.853,0,1.2S2.488,0,6.07,0h7.181c2.39,0,7.859.636,7.859,1.2s-5.456,1.2-7.859,1.2Z" transform="translate(0 10.303)" fill="#e5c601" fill-rule="evenodd"/>
      </g>
      <g id="plane1" transform="matrix(1, -0.004, 0.004, 1, 222.704, 95.882)">
        <g id="tail-wings1" transform="translate(10.588 4.054)">
          <g id="Group_1041" data-name="Group 1041" transform="translate(0 2.792)">
            <path id="Path_1824" data-name="Path 1824" d="M1.466,2.233s1.043.5.881.138L1.453,0,0,.279Z" transform="translate(0 0)" fill="#d3b601" fill-rule="evenodd"/>
          </g>
          <g id="Group_1042" data-name="Group 1042" transform="translate(0 0)">
            <path id="Path_1825" data-name="Path 1825" d="M1.466.268s1.043-.5.881-.138L1.453,2.5,0,2.222Z" fill="#d3b601" fill-rule="evenodd"/>
          </g>
        </g>
        <g id="left-wing1" transform="translate(3.47 7.403)">
          <g id="Group_1043" data-name="Group 1043" transform="translate(0.61 1.677)">
            <path id="Path_1826" data-name="Path 1826" d="M1.071.287A.287.287,0,0,0,.784,0H.067a.646.646,0,0,0,0,.574H.784A.287.287,0,0,0,1.071.288Z" transform="translate(0 0)" fill="#ead02b" fill-rule="evenodd"/>
          </g>
          <g id="Group_1044" data-name="Group 1044" transform="translate(2.053 3.595)">
            <path id="Path_1827" data-name="Path 1827" d="M1.071.287A.287.287,0,0,0,.784,0H.067a.646.646,0,0,0,0,.574H.784A.287.287,0,0,0,1.071.288Z" transform="translate(0 0)" fill="#ead02b" fill-rule="evenodd"/>
          </g>
          <g id="Group_1045" data-name="Group 1045" transform="translate(0 0)">
            <path id="Path_1828" data-name="Path 1828" d="M4.277,5.7v0c.493.191,1.183.577.921,0L3.313.7,3.179,0H0C1.513,1.86,2.921,3.769,4.277,5.7Z" fill="#d3b601" fill-rule="evenodd"/>
          </g>
        </g>
        <g id="right-wing1" transform="translate(3.47 0)">
          <g id="Group_1046" data-name="Group 1046" transform="translate(0.61 3.777)">
            <path id="Path_1829" data-name="Path 1829" d="M1.071.287A.286.286,0,0,0,.785,0H.067a.646.646,0,0,0,0,.574H.785A.286.286,0,0,0,1.071.288Z" transform="translate(0 0)" fill="#ead02b" fill-rule="evenodd"/>
          </g>
          <g id="Group_1047" data-name="Group 1047" transform="translate(2.053 1.863)">
            <path id="Path_1830" data-name="Path 1830" d="M1.071.287A.286.286,0,0,0,.785,0H.067a.646.646,0,0,0,0,.574H.785A.286.286,0,0,0,1.071.288Z" transform="translate(0 0)" fill="#ead02b" fill-rule="evenodd"/>
          </g>
          <path id="Path_1831" data-name="Path 1831" d="M4.277.307v0C4.77.113,5.46-.273,5.2.3L3.313,5.31l-.135.7H0C1.513,4.148,2.921,2.239,4.277.307Z" transform="translate(0 0)" fill="#d3b601" fill-rule="evenodd"/>
        </g>
        <path id="body1" d="M3.54,1.4C1.151,1.4,0,1.08,0,.7S1.451,0,3.54,0H7.727c1.394,0,4.583.371,4.583.7s-3.182.7-4.583.7Z" transform="translate(0 6.008)" fill="#e5c601" fill-rule="evenodd"/>
      </g>
      <g id="plane2" transform="translate(75.246 144.548) rotate(-138.475)">
        <g id="tail-wings2" transform="translate(82.167 31.456)">
          <g id="Group_1048" data-name="Group 1048" transform="translate(0 21.668)">
            <path id="Path_1832" data-name="Path 1832" d="M11.373,17.331s8.094,3.848,6.833,1.069L11.277,0,0,2.167Z" transform="translate(0 0)" fill="#d3b601" fill-rule="evenodd"/>
          </g>
          <g id="Group_1049" data-name="Group 1049" transform="translate(0 0)">
            <path id="Path_1833" data-name="Path 1833" d="M11.373,2.077s8.094-3.848,6.833-1.069l-6.929,18.4L0,17.241Z" transform="translate(0 0)" fill="#d3b601" fill-rule="evenodd"/>
          </g>
        </g>
        <g id="left-wing2" transform="translate(26.926 57.452)">
          <g id="Group_1050" data-name="Group 1050" transform="translate(4.731 13.013)">
            <path id="Path_1834" data-name="Path 1834" d="M8.313,2.227A2.227,2.227,0,0,0,6.086,0H.522a5.018,5.018,0,0,0,0,4.458H6.086A2.227,2.227,0,0,0,8.313,2.231Z" transform="translate(0 0)" fill="#ead02b" fill-rule="evenodd"/>
          </g>
          <g id="Group_1051" data-name="Group 1051" transform="translate(15.934 27.901)">
            <path id="Path_1835" data-name="Path 1835" d="M8.313,2.227A2.227,2.227,0,0,0,6.086,0H.522a5.018,5.018,0,0,0,0,4.458H6.086A2.227,2.227,0,0,0,8.313,2.231Z" transform="translate(0 0)" fill="#ead02b" fill-rule="evenodd"/>
          </g>
          <g id="Group_1052" data-name="Group 1052" transform="translate(0 0)">
            <path id="Path_1836" data-name="Path 1836" d="M33.188,44.239l0,.022c3.825,1.482,9.182,4.479,7.149,0C38.027,38.112,28.247,12.145,25.712,5.417L24.668,0H0C11.743,14.436,22.665,29.246,33.188,44.239Z" transform="translate(0)" fill="#d3b601" fill-rule="evenodd"/>
          </g>
        </g>
        <g id="right-wing2" transform="translate(26.926 0)">
          <g id="Group_1053" data-name="Group 1053" transform="translate(4.731 29.312)">
            <path id="Path_1837" data-name="Path 1837" d="M8.313,2.227A2.226,2.226,0,0,0,6.086,0H.522a5.018,5.018,0,0,0,0,4.458H6.086A2.228,2.228,0,0,0,8.313,2.231Z" transform="translate(0 0)" fill="#ead02b" fill-rule="evenodd"/>
          </g>
          <g id="Group_1054" data-name="Group 1054" transform="translate(15.934 14.46)">
            <path id="Path_1838" data-name="Path 1838" d="M8.313,2.227A2.226,2.226,0,0,0,6.086,0H.522a5.018,5.018,0,0,0,0,4.458H6.086A2.228,2.228,0,0,0,8.313,2.231Z" transform="translate(0 0)" fill="#ead02b" fill-rule="evenodd"/>
          </g>
          <path id="Path_1839" data-name="Path 1839" d="M33.188,2.384l0-.022c3.825-1.482,9.182-4.479,7.149,0C38.027,8.51,28.247,34.477,25.712,41.206l-1.044,5.417H0C11.743,32.186,22.665,17.376,33.188,2.384Z" transform="translate(0)" fill="#d3b601" fill-rule="evenodd"/>
        </g>
        <path id="body2" d="M27.468,10.832C8.935,10.832,0,8.384,0,5.416S11.26,0,27.468,0H59.963C70.778,0,95.524,2.878,95.524,5.416s-24.691,5.416-35.561,5.416Z" transform="translate(0 46.622)" fill="#e5c601" fill-rule="evenodd"/>
      </g>
      <g id="plane3" transform="matrix(0.928, 0.373, -0.373, 0.928, 286.1, 142.653)">
        <g id="tail-wings3" transform="translate(31.105 11.908)">
          <g id="Group_1055" data-name="Group 1055" transform="translate(0 8.203)">
            <path id="Path_1840" data-name="Path 1840" d="M4.306,6.561s3.064,1.457,2.587.4L4.269,0,0,.82Z" transform="translate(0 0)" fill="#d3b601" fill-rule="evenodd"/>
          </g>
          <g id="Group_1056" data-name="Group 1056" transform="translate(0 0)">
            <path id="Path_1841" data-name="Path 1841" d="M4.306.786S7.37-.67,6.892.382L4.269,7.347,0,6.527Z" transform="translate(0)" fill="#d3b601" fill-rule="evenodd"/>
          </g>
        </g>
        <g id="left-wing3" transform="translate(10.193 21.749)">
          <g id="Group_1057" data-name="Group 1057" transform="translate(1.791 4.926)">
            <path id="Path_1842" data-name="Path 1842" d="M3.147.843A.843.843,0,0,0,2.3,0H.2a1.9,1.9,0,0,0,0,1.688H2.3A.843.843,0,0,0,3.147.845Z" transform="translate(0 0)" fill="#ead02b" fill-rule="evenodd"/>
          </g>
          <g id="Group_1058" data-name="Group 1058" transform="translate(6.032 10.562)">
            <path id="Path_1843" data-name="Path 1843" d="M3.147.843A.843.843,0,0,0,2.3,0H.2a1.9,1.9,0,0,0,0,1.688H2.3A.843.843,0,0,0,3.147.845Z" transform="translate(0 0)" fill="#ead02b" fill-rule="evenodd"/>
          </g>
          <g id="Group_1059" data-name="Group 1059" transform="translate(0 0)">
            <path id="Path_1844" data-name="Path 1844" d="M12.564,16.747l0,.008c1.448.561,3.476,1.7,2.706,0L9.734,2.051,9.338,0H0C4.445,5.465,8.58,11.072,12.564,16.747Z" transform="translate(0)" fill="#d3b601" fill-rule="evenodd"/>
          </g>
        </g>
        <g id="right-wing3" transform="translate(10.193 0)">
          <g id="Group_1060" data-name="Group 1060" transform="translate(1.791 11.096)">
            <path id="Path_1845" data-name="Path 1845" d="M3.147.843A.842.842,0,0,0,2.3,0H.2a1.9,1.9,0,0,0,0,1.688H2.3A.842.842,0,0,0,3.147.845Z" transform="translate(0 0)" fill="#ead02b" fill-rule="evenodd"/>
          </g>
          <g id="Group_1061" data-name="Group 1061" transform="translate(6.032 5.474)">
            <path id="Path_1846" data-name="Path 1846" d="M3.147.843A.842.842,0,0,0,2.3,0H.2a1.9,1.9,0,0,0,0,1.688H2.3A.842.842,0,0,0,3.147.845Z" transform="translate(0 0)" fill="#ead02b" fill-rule="evenodd"/>
          </g>
          <path id="Path_1847" data-name="Path 1847" d="M12.564.9l0-.008c1.448-.561,3.476-1.7,2.706,0L9.734,15.6l-.4,2.051H0C4.445,12.184,8.58,6.578,12.564.9Z" transform="translate(0 0)" fill="#d3b601" fill-rule="evenodd"/>
        </g>
        <path id="body3" d="M10.4,4.1C3.382,4.1,0,3.174,0,2.05S4.262,0,10.4,0H22.7c4.094,0,13.462,1.089,13.462,2.05S26.815,4.1,22.7,4.1Z" transform="translate(0 17.649)" fill="#e5c601" fill-rule="evenodd"/>
      </g>
      <g id="plane4" transform="translate(208.155 152.204) rotate(57.572)">
        <g id="tail-wings4" transform="translate(17.748 6.794)">
          <g id="Group_1062" data-name="Group 1062" transform="translate(0 4.68)">
            <path id="Path_1848" data-name="Path 1848" d="M2.457,3.743s1.748.831,1.476.231L2.436,0,0,.468Z" transform="translate(0 0)" fill="#d3b601" fill-rule="evenodd"/>
          </g>
          <g id="Group_1063" data-name="Group 1063" transform="translate(0 0)">
            <path id="Path_1849" data-name="Path 1849" d="M2.457.449S4.2-.383,3.933.218l-1.5,3.974L0,3.724Z" transform="translate(0)" fill="#d3b601" fill-rule="evenodd"/>
          </g>
        </g>
        <g id="left-wing4" transform="translate(5.816 12.409)">
          <g id="Group_1064" data-name="Group 1064" transform="translate(1.022 2.811)">
            <path id="Path_1850" data-name="Path 1850" d="M1.8.481A.481.481,0,0,0,1.314,0H.113a1.084,1.084,0,0,0,0,.963h1.2A.481.481,0,0,0,1.8.482Z" transform="translate(0 0)" fill="#ead02b" fill-rule="evenodd"/>
          </g>
          <g id="Group_1065" data-name="Group 1065" transform="translate(3.442 6.026)">
            <path id="Path_1851" data-name="Path 1851" d="M1.8.481A.481.481,0,0,0,1.314,0H.113a1.084,1.084,0,0,0,0,.963h1.2A.481.481,0,0,0,1.8.482Z" transform="translate(0 0)" fill="#ead02b" fill-rule="evenodd"/>
          </g>
          <g id="Group_1066" data-name="Group 1066" transform="translate(0 0)">
            <path id="Path_1852" data-name="Path 1852" d="M7.168,9.555v0c.826.32,1.983.967,1.544,0L5.554,1.17,5.328,0H0C2.536,3.118,4.9,6.317,7.168,9.555Z" transform="translate(0 0)" fill="#d3b601" fill-rule="evenodd"/>
          </g>
        </g>
        <g id="right-wing4" transform="translate(5.816 0)">
          <g id="Group_1067" data-name="Group 1067" transform="translate(1.022 6.331)">
            <path id="Path_1853" data-name="Path 1853" d="M1.8.48A.48.48,0,0,0,1.315,0H.113a1.084,1.084,0,0,0,0,.963h1.2A.48.48,0,0,0,1.8.483Z" transform="translate(0 0)" fill="#ead02b" fill-rule="evenodd"/>
          </g>
          <g id="Group_1068" data-name="Group 1068" transform="translate(3.442 3.123)">
            <path id="Path_1854" data-name="Path 1854" d="M1.8.48A.48.48,0,0,0,1.315,0H.113a1.084,1.084,0,0,0,0,.963h1.2A.48.48,0,0,0,1.8.483Z" transform="translate(0 0)" fill="#ead02b" fill-rule="evenodd"/>
          </g>
          <path id="Path_1855" data-name="Path 1855" d="M7.168.515v0C8,.19,9.153-.457,8.713.51L5.554,8.9l-.226,1.17H0C2.536,6.952,4.9,3.753,7.168.515Z" transform="translate(0)" fill="#d3b601" fill-rule="evenodd"/>
        </g>
        <path id="body4" d="M5.933,2.34C1.93,2.34,0,1.811,0,1.17S2.432,0,5.933,0h7.019c2.336,0,7.681.622,7.681,1.17S15.3,2.34,12.952,2.34Z" transform="translate(0 10.07)" fill="#e5c601" fill-rule="evenodd"/>
      </g>
      <g id="plane5" transform="translate(116.12 235.781) rotate(129.699)">
        <g id="tail-wings5" transform="translate(45.496 17.417)">
          <g id="Group_1069" data-name="Group 1069" transform="translate(0 11.997)">
            <path id="Path_1856" data-name="Path 1856" d="M6.3,9.6s4.482,2.131,3.784.592L6.244,0,0,1.2Z" transform="translate(0 0)" fill="#d3b601" fill-rule="evenodd"/>
          </g>
          <g id="Group_1070" data-name="Group 1070" transform="translate(0 0)">
            <path id="Path_1857" data-name="Path 1857" d="M6.3,1.15S10.779-.981,10.081.558L6.244,10.746,0,9.546Z" transform="translate(0 0)" fill="#d3b601" fill-rule="evenodd"/>
          </g>
        </g>
        <g id="left-wing5" transform="translate(14.909 31.811)">
          <g id="Group_1071" data-name="Group 1071" transform="translate(2.62 7.206)">
            <path id="Path_1858" data-name="Path 1858" d="M4.6,1.233A1.233,1.233,0,0,0,3.37,0H.289a2.778,2.778,0,0,0,0,2.468H3.37A1.233,1.233,0,0,0,4.6,1.235Z" transform="translate(0 0)" fill="#ead02b" fill-rule="evenodd"/>
          </g>
          <g id="Group_1072" data-name="Group 1072" transform="translate(8.823 15.449)">
            <path id="Path_1859" data-name="Path 1859" d="M4.6,1.233A1.233,1.233,0,0,0,3.37,0H.289a2.778,2.778,0,0,0,0,2.468H3.37A1.233,1.233,0,0,0,4.6,1.235Z" transform="translate(0 0)" fill="#ead02b" fill-rule="evenodd"/>
          </g>
          <g id="Group_1073" data-name="Group 1073" transform="translate(0 0)">
            <path id="Path_1860" data-name="Path 1860" d="M18.376,24.495l0,.012c2.118.82,5.084,2.48,3.958,0C21.055,21.1,15.64,6.725,14.237,3l-.578-3H0C6.5,7.993,12.55,16.194,18.376,24.495Z" transform="translate(0)" fill="#d3b601" fill-rule="evenodd"/>
          </g>
        </g>
        <g id="right-wing5" transform="translate(14.909 0)">
          <g id="Group_1074" data-name="Group 1074" transform="translate(2.62 16.23)">
            <path id="Path_1861" data-name="Path 1861" d="M4.6,1.232A1.232,1.232,0,0,0,3.37,0H.289a2.778,2.778,0,0,0,0,2.468H3.37A1.233,1.233,0,0,0,4.6,1.235Z" transform="translate(0 0)" fill="#ead02b" fill-rule="evenodd"/>
          </g>
          <g id="Group_1075" data-name="Group 1075" transform="translate(8.823 8.006)">
            <path id="Path_1862" data-name="Path 1862" d="M4.6,1.232A1.232,1.232,0,0,0,3.37,0H.289a2.778,2.778,0,0,0,0,2.468H3.37A1.233,1.233,0,0,0,4.6,1.235Z" transform="translate(0 0)" fill="#ead02b" fill-rule="evenodd"/>
          </g>
          <path id="Path_1863" data-name="Path 1863" d="M18.376,1.32l0-.012c2.118-.82,5.084-2.48,3.958,0-1.282,3.4-6.7,17.782-8.1,21.508l-.578,3H0C6.5,17.822,12.55,9.621,18.376,1.32Z" transform="translate(0)" fill="#d3b601" fill-rule="evenodd"/>
        </g>
        <path id="body5" d="M15.209,6C4.947,6,0,4.642,0,3S6.234,0,15.209,0H33.2c5.988,0,19.69,1.594,19.69,3S39.221,6,33.2,6Z" transform="translate(0 25.814)" fill="#e5c601" fill-rule="evenodd"/>
      </g>
      <g id="plane6" transform="translate(387.045 117.366)">
        <g id="tail-wings6" transform="translate(55.552 21.267)">
          <g id="Group_1076" data-name="Group 1076" transform="translate(0 14.649)">
            <path id="Path_1864" data-name="Path 1864" d="M100.108-143.577s5.473,2.6,4.62.722l-4.685-12.44-7.624,1.465Z" transform="translate(-92.419 155.294)" fill="#d3b601" fill-rule="evenodd"/>
          </g>
          <g id="Group_1077" data-name="Group 1077">
            <path id="Path_1865" data-name="Path 1865" d="M100.108,148.225s5.473-2.6,4.62-.722l-4.685,12.44-7.624-1.465Z" transform="translate(-92.419 -146.821)" fill="#d3b601" fill-rule="evenodd"/>
          </g>
        </g>
        <g id="left-wing6" transform="translate(18.205 38.843)">
          <g id="Group_1078" data-name="Group 1078" transform="translate(3.199 8.798)">
            <path id="Path_1866" data-name="Path 1866" d="M205.913,348.134a1.506,1.506,0,0,0-1.506-1.506h-3.761a3.392,3.392,0,0,0,0,3.014h3.761a1.506,1.506,0,0,0,1.506-1.506Z" transform="translate(-200.293 -346.629)" fill="#ead02b" fill-rule="evenodd"/>
          </g>
          <g id="Group_1079" data-name="Group 1079" transform="translate(10.773 18.864)">
            <path id="Path_1867" data-name="Path 1867" d="M205.913,348.134a1.506,1.506,0,0,0-1.506-1.506h-3.761a3.392,3.392,0,0,0,0,3.014h3.761a1.506,1.506,0,0,0,1.506-1.506Z" transform="translate(-200.293 -346.629)" fill="#ead02b" fill-rule="evenodd"/>
          </g>
          <g id="Group_1080" data-name="Group 1080">
            <path id="Path_1868" data-name="Path 1868" d="M220.832-306.345l0,.015c2.586,1,6.208,3.028,4.833,0-1.565-4.157-8.177-21.712-9.891-26.261l-.706-3.662H198.394C206.333-326.493,213.718-316.481,220.832-306.345Z" transform="translate(-198.394 336.254)" fill="#d3b601" fill-rule="evenodd"/>
          </g>
        </g>
        <g id="right-wing6" transform="translate(18.205)">
          <g id="Group_1081" data-name="Group 1081" transform="translate(3.199 19.817)">
            <path id="Path_1869" data-name="Path 1869" d="M205.913,348.136a1.506,1.506,0,0,0-1.506-1.507h-3.76a3.392,3.392,0,0,0,0,3.014h3.76a1.506,1.506,0,0,0,1.506-1.507Z" transform="translate(-200.293 -346.629)" fill="#ead02b" fill-rule="evenodd"/>
          </g>
          <g id="Group_1082" data-name="Group 1082" transform="translate(10.773 9.776)">
            <path id="Path_1870" data-name="Path 1870" d="M205.913,348.136a1.506,1.506,0,0,0-1.506-1.507h-3.76a3.392,3.392,0,0,0,0,3.014h3.76a1.506,1.506,0,0,0,1.506-1.507Z" transform="translate(-200.293 -346.629)" fill="#ead02b" fill-rule="evenodd"/>
          </g>
          <path id="Path_1871" data-name="Path 1871" d="M220.832,317.509l0-.015c2.586-1,6.208-3.028,4.833,0-1.565,4.157-8.177,21.712-9.891,26.262l-.706,3.662H198.394C206.333,337.658,213.718,327.645,220.832,317.509Z" transform="translate(-198.394 -315.897)" fill="#d3b601" fill-rule="evenodd"/>
        </g>
        <path id="body6" d="M205.208,343.576c-12.53,0-18.571-1.655-18.571-3.662s7.612-3.662,18.571-3.662h21.969c7.312,0,24.043,1.946,24.043,3.662s-16.693,3.662-24.043,3.662Z" transform="translate(-186.638 -304.733)" fill="#e5c601" fill-rule="evenodd"/>
      </g>
      <g id="plane7" transform="translate(324.915 216.872) rotate(20.154)">
        <g id="tail-wings7" transform="translate(31.344 11.999)">
          <g id="Group_1083" data-name="Group 1083" transform="translate(0 8.266)">
            <path id="Path_1872" data-name="Path 1872" d="M4.339,6.611s3.088,1.468,2.607.408L4.3,0,0,.826Z" transform="translate(0 0)" fill="#d3b601" fill-rule="evenodd"/>
          </g>
          <g id="Group_1084" data-name="Group 1084" transform="translate(0 0)">
            <path id="Path_1873" data-name="Path 1873" d="M4.339.792S7.426-.676,6.945.385L4.3,7.4,0,6.577Z" transform="translate(0)" fill="#d3b601" fill-rule="evenodd"/>
          </g>
        </g>
        <g id="left-wing7" transform="translate(10.271 21.916)">
          <g id="Group_1085" data-name="Group 1085" transform="translate(1.805 4.964)">
            <path id="Path_1874" data-name="Path 1874" d="M3.171.85A.849.849,0,0,0,2.321,0H.2a1.914,1.914,0,0,0,0,1.7H2.321a.85.85,0,0,0,.85-.85Z" transform="translate(0 0)" fill="#ead02b" fill-rule="evenodd"/>
          </g>
          <g id="Group_1086" data-name="Group 1086" transform="translate(6.078 10.643)">
            <path id="Path_1875" data-name="Path 1875" d="M3.171.85A.849.849,0,0,0,2.321,0H.2a1.914,1.914,0,0,0,0,1.7H2.321a.85.85,0,0,0,.85-.85Z" transform="translate(0 0)" fill="#ead02b" fill-rule="evenodd"/>
          </g>
          <g id="Group_1087" data-name="Group 1087" transform="translate(0 0)">
            <path id="Path_1876" data-name="Path 1876" d="M12.66,16.875l0,.008c1.459.565,3.5,1.709,2.727,0L9.808,2.066,9.41,0H0C4.479,5.507,8.646,11.157,12.66,16.875Z" transform="translate(0)" fill="#d3b601" fill-rule="evenodd"/>
          </g>
        </g>
        <g id="right-wing7" transform="translate(10.271 0)">
          <g id="Group_1088" data-name="Group 1088" transform="translate(1.805 11.182)">
            <path id="Path_1877" data-name="Path 1877" d="M3.171.85A.85.85,0,0,0,2.321,0H.2a1.914,1.914,0,0,0,0,1.7H2.321a.85.85,0,0,0,.85-.85Z" transform="translate(0 0)" fill="#ead02b" fill-rule="evenodd"/>
          </g>
          <g id="Group_1089" data-name="Group 1089" transform="translate(6.078 5.516)">
            <path id="Path_1878" data-name="Path 1878" d="M3.171.85A.85.85,0,0,0,2.321,0H.2a1.914,1.914,0,0,0,0,1.7H2.321a.85.85,0,0,0,.85-.85Z" transform="translate(0 0)" fill="#ead02b" fill-rule="evenodd"/>
          </g>
          <path id="Path_1879" data-name="Path 1879" d="M12.66.909l0-.008c1.459-.565,3.5-1.709,2.727,0L9.808,15.719l-.4,2.066H0C4.479,12.278,8.646,6.628,12.66.909Z" transform="translate(0)" fill="#d3b601" fill-rule="evenodd"/>
        </g>
        <path id="body7" d="M10.478,4.132C3.408,4.132,0,3.2,0,2.066S4.3,0,10.478,0h12.4C27,0,36.439,1.1,36.439,2.066S27.021,4.132,22.874,4.132Z" transform="translate(0 17.784)" fill="#e5c601" fill-rule="evenodd"/>
      </g>
      <g id="plane8" transform="translate(232.942 270.205) rotate(58.586)">
        <g id="tail-wings8" transform="translate(30.818 11.798)">
          <g id="Group_1090" data-name="Group 1090" transform="translate(0 8.127)">
            <path id="Path_1880" data-name="Path 1880" d="M4.266,6.5S7.3,7.944,6.829,6.9L4.23,0,0,.813Z" transform="translate(0 0)" fill="#d3b601" fill-rule="evenodd"/>
          </g>
          <g id="Group_1091" data-name="Group 1091" transform="translate(0 0)">
            <path id="Path_1881" data-name="Path 1881" d="M4.266.779S7.3-.664,6.829.378l-2.6,6.9L0,6.467Z" transform="translate(0 0)" fill="#d3b601" fill-rule="evenodd"/>
          </g>
        </g>
        <g id="left-wing8" transform="translate(10.099 21.549)">
          <g id="Group_1092" data-name="Group 1092" transform="translate(1.774 4.881)">
            <path id="Path_1882" data-name="Path 1882" d="M3.118.835A.835.835,0,0,0,2.283,0H.2a1.882,1.882,0,0,0,0,1.672H2.283A.835.835,0,0,0,3.118.837Z" transform="translate(0 0)" fill="#ead02b" fill-rule="evenodd"/>
          </g>
          <g id="Group_1093" data-name="Group 1093" transform="translate(5.976 10.465)">
            <path id="Path_1883" data-name="Path 1883" d="M3.118.835A.835.835,0,0,0,2.283,0H.2a1.882,1.882,0,0,0,0,1.672H2.283A.835.835,0,0,0,3.118.837Z" transform="translate(0 0)" fill="#ead02b" fill-rule="evenodd"/>
          </g>
          <g id="Group_1094" data-name="Group 1094" transform="translate(0 0)">
            <path id="Path_1884" data-name="Path 1884" d="M12.448,16.593l0,.008c1.435.556,3.444,1.68,2.681,0L9.644,2.032,9.252,0H0C4.4,5.415,8.5,10.969,12.448,16.593Z" fill="#d3b601" fill-rule="evenodd"/>
          </g>
        </g>
        <g id="right-wing8" transform="translate(10.099 0)">
          <g id="Group_1095" data-name="Group 1095" transform="translate(1.774 10.994)">
            <path id="Path_1885" data-name="Path 1885" d="M3.118.835A.835.835,0,0,0,2.283,0H.2a1.882,1.882,0,0,0,0,1.672H2.283A.835.835,0,0,0,3.118.837Z" transform="translate(0 0)" fill="#ead02b" fill-rule="evenodd"/>
          </g>
          <g id="Group_1096" data-name="Group 1096" transform="translate(5.976 5.423)">
            <path id="Path_1886" data-name="Path 1886" d="M3.118.835A.835.835,0,0,0,2.283,0H.2a1.882,1.882,0,0,0,0,1.672H2.283A.835.835,0,0,0,3.118.837Z" transform="translate(0 0)" fill="#ead02b" fill-rule="evenodd"/>
          </g>
          <path id="Path_1887" data-name="Path 1887" d="M12.448.894l0-.008c1.435-.556,3.444-1.68,2.681,0L9.644,15.455l-.392,2.032H0C4.4,12.072,8.5,6.517,12.448.894Z" transform="translate(0 0)" fill="#d3b601" fill-rule="evenodd"/>
        </g>
        <path id="body8" d="M10.3,4.063C3.351,4.063,0,3.144,0,2.031S4.223,0,10.3,0H22.49c4.057,0,13.338,1.079,13.338,2.031S26.568,4.063,22.49,4.063Z" transform="translate(0 17.486)" fill="#e5c601" fill-rule="evenodd"/>
      </g>
    </g>
  </g>
</svg>
