<svg id="isw_logo_beta" xmlns="http://www.w3.org/2000/svg" xmlns:xlink="http://www.w3.org/1999/xlink" width="354.486" height="50.854" viewBox="0 0 354.486 50.854">
  <defs>
    <linearGradient id="linear-gradient" x1="5.36" y1="-4.084" x2="5.36" y2="-3.083" gradientUnits="objectBoundingBox">
      <stop offset="0" stop-color="#c2e0f5"/>
      <stop offset="1" stop-color="#fff"/>
    </linearGradient>
    <linearGradient id="linear-gradient-2" x1="2.858" y1="-2.62" x2="2.858" y2="-1.62" xlink:href="#linear-gradient"/>
    <linearGradient id="linear-gradient-4" x1="2.605" y1="-4.063" x2="2.605" y2="-3.063" xlink:href="#linear-gradient"/>
    <linearGradient id="linear-gradient-5" x1="3.133" y1="-4.084" x2="3.133" y2="-3.082" xlink:href="#linear-gradient"/>
    <linearGradient id="linear-gradient-6" x1="1.519" y1="-2.675" x2="1.519" y2="-1.675" xlink:href="#linear-gradient"/>
    <linearGradient id="linear-gradient-8" x1="2.906" y1="-3.92" x2="2.906" y2="-2.918" xlink:href="#linear-gradient"/>
    <linearGradient id="linear-gradient-9" x1="2.562" y1="-4.084" x2="2.562" y2="-3.083" xlink:href="#linear-gradient"/>
    <linearGradient id="linear-gradient-10" x1="7.11" y1="-13.582" x2="7.11" y2="-12.582" xlink:href="#linear-gradient"/>
    <linearGradient id="linear-gradient-12" x1="7.11" y1="-13.582" x2="7.11" y2="-12.582" xlink:href="#linear-gradient"/>
  </defs>
  <path id="Path_2130" data-name="Path 2130" d="M47.9,74.1c0-4.687.293-5.029,2.588-5.42l1.392-.244a1.428,1.428,0,0,0,0-1.733c-2.685.1-5.176.146-7.519.146-2.393,0-4.883-.049-7.568-.146a1.428,1.428,0,0,0,0,1.733l1.392.244c2.295.391,2.588.757,2.588,5.42V92.432c0,4.687-.293,5.029-2.588,5.42l-1.392.244a1.428,1.428,0,0,0,0,1.733c2.686-.1,5.176-.146,7.568-.146,2.344,0,4.785.049,7.471.146a1.43,1.43,0,0,0,.049-1.733l-1.392-.244c-2.295-.391-2.588-.757-2.588-5.42Z" transform="translate(-35.768 -54.322)" fill="#0a1526"/>
  <path id="Path_2131" data-name="Path 2131" d="M161.6,55.889c0-7.837-5.615-11.963-10.034-14.306l-4.687-2.49c-3.564-1.855-6.47-4.834-6.47-8.105,0-3.564,2.563-6.616,7.251-6.616,5.127,0,8.179,5.2,9.4,8.838.635.708,2.417.635,2.783-.22a35.119,35.119,0,0,0-1.27-10.18,20.058,20.058,0,0,1-2.417-.562A28.9,28.9,0,0,0,148.05,21.1c-10.327,0-16.577,5.542-16.528,13.6,0,7.056,5.615,11.328,10.742,13.891,4.272,2.124,9.692,5.542,9.692,11.328,0,3.564-2.417,7.2-7.69,7.2-6.055,0-10.815-6.543-12.256-11.181a1.763,1.763,0,0,0-2.71.22c0,4.834.928,9.961,2.27,11.523,1.489.854,5.542,2.71,12.109,2.71C154.422,70.342,161.6,64.654,161.6,55.889Z" transform="translate(-105.912 -19.855)" fill="#0a1526"/>
  <path id="Path_2132" data-name="Path 2132" d="M285.9,74.1c0-4.687.293-5.029,2.588-5.42l1.392-.244a1.428,1.428,0,0,0,0-1.733c-2.685.1-5.176.146-7.519.146-2.393,0-4.883-.049-7.568-.146a1.428,1.428,0,0,0,0,1.733l1.392.244c2.295.391,2.588.757,2.588,5.42V92.432c0,4.687-.293,5.029-2.588,5.42l-1.392.244a1.428,1.428,0,0,0,0,1.733c2.686-.1,5.176-.146,7.568-.146,2.344,0,4.785.049,7.471.146a1.43,1.43,0,0,0,.049-1.733l-1.392-.244c-2.295-.391-2.588-.757-2.588-5.42V74.1Z" transform="translate(-215.663 -54.322)" fill="#0a1526"/>
  <path id="Path_2133" data-name="Path 2133" d="M355.07,92.378c0,4.59-.293,4.98-2.539,5.322l-1.538.244a1.428,1.428,0,0,0,0,1.733c2.832-.1,5.371-.146,7.764-.146,1.782,0,4.3.293,6.616.293,5.127,0,9.228-.659,12.6-2.344,5.737-2.832,8.911-8.227,8.911-14.892a15.115,15.115,0,0,0-10.107-14.453A34.868,34.868,0,0,0,365.153,66.5c-5.273,0-9.18.2-13.354.439-.586.049-.586,1.489-.1,1.733l.952.1c2.295.244,2.393,1.2,2.393,5.933ZM362.2,72.359c0-1.538.049-2.49.342-2.881a3.615,3.615,0,0,1,2.588-.659c9.009,0,13.745,5.322,13.745,14.306,0,6.787-2.93,14.453-11.572,14.453a5.318,5.318,0,0,1-4.126-1.44c-.9-1.05-1-2.832-1-5.591V72.359Z" transform="translate(-273.26 -54.171)" fill="#0a1526"/>
  <path id="Path_2134" data-name="Path 2134" d="M515.8,70.994c0-1.855,0-1.953,1.636-1.953h3.979c2.441,0,3.931.586,4.883,1.538a11.72,11.72,0,0,1,1.9,3.931c.488.439,1.636.342,1.855-.2-.244-3.345-.586-6.933-.659-7.715-.659.1-3.491.146-6.665.146H512.167c-2.393,0-4.834-.049-7.178-.146a1.258,1.258,0,0,0-.1,1.733l1.245.244c2.246.439,2.539.757,2.539,5.273V92.43c0,4.59-.293,4.883-2.539,5.225L503.793,98a1.428,1.428,0,0,0,0,1.733c3.735-.1,6.177-.146,8.569-.146h6.47c4.077,0,8.862.049,11.5.146a27.623,27.623,0,0,0,2.1-7.983,1.219,1.219,0,0,0-1.855-.244c-2.734,5.64-4.443,5.786-8.765,5.786-3.638,0-4.59-.391-5.224-1.294-.586-.854-.806-2.441-.806-4.736V85.325c0-1.489.049-1.538,1.392-1.538h3.442c2.588,0,3.2.391,3.686,2.783l.244,1.245a1.469,1.469,0,0,0,1.855-.049c-.1-1.587-.146-3.393-.146-5.273s.049-3.686.146-5.273c-.244-.439-1.489-.439-1.855-.049l-.244,1.245c-.488,2.393-1.1,2.734-3.686,2.734h-3.442c-1.343,0-1.392-.1-1.392-1.489Z" transform="translate(-388.756 -54.247)" fill="#0a1526"/>
  <path id="Path_2135" data-name="Path 2135" d="M691.136,27.215a2.046,2.046,0,0,0-.22-2.49c-2,.146-4.053.22-6.543.22-2.124,0-4.98-.073-7.251-.22a1.939,1.939,0,0,0-.22,2.49l1.563.439c.928.293,1.343.488,1.343,1a37.792,37.792,0,0,1-1.929,6.055c-3.418,8.691-6.763,17.5-10.18,25.781-.415-1-1.27-3.052-3.125-6.982l-3.345-7.2a5.208,5.208,0,0,1-.562-1.782,23.052,23.052,0,0,1,1.563-3.711c.928-1.855,2.71-5.127,4.419-8.056,2.49-4.272,2.979-4.565,5.42-5.054l2-.439A2.052,2.052,0,0,0,674,24.7c-1.855.146-4.492.22-7.251.22-2.344,0-4.907-.073-6.982-.22a2.056,2.056,0,0,0-.22,2.49l2.124.488c1.147.293,1.416.488,1.416,1a25.428,25.428,0,0,1-1.929,5.273l-.635,1.416c-.708,1.562-1.416,2.978-2.124,4.492-.635-1.27-1.343-2.856-2-4.346l-2.148-4.883a5.679,5.679,0,0,1-.635-2.124c0-.488,1.074-.781,1.929-1l1.221-.293c.488-.366.562-2.27-.293-2.49-1.855.146-4.565.22-8.179.22-3.125,0-5.908-.073-8.96-.22-.781.293-.928,1.929-.22,2.49l.708.073c2.71.293,3.2.781,4.834,4.346l6.836,15.014a5.727,5.727,0,0,1,.439,1.929A12.87,12.87,0,0,1,651,51.7l-.928,2.075c-1.416,3.2-2.563,5.347-3.418,6.909-.854-1.709-1.562-3.2-3.564-7.617l-7.056-15.722c-2.2-4.98-3.711-8.325-3.711-8.838s.488-.854,1.782-1.074l1.27-.22c.708-.439.439-2.2-.146-2.49-2.71.146-5.493.22-8.618.22-3.638,0-6.616-.073-9.253-.22-.781.366-.854,1.782-.293,2.49l1.782.366c2.344.488,2.783.854,4.687,5.054L635.2,58.122c2.417,5.347,5.273,11.743,6.4,14.746a3.262,3.262,0,0,0,1.855.562,3.8,3.8,0,0,0,2.344-.562c1.147-2.344,1.929-4.419,2.978-6.689l3.345-7.251c.928-2,1.782-3.711,2.417-4.907.635,1.074,1.563,3.2,2.563,5.493l2.978,6.763c.854,2,1.929,4.565,2.71,6.274a3.174,3.174,0,0,0,1.929.562,4.3,4.3,0,0,0,2.344-.562c3.491-9.253,11.523-26.977,15.014-35.3a52.381,52.381,0,0,1,3.906-7.91,4.515,4.515,0,0,1,2.93-1.562Z" transform="translate(-474.319 -22.576)" fill="#0a1526"/>
  <path id="Path_2136" data-name="Path 2136" d="M916.2,74.1c0-4.687.293-5.029,2.588-5.42l1.392-.244a1.428,1.428,0,0,0,0-1.733c-2.685.1-5.176.146-7.519.146-2.393,0-4.883-.049-7.568-.146a1.428,1.428,0,0,0,0,1.733l1.392.244c2.295.391,2.588.757,2.588,5.42V92.432c0,4.687-.293,5.029-2.588,5.42l-1.392.244a1.428,1.428,0,0,0,0,1.733c2.685-.1,5.176-.146,7.568-.146,2.344,0,4.785.049,7.471.146a1.43,1.43,0,0,0,.049-1.733l-1.392-.244c-2.295-.391-2.588-.757-2.588-5.42Z" transform="translate(-692.084 -54.322)" fill="#0a1526"/>
  <path id="Path_2137" data-name="Path 2137" d="M988.929,89.123c0,4.639-.293,5.078-2.539,5.322l-2.246.244a1.428,1.428,0,0,0,0,1.733c3.491-.1,6.079-.146,8.471-.146,2.246,0,4.736.049,7.983.146a1.593,1.593,0,0,0,0-1.733l-2-.244c-2.246-.293-2.539-.708-2.539-5.322V67.15c0-1.294.146-1.44,1.343-1.44h2.978c3.735,0,4.443,2.344,5.273,5.542.244.391,1.587.293,1.855-.146a34.617,34.617,0,0,1,.757-8.569,1.052,1.052,0,0,0-.757-.342,1.384,1.384,0,0,0-.659.146c-.439,1.05-1.2,1.1-4.492,1.1h-18.53c-3.784,0-3.931-.2-4.175-1.05a1.147,1.147,0,0,0-.708-.2,1.3,1.3,0,0,0-.708.244A59.03,59.03,0,0,1,976.6,70.91a1.375,1.375,0,0,0,1.855.439c1.489-3.638,2.539-5.64,6.177-5.64h3.1c1.2,0,1.2.244,1.2,1.44V89.123Z" transform="translate(-746.355 -50.915)" fill="#0a1526"/>
  <path id="Path_2138" data-name="Path 2138" d="M1139.832,83.912c2.1,0,2.1.049,2.1,1.44V92.53c0,4.639-.244,5.127-2.539,5.42l-1.1.146a1.428,1.428,0,0,0,0,1.733q3.589-.146,7.324-.146c2.295,0,4.736.049,7.226.146a1.428,1.428,0,0,0,0-1.733l-1.2-.2c-2.295-.391-2.588-.757-2.588-5.371V74c0-4.639.293-5.078,2.588-5.42l1-.146a1.428,1.428,0,0,0,0-1.733c-2.295.1-4.59.146-7.031.146-2.393,0-4.834-.049-7.568-.146a1.429,1.429,0,0,0,0,1.733l1.343.2c2.295.342,2.539.757,2.539,5.371v5.786c0,1.44,0,1.489-2.1,1.489h-10.376c-2.051,0-2.1-.049-2.1-1.489V74c0-4.639.293-5.127,2.441-5.42l1.05-.146a1.428,1.428,0,0,0,0-1.733c-2.2.1-4.687.146-6.933.146-2.393,0-4.98-.049-7.422-.146a1.428,1.428,0,0,0,0,1.733l1.2.146c2.295.293,2.539.806,2.539,5.42V92.53c0,4.639-.244,5.127-2.539,5.42l-1.2.146a1.428,1.428,0,0,0,0,1.733c2.539-.1,5.029-.146,7.422-.146,2.246,0,4.736.049,7.568.146a1.428,1.428,0,0,0,0-1.733l-1.587-.2c-2.246-.293-2.539-.757-2.539-5.371V85.352c0-1.392.049-1.44,2.1-1.44Z" transform="translate(-851.874 -54.322)" fill="#0a1526"/>
  <path id="Path_2139" data-name="Path 2139" d="M1300.462,169.87a5.565,5.565,0,0,0,5.762-5.762,5.762,5.762,0,1,0-5.762,5.762Z" transform="translate(-986.795 -123.484)" fill="#0a1526"/>
  <path id="Path_2140" data-name="Path 2140" d="M1372.262,169.87a5.565,5.565,0,0,0,5.762-5.762,5.762,5.762,0,1,0-5.762,5.762Z" transform="translate(-1041.066 -123.484)" fill="#0a1526"/>
  <path id="Path_2141" data-name="Path 2141" d="M1444.061,169.87a5.565,5.565,0,0,0,5.762-5.762,5.763,5.763,0,1,0-11.523,0A5.751,5.751,0,0,0,1444.061,169.87Z" transform="translate(-1095.337 -123.484)" fill="#0a1526"/>
  <path id="Path_2142" data-name="Path 2142" d="M44.9,69.1c0-4.687.293-5.029,2.588-5.42l1.392-.244a1.428,1.428,0,0,0,0-1.733c-2.685.1-5.176.146-7.519.146-2.393,0-4.883-.049-7.568-.146a1.428,1.428,0,0,0,0,1.733l1.392.244c2.295.391,2.588.757,2.588,5.42V87.432c0,4.687-.293,5.029-2.588,5.42l-1.392.244a1.428,1.428,0,0,0,0,1.733c2.686-.1,5.176-.146,7.568-.146,2.344,0,4.785.049,7.471.146a1.43,1.43,0,0,0,.049-1.733l-1.392-.244c-2.295-.391-2.588-.757-2.588-5.42Z" transform="translate(-33.5 -50.543)" fill="url(#linear-gradient)"/>
  <path id="Path_2143" data-name="Path 2143" d="M158.6,50.889c0-7.837-5.615-11.963-10.034-14.306l-4.687-2.49c-3.564-1.855-6.47-4.834-6.47-8.105,0-3.564,2.563-6.616,7.251-6.616,5.127,0,8.179,5.2,9.4,8.838.635.708,2.417.635,2.783-.22a35.119,35.119,0,0,0-1.27-10.18,20.057,20.057,0,0,1-2.417-.562A28.9,28.9,0,0,0,145.05,16.1c-10.327,0-16.577,5.542-16.528,13.6,0,7.056,5.615,11.328,10.742,13.891,4.272,2.124,9.692,5.542,9.692,11.328,0,3.564-2.417,7.2-7.69,7.2-6.055,0-10.815-6.543-12.256-11.181a1.763,1.763,0,0,0-2.71.22c0,4.834.928,9.961,2.27,11.523,1.489.854,5.542,2.71,12.109,2.71C151.422,65.342,158.6,59.654,158.6,50.889Z" transform="translate(-103.644 -16.075)" fill="url(#linear-gradient-2)"/>
  <path id="Path_2144" data-name="Path 2144" d="M282.9,69.1c0-4.687.293-5.029,2.588-5.42l1.392-.244a1.428,1.428,0,0,0,0-1.733c-2.685.1-5.176.146-7.519.146-2.393,0-4.883-.049-7.568-.146a1.428,1.428,0,0,0,0,1.733l1.392.244c2.295.391,2.588.757,2.588,5.42V87.432c0,4.687-.293,5.029-2.588,5.42l-1.392.244a1.428,1.428,0,0,0,0,1.733c2.685-.1,5.176-.146,7.568-.146,2.344,0,4.785.049,7.471.146a1.43,1.43,0,0,0,.049-1.733l-1.392-.244c-2.295-.391-2.588-.757-2.588-5.42Z" transform="translate(-213.396 -50.543)" fill="url(#linear-gradient)"/>
  <path id="Path_2145" data-name="Path 2145" d="M352.07,87.378c0,4.59-.293,4.98-2.539,5.322l-1.538.244a1.428,1.428,0,0,0,0,1.733c2.832-.1,5.371-.146,7.764-.146,1.782,0,4.3.293,6.616.293,5.127,0,9.228-.659,12.6-2.344,5.737-2.832,8.911-8.227,8.911-14.892a15.115,15.115,0,0,0-10.107-14.453A34.868,34.868,0,0,0,362.153,61.5c-5.273,0-9.18.2-13.354.439-.586.049-.586,1.489-.1,1.733l.952.1c2.295.244,2.393,1.2,2.393,5.933ZM359.2,67.359c0-1.538.049-2.49.342-2.881a3.615,3.615,0,0,1,2.588-.659c9.009,0,13.745,5.322,13.745,14.306,0,6.787-2.93,14.453-11.572,14.453a5.318,5.318,0,0,1-4.126-1.44c-.9-1.05-1-2.832-1-5.591V67.359Z" transform="translate(-270.992 -50.392)" fill="url(#linear-gradient-4)"/>
  <path id="Path_2146" data-name="Path 2146" d="M512.8,65.994c0-1.855,0-1.953,1.636-1.953h3.979c2.441,0,3.931.586,4.883,1.538a11.719,11.719,0,0,1,1.9,3.931c.488.439,1.636.342,1.855-.2-.244-3.345-.586-6.933-.659-7.715-.659.1-3.491.146-6.665.146H509.167c-2.393,0-4.834-.049-7.178-.146a1.258,1.258,0,0,0-.1,1.733l1.245.244c2.246.439,2.539.757,2.539,5.273V87.43c0,4.59-.293,4.883-2.539,5.225L500.793,93a1.428,1.428,0,0,0,0,1.733c3.735-.1,6.177-.146,8.569-.146h6.47c4.077,0,8.862.049,11.5.146a27.623,27.623,0,0,0,2.1-7.983,1.219,1.219,0,0,0-1.855-.244c-2.734,5.64-4.443,5.786-8.765,5.786-3.638,0-4.59-.391-5.224-1.294-.586-.854-.806-2.441-.806-4.736V80.325c0-1.489.049-1.538,1.392-1.538h3.442c2.588,0,3.2.391,3.686,2.783l.244,1.245a1.469,1.469,0,0,0,1.855-.049c-.1-1.587-.146-3.393-.146-5.273s.049-3.686.146-5.273c-.244-.439-1.489-.439-1.855-.049l-.244,1.245c-.488,2.393-1.1,2.734-3.686,2.734h-3.442c-1.343,0-1.392-.1-1.392-1.489l.024-8.667Z" transform="translate(-386.488 -50.467)" fill="url(#linear-gradient-5)"/>
  <path id="Path_2147" data-name="Path 2147" d="M688.136,22.215a2.046,2.046,0,0,0-.22-2.49c-2,.146-4.053.22-6.543.22-2.124,0-4.98-.073-7.251-.22a1.939,1.939,0,0,0-.22,2.49l1.562.439c.928.293,1.343.488,1.343,1a37.793,37.793,0,0,1-1.929,6.055c-3.418,8.691-6.763,17.5-10.18,25.781-.415-1-1.27-3.052-3.125-6.982l-3.345-7.2a5.208,5.208,0,0,1-.562-1.782,23.052,23.052,0,0,1,1.563-3.711c.928-1.855,2.71-5.127,4.419-8.056,2.49-4.272,2.979-4.565,5.42-5.054l2-.439A2.052,2.052,0,0,0,671,19.7c-1.855.146-4.492.22-7.251.22-2.344,0-4.907-.073-6.982-.22a2.056,2.056,0,0,0-.22,2.49l2.124.488c1.147.293,1.416.488,1.416,1a25.428,25.428,0,0,1-1.929,5.273l-.635,1.416c-.708,1.562-1.416,2.978-2.124,4.492-.635-1.27-1.343-2.856-2-4.346l-2.148-4.883a5.68,5.68,0,0,1-.635-2.124c0-.488,1.074-.781,1.929-1l1.221-.293c.488-.366.562-2.27-.293-2.49-1.855.146-4.565.22-8.179.22-3.125,0-5.908-.073-8.96-.22-.781.293-.928,1.929-.22,2.49l.708.073c2.71.293,3.2.781,4.834,4.346l6.836,15.014a5.73,5.73,0,0,1,.439,1.929A12.872,12.872,0,0,1,648,46.7l-.928,2.075c-1.416,3.2-2.563,5.347-3.418,6.909-.854-1.709-1.562-3.2-3.564-7.617l-7.056-15.722c-2.2-4.98-3.711-8.325-3.711-8.838s.488-.854,1.782-1.074l1.27-.22c.708-.439.439-2.2-.146-2.49-2.71.146-5.493.22-8.618.22-3.638,0-6.616-.073-9.253-.22-.781.366-.854,1.782-.293,2.49l1.782.366c2.344.488,2.783.854,4.687,5.054L632.2,53.122c2.417,5.347,5.273,11.743,6.4,14.746a3.262,3.262,0,0,0,1.855.562,3.8,3.8,0,0,0,2.344-.562c1.147-2.344,1.929-4.419,2.978-6.689l3.345-7.251c.928-2,1.782-3.711,2.417-4.907.635,1.074,1.563,3.2,2.563,5.493l2.978,6.763c.854,2,1.929,4.565,2.71,6.274a3.174,3.174,0,0,0,1.929.562,4.3,4.3,0,0,0,2.344-.562c3.491-9.253,11.523-26.977,15.014-35.3a52.381,52.381,0,0,1,3.906-7.91,4.515,4.515,0,0,1,2.93-1.562Z" transform="translate(-472.051 -18.797)" fill="url(#linear-gradient-6)"/>
  <path id="Path_2148" data-name="Path 2148" d="M913.2,69.1c0-4.687.293-5.029,2.588-5.42l1.392-.244a1.428,1.428,0,0,0,0-1.733c-2.685.1-5.176.146-7.519.146-2.393,0-4.883-.049-7.568-.146a1.428,1.428,0,0,0,0,1.733l1.392.244c2.295.391,2.588.757,2.588,5.42V87.432c0,4.687-.293,5.029-2.588,5.42l-1.392.244a1.428,1.428,0,0,0,0,1.733c2.685-.1,5.176-.146,7.568-.146,2.344,0,4.785.049,7.471.146a1.43,1.43,0,0,0,.049-1.733l-1.392-.244c-2.295-.391-2.588-.757-2.588-5.42Z" transform="translate(-689.817 -50.543)" fill="url(#linear-gradient)"/>
  <path id="Path_2149" data-name="Path 2149" d="M985.929,84.123c0,4.639-.293,5.078-2.539,5.322l-2.246.244a1.429,1.429,0,0,0,0,1.733c3.491-.1,6.079-.146,8.472-.146,2.246,0,4.736.049,7.983.146a1.593,1.593,0,0,0,0-1.733l-2-.244c-2.246-.293-2.539-.708-2.539-5.322V62.15c0-1.294.146-1.44,1.343-1.44h2.978c3.735,0,4.443,2.344,5.273,5.542.244.391,1.587.293,1.855-.146a34.617,34.617,0,0,1,.757-8.569,1.052,1.052,0,0,0-.757-.342,1.385,1.385,0,0,0-.659.146c-.439,1.05-1.2,1.1-4.492,1.1h-18.53c-3.784,0-3.931-.2-4.175-1.05a1.147,1.147,0,0,0-.708-.2,1.3,1.3,0,0,0-.708.244A59.03,59.03,0,0,1,973.6,65.91a1.375,1.375,0,0,0,1.855.439c1.489-3.638,2.539-5.64,6.177-5.64h3.1c1.2,0,1.2.244,1.2,1.44V84.123Z" transform="translate(-744.087 -47.136)" fill="url(#linear-gradient-8)"/>
  <path id="Path_2150" data-name="Path 2150" d="M1136.832,78.912c2.1,0,2.1.049,2.1,1.44V87.53c0,4.639-.244,5.127-2.539,5.42l-1.1.146a1.428,1.428,0,0,0,0,1.733q3.589-.146,7.324-.146c2.295,0,4.736.049,7.226.146a1.429,1.429,0,0,0,0-1.733l-1.2-.2c-2.295-.391-2.588-.757-2.588-5.371V69c0-4.639.293-5.078,2.588-5.42l1-.146a1.429,1.429,0,0,0,0-1.733c-2.295.1-4.59.146-7.031.146-2.393,0-4.834-.049-7.568-.146a1.428,1.428,0,0,0,0,1.733l1.343.2c2.295.342,2.539.757,2.539,5.371v5.786c0,1.44,0,1.489-2.1,1.489h-10.376c-2.051,0-2.1-.049-2.1-1.489V69c0-4.639.293-5.127,2.441-5.42l1.05-.146a1.428,1.428,0,0,0,0-1.733c-2.2.1-4.687.146-6.933.146-2.393,0-4.98-.049-7.422-.146a1.428,1.428,0,0,0,0,1.733l1.2.146c2.295.293,2.539.806,2.539,5.42V87.53c0,4.639-.244,5.127-2.539,5.42l-1.2.146a1.428,1.428,0,0,0,0,1.733c2.539-.1,5.029-.146,7.422-.146,2.246,0,4.736.049,7.568.146a1.428,1.428,0,0,0,0-1.733l-1.587-.2c-2.246-.293-2.539-.757-2.539-5.371V80.352c0-1.392.049-1.44,2.1-1.44Z" transform="translate(-849.606 -50.543)" fill="url(#linear-gradient-9)"/>
  <path id="Path_2151" data-name="Path 2151" d="M1297.462,164.87a5.565,5.565,0,0,0,5.762-5.762,5.762,5.762,0,1,0-5.762,5.762Z" transform="translate(-984.528 -119.704)" fill="url(#linear-gradient-10)"/>
  <path id="Path_2152" data-name="Path 2152" d="M1369.262,164.87a5.565,5.565,0,0,0,5.762-5.762,5.762,5.762,0,1,0-5.762,5.762Z" transform="translate(-1038.799 -119.704)" fill="url(#linear-gradient-10)"/>
  <path id="Path_2153" data-name="Path 2153" d="M1441.061,164.87a5.565,5.565,0,0,0,5.762-5.762,5.763,5.763,0,1,0-11.523,0A5.751,5.751,0,0,0,1441.061,164.87Z" transform="translate(-1093.069 -119.704)" fill="url(#linear-gradient-12)"/>
  <path id="Path_2154" data-name="Path 2154" d="M34.113,62.088c2.612.1,5.029.146,7.349.146,2.27,0,4.663-.049,7.275-.146a1.294,1.294,0,0,1-.024.806l-1.221.22c-2.783.488-3,1.343-3,5.908V87.356c0,4.565.22,5.42,3,5.908l1.221.22a1.3,1.3,0,0,1-.024.806c-2.612-.1-5-.146-7.251-.146-2.319,0-4.712.049-7.324.146a1.294,1.294,0,0,1,.024-.806l1.221-.22c2.783-.488,3-1.343,3-5.908V69.022c0-4.565-.22-5.42-3-5.908l-1.221-.22a1.287,1.287,0,0,1-.024-.806M48.981,61.6c-2.685.1-5.176.146-7.519.146-2.393,0-4.883-.049-7.568-.146a1.428,1.428,0,0,0,0,1.733l1.392.244c2.295.391,2.588.757,2.588,5.42V87.332c0,4.687-.293,5.029-2.588,5.42L33.893,93a1.428,1.428,0,0,0,0,1.733c2.685-.1,5.176-.146,7.568-.146,2.344,0,4.785.049,7.471.146A1.43,1.43,0,0,0,48.981,93l-1.392-.244C45.294,92.361,45,91.995,45,87.332V69.022c0-4.687.293-5.029,2.588-5.42l1.392-.244A1.465,1.465,0,0,0,48.981,61.6Z" transform="translate(-33.576 -50.467)" fill="#fff"/>
  <path id="Path_2155" data-name="Path 2155" d="M144.85,16.488a28.41,28.41,0,0,1,7.983,1.123,19.159,19.159,0,0,0,2.2.537,36.535,36.535,0,0,1,1.172,9.619,1.221,1.221,0,0,1-.952.342,1.421,1.421,0,0,1-.9-.269c-1.489-4.394-4.858-9.057-9.814-9.057-4.565,0-7.739,2.93-7.739,7.1,0,3.149,2.515,6.348,6.738,8.545l4.687,2.49c6.592,3.491,9.79,8.032,9.79,13.867a12.513,12.513,0,0,1-4.761,10.132c-3.125,2.49-7.519,3.833-12.7,3.833-6.421,0-10.327-1.782-11.792-2.588-1.172-1.465-2.1-6.25-2.1-11.011a1.26,1.26,0,0,1,.977-.415,1.052,1.052,0,0,1,.806.293c1.514,4.785,6.4,11.426,12.7,11.426,5.615,0,8.179-3.979,8.179-7.69,0-6.079-5.688-9.619-9.961-11.767-6.958-3.467-10.473-8.008-10.473-13.452a12.01,12.01,0,0,1,3.369-8.691c2.808-2.832,7.178-4.37,12.6-4.37m0-.488c-10.327,0-16.577,5.542-16.528,13.6,0,7.056,5.615,11.328,10.742,13.891,4.272,2.124,9.692,5.542,9.692,11.328,0,3.564-2.417,7.2-7.69,7.2-6.055,0-10.815-6.543-12.256-11.181a1.526,1.526,0,0,0-1.245-.537,1.619,1.619,0,0,0-1.465.757c0,4.834.928,9.961,2.27,11.523,1.489.854,5.542,2.71,12.109,2.71,10.742,0,17.944-5.688,17.944-14.453,0-7.837-5.615-11.963-10.034-14.306l-4.687-2.49c-3.564-1.855-6.47-4.834-6.47-8.105,0-3.564,2.563-6.616,7.251-6.616,5.127,0,8.179,5.2,9.4,8.838a1.887,1.887,0,0,0,1.343.488,1.512,1.512,0,0,0,1.44-.708,35.119,35.119,0,0,0-1.27-10.18,20.057,20.057,0,0,1-2.417-.562A27.541,27.541,0,0,0,144.85,16Z" transform="translate(-103.493 -15.999)" fill="#fff"/>
  <path id="Path_2156" data-name="Path 2156" d="M272.113,62.088c2.612.1,5.029.146,7.349.146,2.27,0,4.663-.049,7.275-.146a1.294,1.294,0,0,1-.024.806l-1.221.22c-2.783.488-3,1.343-3,5.908V87.356c0,4.565.22,5.42,3,5.908l1.221.22a1.3,1.3,0,0,1-.024.806c-2.612-.1-5-.146-7.251-.146-2.319,0-4.712.049-7.324.146a1.294,1.294,0,0,1,.024-.806l1.221-.22c2.783-.488,3-1.343,3-5.908V69.022c0-4.565-.22-5.42-3-5.908l-1.221-.22a1.286,1.286,0,0,1-.024-.806m14.868-.488c-2.686.1-5.176.146-7.519.146-2.393,0-4.883-.049-7.568-.146a1.428,1.428,0,0,0,0,1.733l1.392.244c2.295.391,2.588.757,2.588,5.42V87.332c0,4.687-.293,5.029-2.588,5.42L271.893,93a1.428,1.428,0,0,0,0,1.733c2.685-.1,5.176-.146,7.568-.146,2.344,0,4.785.049,7.471.146A1.43,1.43,0,0,0,286.981,93l-1.392-.244c-2.295-.391-2.588-.757-2.588-5.42V69.022c0-4.687.293-5.029,2.588-5.42l1.392-.244A1.465,1.465,0,0,0,286.981,61.6Z" transform="translate(-213.471 -50.467)" fill="#fff"/>
  <path id="Path_2157" data-name="Path 2157" d="M362.177,62.088a34.139,34.139,0,0,1,11.45,1.611A14.482,14.482,0,0,1,380.9,69.29a14.893,14.893,0,0,1,2.515,8.4,16.581,16.581,0,0,1-2.246,8.642,15.3,15.3,0,0,1-6.4,5.835c-3.125,1.562-7.056,2.295-12.378,2.295-1.221,0-2.49-.073-3.711-.171-1.05-.073-2.051-.146-2.905-.146-2.295,0-4.761.049-7.544.146a1.413,1.413,0,0,1,0-.781l1.367-.22c2.71-.415,2.954-1.343,2.954-5.81V69.827c0-4.443,0-6.1-2.832-6.421l-.781-.073a1.22,1.22,0,0,1-.024-.781c3.931-.244,7.934-.464,13.257-.464m2.148,31.054c8.887,0,12.06-7.715,12.06-14.941,0-9.4-5.2-14.795-14.233-14.795-.879,0-2.441.1-2.978.854-.391.513-.439,1.44-.439,3.174V85.623c0,2.685.073,4.687,1.123,5.908a5.725,5.725,0,0,0,4.468,1.611M362.177,61.6c-5.273,0-9.18.2-13.354.439-.586.049-.586,1.489-.1,1.733l.952.1c2.295.244,2.393,1.2,2.393,5.933V87.43c0,4.59-.293,4.98-2.539,5.322L347.993,93a1.428,1.428,0,0,0,0,1.733c2.832-.1,5.371-.146,7.764-.146,1.782,0,4.3.293,6.616.293,5.127,0,9.228-.659,12.6-2.344,5.737-2.832,8.911-8.227,8.911-14.892a15.115,15.115,0,0,0-10.107-14.453,36.032,36.032,0,0,0-11.6-1.587Zm2.148,31.054a5.318,5.318,0,0,1-4.126-1.44c-.9-1.05-1-2.832-1-5.591V67.435c0-1.538.049-2.49.342-2.881a3.615,3.615,0,0,1,2.588-.659c9.009,0,13.745,5.322,13.745,14.306,0,6.763-2.93,14.453-11.548,14.453Z" transform="translate(-270.992 -50.467)" fill="#fff"/>
  <path id="Path_2158" data-name="Path 2158" d="M502.16,62.088c2.27.1,4.614.146,6.982.146h10.571c1.172,0,4.712,0,6.225-.1.024.391.073.952.146,1.611.122,1.489.317,3.491.464,5.444a.918.918,0,0,1-.488.122.784.784,0,0,1-.439-.1,11.548,11.548,0,0,0-1.953-3.955h0c-1.123-1.147-2.856-1.685-5.225-1.685h-3.979c-.806,0-1.44,0-1.831.464-.317.391-.317.928-.317,1.978v8.716c0,.732,0,1.245.317,1.587s.806.391,1.563.391h3.442c2.71,0,3.589-.415,4.175-3.125l.22-1.074a1.2,1.2,0,0,1,.488-.073.835.835,0,0,1,.415.073c-.1,1.538-.146,3.247-.146,5.078s.049,3.54.146,5.078a1.02,1.02,0,0,1-.439.073,1.306,1.306,0,0,1-.439-.073l-.22-1.074c-.537-2.588-1.318-3.174-4.175-3.174H514.22c-.708,0-1.221,0-1.562.366s-.317.879-.317,1.66V86.38c0,2.637.269,4.126.879,5.029.83,1.172,2.1,1.489,5.64,1.489,4.443,0,6.372-.22,9.18-6.006a.544.544,0,0,1,.366-.1.757.757,0,0,1,.562.2,29.144,29.144,0,0,1-1.9,7.373c-2.466-.073-6.811-.146-11.206-.146h-6.47c-2.417,0-4.907.049-8.325.146a1.413,1.413,0,0,1,0-.781l2.173-.317c2.612-.415,2.954-1.05,2.954-5.713V68.875c0-4.59-.317-5.249-2.93-5.762l-1.1-.22a.745.745,0,0,1-.049-.439.835.835,0,0,1,.049-.366M526.4,61.6c-.659.1-3.491.146-6.665.146H509.167c-2.393,0-4.834-.049-7.178-.146a1.258,1.258,0,0,0-.1,1.733l1.245.244c2.246.439,2.539.757,2.539,5.273V87.43c0,4.59-.293,4.883-2.539,5.225L500.793,93a1.428,1.428,0,0,0,0,1.733c3.735-.1,6.177-.146,8.569-.146h6.47c4.077,0,8.862.049,11.5.146a27.623,27.623,0,0,0,2.1-7.983,1.1,1.1,0,0,0-1.074-.562.962.962,0,0,0-.781.317c-2.734,5.64-4.443,5.786-8.765,5.786-3.638,0-4.59-.391-5.225-1.294-.586-.854-.806-2.441-.806-4.736V80.325c0-1.489.049-1.538,1.392-1.538h3.442c2.588,0,3.2.391,3.686,2.783l.244,1.245a1.167,1.167,0,0,0,.9.317,1.117,1.117,0,0,0,.952-.366c-.1-1.587-.146-3.393-.146-5.273s.049-3.686.146-5.273a1.1,1.1,0,0,0-.928-.342,1.321,1.321,0,0,0-.928.293l-.244,1.245c-.488,2.393-1.1,2.734-3.686,2.734h-3.442c-1.343,0-1.392-.1-1.392-1.489V65.994c0-1.855,0-1.953,1.636-1.953H518.4c2.441,0,3.931.586,4.883,1.538a11.719,11.719,0,0,1,1.9,3.931,1.3,1.3,0,0,0,.854.293,1.006,1.006,0,0,0,.977-.488C526.793,65.994,526.452,62.406,526.4,61.6Z" transform="translate(-386.488 -50.467)" fill="#fff"/>
  <path id="Path_2159" data-name="Path 2159" d="M636.4,20.213c3.125.146,5.884.22,8.862.22,3.589,0,6.225-.073,8.105-.2a.638.638,0,0,1,.171.317,2.089,2.089,0,0,1-.073,1.221l-1.074.244c-1.025.244-2.295.562-2.295,1.465a5.963,5.963,0,0,0,.684,2.319l2.124,4.907c.684,1.611,1.416,3.174,2,4.37l.439.9.439-.9c.244-.488.464-.977.708-1.489.464-.977.952-1.978,1.44-3.027l.635-1.416a25.42,25.42,0,0,0,1.953-5.469c0-.952-.781-1.221-1.807-1.465l-1.953-.464a1.641,1.641,0,0,1-.1-.977,1.3,1.3,0,0,1,.2-.562c1.953.122,4.419.2,6.811.2,2.783,0,5.273-.073,7.08-.2a1.815,1.815,0,0,1,.2.757,1.491,1.491,0,0,1-.171.854l-1.855.391c-2.588.537-3.2.928-5.737,5.3-1.855,3.174-3.589,6.4-4.419,8.081a21.87,21.87,0,0,0-1.611,3.931,5.4,5.4,0,0,0,.61,1.978l3.345,7.2c1.636,3.467,2.49,5.493,2.954,6.567l.171.391.464,1.074.439-1.074c2.393-5.762,4.785-11.938,7.1-17.9,1-2.588,2.051-5.249,3.076-7.861a38.734,38.734,0,0,0,1.953-6.225c0-.928-.952-1.221-1.709-1.465h0l-1.392-.391a1.543,1.543,0,0,1-.122-1.025,1.108,1.108,0,0,1,.22-.537c2.1.122,4.785.2,7.1.2,2.368,0,4.394-.073,6.4-.2a1.028,1.028,0,0,1,.171.488,2.068,2.068,0,0,1-.1,1.074l-1.953.464a5.25,5.25,0,0,0-3.2,1.733h0A49.606,49.606,0,0,0,678.713,32c-1.2,2.856-2.978,6.909-4.834,11.206-3.662,8.4-7.837,17.9-10.132,23.974a4.363,4.363,0,0,1-1.953.391,2.9,2.9,0,0,1-1.538-.415c-.562-1.221-1.245-2.856-1.929-4.419-.244-.586-.488-1.172-.732-1.709l-2.978-6.763-.146-.317A53.45,53.45,0,0,0,652,48.728L651.565,48l-.415.757c-.732,1.392-1.611,3.149-2.441,4.932l-3.345,7.251c-.488,1.025-.928,2.051-1.343,3.027-.488,1.147-1,2.344-1.611,3.564a3.659,3.659,0,0,1-1.953.391,2.764,2.764,0,0,1-1.465-.415c-1.294-3.369-4.516-10.571-6.348-14.6L621,27.415c-1.929-4.224-2.441-4.785-5.029-5.322l-1.587-.317a1.672,1.672,0,0,1-.147-1.1.732.732,0,0,1,.244-.439c2.637.146,5.615.2,9.131.2,3,0,5.762-.073,8.447-.2a1.855,1.855,0,0,1,.244,1,.828.828,0,0,1-.146.537l-1.147.2c-.61.1-2.2.366-2.2,1.538,0,.537.879,2.539,3.393,8.227l.342.806L639.6,48.264c2,4.419,2.71,5.933,3.564,7.641l.415.83.439-.83c.977-1.807,2.075-3.882,3.442-6.933l.928-2.075a12.663,12.663,0,0,0,.977-3.32,6.442,6.442,0,0,0-.464-2.1h0l-6.836-15.014c-1.636-3.589-2.222-4.3-5.224-4.614l-.537-.049a1.255,1.255,0,0,1-.171-.977,1.018,1.018,0,0,1,.268-.61m51.513-.488c-2,.146-4.053.22-6.543.22-2.124,0-4.98-.073-7.251-.22a1.939,1.939,0,0,0-.22,2.49l1.562.439c.928.293,1.343.488,1.343,1a37.793,37.793,0,0,1-1.929,6.055c-3.418,8.691-6.763,17.5-10.18,25.781-.415-1-1.27-3.052-3.125-6.982l-3.345-7.2a5.208,5.208,0,0,1-.562-1.782,23.052,23.052,0,0,1,1.563-3.711c.928-1.855,2.71-5.127,4.419-8.056,2.49-4.272,2.979-4.565,5.42-5.054l2-.439A2.052,2.052,0,0,0,671,19.7c-1.855.146-4.492.22-7.251.22-2.344,0-4.907-.073-6.982-.22a2.056,2.056,0,0,0-.22,2.49l2.124.488c1.147.293,1.416.488,1.416,1a25.428,25.428,0,0,1-1.929,5.273l-.635,1.416c-.708,1.562-1.416,2.978-2.124,4.492-.635-1.27-1.343-2.856-2-4.346l-2.148-4.883a5.68,5.68,0,0,1-.635-2.124c0-.488,1.074-.781,1.929-1l1.221-.293c.488-.366.562-2.27-.293-2.49-1.855.146-4.565.22-8.179.22-3.125,0-5.908-.073-8.96-.22-.781.293-.928,1.929-.22,2.49l.708.073c2.71.293,3.2.781,4.834,4.346l6.836,15.014a5.73,5.73,0,0,1,.439,1.929A12.872,12.872,0,0,1,648,46.7l-.928,2.075c-1.416,3.2-2.563,5.347-3.418,6.909-.854-1.709-1.562-3.2-3.564-7.617l-7.056-15.722c-2.2-4.98-3.711-8.325-3.711-8.838s.488-.854,1.782-1.074l1.27-.22c.708-.439.439-2.2-.146-2.49-2.71.146-5.493.22-8.618.22-3.638,0-6.616-.073-9.253-.22-.781.366-.854,1.782-.293,2.49l1.782.366c2.344.488,2.783.854,4.687,5.054L632.2,53.122c2.417,5.347,5.273,11.743,6.4,14.746a3.262,3.262,0,0,0,1.855.562,3.8,3.8,0,0,0,2.344-.562c1.147-2.344,1.929-4.419,2.978-6.689l3.345-7.251c.928-2,1.782-3.711,2.417-4.907.635,1.074,1.563,3.2,2.563,5.493l2.978,6.763c.854,2,1.929,4.565,2.71,6.274a3.174,3.174,0,0,0,1.929.562,4.3,4.3,0,0,0,2.344-.562c3.491-9.253,11.523-26.977,15.014-35.3a52.381,52.381,0,0,1,3.906-7.91,4.515,4.515,0,0,1,2.93-1.562l2.124-.488c.586-.635.513-2.222-.122-2.563Z" transform="translate(-472.051 -18.797)" fill="#fff"/>
  <path id="Path_2160" data-name="Path 2160" d="M902.337,62.088c2.612.1,5.029.146,7.349.146,2.27,0,4.663-.049,7.275-.146a1.294,1.294,0,0,1-.024.806l-1.221.22c-2.783.488-3,1.343-3,5.908V87.356c0,4.565.22,5.42,3,5.908l1.221.22a1.3,1.3,0,0,1-.024.806c-2.612-.1-5-.146-7.251-.146-2.319,0-4.712.049-7.324.146a1.293,1.293,0,0,1,.024-.806l1.221-.22c2.783-.488,3-1.343,3-5.908V69.022c0-4.565-.22-5.42-3-5.908l-1.221-.22a1.286,1.286,0,0,1-.024-.806m14.843-.488c-2.685.1-5.176.146-7.519.146-2.393,0-4.883-.049-7.568-.146a1.428,1.428,0,0,0,0,1.733l1.392.244c2.295.391,2.588.757,2.588,5.42V87.332c0,4.687-.293,5.029-2.588,5.42L902.093,93a1.428,1.428,0,0,0,0,1.733c2.685-.1,5.176-.146,7.568-.146,2.344,0,4.785.049,7.471.146A1.43,1.43,0,0,0,917.181,93l-1.392-.244c-2.295-.391-2.588-.757-2.588-5.42V69.022c0-4.687.293-5.029,2.588-5.42l1.392-.244A1.4,1.4,0,0,0,917.181,61.6Z" transform="translate(-689.817 -50.467)" fill="#fff"/>
  <path id="Path_2161" data-name="Path 2161" d="M1004.508,57.583a.754.754,0,0,1,.2.049,38.329,38.329,0,0,0-.684,8.179,1.657,1.657,0,0,1-.61.122.85.85,0,0,1-.317-.049c-.781-2.978-1.587-5.737-5.713-5.737H994.4c-1.465,0-1.831.391-1.831,1.929V84.047c0,4.541.244,5.444,2.978,5.81l1.782.22a1.416,1.416,0,0,1,0,.781c-3.223-.1-5.615-.146-7.715-.146-2.222,0-4.687.049-8.227.146a1.413,1.413,0,0,1,0-.781l2.051-.22c2.71-.293,2.979-1.294,2.979-5.81V62.075c0-1.294-.073-1.929-1.685-1.929h-3.1c-3.833,0-5.078,2.173-6.543,5.737a1.441,1.441,0,0,1-.342.049.852.852,0,0,1-.586-.2,43.2,43.2,0,0,0,1.318-6.567c.073-.562.146-1.074.22-1.514a.547.547,0,0,1,.244-.073.91.91,0,0,1,.293.049c.366,1.05,1.074,1.2,4.59,1.2h18.53c3.1,0,4.224,0,4.858-1.221.1,0,.171-.024.293-.024m0-.488a1.385,1.385,0,0,0-.659.146c-.439,1.05-1.2,1.1-4.492,1.1h-18.53c-3.784,0-3.931-.2-4.175-1.05a1.147,1.147,0,0,0-.708-.2,1.3,1.3,0,0,0-.708.244A59.03,59.03,0,0,1,973.6,65.81a1.2,1.2,0,0,0,1.123.61,1.382,1.382,0,0,0,.708-.171c1.489-3.638,2.539-5.64,6.177-5.64h3.1c1.2,0,1.2.244,1.2,1.44V84.023c0,4.639-.293,5.078-2.539,5.322l-2.246.244a1.428,1.428,0,0,0,0,1.733c3.491-.1,6.079-.146,8.471-.146,2.246,0,4.736.049,7.983.146a1.593,1.593,0,0,0,0-1.733l-2-.244c-2.246-.293-2.539-.708-2.539-5.322V62.05c0-1.294.146-1.44,1.343-1.44h2.978c3.735,0,4.443,2.344,5.273,5.542.1.171.415.244.757.244a1.423,1.423,0,0,0,1.1-.391,34.621,34.621,0,0,1,.757-8.569A.994.994,0,0,0,1004.508,57.094Z" transform="translate(-744.087 -47.06)" fill="#fff"/>
  <path id="Path_2162" data-name="Path 2162" d="M1135.194,62.088c2.71.1,5.029.146,7.349.146s4.565-.049,6.787-.146a1.221,1.221,0,0,1-.024.781l-.83.122c-2.759.415-3,1.343-3,5.908V87.43c0,4.541.22,5.371,3,5.859l1.025.171a1.488,1.488,0,0,1,.024.806c-2.393-.1-4.736-.146-6.982-.146-2.392,0-4.785.049-7.08.146a1.221,1.221,0,0,1,.024-.781l.9-.122c2.734-.366,2.954-1.294,2.954-5.908V80.276c0-.781,0-1.318-.464-1.636a3.917,3.917,0,0,0-2.124-.293h-10.376c-2.051,0-2.588.073-2.588,1.929v7.178c0,4.492.244,5.493,2.979,5.859l1.391.171a1.692,1.692,0,0,1,.024.781c-2.759-.1-5.176-.146-7.349-.146-2.319,0-4.736.049-7.178.146a1.414,1.414,0,0,1,0-.781l1-.122c2.734-.366,2.978-1.294,2.978-5.908V68.924c0-4.614-.244-5.566-2.978-5.908l-1-.122a1.694,1.694,0,0,1-.024-.781c2.319.1,4.809.146,7.178.146,2.246,0,4.614-.049,6.689-.146a1.221,1.221,0,0,1-.024.781l-.854.122c-2.563.366-2.808,1.367-2.808,5.908V74.71c0,.757,0,1.343.488,1.685.391.293.952.293,2.1.293h10.376a3.968,3.968,0,0,0,2.124-.293c.464-.342.464-.879.464-1.685V68.924c0-4.59-.22-5.444-2.954-5.859l-1.172-.171a1.294,1.294,0,0,1-.049-.806m14.355-.488c-2.295.1-4.59.146-7.031.146-2.393,0-4.834-.049-7.568-.146a1.428,1.428,0,0,0,0,1.733l1.343.2c2.295.342,2.539.757,2.539,5.371v5.786c0,1.44,0,1.489-2.1,1.489h-10.376c-2.051,0-2.1-.049-2.1-1.489V68.924c0-4.639.293-5.127,2.441-5.42l1.05-.146a1.428,1.428,0,0,0,0-1.733c-2.2.1-4.687.146-6.933.146-2.393,0-4.98-.049-7.422-.146a1.428,1.428,0,0,0,0,1.733l1.2.146c2.295.293,2.539.806,2.539,5.42v18.53c0,4.639-.244,5.127-2.539,5.42l-1.2.146a1.428,1.428,0,0,0,0,1.733c2.539-.1,5.029-.146,7.422-.146,2.246,0,4.736.049,7.568.146a1.428,1.428,0,0,0,0-1.733l-1.587-.2c-2.246-.293-2.539-.757-2.539-5.371V80.276c0-1.392.049-1.44,2.1-1.44h10.376c2.1,0,2.1.049,2.1,1.44v7.178c0,4.639-.244,5.127-2.539,5.42l-1.1.146a1.428,1.428,0,0,0,0,1.733q3.589-.146,7.324-.146c2.295,0,4.736.049,7.226.146a1.428,1.428,0,0,0,0-1.733l-1.2-.2c-2.295-.391-2.588-.757-2.588-5.371V68.924c0-4.639.293-5.078,2.588-5.42l1-.146A1.4,1.4,0,0,0,1149.55,61.6Z" transform="translate(-849.531 -50.467)" fill="#fff"/>
  <path id="Path_2163" data-name="Path 2163" d="M1297.462,153.688a5.305,5.305,0,0,1,5.273,5.42,5.1,5.1,0,0,1-5.273,5.273,5.347,5.347,0,0,1,0-10.693m0-.488a5.835,5.835,0,0,0,0,11.67,5.565,5.565,0,0,0,5.762-5.762A5.786,5.786,0,0,0,1297.462,153.2Z" transform="translate(-984.528 -119.704)" fill="#fff"/>
  <path id="Path_2164" data-name="Path 2164" d="M1369.262,153.688a5.1,5.1,0,0,1,3.808,1.66,5.627,5.627,0,0,1,1.465,3.76,5.1,5.1,0,0,1-5.273,5.273,5.347,5.347,0,0,1,0-10.693m0-.488a5.835,5.835,0,0,0,0,11.67,5.565,5.565,0,0,0,5.762-5.762A5.8,5.8,0,0,0,1369.262,153.2Z" transform="translate(-1038.799 -119.704)" fill="#fff"/>
  <path id="Path_2165" data-name="Path 2165" d="M1441.062,153.688a5.1,5.1,0,0,1,3.809,1.66,5.628,5.628,0,0,1,1.465,3.76,5.1,5.1,0,0,1-5.273,5.273,5.347,5.347,0,0,1,0-10.693m0-.488a5.835,5.835,0,0,0,0,11.67,5.565,5.565,0,0,0,5.762-5.762A5.817,5.817,0,0,0,1441.062,153.2Z" transform="translate(-1093.07 -119.704)" fill="#fff"/>
  <g id="Group_1129" data-name="Group 1129" transform="translate(308.329 17.015)" opacity="0.9">
    <path id="Path_2166" data-name="Path 2166" d="M1296.44,94.7V85.7h3.311a6.3,6.3,0,0,1,1.589.173,3.027,3.027,0,0,1,1.069.488,1.853,1.853,0,0,1,.6.767,2.588,2.588,0,0,1,.188,1.008,1.969,1.969,0,0,1-.085.583,1.71,1.71,0,0,1-.271.527,2.029,2.029,0,0,1-.476.449,3.073,3.073,0,0,1-.7.349,2.48,2.48,0,0,1,1.316.7,1.816,1.816,0,0,1,.427,1.245,2.574,2.574,0,0,1-.222,1.069,2.441,2.441,0,0,1-.652.862,3.089,3.089,0,0,1-1.059.574,4.605,4.605,0,0,1-1.44.208Zm2.09-5.217h1.089a3.583,3.583,0,0,0,.625-.049,1.3,1.3,0,0,0,.474-.173.794.794,0,0,0,.3-.339,1.276,1.276,0,0,0,.1-.544,1.536,1.536,0,0,0-.081-.535.767.767,0,0,0-.244-.344,1.038,1.038,0,0,0-.422-.186,2.911,2.911,0,0,0-.608-.056h-1.221Zm0,1.4v2.244h1.465a1.843,1.843,0,0,0,.676-.1,1.072,1.072,0,0,0,.41-.271.913.913,0,0,0,.205-.376,1.666,1.666,0,0,0,.056-.427,1.424,1.424,0,0,0-.066-.444.733.733,0,0,0-.222-.334,1.09,1.09,0,0,0-.418-.21,2.44,2.44,0,0,0-.654-.073Z" transform="translate(-1296.44 -85.696)" fill="#95c1e4"/>
    <path id="Path_2167" data-name="Path 2167" d="M1335.458,85.7v1.606h-3.7v2.1h2.832v1.545h-2.832V93.1h3.7V94.7h-5.8v-9Z" transform="translate(-1321.55 -85.699)" fill="#95c1e4"/>
    <path id="Path_2168" data-name="Path 2168" d="M1362.888,85.7v1.658h-2.534v7.349h-2.09V87.355h-2.534V85.7Z" transform="translate(-1341.255 -85.699)" fill="#95c1e4"/>
    <path id="Path_2169" data-name="Path 2169" d="M1390.694,94.706h-1.619a.747.747,0,0,1-.449-.127.652.652,0,0,1-.244-.325l-.532-1.57h-3.418l-.532,1.57a.715.715,0,0,1-.679.452h-1.631l3.486-9.006h2.139Zm-5.786-3.442h2.461l-.828-2.466-.188-.554q-.107-.317-.212-.688-.1.376-.2.7t-.2.557Z" transform="translate(-1360.802 -85.699)" fill="#95c1e4"/>
  </g>
</svg>
