<svg xmlns="http://www.w3.org/2000/svg" xmlns:xlink="http://www.w3.org/1999/xlink" width="301.277" height="297.342" viewBox="0 0 301.277 297.342">
  <defs>
    <clipPath id="clip-path">
      <ellipse id="Ellipse_201" data-name="Ellipse 201" cx="61.609" cy="55.308" rx="61.609" ry="55.308"/>
    </clipPath>
    <clipPath id="clip-path-2">
      <path id="Path_424" data-name="Path 424" d="M11.9,0S-.01,16.034,0,22.913a11.938,11.938,0,0,0,23.876.035C23.866,16.069,11.9,0,11.9,0Z" clip-rule="evenodd"/>
    </clipPath>
  </defs>
  <g id="flying_dove_detail_2" transform="translate(0 -15.254)">
    <g id="Group_608" data-name="Group 608" transform="translate(0 133.99)">
      <ellipse id="Ellipse_199" data-name="Ellipse 199" cx="89.009" cy="89.303" rx="89.009" ry="89.303" transform="translate(0 0)" fill="#fff"/>
    </g>
    <g id="Group_641" data-name="Group 641" transform="matrix(0.995, 0.105, -0.105, 0.995, 67.534, 0.006)">
      <g id="Group_640" data-name="Group 640" transform="translate(0 0)">
        <g id="Group_614" data-name="Group 614" transform="translate(26.126 0)">
          <g id="Group_609" data-name="Group 609" transform="matrix(0.585, 0.811, -0.811, 0.585, 97.306, 71.924)">
            <path id="Path_405" data-name="Path 405" d="M132.463.189A66.058,66.058,0,0,1,66.321,63.2,66.523,66.523,0,0,1,0,0Z" transform="translate(0 0)" fill="#ad9d39" fill-rule="evenodd"/>
          </g>
          <g id="Group_613" data-name="Group 613" transform="matrix(0.79, 0.613, -0.613, 0.79, 97.753, 0)">
            <g id="Group_610" data-name="Group 610" transform="translate(0 6.5)">
              <path id="Path_406" data-name="Path 406" d="M23.029,23.386c-5.155-2.356-9.8-4.6-13.6-6.619A9.051,9.051,0,0,1,5.607,4.746,8.628,8.628,0,0,1,17.4,1.028C42.655,14.453,97.594,53.646,97.594,53.646s-4.861-1.813-12.425-4.719q1.057,1.161,2.071,2.468c5.954,2.791,9.656,4.569,9.656,4.569s-2.759-.477-7.363-1.309q.542.849,1.057,1.739l.192.335c4.624,1.269,7.4,2.052,7.4,2.052s-2.336.009-6.3,0q.472.938.887,1.873c4.478.418,7.144.685,7.144.685s-2.37.423-6.392,1.114q.338.864.627,1.716c4.923-.395,7.894-.61,7.894-.61s-2.725,1-7.267,2.636q.216.775.389,1.534c5.76-1.472,9.343-2.351,9.343-2.351s-3.388,1.995-8.838,5.133c.056.43.1.855.137,1.272,6.919-3.089,11.431-5.038,11.431-5.038s-4.617,3.978-11.579,9.812c-.047.282-.1.559-.165.828,8.614-5.82,14.661-9.765,14.661-9.765s-5.7,6.964-13.712,16.394c9.545-9.3,16.729-16.038,16.729-16.038s-4.551,7.963-11.016,18.819C110.117,75.832,116.2,67.8,116.2,67.8s-3,8.227-7.362,19.591C114.671,75.679,119.153,67.1,119.153,67.1s-1.433,7.941-3.639,19.089c3.62-11.744,6.436-20.289,6.436-20.289s-.048,7.348-.291,17.836c1.56-11.329,2.846-19.5,2.846-19.5s1.082,6.486,2.5,15.91c-.236-10.489-.26-18-.26-18s1.846,5.212,4.46,12.981c-1.6-9.027-2.6-15.429-2.6-15.429s23.7,41.13,30.361,60.035a8.828,8.828,0,0,1-5.271,11.2,8.553,8.553,0,0,1-6.259-.139q.161.839.3,1.636a8.737,8.737,0,0,1-7.062,10.083,8.617,8.617,0,0,1-7.123-1.935v.123a8.669,8.669,0,0,1-15.841,4.9,8.581,8.581,0,0,1-9.913,6.8,8.8,8.8,0,0,1-6.718-5.589c-.034.1-.068.2-.1.3a8.536,8.536,0,0,1-11.008,5.271,8.892,8.892,0,0,1-5.8-7.419l-.02.036a8.518,8.518,0,0,1-11.753,3.325,8.971,8.971,0,0,1-4.419-8.921,8.527,8.527,0,0,1-11.846.886,9.021,9.021,0,0,1-2.569-10.369,8.573,8.573,0,0,1-10.428-2.077,9.045,9.045,0,0,1-1.338-9.656,8.634,8.634,0,0,1-11.948-2.933,9.041,9.041,0,0,1,.644-10.209q-1.336.577-2.572,1.08A8.714,8.714,0,0,1,16.5,101.211,9,9,0,0,1,20.251,90.23c-1.457.358-2.848.681-4.157.963A8.806,8.806,0,0,1,5.615,84.382,8.934,8.934,0,0,1,12.453,73.83q.983-.213,2.035-.423c-1.83.128-3.552.225-5.151.286A8.874,8.874,0,0,1,8.63,55.96c1.045-.04,2.143-.069,3.288-.088-1.475-.16-2.87-.33-4.178-.509a8.968,8.968,0,0,1-7.667-10,8.779,8.779,0,0,1,9.913-7.593q1.123.154,2.319.338c-1.612-.464-3.129-.922-4.537-1.373A9.025,9.025,0,0,1,1.893,25.57,8.7,8.7,0,0,1,12.9,19.8C15.9,20.762,19.318,21.98,23.029,23.386ZM62.689,40.124q2.6,1.166,5.107,2.3c.082-.06.165-.119.251-.174Q65.423,41.215,62.689,40.124Z" transform="translate(0 0)" fill="#8a7f3d" fill-rule="evenodd"/>
            </g>
            <g id="Group_611" data-name="Group 611" transform="translate(21.484 18.309)">
              <path id="Path_407" data-name="Path 407" d="M106.787,53.543c-.443-2.673-.693-4.269-.693-4.269S125.621,83.125,131.1,98.687a7.345,7.345,0,0,1-4.307,9.354,6.989,6.989,0,0,1-5.166-.141q.12.631.224,1.229a7.283,7.283,0,0,1-5.8,8.466,7.054,7.054,0,0,1-5.876-1.642,7.217,7.217,0,0,1-7.125,7.319,7.138,7.138,0,0,1-5.935-3.193,7.148,7.148,0,0,1-8.185,5.672,7.236,7.236,0,0,1-5.523-4.667l-.062.183a7.1,7.1,0,0,1-9.122,4.465,7.33,7.33,0,0,1-4.761-6.166l0,0a7.066,7.066,0,0,1-9.735,2.816A7.4,7.4,0,0,1,56.106,115a7.049,7.049,0,0,1-9.8.759A7.448,7.448,0,0,1,44.2,107.2a7.068,7.068,0,0,1-8.608-1.714,7.463,7.463,0,0,1-1.113-7.961A7.087,7.087,0,0,1,24.627,95.1a7.457,7.457,0,0,1,.5-8.414q-1.142.495-2.2.926a7.134,7.134,0,0,1-9.314-4.1,7.388,7.388,0,0,1,3.058-9.054c-1.243.306-2.424.58-3.534.82a7.192,7.192,0,0,1-8.5-5.649,7.3,7.3,0,0,1,5.5-8.674q.9-.195,1.876-.388c-1.586.112-3.08.2-4.462.25A7.322,7.322,0,0,1,6.963,46.2c.926-.035,1.9-.061,2.931-.076-1.292-.139-2.516-.287-3.659-.443A7.323,7.323,0,0,1,.061,37.45a7.167,7.167,0,0,1,8.026-6.285q1.018.14,2.114.309c-1.394-.4-2.7-.794-3.917-1.182a7.377,7.377,0,0,1-4.722-9.173,7.111,7.111,0,0,1,8.957-4.8c2.545.813,5.463,1.855,8.629,3.058C14.8,17.4,10.889,15.507,7.7,13.812A7.42,7.42,0,0,1,4.625,3.939,7.072,7.072,0,0,1,14.273.828C20.591,4.186,29.158,9.5,38.033,15.269c-2.57-1.544-4.945-2.908-7.018-4.01a5.691,5.691,0,0,0-7.765,2.5,5.972,5.972,0,0,0,2.474,7.946c2.567,1.365,5.719,2.885,9.214,4.481-2.548-.967-4.9-1.806-6.944-2.461a5.724,5.724,0,0,0-7.209,3.861,5.939,5.939,0,0,0,3.8,7.383c.976.312,2.031.63,3.153.951q-.884-.137-1.7-.249a5.768,5.768,0,0,0-6.46,5.057,5.894,5.894,0,0,0,4.969,6.621c.92.126,1.9.244,2.945.356q-1.239.019-2.359.062A5.893,5.893,0,0,0,25.6,59.545c1.112-.043,2.315-.111,3.59-.2-.52.1-1.024.207-1.509.312a5.874,5.874,0,0,0-4.426,6.982A5.79,5.79,0,0,0,30.1,71.184c.893-.193,1.843-.414,2.844-.66a5.944,5.944,0,0,0-2.46,7.286,5.74,5.74,0,0,0,7.495,3.3q.851-.347,1.771-.745a6,6,0,0,0-.4,6.77,5.7,5.7,0,0,0,7.926,1.952,6.007,6.007,0,0,0,.9,6.407A5.689,5.689,0,0,0,55.1,96.871a6,6,0,0,0,1.7,6.884,5.672,5.672,0,0,0,7.883-.611A5.961,5.961,0,0,0,67.6,109.09a5.688,5.688,0,0,0,7.835-2.267l0,0a5.9,5.9,0,0,0,3.831,4.963,5.717,5.717,0,0,0,7.341-3.594l.05-.147A5.822,5.822,0,0,0,91.1,111.8a5.752,5.752,0,0,0,6.587-4.565,5.749,5.749,0,0,0,4.777,2.571,5.808,5.808,0,0,0,5.733-5.891,5.678,5.678,0,0,0,4.73,1.321,5.861,5.861,0,0,0,4.668-6.813q-.084-.481-.18-.99a5.623,5.623,0,0,0,4.157.114,5.911,5.911,0,0,0,3.466-7.528C121.567,80.156,111.088,61.172,106.787,53.543ZM89.871,63.983c3.617-4.9,5.989-8.027,5.989-8.027s-.19.523-.542,1.479c-1.612,2.151-4.515,6.051-7.946,10.771C88.266,66.7,89.1,65.287,89.871,63.983Zm2.756,2.468c3.353-6.638,5.672-11.07,5.672-11.07s-.042.233-.123.674c-.978,1.885-3.408,6.595-6.362,12.523Q92.233,67.483,92.627,66.451Zm-4.886-5.02c3.453-3.3,5.618-5.333,5.618-5.333s-.393.689-1.107,1.924c-2,1.9-5.093,4.858-8.692,8.364C85.1,64.573,86.514,62.9,87.741,61.431ZM85.582,59.3c3.281-2.184,5.289-3.494,5.289-3.494s-.57.7-1.591,1.93C87,59.251,83.724,61.439,79.967,64,82.076,62.247,83.981,60.65,85.582,59.3Zm14.912-4.565c.073-.225.112-.342.112-.342s-.026,4.243-.15,10.693l-.147,1.052C100.441,60.33,100.483,55.985,100.494,54.734ZM82.77,57.582c3.541-1.567,5.695-2.5,5.695-2.5s-.715.616-1.992,1.706C83.741,58,79.894,59.714,75.523,61.712,78.255,60.17,80.721,58.761,82.77,57.582Zm19.671-2.807c.173-1.134.271-1.76.271-1.76s.416,2.487,1.052,6.531c.021,1.291.049,2.706.082,4.214C103.242,59.749,102.73,56.546,102.442,54.775ZM79.2,55.721c4.344-1.108,7.013-1.764,7.013-1.764s-.794.468-2.217,1.3c-3.351.852-8.152,2.092-13.562,3.547C73.7,57.67,76.679,56.618,79.2,55.721Zm25.384-1.259c-.02-2.011-.023-3.168-.023-3.168s.36,1.014.977,2.792c.283,1.7.653,3.881,1.091,6.362C105.806,58.007,105.1,55.949,104.584,54.462ZM75.115,53.17c5.565-.46,9.064-.714,9.064-.714s-.737.271-2.07.755c-3.841.309-9.5.786-15.861,1.392C69.464,54.1,72.47,53.608,75.115,53.17Zm-4.029-3.6c6.88.612,11.337,1.058,11.337,1.058s-.495.088-1.409.248c-3.868-.359-9.724-.88-16.349-1.4C66.921,49.513,69.079,49.543,71.085,49.566Zm9.586-1.05c-3.7-1.016-9.606-2.619-16.357-4.365q1.247.242,2.451.473c8.478,2.269,14.229,3.892,14.229,3.892Z" transform="translate(0 0)" fill="#a7983f" fill-rule="evenodd"/>
            </g>
            <g id="Group_612" data-name="Group 612" transform="translate(3.321 0)">
              <path id="Path_408" data-name="Path 408" d="M124.637,79.833S54.974,21.507,22,2.049A14.492,14.492,0,0,0,1.92,7.414,15.236,15.236,0,0,0,7.459,27.9C40.432,47.358,124.637,79.833,124.637,79.833Z" transform="translate(0 0)" fill="#8a7f3d" fill-rule="evenodd"/>
            </g>
          </g>
        </g>
        <g id="Group_617" data-name="Group 617" transform="translate(79.832 118.247)">
          <ellipse id="Ellipse_200" data-name="Ellipse 200" cx="61.609" cy="55.308" rx="61.609" ry="55.308" transform="translate(0 0)" fill="#e5c601"/>
          <g id="Group_616" data-name="Group 616" transform="translate(0 0)" clip-path="url(#clip-path)">
            <g id="Group_615" data-name="Group 615" transform="translate(4.558 -12.876)">
              <path id="Path_409" data-name="Path 409" d="M137.965,75.106A74.767,74.767,0,0,1,37.472,99.587,75.35,75.35,0,0,1,8.349,0Z" transform="translate(0 0)" fill="#cab21c" fill-rule="evenodd"/>
            </g>
          </g>
        </g>
        <g id="Group_620" data-name="Group 620" transform="translate(45.883 146.975) rotate(9)">
          <g id="Group_618" data-name="Group 618" transform="matrix(0.209, -0.978, 0.978, 0.209, 0.928, 71.526)">
            <path id="Path_410" data-name="Path 410" d="M36.523,55.55C44.3-4.039,59.7-4.06,67.387,3.366s7.669,22.3-.05,37.181C61.933,51.709,48.059,62.882,36.5,70.333,24.963,62.913,11.12,51.777,5.745,40.63-1.933,25.767-1.913,10.895,5.8,3.448S28.9-4.019,36.523,55.55Z" transform="translate(0 0)" fill="#e5c601" fill-rule="evenodd"/>
          </g>
          <g id="Group_619" data-name="Group 619" transform="matrix(-0.259, -0.966, 0.966, -0.259, 18.943, 101.13)">
            <path id="Path_411" data-name="Path 411" d="M36.6,55.481C44.3-4.058,59.707-4.058,67.411,3.373s7.7,22.294,0,37.156C62.018,51.676,48.15,62.823,36.6,70.254,25.039,62.823,11.171,51.676,5.778,40.529c-7.7-14.862-7.7-29.725,0-37.156S28.892-4.058,36.6,55.481Z" transform="translate(0 0)" fill="#e5c601" fill-rule="evenodd"/>
          </g>
        </g>
        <g id="Group_624" data-name="Group 624" transform="matrix(0.999, -0.035, 0.035, 0.999, 0, 50.827)">
          <g id="Group_621" data-name="Group 621" transform="translate(19.016 10.683) rotate(7.826)">
            <path id="Path_412" data-name="Path 412" d="M21.218,21.833C15.616,20.2,10.549,18.606,6.4,17.121A8.809,8.809,0,0,1,12.281.514C29.115,6.535,58.733,20.723,78.82,30.64l.652-1.234,43.412,23.126c.26-.71.4-1.091.4-1.091s-.021.444-.061,1.272l1.977,1.053c.458-2.477.728-3.9.728-3.9s.219,1.684.575,4.589l1.629.869c.067-4.628.135-7.456.135-7.456s1.088,3.467,2.755,8.995l.967.515c-1.1-7.154-1.756-11.878-1.756-11.878s2.537,4.848,6.184,12.1c-2.8-8.63-4.648-14.765-4.648-14.765S161,79.944,170.191,97.592a8.824,8.824,0,0,1-3.719,11.891,8.734,8.734,0,0,1-6.3.7q.248.732.472,1.43a8.784,8.784,0,0,1-13.088,10.115,8.781,8.781,0,0,1-15.209,7.129,8.78,8.78,0,0,1-16.5,3.514l-.046.229a8.784,8.784,0,0,1-17.152.313l0,.005a8.79,8.79,0,0,1-16.982-3.2,8.8,8.8,0,0,1-15.742-7.291,8.808,8.808,0,0,1-13.389-9.907A8.81,8.81,0,0,1,39.41,101.162q-1.309.783-2.525,1.476A8.815,8.815,0,0,1,27.147,88c-1.461.575-2.853,1.1-4.163,1.576a8.817,8.817,0,0,1-5.978-16.589q1.068-.386,2.217-.78c-1.909.4-3.712.756-5.384,1.052a8.817,8.817,0,0,1-3.084-17.363q1.681-.3,3.551-.585c-1.593.051-3.105.082-4.52.088a8.816,8.816,0,0,1-.1-17.632q1.259-.006,2.62.012c-1.759-.241-3.417-.492-4.954-.75a8.813,8.813,0,0,1,2.882-17.389C13.458,20.182,17.174,20.932,21.218,21.833ZM69.213,42.308q1.645.182,3.247.365l.105-.2Q70.917,42.4,69.213,42.308Zm-6.456-9.643c4.553,1.3,8.941,2.568,13,3.761l.32-.606C71.93,34.853,67.432,33.792,62.757,32.665Z" transform="translate(0 0)" fill="#ad9d39" fill-rule="evenodd"/>
          </g>
          <g id="Group_622" data-name="Group 622" transform="translate(39.799 22.636) rotate(7.826)">
            <path id="Path_413" data-name="Path 413" d="M121.336,51.957C128.4,61.529,136.542,73.1,140.4,80.509a7.281,7.281,0,0,1-3.068,9.81,7.2,7.2,0,0,1-5.2.58q.2.6.389,1.179a7.246,7.246,0,0,1-10.8,8.345,7.244,7.244,0,0,1-12.546,5.881,7.243,7.243,0,0,1-13.613,2.9l-.038.189a7.247,7.247,0,0,1-14.15.257l0,0a7.252,7.252,0,0,1-14.009-2.642A7.258,7.258,0,0,1,54.382,101a7.267,7.267,0,0,1-11.046-8.173,7.267,7.267,0,0,1-10.824-9.37q-1.08.646-2.083,1.217A7.272,7.272,0,0,1,22.395,72.6c-1.206.474-2.354.909-3.434,1.3a7.274,7.274,0,0,1-4.931-13.686q.881-.318,1.829-.643c-1.575.332-3.062.624-4.442.868A7.274,7.274,0,0,1,8.873,46.111q1.387-.247,2.929-.483c-1.315.042-2.562.067-3.729.073a7.273,7.273,0,0,1-.085-14.545q1.038,0,2.161.01c-1.451-.2-2.818-.406-4.087-.618A7.271,7.271,0,0,1,8.441,16.2c2.661.447,5.727,1.067,9.063,1.81-4.621-1.348-8.8-2.662-12.228-3.888A7.267,7.267,0,0,1,10.131.424c6.786,2.427,16.089,6.462,25.762,10.91-2.785-1.163-5.348-2.174-7.575-2.971A5.849,5.849,0,0,0,24.412,19.39c2.757.986,6.121,2.044,9.84,3.128-2.684-.6-5.152-1.1-7.294-1.456a5.851,5.851,0,0,0-1.914,11.545c1.02.171,2.121.337,3.289.5q-.9-.012-1.739-.009A5.853,5.853,0,0,0,26.662,44.8c.94,0,1.943-.025,3-.059q-1.239.192-2.358.389A5.854,5.854,0,0,0,29.354,56.66c1.11-.2,2.307-.432,3.575-.7q-.762.262-1.472.518a5.854,5.854,0,0,0,3.968,11.015c.87-.315,1.794-.665,2.764-1.046a5.853,5.853,0,0,0,6.466,9.719q.806-.459,1.676-.98a5.849,5.849,0,0,0,8.712,7.541A5.848,5.848,0,0,0,63.931,89.3a5.842,5.842,0,0,0,10.452,4.841,5.836,5.836,0,0,0,11.274,2.126l0,0a5.832,5.832,0,0,0,11.388-.208l.03-.152a5.83,5.83,0,0,0,10.956-2.333,5.83,5.83,0,0,0,10.1-4.733,5.832,5.832,0,0,0,8.689-6.716c-.1-.308-.2-.625-.314-.949a5.792,5.792,0,0,0,4.184-.467,5.859,5.859,0,0,0,2.47-7.895c-2.591-4.976-7.582-12.282-12.466-19.04Q121.051,52.881,121.336,51.957Z" transform="translate(0 0)" fill="#cab21c" fill-rule="evenodd"/>
          </g>
          <g id="Group_623" data-name="Group 623" transform="matrix(-0.499, 0.866, -0.866, -0.499, 150.551, 71.598)">
            <path id="Path_414" data-name="Path 414" d="M15.019,0S.059,90.048,0,128.63a14.822,14.822,0,0,0,29.645-.045C29.7,90,15.019,0,15.019,0Z" transform="translate(0 0)" fill="#ad9d39" fill-rule="evenodd"/>
          </g>
        </g>
        <g id="Group_625" data-name="Group 625" transform="translate(138.538 87.34)">
          <ellipse id="Ellipse_202" data-name="Ellipse 202" cx="46.22" cy="46.37" rx="46.22" ry="46.37" transform="translate(0 0)" fill="#e5c601"/>
        </g>
        <g id="Group_626" data-name="Group 626" transform="translate(143.432 109.246) rotate(7.825)">
          <path id="Path_415" data-name="Path 415" d="M0,31.811A33.21,33.21,0,1,1,43.552,64.949,46.387,46.387,0,0,1,0,31.811Z" transform="translate(0 0)" fill="#ead75b" fill-rule="evenodd"/>
        </g>
        <g id="Group_639" data-name="Group 639" transform="matrix(0.602, 0.799, -0.799, 0.602, 229.141, 93.753)">
          <path id="Path_423" data-name="Path 423" d="M11.9,0S-.01,16.034,0,22.913a11.938,11.938,0,0,0,23.876.035C23.866,16.069,11.9,0,11.9,0Z" transform="translate(0 0)" fill="#3b3300" fill-rule="evenodd"/>
          <g id="Group_638" data-name="Group 638" transform="translate(0 0)" clip-path="url(#clip-path-2)">
            <g id="Group_637" data-name="Group 637" transform="translate(11.444 -8.814)">
              <path id="Path_1316" data-name="Path 1316" d="M.058.07,46.574,0l-.058,38.76L0,38.83Z" transform="matrix(-0.125, -0.992, 0.992, -0.125, 5.817, 51.059)" fill="#2c2600"/>
            </g>
          </g>
        </g>
      </g>
    </g>
  </g>
</svg>
